G04 #@! TF.GenerationSoftware,KiCad,Pcbnew,(5.1.2)-1*
G04 #@! TF.CreationDate,2020-03-30T00:08:58+09:00*
G04 #@! TF.ProjectId,L298N_DRIVER,4c323938-4e5f-4445-9249-5645522e6b69,rev?*
G04 #@! TF.SameCoordinates,Original*
G04 #@! TF.FileFunction,Soldermask,Bot*
G04 #@! TF.FilePolarity,Negative*
%FSLAX46Y46*%
G04 Gerber Fmt 4.6, Leading zero omitted, Abs format (unit mm)*
G04 Created by KiCad (PCBNEW (5.1.2)-1) date 2020-03-30 00:08:58*
%MOMM*%
%LPD*%
G04 APERTURE LIST*
%ADD10C,0.100000*%
G04 APERTURE END LIST*
D10*
G36*
X181346189Y-81210483D02*
G01*
X181346192Y-81210484D01*
X181346191Y-81210484D01*
X181874139Y-81429167D01*
X182349280Y-81746646D01*
X182753354Y-82150720D01*
X183070833Y-82625861D01*
X183070834Y-82625863D01*
X183289517Y-83153811D01*
X183401000Y-83714275D01*
X183401000Y-84285725D01*
X183289517Y-84846189D01*
X183070834Y-85374137D01*
X183070833Y-85374139D01*
X182753354Y-85849280D01*
X182349280Y-86253354D01*
X181874139Y-86570833D01*
X181874138Y-86570834D01*
X181874137Y-86570834D01*
X181346189Y-86789517D01*
X180785725Y-86901000D01*
X180214275Y-86901000D01*
X179653811Y-86789517D01*
X179125863Y-86570834D01*
X179125862Y-86570834D01*
X179125861Y-86570833D01*
X178650720Y-86253354D01*
X178246646Y-85849280D01*
X177929167Y-85374139D01*
X177929166Y-85374137D01*
X177710483Y-84846189D01*
X177599000Y-84285725D01*
X177599000Y-83714275D01*
X177710483Y-83153811D01*
X177929166Y-82625863D01*
X177929167Y-82625861D01*
X178246646Y-82150720D01*
X178650720Y-81746646D01*
X179125861Y-81429167D01*
X179653809Y-81210484D01*
X179653808Y-81210484D01*
X179653811Y-81210483D01*
X180214275Y-81099000D01*
X180785725Y-81099000D01*
X181346189Y-81210483D01*
X181346189Y-81210483D01*
G37*
G36*
X123346189Y-81210483D02*
G01*
X123346192Y-81210484D01*
X123346191Y-81210484D01*
X123874139Y-81429167D01*
X124349280Y-81746646D01*
X124753354Y-82150720D01*
X125070833Y-82625861D01*
X125070834Y-82625863D01*
X125289517Y-83153811D01*
X125401000Y-83714275D01*
X125401000Y-84285725D01*
X125289517Y-84846189D01*
X125070834Y-85374137D01*
X125070833Y-85374139D01*
X124753354Y-85849280D01*
X124349280Y-86253354D01*
X123874139Y-86570833D01*
X123874138Y-86570834D01*
X123874137Y-86570834D01*
X123346189Y-86789517D01*
X122785725Y-86901000D01*
X122214275Y-86901000D01*
X121653811Y-86789517D01*
X121125863Y-86570834D01*
X121125862Y-86570834D01*
X121125861Y-86570833D01*
X120650720Y-86253354D01*
X120246646Y-85849280D01*
X119929167Y-85374139D01*
X119929166Y-85374137D01*
X119710483Y-84846189D01*
X119599000Y-84285725D01*
X119599000Y-83714275D01*
X119710483Y-83153811D01*
X119929166Y-82625863D01*
X119929167Y-82625861D01*
X120246646Y-82150720D01*
X120650720Y-81746646D01*
X121125861Y-81429167D01*
X121653809Y-81210484D01*
X121653808Y-81210484D01*
X121653811Y-81210483D01*
X122214275Y-81099000D01*
X122785725Y-81099000D01*
X123346189Y-81210483D01*
X123346189Y-81210483D01*
G37*
G36*
X133968142Y-84054242D02*
G01*
X134116101Y-84115529D01*
X134249255Y-84204499D01*
X134362501Y-84317745D01*
X134451471Y-84450899D01*
X134512758Y-84598858D01*
X134544000Y-84755925D01*
X134544000Y-84916075D01*
X134512758Y-85073142D01*
X134451471Y-85221101D01*
X134362501Y-85354255D01*
X134249255Y-85467501D01*
X134116101Y-85556471D01*
X133968142Y-85617758D01*
X133811075Y-85649000D01*
X133650925Y-85649000D01*
X133493858Y-85617758D01*
X133345899Y-85556471D01*
X133212745Y-85467501D01*
X133099499Y-85354255D01*
X133010529Y-85221101D01*
X132949242Y-85073142D01*
X132918000Y-84916075D01*
X132918000Y-84755925D01*
X132949242Y-84598858D01*
X133010529Y-84450899D01*
X133099499Y-84317745D01*
X133212745Y-84204499D01*
X133345899Y-84115529D01*
X133493858Y-84054242D01*
X133650925Y-84023000D01*
X133811075Y-84023000D01*
X133968142Y-84054242D01*
X133968142Y-84054242D01*
G37*
G36*
X131428142Y-84054242D02*
G01*
X131576101Y-84115529D01*
X131709255Y-84204499D01*
X131822501Y-84317745D01*
X131911471Y-84450899D01*
X131972758Y-84598858D01*
X132004000Y-84755925D01*
X132004000Y-84916075D01*
X131972758Y-85073142D01*
X131911471Y-85221101D01*
X131822501Y-85354255D01*
X131709255Y-85467501D01*
X131576101Y-85556471D01*
X131428142Y-85617758D01*
X131271075Y-85649000D01*
X131110925Y-85649000D01*
X130953858Y-85617758D01*
X130805899Y-85556471D01*
X130672745Y-85467501D01*
X130559499Y-85354255D01*
X130470529Y-85221101D01*
X130409242Y-85073142D01*
X130378000Y-84916075D01*
X130378000Y-84755925D01*
X130409242Y-84598858D01*
X130470529Y-84450899D01*
X130559499Y-84317745D01*
X130672745Y-84204499D01*
X130805899Y-84115529D01*
X130953858Y-84054242D01*
X131110925Y-84023000D01*
X131271075Y-84023000D01*
X131428142Y-84054242D01*
X131428142Y-84054242D01*
G37*
G36*
X136508142Y-84054242D02*
G01*
X136656101Y-84115529D01*
X136789255Y-84204499D01*
X136902501Y-84317745D01*
X136991471Y-84450899D01*
X137052758Y-84598858D01*
X137084000Y-84755925D01*
X137084000Y-84916075D01*
X137052758Y-85073142D01*
X136991471Y-85221101D01*
X136902501Y-85354255D01*
X136789255Y-85467501D01*
X136656101Y-85556471D01*
X136508142Y-85617758D01*
X136351075Y-85649000D01*
X136190925Y-85649000D01*
X136033858Y-85617758D01*
X135885899Y-85556471D01*
X135752745Y-85467501D01*
X135639499Y-85354255D01*
X135550529Y-85221101D01*
X135489242Y-85073142D01*
X135458000Y-84916075D01*
X135458000Y-84755925D01*
X135489242Y-84598858D01*
X135550529Y-84450899D01*
X135639499Y-84317745D01*
X135752745Y-84204499D01*
X135885899Y-84115529D01*
X136033858Y-84054242D01*
X136190925Y-84023000D01*
X136351075Y-84023000D01*
X136508142Y-84054242D01*
X136508142Y-84054242D01*
G37*
G36*
X139048142Y-84054242D02*
G01*
X139196101Y-84115529D01*
X139329255Y-84204499D01*
X139442501Y-84317745D01*
X139531471Y-84450899D01*
X139592758Y-84598858D01*
X139624000Y-84755925D01*
X139624000Y-84916075D01*
X139592758Y-85073142D01*
X139531471Y-85221101D01*
X139442501Y-85354255D01*
X139329255Y-85467501D01*
X139196101Y-85556471D01*
X139048142Y-85617758D01*
X138891075Y-85649000D01*
X138730925Y-85649000D01*
X138573858Y-85617758D01*
X138425899Y-85556471D01*
X138292745Y-85467501D01*
X138179499Y-85354255D01*
X138090529Y-85221101D01*
X138029242Y-85073142D01*
X137998000Y-84916075D01*
X137998000Y-84755925D01*
X138029242Y-84598858D01*
X138090529Y-84450899D01*
X138179499Y-84317745D01*
X138292745Y-84204499D01*
X138425899Y-84115529D01*
X138573858Y-84054242D01*
X138730925Y-84023000D01*
X138891075Y-84023000D01*
X139048142Y-84054242D01*
X139048142Y-84054242D01*
G37*
G36*
X141588142Y-84054242D02*
G01*
X141736101Y-84115529D01*
X141869255Y-84204499D01*
X141982501Y-84317745D01*
X142071471Y-84450899D01*
X142132758Y-84598858D01*
X142164000Y-84755925D01*
X142164000Y-84916075D01*
X142132758Y-85073142D01*
X142071471Y-85221101D01*
X141982501Y-85354255D01*
X141869255Y-85467501D01*
X141736101Y-85556471D01*
X141588142Y-85617758D01*
X141431075Y-85649000D01*
X141270925Y-85649000D01*
X141113858Y-85617758D01*
X140965899Y-85556471D01*
X140832745Y-85467501D01*
X140719499Y-85354255D01*
X140630529Y-85221101D01*
X140569242Y-85073142D01*
X140538000Y-84916075D01*
X140538000Y-84755925D01*
X140569242Y-84598858D01*
X140630529Y-84450899D01*
X140719499Y-84317745D01*
X140832745Y-84204499D01*
X140965899Y-84115529D01*
X141113858Y-84054242D01*
X141270925Y-84023000D01*
X141431075Y-84023000D01*
X141588142Y-84054242D01*
X141588142Y-84054242D01*
G37*
G36*
X144128142Y-84054242D02*
G01*
X144276101Y-84115529D01*
X144409255Y-84204499D01*
X144522501Y-84317745D01*
X144611471Y-84450899D01*
X144672758Y-84598858D01*
X144704000Y-84755925D01*
X144704000Y-84916075D01*
X144672758Y-85073142D01*
X144611471Y-85221101D01*
X144522501Y-85354255D01*
X144409255Y-85467501D01*
X144276101Y-85556471D01*
X144128142Y-85617758D01*
X143971075Y-85649000D01*
X143810925Y-85649000D01*
X143653858Y-85617758D01*
X143505899Y-85556471D01*
X143372745Y-85467501D01*
X143259499Y-85354255D01*
X143170529Y-85221101D01*
X143109242Y-85073142D01*
X143078000Y-84916075D01*
X143078000Y-84755925D01*
X143109242Y-84598858D01*
X143170529Y-84450899D01*
X143259499Y-84317745D01*
X143372745Y-84204499D01*
X143505899Y-84115529D01*
X143653858Y-84054242D01*
X143810925Y-84023000D01*
X143971075Y-84023000D01*
X144128142Y-84054242D01*
X144128142Y-84054242D01*
G37*
G36*
X146668142Y-84054242D02*
G01*
X146816101Y-84115529D01*
X146949255Y-84204499D01*
X147062501Y-84317745D01*
X147151471Y-84450899D01*
X147212758Y-84598858D01*
X147244000Y-84755925D01*
X147244000Y-84916075D01*
X147212758Y-85073142D01*
X147151471Y-85221101D01*
X147062501Y-85354255D01*
X146949255Y-85467501D01*
X146816101Y-85556471D01*
X146668142Y-85617758D01*
X146511075Y-85649000D01*
X146350925Y-85649000D01*
X146193858Y-85617758D01*
X146045899Y-85556471D01*
X145912745Y-85467501D01*
X145799499Y-85354255D01*
X145710529Y-85221101D01*
X145649242Y-85073142D01*
X145618000Y-84916075D01*
X145618000Y-84755925D01*
X145649242Y-84598858D01*
X145710529Y-84450899D01*
X145799499Y-84317745D01*
X145912745Y-84204499D01*
X146045899Y-84115529D01*
X146193858Y-84054242D01*
X146350925Y-84023000D01*
X146511075Y-84023000D01*
X146668142Y-84054242D01*
X146668142Y-84054242D01*
G37*
G36*
X151748142Y-84054242D02*
G01*
X151896101Y-84115529D01*
X152029255Y-84204499D01*
X152142501Y-84317745D01*
X152231471Y-84450899D01*
X152292758Y-84598858D01*
X152324000Y-84755925D01*
X152324000Y-84916075D01*
X152292758Y-85073142D01*
X152231471Y-85221101D01*
X152142501Y-85354255D01*
X152029255Y-85467501D01*
X151896101Y-85556471D01*
X151748142Y-85617758D01*
X151591075Y-85649000D01*
X151430925Y-85649000D01*
X151273858Y-85617758D01*
X151125899Y-85556471D01*
X150992745Y-85467501D01*
X150879499Y-85354255D01*
X150790529Y-85221101D01*
X150729242Y-85073142D01*
X150698000Y-84916075D01*
X150698000Y-84755925D01*
X150729242Y-84598858D01*
X150790529Y-84450899D01*
X150879499Y-84317745D01*
X150992745Y-84204499D01*
X151125899Y-84115529D01*
X151273858Y-84054242D01*
X151430925Y-84023000D01*
X151591075Y-84023000D01*
X151748142Y-84054242D01*
X151748142Y-84054242D01*
G37*
G36*
X154288142Y-84054242D02*
G01*
X154436101Y-84115529D01*
X154569255Y-84204499D01*
X154682501Y-84317745D01*
X154771471Y-84450899D01*
X154832758Y-84598858D01*
X154864000Y-84755925D01*
X154864000Y-84916075D01*
X154832758Y-85073142D01*
X154771471Y-85221101D01*
X154682501Y-85354255D01*
X154569255Y-85467501D01*
X154436101Y-85556471D01*
X154288142Y-85617758D01*
X154131075Y-85649000D01*
X153970925Y-85649000D01*
X153813858Y-85617758D01*
X153665899Y-85556471D01*
X153532745Y-85467501D01*
X153419499Y-85354255D01*
X153330529Y-85221101D01*
X153269242Y-85073142D01*
X153238000Y-84916075D01*
X153238000Y-84755925D01*
X153269242Y-84598858D01*
X153330529Y-84450899D01*
X153419499Y-84317745D01*
X153532745Y-84204499D01*
X153665899Y-84115529D01*
X153813858Y-84054242D01*
X153970925Y-84023000D01*
X154131075Y-84023000D01*
X154288142Y-84054242D01*
X154288142Y-84054242D01*
G37*
G36*
X159368142Y-84054242D02*
G01*
X159516101Y-84115529D01*
X159649255Y-84204499D01*
X159762501Y-84317745D01*
X159851471Y-84450899D01*
X159912758Y-84598858D01*
X159944000Y-84755925D01*
X159944000Y-84916075D01*
X159912758Y-85073142D01*
X159851471Y-85221101D01*
X159762501Y-85354255D01*
X159649255Y-85467501D01*
X159516101Y-85556471D01*
X159368142Y-85617758D01*
X159211075Y-85649000D01*
X159050925Y-85649000D01*
X158893858Y-85617758D01*
X158745899Y-85556471D01*
X158612745Y-85467501D01*
X158499499Y-85354255D01*
X158410529Y-85221101D01*
X158349242Y-85073142D01*
X158318000Y-84916075D01*
X158318000Y-84755925D01*
X158349242Y-84598858D01*
X158410529Y-84450899D01*
X158499499Y-84317745D01*
X158612745Y-84204499D01*
X158745899Y-84115529D01*
X158893858Y-84054242D01*
X159050925Y-84023000D01*
X159211075Y-84023000D01*
X159368142Y-84054242D01*
X159368142Y-84054242D01*
G37*
G36*
X161908142Y-84054242D02*
G01*
X162056101Y-84115529D01*
X162189255Y-84204499D01*
X162302501Y-84317745D01*
X162391471Y-84450899D01*
X162452758Y-84598858D01*
X162484000Y-84755925D01*
X162484000Y-84916075D01*
X162452758Y-85073142D01*
X162391471Y-85221101D01*
X162302501Y-85354255D01*
X162189255Y-85467501D01*
X162056101Y-85556471D01*
X161908142Y-85617758D01*
X161751075Y-85649000D01*
X161590925Y-85649000D01*
X161433858Y-85617758D01*
X161285899Y-85556471D01*
X161152745Y-85467501D01*
X161039499Y-85354255D01*
X160950529Y-85221101D01*
X160889242Y-85073142D01*
X160858000Y-84916075D01*
X160858000Y-84755925D01*
X160889242Y-84598858D01*
X160950529Y-84450899D01*
X161039499Y-84317745D01*
X161152745Y-84204499D01*
X161285899Y-84115529D01*
X161433858Y-84054242D01*
X161590925Y-84023000D01*
X161751075Y-84023000D01*
X161908142Y-84054242D01*
X161908142Y-84054242D01*
G37*
G36*
X156828142Y-84054242D02*
G01*
X156976101Y-84115529D01*
X157109255Y-84204499D01*
X157222501Y-84317745D01*
X157311471Y-84450899D01*
X157372758Y-84598858D01*
X157404000Y-84755925D01*
X157404000Y-84916075D01*
X157372758Y-85073142D01*
X157311471Y-85221101D01*
X157222501Y-85354255D01*
X157109255Y-85467501D01*
X156976101Y-85556471D01*
X156828142Y-85617758D01*
X156671075Y-85649000D01*
X156510925Y-85649000D01*
X156353858Y-85617758D01*
X156205899Y-85556471D01*
X156072745Y-85467501D01*
X155959499Y-85354255D01*
X155870529Y-85221101D01*
X155809242Y-85073142D01*
X155778000Y-84916075D01*
X155778000Y-84755925D01*
X155809242Y-84598858D01*
X155870529Y-84450899D01*
X155959499Y-84317745D01*
X156072745Y-84204499D01*
X156205899Y-84115529D01*
X156353858Y-84054242D01*
X156510925Y-84023000D01*
X156671075Y-84023000D01*
X156828142Y-84054242D01*
X156828142Y-84054242D01*
G37*
G36*
X164448142Y-84054242D02*
G01*
X164596101Y-84115529D01*
X164729255Y-84204499D01*
X164842501Y-84317745D01*
X164931471Y-84450899D01*
X164992758Y-84598858D01*
X165024000Y-84755925D01*
X165024000Y-84916075D01*
X164992758Y-85073142D01*
X164931471Y-85221101D01*
X164842501Y-85354255D01*
X164729255Y-85467501D01*
X164596101Y-85556471D01*
X164448142Y-85617758D01*
X164291075Y-85649000D01*
X164130925Y-85649000D01*
X163973858Y-85617758D01*
X163825899Y-85556471D01*
X163692745Y-85467501D01*
X163579499Y-85354255D01*
X163490529Y-85221101D01*
X163429242Y-85073142D01*
X163398000Y-84916075D01*
X163398000Y-84755925D01*
X163429242Y-84598858D01*
X163490529Y-84450899D01*
X163579499Y-84317745D01*
X163692745Y-84204499D01*
X163825899Y-84115529D01*
X163973858Y-84054242D01*
X164130925Y-84023000D01*
X164291075Y-84023000D01*
X164448142Y-84054242D01*
X164448142Y-84054242D01*
G37*
G36*
X149208142Y-84054242D02*
G01*
X149356101Y-84115529D01*
X149489255Y-84204499D01*
X149602501Y-84317745D01*
X149691471Y-84450899D01*
X149752758Y-84598858D01*
X149784000Y-84755925D01*
X149784000Y-84916075D01*
X149752758Y-85073142D01*
X149691471Y-85221101D01*
X149602501Y-85354255D01*
X149489255Y-85467501D01*
X149356101Y-85556471D01*
X149208142Y-85617758D01*
X149051075Y-85649000D01*
X148890925Y-85649000D01*
X148733858Y-85617758D01*
X148585899Y-85556471D01*
X148452745Y-85467501D01*
X148339499Y-85354255D01*
X148250529Y-85221101D01*
X148189242Y-85073142D01*
X148158000Y-84916075D01*
X148158000Y-84755925D01*
X148189242Y-84598858D01*
X148250529Y-84450899D01*
X148339499Y-84317745D01*
X148452745Y-84204499D01*
X148585899Y-84115529D01*
X148733858Y-84054242D01*
X148890925Y-84023000D01*
X149051075Y-84023000D01*
X149208142Y-84054242D01*
X149208142Y-84054242D01*
G37*
G36*
X178185242Y-77077404D02*
G01*
X178222337Y-77088657D01*
X178256515Y-77106925D01*
X178286481Y-77131519D01*
X178311075Y-77161485D01*
X178329343Y-77195663D01*
X178340596Y-77232758D01*
X178345000Y-77277474D01*
X178345000Y-78170526D01*
X178340596Y-78215242D01*
X178329343Y-78252337D01*
X178311075Y-78286515D01*
X178286481Y-78316481D01*
X178256515Y-78341075D01*
X178222337Y-78359343D01*
X178185242Y-78370596D01*
X178140526Y-78375000D01*
X176697474Y-78375000D01*
X176652758Y-78370596D01*
X176615663Y-78359343D01*
X176581485Y-78341075D01*
X176551519Y-78316481D01*
X176526925Y-78286515D01*
X176508657Y-78252337D01*
X176497404Y-78215242D01*
X176493000Y-78170526D01*
X176493000Y-77277474D01*
X176497404Y-77232758D01*
X176508657Y-77195663D01*
X176526925Y-77161485D01*
X176551519Y-77131519D01*
X176581485Y-77106925D01*
X176615663Y-77088657D01*
X176652758Y-77077404D01*
X176697474Y-77073000D01*
X178140526Y-77073000D01*
X178185242Y-77077404D01*
X178185242Y-77077404D01*
G37*
G36*
X125687855Y-76631140D02*
G01*
X125751618Y-76637420D01*
X125842404Y-76664960D01*
X125874336Y-76674646D01*
X125987425Y-76735094D01*
X126086554Y-76816446D01*
X126167906Y-76915575D01*
X126228354Y-77028664D01*
X126228355Y-77028668D01*
X126265580Y-77151382D01*
X126278149Y-77279000D01*
X126265580Y-77406618D01*
X126238040Y-77497404D01*
X126228354Y-77529336D01*
X126167906Y-77642425D01*
X126086554Y-77741554D01*
X125987425Y-77822906D01*
X125874336Y-77883354D01*
X125842404Y-77893040D01*
X125751618Y-77920580D01*
X125687855Y-77926860D01*
X125655974Y-77930000D01*
X125042026Y-77930000D01*
X125010145Y-77926860D01*
X124946382Y-77920580D01*
X124855596Y-77893040D01*
X124823664Y-77883354D01*
X124710575Y-77822906D01*
X124611446Y-77741554D01*
X124530094Y-77642425D01*
X124469646Y-77529336D01*
X124459960Y-77497404D01*
X124432420Y-77406618D01*
X124419851Y-77279000D01*
X124432420Y-77151382D01*
X124469645Y-77028668D01*
X124469646Y-77028664D01*
X124530094Y-76915575D01*
X124611446Y-76816446D01*
X124710575Y-76735094D01*
X124823664Y-76674646D01*
X124855596Y-76664960D01*
X124946382Y-76637420D01*
X125010145Y-76631140D01*
X125042026Y-76628000D01*
X125655974Y-76628000D01*
X125687855Y-76631140D01*
X125687855Y-76631140D01*
G37*
G36*
X177757855Y-75076140D02*
G01*
X177821618Y-75082420D01*
X177912404Y-75109960D01*
X177944336Y-75119646D01*
X178057425Y-75180094D01*
X178156554Y-75261446D01*
X178237906Y-75360575D01*
X178298354Y-75473664D01*
X178298355Y-75473668D01*
X178335580Y-75596382D01*
X178348149Y-75724000D01*
X178335580Y-75851618D01*
X178311803Y-75930000D01*
X178298354Y-75974336D01*
X178237906Y-76087425D01*
X178156554Y-76186554D01*
X178057425Y-76267906D01*
X177944336Y-76328354D01*
X177912404Y-76338040D01*
X177821618Y-76365580D01*
X177757855Y-76371860D01*
X177725974Y-76375000D01*
X177112026Y-76375000D01*
X177080145Y-76371860D01*
X177016382Y-76365580D01*
X176925596Y-76338040D01*
X176893664Y-76328354D01*
X176780575Y-76267906D01*
X176681446Y-76186554D01*
X176600094Y-76087425D01*
X176539646Y-75974336D01*
X176526197Y-75930000D01*
X176502420Y-75851618D01*
X176489851Y-75724000D01*
X176502420Y-75596382D01*
X176539645Y-75473668D01*
X176539646Y-75473664D01*
X176600094Y-75360575D01*
X176681446Y-75261446D01*
X176780575Y-75180094D01*
X176893664Y-75119646D01*
X176925596Y-75109960D01*
X177016382Y-75082420D01*
X177080145Y-75076140D01*
X177112026Y-75073000D01*
X177725974Y-75073000D01*
X177757855Y-75076140D01*
X177757855Y-75076140D01*
G37*
G36*
X125687855Y-74631140D02*
G01*
X125751618Y-74637420D01*
X125842404Y-74664960D01*
X125874336Y-74674646D01*
X125987425Y-74735094D01*
X126086554Y-74816446D01*
X126167906Y-74915575D01*
X126228354Y-75028664D01*
X126228355Y-75028668D01*
X126265580Y-75151382D01*
X126278149Y-75279000D01*
X126265580Y-75406618D01*
X126238040Y-75497404D01*
X126228354Y-75529336D01*
X126167906Y-75642425D01*
X126086554Y-75741554D01*
X125987425Y-75822906D01*
X125874336Y-75883354D01*
X125842404Y-75893040D01*
X125751618Y-75920580D01*
X125687855Y-75926860D01*
X125655974Y-75930000D01*
X125042026Y-75930000D01*
X125010145Y-75926860D01*
X124946382Y-75920580D01*
X124855596Y-75893040D01*
X124823664Y-75883354D01*
X124710575Y-75822906D01*
X124611446Y-75741554D01*
X124530094Y-75642425D01*
X124469646Y-75529336D01*
X124459960Y-75497404D01*
X124432420Y-75406618D01*
X124419851Y-75279000D01*
X124432420Y-75151382D01*
X124469645Y-75028668D01*
X124469646Y-75028664D01*
X124530094Y-74915575D01*
X124611446Y-74816446D01*
X124710575Y-74735094D01*
X124823664Y-74674646D01*
X124855596Y-74664960D01*
X124946382Y-74637420D01*
X125010145Y-74631140D01*
X125042026Y-74628000D01*
X125655974Y-74628000D01*
X125687855Y-74631140D01*
X125687855Y-74631140D01*
G37*
G36*
X126115242Y-72632404D02*
G01*
X126152337Y-72643657D01*
X126186515Y-72661925D01*
X126216481Y-72686519D01*
X126241075Y-72716485D01*
X126259343Y-72750663D01*
X126270596Y-72787758D01*
X126275000Y-72832474D01*
X126275000Y-73725526D01*
X126270596Y-73770242D01*
X126259343Y-73807337D01*
X126241075Y-73841515D01*
X126216481Y-73871481D01*
X126186515Y-73896075D01*
X126152337Y-73914343D01*
X126115242Y-73925596D01*
X126070526Y-73930000D01*
X124627474Y-73930000D01*
X124582758Y-73925596D01*
X124545663Y-73914343D01*
X124511485Y-73896075D01*
X124481519Y-73871481D01*
X124456925Y-73841515D01*
X124438657Y-73807337D01*
X124427404Y-73770242D01*
X124423000Y-73725526D01*
X124423000Y-72832474D01*
X124427404Y-72787758D01*
X124438657Y-72750663D01*
X124456925Y-72716485D01*
X124481519Y-72686519D01*
X124511485Y-72661925D01*
X124545663Y-72643657D01*
X124582758Y-72632404D01*
X124627474Y-72628000D01*
X126070526Y-72628000D01*
X126115242Y-72632404D01*
X126115242Y-72632404D01*
G37*
G36*
X133968142Y-71354242D02*
G01*
X134116101Y-71415529D01*
X134249255Y-71504499D01*
X134362501Y-71617745D01*
X134451471Y-71750899D01*
X134512758Y-71898858D01*
X134544000Y-72055925D01*
X134544000Y-72216075D01*
X134512758Y-72373142D01*
X134451471Y-72521101D01*
X134362501Y-72654255D01*
X134249255Y-72767501D01*
X134116101Y-72856471D01*
X133968142Y-72917758D01*
X133811075Y-72949000D01*
X133650925Y-72949000D01*
X133493858Y-72917758D01*
X133345899Y-72856471D01*
X133212745Y-72767501D01*
X133099499Y-72654255D01*
X133010529Y-72521101D01*
X132949242Y-72373142D01*
X132918000Y-72216075D01*
X132918000Y-72055925D01*
X132949242Y-71898858D01*
X133010529Y-71750899D01*
X133099499Y-71617745D01*
X133212745Y-71504499D01*
X133345899Y-71415529D01*
X133493858Y-71354242D01*
X133650925Y-71323000D01*
X133811075Y-71323000D01*
X133968142Y-71354242D01*
X133968142Y-71354242D01*
G37*
G36*
X136508142Y-71354242D02*
G01*
X136656101Y-71415529D01*
X136789255Y-71504499D01*
X136902501Y-71617745D01*
X136991471Y-71750899D01*
X137052758Y-71898858D01*
X137084000Y-72055925D01*
X137084000Y-72216075D01*
X137052758Y-72373142D01*
X136991471Y-72521101D01*
X136902501Y-72654255D01*
X136789255Y-72767501D01*
X136656101Y-72856471D01*
X136508142Y-72917758D01*
X136351075Y-72949000D01*
X136190925Y-72949000D01*
X136033858Y-72917758D01*
X135885899Y-72856471D01*
X135752745Y-72767501D01*
X135639499Y-72654255D01*
X135550529Y-72521101D01*
X135489242Y-72373142D01*
X135458000Y-72216075D01*
X135458000Y-72055925D01*
X135489242Y-71898858D01*
X135550529Y-71750899D01*
X135639499Y-71617745D01*
X135752745Y-71504499D01*
X135885899Y-71415529D01*
X136033858Y-71354242D01*
X136190925Y-71323000D01*
X136351075Y-71323000D01*
X136508142Y-71354242D01*
X136508142Y-71354242D01*
G37*
G36*
X131428142Y-71354242D02*
G01*
X131576101Y-71415529D01*
X131709255Y-71504499D01*
X131822501Y-71617745D01*
X131911471Y-71750899D01*
X131972758Y-71898858D01*
X132004000Y-72055925D01*
X132004000Y-72216075D01*
X131972758Y-72373142D01*
X131911471Y-72521101D01*
X131822501Y-72654255D01*
X131709255Y-72767501D01*
X131576101Y-72856471D01*
X131428142Y-72917758D01*
X131271075Y-72949000D01*
X131110925Y-72949000D01*
X130953858Y-72917758D01*
X130805899Y-72856471D01*
X130672745Y-72767501D01*
X130559499Y-72654255D01*
X130470529Y-72521101D01*
X130409242Y-72373142D01*
X130378000Y-72216075D01*
X130378000Y-72055925D01*
X130409242Y-71898858D01*
X130470529Y-71750899D01*
X130559499Y-71617745D01*
X130672745Y-71504499D01*
X130805899Y-71415529D01*
X130953858Y-71354242D01*
X131110925Y-71323000D01*
X131271075Y-71323000D01*
X131428142Y-71354242D01*
X131428142Y-71354242D01*
G37*
G36*
X139048142Y-71354242D02*
G01*
X139196101Y-71415529D01*
X139329255Y-71504499D01*
X139442501Y-71617745D01*
X139531471Y-71750899D01*
X139592758Y-71898858D01*
X139624000Y-72055925D01*
X139624000Y-72216075D01*
X139592758Y-72373142D01*
X139531471Y-72521101D01*
X139442501Y-72654255D01*
X139329255Y-72767501D01*
X139196101Y-72856471D01*
X139048142Y-72917758D01*
X138891075Y-72949000D01*
X138730925Y-72949000D01*
X138573858Y-72917758D01*
X138425899Y-72856471D01*
X138292745Y-72767501D01*
X138179499Y-72654255D01*
X138090529Y-72521101D01*
X138029242Y-72373142D01*
X137998000Y-72216075D01*
X137998000Y-72055925D01*
X138029242Y-71898858D01*
X138090529Y-71750899D01*
X138179499Y-71617745D01*
X138292745Y-71504499D01*
X138425899Y-71415529D01*
X138573858Y-71354242D01*
X138730925Y-71323000D01*
X138891075Y-71323000D01*
X139048142Y-71354242D01*
X139048142Y-71354242D01*
G37*
G36*
X141588142Y-71354242D02*
G01*
X141736101Y-71415529D01*
X141869255Y-71504499D01*
X141982501Y-71617745D01*
X142071471Y-71750899D01*
X142132758Y-71898858D01*
X142164000Y-72055925D01*
X142164000Y-72216075D01*
X142132758Y-72373142D01*
X142071471Y-72521101D01*
X141982501Y-72654255D01*
X141869255Y-72767501D01*
X141736101Y-72856471D01*
X141588142Y-72917758D01*
X141431075Y-72949000D01*
X141270925Y-72949000D01*
X141113858Y-72917758D01*
X140965899Y-72856471D01*
X140832745Y-72767501D01*
X140719499Y-72654255D01*
X140630529Y-72521101D01*
X140569242Y-72373142D01*
X140538000Y-72216075D01*
X140538000Y-72055925D01*
X140569242Y-71898858D01*
X140630529Y-71750899D01*
X140719499Y-71617745D01*
X140832745Y-71504499D01*
X140965899Y-71415529D01*
X141113858Y-71354242D01*
X141270925Y-71323000D01*
X141431075Y-71323000D01*
X141588142Y-71354242D01*
X141588142Y-71354242D01*
G37*
G36*
X164448142Y-71354242D02*
G01*
X164596101Y-71415529D01*
X164729255Y-71504499D01*
X164842501Y-71617745D01*
X164931471Y-71750899D01*
X164992758Y-71898858D01*
X165024000Y-72055925D01*
X165024000Y-72216075D01*
X164992758Y-72373142D01*
X164931471Y-72521101D01*
X164842501Y-72654255D01*
X164729255Y-72767501D01*
X164596101Y-72856471D01*
X164448142Y-72917758D01*
X164291075Y-72949000D01*
X164130925Y-72949000D01*
X163973858Y-72917758D01*
X163825899Y-72856471D01*
X163692745Y-72767501D01*
X163579499Y-72654255D01*
X163490529Y-72521101D01*
X163429242Y-72373142D01*
X163398000Y-72216075D01*
X163398000Y-72055925D01*
X163429242Y-71898858D01*
X163490529Y-71750899D01*
X163579499Y-71617745D01*
X163692745Y-71504499D01*
X163825899Y-71415529D01*
X163973858Y-71354242D01*
X164130925Y-71323000D01*
X164291075Y-71323000D01*
X164448142Y-71354242D01*
X164448142Y-71354242D01*
G37*
G36*
X161908142Y-71354242D02*
G01*
X162056101Y-71415529D01*
X162189255Y-71504499D01*
X162302501Y-71617745D01*
X162391471Y-71750899D01*
X162452758Y-71898858D01*
X162484000Y-72055925D01*
X162484000Y-72216075D01*
X162452758Y-72373142D01*
X162391471Y-72521101D01*
X162302501Y-72654255D01*
X162189255Y-72767501D01*
X162056101Y-72856471D01*
X161908142Y-72917758D01*
X161751075Y-72949000D01*
X161590925Y-72949000D01*
X161433858Y-72917758D01*
X161285899Y-72856471D01*
X161152745Y-72767501D01*
X161039499Y-72654255D01*
X160950529Y-72521101D01*
X160889242Y-72373142D01*
X160858000Y-72216075D01*
X160858000Y-72055925D01*
X160889242Y-71898858D01*
X160950529Y-71750899D01*
X161039499Y-71617745D01*
X161152745Y-71504499D01*
X161285899Y-71415529D01*
X161433858Y-71354242D01*
X161590925Y-71323000D01*
X161751075Y-71323000D01*
X161908142Y-71354242D01*
X161908142Y-71354242D01*
G37*
G36*
X156828142Y-71354242D02*
G01*
X156976101Y-71415529D01*
X157109255Y-71504499D01*
X157222501Y-71617745D01*
X157311471Y-71750899D01*
X157372758Y-71898858D01*
X157404000Y-72055925D01*
X157404000Y-72216075D01*
X157372758Y-72373142D01*
X157311471Y-72521101D01*
X157222501Y-72654255D01*
X157109255Y-72767501D01*
X156976101Y-72856471D01*
X156828142Y-72917758D01*
X156671075Y-72949000D01*
X156510925Y-72949000D01*
X156353858Y-72917758D01*
X156205899Y-72856471D01*
X156072745Y-72767501D01*
X155959499Y-72654255D01*
X155870529Y-72521101D01*
X155809242Y-72373142D01*
X155778000Y-72216075D01*
X155778000Y-72055925D01*
X155809242Y-71898858D01*
X155870529Y-71750899D01*
X155959499Y-71617745D01*
X156072745Y-71504499D01*
X156205899Y-71415529D01*
X156353858Y-71354242D01*
X156510925Y-71323000D01*
X156671075Y-71323000D01*
X156828142Y-71354242D01*
X156828142Y-71354242D01*
G37*
G36*
X159368142Y-71354242D02*
G01*
X159516101Y-71415529D01*
X159649255Y-71504499D01*
X159762501Y-71617745D01*
X159851471Y-71750899D01*
X159912758Y-71898858D01*
X159944000Y-72055925D01*
X159944000Y-72216075D01*
X159912758Y-72373142D01*
X159851471Y-72521101D01*
X159762501Y-72654255D01*
X159649255Y-72767501D01*
X159516101Y-72856471D01*
X159368142Y-72917758D01*
X159211075Y-72949000D01*
X159050925Y-72949000D01*
X158893858Y-72917758D01*
X158745899Y-72856471D01*
X158612745Y-72767501D01*
X158499499Y-72654255D01*
X158410529Y-72521101D01*
X158349242Y-72373142D01*
X158318000Y-72216075D01*
X158318000Y-72055925D01*
X158349242Y-71898858D01*
X158410529Y-71750899D01*
X158499499Y-71617745D01*
X158612745Y-71504499D01*
X158745899Y-71415529D01*
X158893858Y-71354242D01*
X159050925Y-71323000D01*
X159211075Y-71323000D01*
X159368142Y-71354242D01*
X159368142Y-71354242D01*
G37*
G36*
X144128142Y-71354242D02*
G01*
X144276101Y-71415529D01*
X144409255Y-71504499D01*
X144522501Y-71617745D01*
X144611471Y-71750899D01*
X144672758Y-71898858D01*
X144704000Y-72055925D01*
X144704000Y-72216075D01*
X144672758Y-72373142D01*
X144611471Y-72521101D01*
X144522501Y-72654255D01*
X144409255Y-72767501D01*
X144276101Y-72856471D01*
X144128142Y-72917758D01*
X143971075Y-72949000D01*
X143810925Y-72949000D01*
X143653858Y-72917758D01*
X143505899Y-72856471D01*
X143372745Y-72767501D01*
X143259499Y-72654255D01*
X143170529Y-72521101D01*
X143109242Y-72373142D01*
X143078000Y-72216075D01*
X143078000Y-72055925D01*
X143109242Y-71898858D01*
X143170529Y-71750899D01*
X143259499Y-71617745D01*
X143372745Y-71504499D01*
X143505899Y-71415529D01*
X143653858Y-71354242D01*
X143810925Y-71323000D01*
X143971075Y-71323000D01*
X144128142Y-71354242D01*
X144128142Y-71354242D01*
G37*
G36*
X146668142Y-71354242D02*
G01*
X146816101Y-71415529D01*
X146949255Y-71504499D01*
X147062501Y-71617745D01*
X147151471Y-71750899D01*
X147212758Y-71898858D01*
X147244000Y-72055925D01*
X147244000Y-72216075D01*
X147212758Y-72373142D01*
X147151471Y-72521101D01*
X147062501Y-72654255D01*
X146949255Y-72767501D01*
X146816101Y-72856471D01*
X146668142Y-72917758D01*
X146511075Y-72949000D01*
X146350925Y-72949000D01*
X146193858Y-72917758D01*
X146045899Y-72856471D01*
X145912745Y-72767501D01*
X145799499Y-72654255D01*
X145710529Y-72521101D01*
X145649242Y-72373142D01*
X145618000Y-72216075D01*
X145618000Y-72055925D01*
X145649242Y-71898858D01*
X145710529Y-71750899D01*
X145799499Y-71617745D01*
X145912745Y-71504499D01*
X146045899Y-71415529D01*
X146193858Y-71354242D01*
X146350925Y-71323000D01*
X146511075Y-71323000D01*
X146668142Y-71354242D01*
X146668142Y-71354242D01*
G37*
G36*
X151748142Y-71354242D02*
G01*
X151896101Y-71415529D01*
X152029255Y-71504499D01*
X152142501Y-71617745D01*
X152231471Y-71750899D01*
X152292758Y-71898858D01*
X152324000Y-72055925D01*
X152324000Y-72216075D01*
X152292758Y-72373142D01*
X152231471Y-72521101D01*
X152142501Y-72654255D01*
X152029255Y-72767501D01*
X151896101Y-72856471D01*
X151748142Y-72917758D01*
X151591075Y-72949000D01*
X151430925Y-72949000D01*
X151273858Y-72917758D01*
X151125899Y-72856471D01*
X150992745Y-72767501D01*
X150879499Y-72654255D01*
X150790529Y-72521101D01*
X150729242Y-72373142D01*
X150698000Y-72216075D01*
X150698000Y-72055925D01*
X150729242Y-71898858D01*
X150790529Y-71750899D01*
X150879499Y-71617745D01*
X150992745Y-71504499D01*
X151125899Y-71415529D01*
X151273858Y-71354242D01*
X151430925Y-71323000D01*
X151591075Y-71323000D01*
X151748142Y-71354242D01*
X151748142Y-71354242D01*
G37*
G36*
X154288142Y-71354242D02*
G01*
X154436101Y-71415529D01*
X154569255Y-71504499D01*
X154682501Y-71617745D01*
X154771471Y-71750899D01*
X154832758Y-71898858D01*
X154864000Y-72055925D01*
X154864000Y-72216075D01*
X154832758Y-72373142D01*
X154771471Y-72521101D01*
X154682501Y-72654255D01*
X154569255Y-72767501D01*
X154436101Y-72856471D01*
X154288142Y-72917758D01*
X154131075Y-72949000D01*
X153970925Y-72949000D01*
X153813858Y-72917758D01*
X153665899Y-72856471D01*
X153532745Y-72767501D01*
X153419499Y-72654255D01*
X153330529Y-72521101D01*
X153269242Y-72373142D01*
X153238000Y-72216075D01*
X153238000Y-72055925D01*
X153269242Y-71898858D01*
X153330529Y-71750899D01*
X153419499Y-71617745D01*
X153532745Y-71504499D01*
X153665899Y-71415529D01*
X153813858Y-71354242D01*
X153970925Y-71323000D01*
X154131075Y-71323000D01*
X154288142Y-71354242D01*
X154288142Y-71354242D01*
G37*
G36*
X149208142Y-71354242D02*
G01*
X149356101Y-71415529D01*
X149489255Y-71504499D01*
X149602501Y-71617745D01*
X149691471Y-71750899D01*
X149752758Y-71898858D01*
X149784000Y-72055925D01*
X149784000Y-72216075D01*
X149752758Y-72373142D01*
X149691471Y-72521101D01*
X149602501Y-72654255D01*
X149489255Y-72767501D01*
X149356101Y-72856471D01*
X149208142Y-72917758D01*
X149051075Y-72949000D01*
X148890925Y-72949000D01*
X148733858Y-72917758D01*
X148585899Y-72856471D01*
X148452745Y-72767501D01*
X148339499Y-72654255D01*
X148250529Y-72521101D01*
X148189242Y-72373142D01*
X148158000Y-72216075D01*
X148158000Y-72055925D01*
X148189242Y-71898858D01*
X148250529Y-71750899D01*
X148339499Y-71617745D01*
X148452745Y-71504499D01*
X148585899Y-71415529D01*
X148733858Y-71354242D01*
X148890925Y-71323000D01*
X149051075Y-71323000D01*
X149208142Y-71354242D01*
X149208142Y-71354242D01*
G37*
G36*
X178185242Y-70092404D02*
G01*
X178222337Y-70103657D01*
X178256515Y-70121925D01*
X178286481Y-70146519D01*
X178311075Y-70176485D01*
X178329343Y-70210663D01*
X178340596Y-70247758D01*
X178345000Y-70292474D01*
X178345000Y-71185526D01*
X178340596Y-71230242D01*
X178329343Y-71267337D01*
X178311075Y-71301515D01*
X178286481Y-71331481D01*
X178256515Y-71356075D01*
X178222337Y-71374343D01*
X178185242Y-71385596D01*
X178140526Y-71390000D01*
X176697474Y-71390000D01*
X176652758Y-71385596D01*
X176615663Y-71374343D01*
X176581485Y-71356075D01*
X176551519Y-71331481D01*
X176526925Y-71301515D01*
X176508657Y-71267337D01*
X176497404Y-71230242D01*
X176493000Y-71185526D01*
X176493000Y-70292474D01*
X176497404Y-70247758D01*
X176508657Y-70210663D01*
X176526925Y-70176485D01*
X176551519Y-70146519D01*
X176581485Y-70121925D01*
X176615663Y-70103657D01*
X176652758Y-70092404D01*
X176697474Y-70088000D01*
X178140526Y-70088000D01*
X178185242Y-70092404D01*
X178185242Y-70092404D01*
G37*
G36*
X177741965Y-68089575D02*
G01*
X177821618Y-68097420D01*
X177912404Y-68124960D01*
X177944336Y-68134646D01*
X178057425Y-68195094D01*
X178156554Y-68276446D01*
X178237906Y-68375575D01*
X178298354Y-68488664D01*
X178298355Y-68488668D01*
X178335580Y-68611382D01*
X178348149Y-68739000D01*
X178335580Y-68866618D01*
X178320735Y-68915554D01*
X178298354Y-68989336D01*
X178237906Y-69102425D01*
X178156554Y-69201554D01*
X178057425Y-69282906D01*
X177944336Y-69343354D01*
X177912404Y-69353040D01*
X177821618Y-69380580D01*
X177757855Y-69386860D01*
X177725974Y-69390000D01*
X177112026Y-69390000D01*
X177080145Y-69386860D01*
X177016382Y-69380580D01*
X176925596Y-69353040D01*
X176893664Y-69343354D01*
X176780575Y-69282906D01*
X176681446Y-69201554D01*
X176600094Y-69102425D01*
X176539646Y-68989336D01*
X176517265Y-68915554D01*
X176502420Y-68866618D01*
X176489851Y-68739000D01*
X176502420Y-68611382D01*
X176539645Y-68488668D01*
X176539646Y-68488664D01*
X176600094Y-68375575D01*
X176681446Y-68276446D01*
X176780575Y-68195094D01*
X176893664Y-68134646D01*
X176925596Y-68124960D01*
X177016382Y-68097420D01*
X177096035Y-68089575D01*
X177112026Y-68088000D01*
X177725974Y-68088000D01*
X177741965Y-68089575D01*
X177741965Y-68089575D01*
G37*
G36*
X125687855Y-67805140D02*
G01*
X125751618Y-67811420D01*
X125842404Y-67838960D01*
X125874336Y-67848646D01*
X125987425Y-67909094D01*
X126086554Y-67990446D01*
X126167906Y-68089575D01*
X126228354Y-68202664D01*
X126228355Y-68202668D01*
X126265580Y-68325382D01*
X126278149Y-68453000D01*
X126265580Y-68580618D01*
X126256247Y-68611384D01*
X126228354Y-68703336D01*
X126167906Y-68816425D01*
X126086554Y-68915554D01*
X125987425Y-68996906D01*
X125874336Y-69057354D01*
X125842404Y-69067040D01*
X125751618Y-69094580D01*
X125687855Y-69100860D01*
X125655974Y-69104000D01*
X125042026Y-69104000D01*
X125010145Y-69100860D01*
X124946382Y-69094580D01*
X124855596Y-69067040D01*
X124823664Y-69057354D01*
X124710575Y-68996906D01*
X124611446Y-68915554D01*
X124530094Y-68816425D01*
X124469646Y-68703336D01*
X124441753Y-68611384D01*
X124432420Y-68580618D01*
X124419851Y-68453000D01*
X124432420Y-68325382D01*
X124469645Y-68202668D01*
X124469646Y-68202664D01*
X124530094Y-68089575D01*
X124611446Y-67990446D01*
X124710575Y-67909094D01*
X124823664Y-67848646D01*
X124855596Y-67838960D01*
X124946382Y-67811420D01*
X125010145Y-67805140D01*
X125042026Y-67802000D01*
X125655974Y-67802000D01*
X125687855Y-67805140D01*
X125687855Y-67805140D01*
G37*
G36*
X125687855Y-65805140D02*
G01*
X125751618Y-65811420D01*
X125842404Y-65838960D01*
X125874336Y-65848646D01*
X125987425Y-65909094D01*
X126086554Y-65990446D01*
X126167906Y-66089575D01*
X126228354Y-66202664D01*
X126228355Y-66202668D01*
X126265580Y-66325382D01*
X126278149Y-66453000D01*
X126265580Y-66580618D01*
X126238040Y-66671404D01*
X126228354Y-66703336D01*
X126167906Y-66816425D01*
X126086554Y-66915554D01*
X125987425Y-66996906D01*
X125874336Y-67057354D01*
X125842404Y-67067040D01*
X125751618Y-67094580D01*
X125687855Y-67100860D01*
X125655974Y-67104000D01*
X125042026Y-67104000D01*
X125010145Y-67100860D01*
X124946382Y-67094580D01*
X124855596Y-67067040D01*
X124823664Y-67057354D01*
X124710575Y-66996906D01*
X124611446Y-66915554D01*
X124530094Y-66816425D01*
X124469646Y-66703336D01*
X124459960Y-66671404D01*
X124432420Y-66580618D01*
X124419851Y-66453000D01*
X124432420Y-66325382D01*
X124469645Y-66202668D01*
X124469646Y-66202664D01*
X124530094Y-66089575D01*
X124611446Y-65990446D01*
X124710575Y-65909094D01*
X124823664Y-65848646D01*
X124855596Y-65838960D01*
X124946382Y-65811420D01*
X125010145Y-65805140D01*
X125042026Y-65802000D01*
X125655974Y-65802000D01*
X125687855Y-65805140D01*
X125687855Y-65805140D01*
G37*
G36*
X126115242Y-63806404D02*
G01*
X126152337Y-63817657D01*
X126186515Y-63835925D01*
X126216481Y-63860519D01*
X126241075Y-63890485D01*
X126259343Y-63924663D01*
X126270596Y-63961758D01*
X126275000Y-64006474D01*
X126275000Y-64899526D01*
X126270596Y-64944242D01*
X126259343Y-64981337D01*
X126241075Y-65015515D01*
X126216481Y-65045481D01*
X126186515Y-65070075D01*
X126152337Y-65088343D01*
X126115242Y-65099596D01*
X126070526Y-65104000D01*
X124627474Y-65104000D01*
X124582758Y-65099596D01*
X124545663Y-65088343D01*
X124511485Y-65070075D01*
X124481519Y-65045481D01*
X124456925Y-65015515D01*
X124438657Y-64981337D01*
X124427404Y-64944242D01*
X124423000Y-64899526D01*
X124423000Y-64006474D01*
X124427404Y-63961758D01*
X124438657Y-63924663D01*
X124456925Y-63890485D01*
X124481519Y-63860519D01*
X124511485Y-63835925D01*
X124545663Y-63817657D01*
X124582758Y-63806404D01*
X124627474Y-63802000D01*
X126070526Y-63802000D01*
X126115242Y-63806404D01*
X126115242Y-63806404D01*
G37*
G36*
X178185242Y-63234404D02*
G01*
X178222337Y-63245657D01*
X178256515Y-63263925D01*
X178286481Y-63288519D01*
X178311075Y-63318485D01*
X178329343Y-63352663D01*
X178340596Y-63389758D01*
X178345000Y-63434474D01*
X178345000Y-64327526D01*
X178340596Y-64372242D01*
X178329343Y-64409337D01*
X178311075Y-64443515D01*
X178286481Y-64473481D01*
X178256515Y-64498075D01*
X178222337Y-64516343D01*
X178185242Y-64527596D01*
X178140526Y-64532000D01*
X176697474Y-64532000D01*
X176652758Y-64527596D01*
X176615663Y-64516343D01*
X176581485Y-64498075D01*
X176551519Y-64473481D01*
X176526925Y-64443515D01*
X176508657Y-64409337D01*
X176497404Y-64372242D01*
X176493000Y-64327526D01*
X176493000Y-63434474D01*
X176497404Y-63389758D01*
X176508657Y-63352663D01*
X176526925Y-63318485D01*
X176551519Y-63288519D01*
X176581485Y-63263925D01*
X176615663Y-63245657D01*
X176652758Y-63234404D01*
X176697474Y-63230000D01*
X178140526Y-63230000D01*
X178185242Y-63234404D01*
X178185242Y-63234404D01*
G37*
G36*
X177757855Y-61233140D02*
G01*
X177821618Y-61239420D01*
X177912404Y-61266960D01*
X177944336Y-61276646D01*
X178057425Y-61337094D01*
X178156554Y-61418446D01*
X178237906Y-61517575D01*
X178298354Y-61630664D01*
X178298355Y-61630668D01*
X178335580Y-61753382D01*
X178348149Y-61881000D01*
X178335580Y-62008618D01*
X178308040Y-62099404D01*
X178298354Y-62131336D01*
X178237906Y-62244425D01*
X178156554Y-62343554D01*
X178057425Y-62424906D01*
X177944336Y-62485354D01*
X177912404Y-62495040D01*
X177821618Y-62522580D01*
X177757855Y-62528860D01*
X177725974Y-62532000D01*
X177112026Y-62532000D01*
X177080145Y-62528860D01*
X177016382Y-62522580D01*
X176925596Y-62495040D01*
X176893664Y-62485354D01*
X176780575Y-62424906D01*
X176681446Y-62343554D01*
X176600094Y-62244425D01*
X176539646Y-62131336D01*
X176529960Y-62099404D01*
X176502420Y-62008618D01*
X176489851Y-61881000D01*
X176502420Y-61753382D01*
X176539645Y-61630668D01*
X176539646Y-61630664D01*
X176600094Y-61517575D01*
X176681446Y-61418446D01*
X176780575Y-61337094D01*
X176893664Y-61276646D01*
X176925596Y-61266960D01*
X177016382Y-61239420D01*
X177080145Y-61233140D01*
X177112026Y-61230000D01*
X177725974Y-61230000D01*
X177757855Y-61233140D01*
X177757855Y-61233140D01*
G37*
G36*
X123448242Y-58916404D02*
G01*
X123485337Y-58927657D01*
X123519515Y-58945925D01*
X123549481Y-58970519D01*
X123574075Y-59000485D01*
X123592343Y-59034663D01*
X123603596Y-59071758D01*
X123608000Y-59116474D01*
X123608000Y-60009526D01*
X123603596Y-60054242D01*
X123592343Y-60091337D01*
X123574075Y-60125515D01*
X123549481Y-60155481D01*
X123519515Y-60180075D01*
X123485337Y-60198343D01*
X123448242Y-60209596D01*
X123403526Y-60214000D01*
X121960474Y-60214000D01*
X121915758Y-60209596D01*
X121878663Y-60198343D01*
X121844485Y-60180075D01*
X121814519Y-60155481D01*
X121789925Y-60125515D01*
X121771657Y-60091337D01*
X121760404Y-60054242D01*
X121756000Y-60009526D01*
X121756000Y-59116474D01*
X121760404Y-59071758D01*
X121771657Y-59034663D01*
X121789925Y-59000485D01*
X121814519Y-58970519D01*
X121844485Y-58945925D01*
X121878663Y-58927657D01*
X121915758Y-58916404D01*
X121960474Y-58912000D01*
X123403526Y-58912000D01*
X123448242Y-58916404D01*
X123448242Y-58916404D01*
G37*
G36*
X130560242Y-58884404D02*
G01*
X130597337Y-58895657D01*
X130631515Y-58913925D01*
X130661481Y-58938519D01*
X130686075Y-58968485D01*
X130704343Y-59002663D01*
X130715596Y-59039758D01*
X130720000Y-59084474D01*
X130720000Y-59977526D01*
X130715596Y-60022242D01*
X130704343Y-60059337D01*
X130686075Y-60093515D01*
X130661481Y-60123481D01*
X130631515Y-60148075D01*
X130597337Y-60166343D01*
X130560242Y-60177596D01*
X130515526Y-60182000D01*
X129072474Y-60182000D01*
X129027758Y-60177596D01*
X128990663Y-60166343D01*
X128956485Y-60148075D01*
X128926519Y-60123481D01*
X128901925Y-60093515D01*
X128883657Y-60059337D01*
X128872404Y-60022242D01*
X128868000Y-59977526D01*
X128868000Y-59084474D01*
X128872404Y-59039758D01*
X128883657Y-59002663D01*
X128901925Y-58968485D01*
X128926519Y-58938519D01*
X128956485Y-58913925D01*
X128990663Y-58895657D01*
X129027758Y-58884404D01*
X129072474Y-58880000D01*
X130515526Y-58880000D01*
X130560242Y-58884404D01*
X130560242Y-58884404D01*
G37*
G36*
X123020855Y-56915140D02*
G01*
X123084618Y-56921420D01*
X123175404Y-56948960D01*
X123207336Y-56958646D01*
X123320425Y-57019094D01*
X123419554Y-57100446D01*
X123500906Y-57199575D01*
X123561354Y-57312664D01*
X123561355Y-57312668D01*
X123598580Y-57435382D01*
X123611149Y-57563000D01*
X123598580Y-57690618D01*
X123571062Y-57781332D01*
X123561354Y-57813336D01*
X123500906Y-57926425D01*
X123419554Y-58025554D01*
X123320425Y-58106906D01*
X123207336Y-58167354D01*
X123190108Y-58172580D01*
X123084618Y-58204580D01*
X123020855Y-58210860D01*
X122988974Y-58214000D01*
X122375026Y-58214000D01*
X122343145Y-58210860D01*
X122279382Y-58204580D01*
X122173892Y-58172580D01*
X122156664Y-58167354D01*
X122043575Y-58106906D01*
X121944446Y-58025554D01*
X121863094Y-57926425D01*
X121802646Y-57813336D01*
X121792938Y-57781332D01*
X121765420Y-57690618D01*
X121752851Y-57563000D01*
X121765420Y-57435382D01*
X121802645Y-57312668D01*
X121802646Y-57312664D01*
X121863094Y-57199575D01*
X121944446Y-57100446D01*
X122043575Y-57019094D01*
X122156664Y-56958646D01*
X122188596Y-56948960D01*
X122279382Y-56921420D01*
X122343145Y-56915140D01*
X122375026Y-56912000D01*
X122988974Y-56912000D01*
X123020855Y-56915140D01*
X123020855Y-56915140D01*
G37*
G36*
X130132855Y-56883140D02*
G01*
X130196618Y-56889420D01*
X130271054Y-56912000D01*
X130319336Y-56926646D01*
X130432425Y-56987094D01*
X130531554Y-57068446D01*
X130612906Y-57167575D01*
X130673354Y-57280664D01*
X130673355Y-57280668D01*
X130710580Y-57403382D01*
X130723149Y-57531000D01*
X130710580Y-57658618D01*
X130683040Y-57749404D01*
X130673354Y-57781336D01*
X130612906Y-57894425D01*
X130531554Y-57993554D01*
X130432425Y-58074906D01*
X130319336Y-58135354D01*
X130287404Y-58145040D01*
X130196618Y-58172580D01*
X130132855Y-58178860D01*
X130100974Y-58182000D01*
X129487026Y-58182000D01*
X129455145Y-58178860D01*
X129391382Y-58172580D01*
X129300596Y-58145040D01*
X129268664Y-58135354D01*
X129155575Y-58074906D01*
X129056446Y-57993554D01*
X128975094Y-57894425D01*
X128914646Y-57781336D01*
X128904960Y-57749404D01*
X128877420Y-57658618D01*
X128864851Y-57531000D01*
X128877420Y-57403382D01*
X128914645Y-57280668D01*
X128914646Y-57280664D01*
X128975094Y-57167575D01*
X129056446Y-57068446D01*
X129155575Y-56987094D01*
X129268664Y-56926646D01*
X129316946Y-56912000D01*
X129391382Y-56889420D01*
X129455145Y-56883140D01*
X129487026Y-56880000D01*
X130100974Y-56880000D01*
X130132855Y-56883140D01*
X130132855Y-56883140D01*
G37*
G36*
X175406600Y-55389389D02*
G01*
X175439652Y-55399415D01*
X175470103Y-55415692D01*
X175496799Y-55437601D01*
X175518708Y-55464297D01*
X175534985Y-55494748D01*
X175545011Y-55527800D01*
X175549000Y-55568303D01*
X175549000Y-57004497D01*
X175545011Y-57045000D01*
X175534985Y-57078052D01*
X175518708Y-57108503D01*
X175496799Y-57135199D01*
X175470103Y-57157108D01*
X175439652Y-57173385D01*
X175406600Y-57183411D01*
X175366097Y-57187400D01*
X173629903Y-57187400D01*
X173589400Y-57183411D01*
X173556348Y-57173385D01*
X173525897Y-57157108D01*
X173499201Y-57135199D01*
X173477292Y-57108503D01*
X173461015Y-57078052D01*
X173450989Y-57045000D01*
X173447000Y-57004497D01*
X173447000Y-55568303D01*
X173450989Y-55527800D01*
X173461015Y-55494748D01*
X173477292Y-55464297D01*
X173499201Y-55437601D01*
X173525897Y-55415692D01*
X173556348Y-55399415D01*
X173589400Y-55389389D01*
X173629903Y-55385400D01*
X175366097Y-55385400D01*
X175406600Y-55389389D01*
X175406600Y-55389389D01*
G37*
G36*
X123020855Y-54915140D02*
G01*
X123084618Y-54921420D01*
X123175404Y-54948960D01*
X123207336Y-54958646D01*
X123320425Y-55019094D01*
X123419554Y-55100446D01*
X123500906Y-55199575D01*
X123561354Y-55312664D01*
X123561355Y-55312668D01*
X123598580Y-55435382D01*
X123611149Y-55563000D01*
X123598580Y-55690618D01*
X123571062Y-55781332D01*
X123561354Y-55813336D01*
X123500906Y-55926425D01*
X123419554Y-56025554D01*
X123320425Y-56106906D01*
X123207336Y-56167354D01*
X123190108Y-56172580D01*
X123084618Y-56204580D01*
X123020855Y-56210860D01*
X122988974Y-56214000D01*
X122375026Y-56214000D01*
X122343145Y-56210860D01*
X122279382Y-56204580D01*
X122173892Y-56172580D01*
X122156664Y-56167354D01*
X122043575Y-56106906D01*
X121944446Y-56025554D01*
X121863094Y-55926425D01*
X121802646Y-55813336D01*
X121792938Y-55781332D01*
X121765420Y-55690618D01*
X121752851Y-55563000D01*
X121765420Y-55435382D01*
X121802645Y-55312668D01*
X121802646Y-55312664D01*
X121863094Y-55199575D01*
X121944446Y-55100446D01*
X122043575Y-55019094D01*
X122156664Y-54958646D01*
X122188596Y-54948960D01*
X122279382Y-54921420D01*
X122343145Y-54915140D01*
X122375026Y-54912000D01*
X122988974Y-54912000D01*
X123020855Y-54915140D01*
X123020855Y-54915140D01*
G37*
G36*
X130132855Y-54883140D02*
G01*
X130196618Y-54889420D01*
X130271054Y-54912000D01*
X130319336Y-54926646D01*
X130432425Y-54987094D01*
X130531554Y-55068446D01*
X130612906Y-55167575D01*
X130673354Y-55280664D01*
X130673355Y-55280668D01*
X130710580Y-55403382D01*
X130723149Y-55531000D01*
X130710580Y-55658618D01*
X130683040Y-55749404D01*
X130673354Y-55781336D01*
X130612906Y-55894425D01*
X130531554Y-55993554D01*
X130432425Y-56074906D01*
X130319336Y-56135354D01*
X130287404Y-56145040D01*
X130196618Y-56172580D01*
X130132855Y-56178860D01*
X130100974Y-56182000D01*
X129487026Y-56182000D01*
X129455145Y-56178860D01*
X129391382Y-56172580D01*
X129300596Y-56145040D01*
X129268664Y-56135354D01*
X129155575Y-56074906D01*
X129056446Y-55993554D01*
X128975094Y-55894425D01*
X128914646Y-55781336D01*
X128904960Y-55749404D01*
X128877420Y-55658618D01*
X128864851Y-55531000D01*
X128877420Y-55403382D01*
X128914645Y-55280668D01*
X128914646Y-55280664D01*
X128975094Y-55167575D01*
X129056446Y-55068446D01*
X129155575Y-54987094D01*
X129268664Y-54926646D01*
X129316946Y-54912000D01*
X129391382Y-54889420D01*
X129455145Y-54883140D01*
X129487026Y-54880000D01*
X130100974Y-54880000D01*
X130132855Y-54883140D01*
X130132855Y-54883140D01*
G37*
G36*
X156509272Y-53115428D02*
G01*
X156635165Y-53167575D01*
X156695993Y-53192771D01*
X156864037Y-53305054D01*
X157006946Y-53447963D01*
X157115065Y-53609775D01*
X157119230Y-53616009D01*
X157196572Y-53802728D01*
X157236000Y-54000947D01*
X157236000Y-54203053D01*
X157196572Y-54401272D01*
X157119230Y-54587991D01*
X157119229Y-54587993D01*
X157006946Y-54756037D01*
X156864037Y-54898946D01*
X156695993Y-55011229D01*
X156695992Y-55011230D01*
X156695991Y-55011230D01*
X156509272Y-55088572D01*
X156311053Y-55128000D01*
X156108947Y-55128000D01*
X155910728Y-55088572D01*
X155724009Y-55011230D01*
X155724008Y-55011230D01*
X155724007Y-55011229D01*
X155555963Y-54898946D01*
X155413054Y-54756037D01*
X155300771Y-54587993D01*
X155300770Y-54587991D01*
X155223428Y-54401272D01*
X155184000Y-54203053D01*
X155184000Y-54000947D01*
X155223428Y-53802728D01*
X155300770Y-53616009D01*
X155304935Y-53609775D01*
X155413054Y-53447963D01*
X155555963Y-53305054D01*
X155724007Y-53192771D01*
X155784835Y-53167575D01*
X155910728Y-53115428D01*
X156108947Y-53076000D01*
X156311053Y-53076000D01*
X156509272Y-53115428D01*
X156509272Y-53115428D01*
G37*
G36*
X159049272Y-53115428D02*
G01*
X159175165Y-53167575D01*
X159235993Y-53192771D01*
X159404037Y-53305054D01*
X159546946Y-53447963D01*
X159655065Y-53609775D01*
X159659230Y-53616009D01*
X159736572Y-53802728D01*
X159776000Y-54000947D01*
X159776000Y-54203053D01*
X159736572Y-54401272D01*
X159659230Y-54587991D01*
X159659229Y-54587993D01*
X159546946Y-54756037D01*
X159404037Y-54898946D01*
X159235993Y-55011229D01*
X159235992Y-55011230D01*
X159235991Y-55011230D01*
X159049272Y-55088572D01*
X158851053Y-55128000D01*
X158648947Y-55128000D01*
X158450728Y-55088572D01*
X158264009Y-55011230D01*
X158264008Y-55011230D01*
X158264007Y-55011229D01*
X158095963Y-54898946D01*
X157953054Y-54756037D01*
X157840771Y-54587993D01*
X157840770Y-54587991D01*
X157763428Y-54401272D01*
X157724000Y-54203053D01*
X157724000Y-54000947D01*
X157763428Y-53802728D01*
X157840770Y-53616009D01*
X157844935Y-53609775D01*
X157953054Y-53447963D01*
X158095963Y-53305054D01*
X158264007Y-53192771D01*
X158324835Y-53167575D01*
X158450728Y-53115428D01*
X158648947Y-53076000D01*
X158851053Y-53076000D01*
X159049272Y-53115428D01*
X159049272Y-53115428D01*
G37*
G36*
X141269272Y-53115428D02*
G01*
X141395165Y-53167575D01*
X141455993Y-53192771D01*
X141624037Y-53305054D01*
X141766946Y-53447963D01*
X141875065Y-53609775D01*
X141879230Y-53616009D01*
X141956572Y-53802728D01*
X141996000Y-54000947D01*
X141996000Y-54203053D01*
X141956572Y-54401272D01*
X141879230Y-54587991D01*
X141879229Y-54587993D01*
X141766946Y-54756037D01*
X141624037Y-54898946D01*
X141455993Y-55011229D01*
X141455992Y-55011230D01*
X141455991Y-55011230D01*
X141269272Y-55088572D01*
X141071053Y-55128000D01*
X140868947Y-55128000D01*
X140670728Y-55088572D01*
X140484009Y-55011230D01*
X140484008Y-55011230D01*
X140484007Y-55011229D01*
X140315963Y-54898946D01*
X140173054Y-54756037D01*
X140060771Y-54587993D01*
X140060770Y-54587991D01*
X139983428Y-54401272D01*
X139944000Y-54203053D01*
X139944000Y-54000947D01*
X139983428Y-53802728D01*
X140060770Y-53616009D01*
X140064935Y-53609775D01*
X140173054Y-53447963D01*
X140315963Y-53305054D01*
X140484007Y-53192771D01*
X140544835Y-53167575D01*
X140670728Y-53115428D01*
X140868947Y-53076000D01*
X141071053Y-53076000D01*
X141269272Y-53115428D01*
X141269272Y-53115428D01*
G37*
G36*
X151429272Y-53115428D02*
G01*
X151555165Y-53167575D01*
X151615993Y-53192771D01*
X151784037Y-53305054D01*
X151926946Y-53447963D01*
X152035065Y-53609775D01*
X152039230Y-53616009D01*
X152116572Y-53802728D01*
X152156000Y-54000947D01*
X152156000Y-54203053D01*
X152116572Y-54401272D01*
X152039230Y-54587991D01*
X152039229Y-54587993D01*
X151926946Y-54756037D01*
X151784037Y-54898946D01*
X151615993Y-55011229D01*
X151615992Y-55011230D01*
X151615991Y-55011230D01*
X151429272Y-55088572D01*
X151231053Y-55128000D01*
X151028947Y-55128000D01*
X150830728Y-55088572D01*
X150644009Y-55011230D01*
X150644008Y-55011230D01*
X150644007Y-55011229D01*
X150475963Y-54898946D01*
X150333054Y-54756037D01*
X150220771Y-54587993D01*
X150220770Y-54587991D01*
X150143428Y-54401272D01*
X150104000Y-54203053D01*
X150104000Y-54000947D01*
X150143428Y-53802728D01*
X150220770Y-53616009D01*
X150224935Y-53609775D01*
X150333054Y-53447963D01*
X150475963Y-53305054D01*
X150644007Y-53192771D01*
X150704835Y-53167575D01*
X150830728Y-53115428D01*
X151028947Y-53076000D01*
X151231053Y-53076000D01*
X151429272Y-53115428D01*
X151429272Y-53115428D01*
G37*
G36*
X148889272Y-53115428D02*
G01*
X149015165Y-53167575D01*
X149075993Y-53192771D01*
X149244037Y-53305054D01*
X149386946Y-53447963D01*
X149495065Y-53609775D01*
X149499230Y-53616009D01*
X149576572Y-53802728D01*
X149616000Y-54000947D01*
X149616000Y-54203053D01*
X149576572Y-54401272D01*
X149499230Y-54587991D01*
X149499229Y-54587993D01*
X149386946Y-54756037D01*
X149244037Y-54898946D01*
X149075993Y-55011229D01*
X149075992Y-55011230D01*
X149075991Y-55011230D01*
X148889272Y-55088572D01*
X148691053Y-55128000D01*
X148488947Y-55128000D01*
X148290728Y-55088572D01*
X148104009Y-55011230D01*
X148104008Y-55011230D01*
X148104007Y-55011229D01*
X147935963Y-54898946D01*
X147793054Y-54756037D01*
X147680771Y-54587993D01*
X147680770Y-54587991D01*
X147603428Y-54401272D01*
X147564000Y-54203053D01*
X147564000Y-54000947D01*
X147603428Y-53802728D01*
X147680770Y-53616009D01*
X147684935Y-53609775D01*
X147793054Y-53447963D01*
X147935963Y-53305054D01*
X148104007Y-53192771D01*
X148164835Y-53167575D01*
X148290728Y-53115428D01*
X148488947Y-53076000D01*
X148691053Y-53076000D01*
X148889272Y-53115428D01*
X148889272Y-53115428D01*
G37*
G36*
X146349272Y-53115428D02*
G01*
X146475165Y-53167575D01*
X146535993Y-53192771D01*
X146704037Y-53305054D01*
X146846946Y-53447963D01*
X146955065Y-53609775D01*
X146959230Y-53616009D01*
X147036572Y-53802728D01*
X147076000Y-54000947D01*
X147076000Y-54203053D01*
X147036572Y-54401272D01*
X146959230Y-54587991D01*
X146959229Y-54587993D01*
X146846946Y-54756037D01*
X146704037Y-54898946D01*
X146535993Y-55011229D01*
X146535992Y-55011230D01*
X146535991Y-55011230D01*
X146349272Y-55088572D01*
X146151053Y-55128000D01*
X145948947Y-55128000D01*
X145750728Y-55088572D01*
X145564009Y-55011230D01*
X145564008Y-55011230D01*
X145564007Y-55011229D01*
X145395963Y-54898946D01*
X145253054Y-54756037D01*
X145140771Y-54587993D01*
X145140770Y-54587991D01*
X145063428Y-54401272D01*
X145024000Y-54203053D01*
X145024000Y-54000947D01*
X145063428Y-53802728D01*
X145140770Y-53616009D01*
X145144935Y-53609775D01*
X145253054Y-53447963D01*
X145395963Y-53305054D01*
X145564007Y-53192771D01*
X145624835Y-53167575D01*
X145750728Y-53115428D01*
X145948947Y-53076000D01*
X146151053Y-53076000D01*
X146349272Y-53115428D01*
X146349272Y-53115428D01*
G37*
G36*
X143809272Y-53115428D02*
G01*
X143935165Y-53167575D01*
X143995993Y-53192771D01*
X144164037Y-53305054D01*
X144306946Y-53447963D01*
X144415065Y-53609775D01*
X144419230Y-53616009D01*
X144496572Y-53802728D01*
X144536000Y-54000947D01*
X144536000Y-54203053D01*
X144496572Y-54401272D01*
X144419230Y-54587991D01*
X144419229Y-54587993D01*
X144306946Y-54756037D01*
X144164037Y-54898946D01*
X143995993Y-55011229D01*
X143995992Y-55011230D01*
X143995991Y-55011230D01*
X143809272Y-55088572D01*
X143611053Y-55128000D01*
X143408947Y-55128000D01*
X143210728Y-55088572D01*
X143024009Y-55011230D01*
X143024008Y-55011230D01*
X143024007Y-55011229D01*
X142855963Y-54898946D01*
X142713054Y-54756037D01*
X142600771Y-54587993D01*
X142600770Y-54587991D01*
X142523428Y-54401272D01*
X142484000Y-54203053D01*
X142484000Y-54000947D01*
X142523428Y-53802728D01*
X142600770Y-53616009D01*
X142604935Y-53609775D01*
X142713054Y-53447963D01*
X142855963Y-53305054D01*
X143024007Y-53192771D01*
X143084835Y-53167575D01*
X143210728Y-53115428D01*
X143408947Y-53076000D01*
X143611053Y-53076000D01*
X143809272Y-53115428D01*
X143809272Y-53115428D01*
G37*
G36*
X153969272Y-53115428D02*
G01*
X154095165Y-53167575D01*
X154155993Y-53192771D01*
X154324037Y-53305054D01*
X154466946Y-53447963D01*
X154575065Y-53609775D01*
X154579230Y-53616009D01*
X154656572Y-53802728D01*
X154696000Y-54000947D01*
X154696000Y-54203053D01*
X154656572Y-54401272D01*
X154579230Y-54587991D01*
X154579229Y-54587993D01*
X154466946Y-54756037D01*
X154324037Y-54898946D01*
X154155993Y-55011229D01*
X154155992Y-55011230D01*
X154155991Y-55011230D01*
X153969272Y-55088572D01*
X153771053Y-55128000D01*
X153568947Y-55128000D01*
X153370728Y-55088572D01*
X153184009Y-55011230D01*
X153184008Y-55011230D01*
X153184007Y-55011229D01*
X153015963Y-54898946D01*
X152873054Y-54756037D01*
X152760771Y-54587993D01*
X152760770Y-54587991D01*
X152683428Y-54401272D01*
X152644000Y-54203053D01*
X152644000Y-54000947D01*
X152683428Y-53802728D01*
X152760770Y-53616009D01*
X152764935Y-53609775D01*
X152873054Y-53447963D01*
X153015963Y-53305054D01*
X153184007Y-53192771D01*
X153244835Y-53167575D01*
X153370728Y-53115428D01*
X153568947Y-53076000D01*
X153771053Y-53076000D01*
X153969272Y-53115428D01*
X153969272Y-53115428D01*
G37*
G36*
X174758442Y-52891918D02*
G01*
X174824627Y-52898437D01*
X174994466Y-52949957D01*
X175150991Y-53033622D01*
X175186729Y-53062952D01*
X175288186Y-53146214D01*
X175371448Y-53247671D01*
X175400778Y-53283409D01*
X175400779Y-53283411D01*
X175464907Y-53403384D01*
X175484443Y-53439934D01*
X175535963Y-53609773D01*
X175553359Y-53786400D01*
X175535963Y-53963027D01*
X175484443Y-54132866D01*
X175400778Y-54289391D01*
X175371448Y-54325129D01*
X175288186Y-54426586D01*
X175186729Y-54509848D01*
X175150991Y-54539178D01*
X174994466Y-54622843D01*
X174824627Y-54674363D01*
X174758443Y-54680881D01*
X174692260Y-54687400D01*
X174303740Y-54687400D01*
X174237557Y-54680881D01*
X174171373Y-54674363D01*
X174001534Y-54622843D01*
X173845009Y-54539178D01*
X173809271Y-54509848D01*
X173707814Y-54426586D01*
X173624552Y-54325129D01*
X173595222Y-54289391D01*
X173511557Y-54132866D01*
X173460037Y-53963027D01*
X173442641Y-53786400D01*
X173460037Y-53609773D01*
X173511557Y-53439934D01*
X173531094Y-53403384D01*
X173595221Y-53283411D01*
X173595222Y-53283409D01*
X173624552Y-53247671D01*
X173707814Y-53146214D01*
X173809271Y-53062952D01*
X173845009Y-53033622D01*
X174001534Y-52949957D01*
X174171373Y-52898437D01*
X174237558Y-52891918D01*
X174303740Y-52885400D01*
X174692260Y-52885400D01*
X174758442Y-52891918D01*
X174758442Y-52891918D01*
G37*
G36*
X123020855Y-52915140D02*
G01*
X123084618Y-52921420D01*
X123175404Y-52948960D01*
X123207336Y-52958646D01*
X123320425Y-53019094D01*
X123419554Y-53100446D01*
X123500906Y-53199575D01*
X123561354Y-53312664D01*
X123561355Y-53312668D01*
X123598580Y-53435382D01*
X123611149Y-53563000D01*
X123598580Y-53690618D01*
X123571062Y-53781332D01*
X123561354Y-53813336D01*
X123500906Y-53926425D01*
X123419554Y-54025554D01*
X123320425Y-54106906D01*
X123207336Y-54167354D01*
X123190108Y-54172580D01*
X123084618Y-54204580D01*
X123020855Y-54210860D01*
X122988974Y-54214000D01*
X122375026Y-54214000D01*
X122343145Y-54210860D01*
X122279382Y-54204580D01*
X122173892Y-54172580D01*
X122156664Y-54167354D01*
X122043575Y-54106906D01*
X121944446Y-54025554D01*
X121863094Y-53926425D01*
X121802646Y-53813336D01*
X121792938Y-53781332D01*
X121765420Y-53690618D01*
X121752851Y-53563000D01*
X121765420Y-53435382D01*
X121802645Y-53312668D01*
X121802646Y-53312664D01*
X121863094Y-53199575D01*
X121944446Y-53100446D01*
X122043575Y-53019094D01*
X122156664Y-52958646D01*
X122188596Y-52948960D01*
X122279382Y-52921420D01*
X122343145Y-52915140D01*
X122375026Y-52912000D01*
X122988974Y-52912000D01*
X123020855Y-52915140D01*
X123020855Y-52915140D01*
G37*
G36*
X130132855Y-52883140D02*
G01*
X130196618Y-52889420D01*
X130271054Y-52912000D01*
X130319336Y-52926646D01*
X130432425Y-52987094D01*
X130531554Y-53068446D01*
X130612906Y-53167575D01*
X130673354Y-53280664D01*
X130674187Y-53283411D01*
X130710580Y-53403382D01*
X130723149Y-53531000D01*
X130710580Y-53658618D01*
X130683040Y-53749404D01*
X130673354Y-53781336D01*
X130612906Y-53894425D01*
X130531554Y-53993554D01*
X130432425Y-54074906D01*
X130319336Y-54135354D01*
X130287404Y-54145040D01*
X130196618Y-54172580D01*
X130132855Y-54178860D01*
X130100974Y-54182000D01*
X129487026Y-54182000D01*
X129455145Y-54178860D01*
X129391382Y-54172580D01*
X129300596Y-54145040D01*
X129268664Y-54135354D01*
X129155575Y-54074906D01*
X129056446Y-53993554D01*
X128975094Y-53894425D01*
X128914646Y-53781336D01*
X128904960Y-53749404D01*
X128877420Y-53658618D01*
X128864851Y-53531000D01*
X128877420Y-53403382D01*
X128913813Y-53283411D01*
X128914646Y-53280664D01*
X128975094Y-53167575D01*
X129056446Y-53068446D01*
X129155575Y-52987094D01*
X129268664Y-52926646D01*
X129316946Y-52912000D01*
X129391382Y-52889420D01*
X129455145Y-52883140D01*
X129487026Y-52880000D01*
X130100974Y-52880000D01*
X130132855Y-52883140D01*
X130132855Y-52883140D01*
G37*
G36*
X123346189Y-44710483D02*
G01*
X123346192Y-44710484D01*
X123346191Y-44710484D01*
X123874139Y-44929167D01*
X124349280Y-45246646D01*
X124753354Y-45650720D01*
X125070833Y-46125861D01*
X125070834Y-46125863D01*
X125289517Y-46653811D01*
X125401000Y-47214275D01*
X125401000Y-47785725D01*
X125289517Y-48346189D01*
X125070834Y-48874137D01*
X125070833Y-48874139D01*
X124753354Y-49349280D01*
X124349280Y-49753354D01*
X123874139Y-50070833D01*
X123874138Y-50070834D01*
X123874137Y-50070834D01*
X123346189Y-50289517D01*
X122785725Y-50401000D01*
X122214275Y-50401000D01*
X121653811Y-50289517D01*
X121125863Y-50070834D01*
X121125862Y-50070834D01*
X121125861Y-50070833D01*
X120650720Y-49753354D01*
X120246646Y-49349280D01*
X119929167Y-48874139D01*
X119929166Y-48874137D01*
X119710483Y-48346189D01*
X119599000Y-47785725D01*
X119599000Y-47214275D01*
X119710483Y-46653811D01*
X119929166Y-46125863D01*
X119929167Y-46125861D01*
X120246646Y-45650720D01*
X120650720Y-45246646D01*
X121125861Y-44929167D01*
X121653809Y-44710484D01*
X121653808Y-44710484D01*
X121653811Y-44710483D01*
X122214275Y-44599000D01*
X122785725Y-44599000D01*
X123346189Y-44710483D01*
X123346189Y-44710483D01*
G37*
G36*
X181346189Y-44710483D02*
G01*
X181346192Y-44710484D01*
X181346191Y-44710484D01*
X181874139Y-44929167D01*
X182349280Y-45246646D01*
X182753354Y-45650720D01*
X183070833Y-46125861D01*
X183070834Y-46125863D01*
X183289517Y-46653811D01*
X183401000Y-47214275D01*
X183401000Y-47785725D01*
X183289517Y-48346189D01*
X183070834Y-48874137D01*
X183070833Y-48874139D01*
X182753354Y-49349280D01*
X182349280Y-49753354D01*
X181874139Y-50070833D01*
X181874138Y-50070834D01*
X181874137Y-50070834D01*
X181346189Y-50289517D01*
X180785725Y-50401000D01*
X180214275Y-50401000D01*
X179653811Y-50289517D01*
X179125863Y-50070834D01*
X179125862Y-50070834D01*
X179125861Y-50070833D01*
X178650720Y-49753354D01*
X178246646Y-49349280D01*
X177929167Y-48874139D01*
X177929166Y-48874137D01*
X177710483Y-48346189D01*
X177599000Y-47785725D01*
X177599000Y-47214275D01*
X177710483Y-46653811D01*
X177929166Y-46125863D01*
X177929167Y-46125861D01*
X178246646Y-45650720D01*
X178650720Y-45246646D01*
X179125861Y-44929167D01*
X179653809Y-44710484D01*
X179653808Y-44710484D01*
X179653811Y-44710483D01*
X180214275Y-44599000D01*
X180785725Y-44599000D01*
X181346189Y-44710483D01*
X181346189Y-44710483D01*
G37*
G36*
X147619272Y-48035428D02*
G01*
X147805991Y-48112770D01*
X147805993Y-48112771D01*
X147974037Y-48225054D01*
X148116946Y-48367963D01*
X148229229Y-48536007D01*
X148229230Y-48536009D01*
X148306572Y-48722728D01*
X148346000Y-48920947D01*
X148346000Y-49123053D01*
X148306572Y-49321272D01*
X148229230Y-49507991D01*
X148229229Y-49507993D01*
X148116946Y-49676037D01*
X147974037Y-49818946D01*
X147805993Y-49931229D01*
X147805992Y-49931230D01*
X147805991Y-49931230D01*
X147619272Y-50008572D01*
X147421053Y-50048000D01*
X147218947Y-50048000D01*
X147020728Y-50008572D01*
X146834009Y-49931230D01*
X146834008Y-49931230D01*
X146834007Y-49931229D01*
X146665963Y-49818946D01*
X146523054Y-49676037D01*
X146410771Y-49507993D01*
X146410770Y-49507991D01*
X146333428Y-49321272D01*
X146294000Y-49123053D01*
X146294000Y-48920947D01*
X146333428Y-48722728D01*
X146410770Y-48536009D01*
X146410771Y-48536007D01*
X146523054Y-48367963D01*
X146665963Y-48225054D01*
X146834007Y-48112771D01*
X146834009Y-48112770D01*
X147020728Y-48035428D01*
X147218947Y-47996000D01*
X147421053Y-47996000D01*
X147619272Y-48035428D01*
X147619272Y-48035428D01*
G37*
G36*
X157779272Y-48035428D02*
G01*
X157965991Y-48112770D01*
X157965993Y-48112771D01*
X158134037Y-48225054D01*
X158276946Y-48367963D01*
X158389229Y-48536007D01*
X158389230Y-48536009D01*
X158466572Y-48722728D01*
X158506000Y-48920947D01*
X158506000Y-49123053D01*
X158466572Y-49321272D01*
X158389230Y-49507991D01*
X158389229Y-49507993D01*
X158276946Y-49676037D01*
X158134037Y-49818946D01*
X157965993Y-49931229D01*
X157965992Y-49931230D01*
X157965991Y-49931230D01*
X157779272Y-50008572D01*
X157581053Y-50048000D01*
X157378947Y-50048000D01*
X157180728Y-50008572D01*
X156994009Y-49931230D01*
X156994008Y-49931230D01*
X156994007Y-49931229D01*
X156825963Y-49818946D01*
X156683054Y-49676037D01*
X156570771Y-49507993D01*
X156570770Y-49507991D01*
X156493428Y-49321272D01*
X156454000Y-49123053D01*
X156454000Y-48920947D01*
X156493428Y-48722728D01*
X156570770Y-48536009D01*
X156570771Y-48536007D01*
X156683054Y-48367963D01*
X156825963Y-48225054D01*
X156994007Y-48112771D01*
X156994009Y-48112770D01*
X157180728Y-48035428D01*
X157378947Y-47996000D01*
X157581053Y-47996000D01*
X157779272Y-48035428D01*
X157779272Y-48035428D01*
G37*
G36*
X145079272Y-48035428D02*
G01*
X145265991Y-48112770D01*
X145265993Y-48112771D01*
X145434037Y-48225054D01*
X145576946Y-48367963D01*
X145689229Y-48536007D01*
X145689230Y-48536009D01*
X145766572Y-48722728D01*
X145806000Y-48920947D01*
X145806000Y-49123053D01*
X145766572Y-49321272D01*
X145689230Y-49507991D01*
X145689229Y-49507993D01*
X145576946Y-49676037D01*
X145434037Y-49818946D01*
X145265993Y-49931229D01*
X145265992Y-49931230D01*
X145265991Y-49931230D01*
X145079272Y-50008572D01*
X144881053Y-50048000D01*
X144678947Y-50048000D01*
X144480728Y-50008572D01*
X144294009Y-49931230D01*
X144294008Y-49931230D01*
X144294007Y-49931229D01*
X144125963Y-49818946D01*
X143983054Y-49676037D01*
X143870771Y-49507993D01*
X143870770Y-49507991D01*
X143793428Y-49321272D01*
X143754000Y-49123053D01*
X143754000Y-48920947D01*
X143793428Y-48722728D01*
X143870770Y-48536009D01*
X143870771Y-48536007D01*
X143983054Y-48367963D01*
X144125963Y-48225054D01*
X144294007Y-48112771D01*
X144294009Y-48112770D01*
X144480728Y-48035428D01*
X144678947Y-47996000D01*
X144881053Y-47996000D01*
X145079272Y-48035428D01*
X145079272Y-48035428D01*
G37*
G36*
X155239272Y-48035428D02*
G01*
X155425991Y-48112770D01*
X155425993Y-48112771D01*
X155594037Y-48225054D01*
X155736946Y-48367963D01*
X155849229Y-48536007D01*
X155849230Y-48536009D01*
X155926572Y-48722728D01*
X155966000Y-48920947D01*
X155966000Y-49123053D01*
X155926572Y-49321272D01*
X155849230Y-49507991D01*
X155849229Y-49507993D01*
X155736946Y-49676037D01*
X155594037Y-49818946D01*
X155425993Y-49931229D01*
X155425992Y-49931230D01*
X155425991Y-49931230D01*
X155239272Y-50008572D01*
X155041053Y-50048000D01*
X154838947Y-50048000D01*
X154640728Y-50008572D01*
X154454009Y-49931230D01*
X154454008Y-49931230D01*
X154454007Y-49931229D01*
X154285963Y-49818946D01*
X154143054Y-49676037D01*
X154030771Y-49507993D01*
X154030770Y-49507991D01*
X153953428Y-49321272D01*
X153914000Y-49123053D01*
X153914000Y-48920947D01*
X153953428Y-48722728D01*
X154030770Y-48536009D01*
X154030771Y-48536007D01*
X154143054Y-48367963D01*
X154285963Y-48225054D01*
X154454007Y-48112771D01*
X154454009Y-48112770D01*
X154640728Y-48035428D01*
X154838947Y-47996000D01*
X155041053Y-47996000D01*
X155239272Y-48035428D01*
X155239272Y-48035428D01*
G37*
G36*
X142539272Y-48035428D02*
G01*
X142725991Y-48112770D01*
X142725993Y-48112771D01*
X142894037Y-48225054D01*
X143036946Y-48367963D01*
X143149229Y-48536007D01*
X143149230Y-48536009D01*
X143226572Y-48722728D01*
X143266000Y-48920947D01*
X143266000Y-49123053D01*
X143226572Y-49321272D01*
X143149230Y-49507991D01*
X143149229Y-49507993D01*
X143036946Y-49676037D01*
X142894037Y-49818946D01*
X142725993Y-49931229D01*
X142725992Y-49931230D01*
X142725991Y-49931230D01*
X142539272Y-50008572D01*
X142341053Y-50048000D01*
X142138947Y-50048000D01*
X141940728Y-50008572D01*
X141754009Y-49931230D01*
X141754008Y-49931230D01*
X141754007Y-49931229D01*
X141585963Y-49818946D01*
X141443054Y-49676037D01*
X141330771Y-49507993D01*
X141330770Y-49507991D01*
X141253428Y-49321272D01*
X141214000Y-49123053D01*
X141214000Y-48920947D01*
X141253428Y-48722728D01*
X141330770Y-48536009D01*
X141330771Y-48536007D01*
X141443054Y-48367963D01*
X141585963Y-48225054D01*
X141754007Y-48112771D01*
X141754009Y-48112770D01*
X141940728Y-48035428D01*
X142138947Y-47996000D01*
X142341053Y-47996000D01*
X142539272Y-48035428D01*
X142539272Y-48035428D01*
G37*
G36*
X152699272Y-48035428D02*
G01*
X152885991Y-48112770D01*
X152885993Y-48112771D01*
X153054037Y-48225054D01*
X153196946Y-48367963D01*
X153309229Y-48536007D01*
X153309230Y-48536009D01*
X153386572Y-48722728D01*
X153426000Y-48920947D01*
X153426000Y-49123053D01*
X153386572Y-49321272D01*
X153309230Y-49507991D01*
X153309229Y-49507993D01*
X153196946Y-49676037D01*
X153054037Y-49818946D01*
X152885993Y-49931229D01*
X152885992Y-49931230D01*
X152885991Y-49931230D01*
X152699272Y-50008572D01*
X152501053Y-50048000D01*
X152298947Y-50048000D01*
X152100728Y-50008572D01*
X151914009Y-49931230D01*
X151914008Y-49931230D01*
X151914007Y-49931229D01*
X151745963Y-49818946D01*
X151603054Y-49676037D01*
X151490771Y-49507993D01*
X151490770Y-49507991D01*
X151413428Y-49321272D01*
X151374000Y-49123053D01*
X151374000Y-48920947D01*
X151413428Y-48722728D01*
X151490770Y-48536009D01*
X151490771Y-48536007D01*
X151603054Y-48367963D01*
X151745963Y-48225054D01*
X151914007Y-48112771D01*
X151914009Y-48112770D01*
X152100728Y-48035428D01*
X152298947Y-47996000D01*
X152501053Y-47996000D01*
X152699272Y-48035428D01*
X152699272Y-48035428D01*
G37*
G36*
X150159272Y-48035428D02*
G01*
X150345991Y-48112770D01*
X150345993Y-48112771D01*
X150514037Y-48225054D01*
X150656946Y-48367963D01*
X150769229Y-48536007D01*
X150769230Y-48536009D01*
X150846572Y-48722728D01*
X150886000Y-48920947D01*
X150886000Y-49123053D01*
X150846572Y-49321272D01*
X150769230Y-49507991D01*
X150769229Y-49507993D01*
X150656946Y-49676037D01*
X150514037Y-49818946D01*
X150345993Y-49931229D01*
X150345992Y-49931230D01*
X150345991Y-49931230D01*
X150159272Y-50008572D01*
X149961053Y-50048000D01*
X149758947Y-50048000D01*
X149560728Y-50008572D01*
X149374009Y-49931230D01*
X149374008Y-49931230D01*
X149374007Y-49931229D01*
X149205963Y-49818946D01*
X149063054Y-49676037D01*
X148950771Y-49507993D01*
X148950770Y-49507991D01*
X148873428Y-49321272D01*
X148834000Y-49123053D01*
X148834000Y-48920947D01*
X148873428Y-48722728D01*
X148950770Y-48536009D01*
X148950771Y-48536007D01*
X149063054Y-48367963D01*
X149205963Y-48225054D01*
X149374007Y-48112771D01*
X149374009Y-48112770D01*
X149560728Y-48035428D01*
X149758947Y-47996000D01*
X149961053Y-47996000D01*
X150159272Y-48035428D01*
X150159272Y-48035428D01*
G37*
M02*
