M48
; DRILL file {KiCad (5.1.2)-1} date 2020/03/16 1:25:35
; FORMAT={-:-/ absolute / inch / decimal}
; #@! TF.CreationDate,2020-03-16T01:25:35+09:00
; #@! TF.GenerationSoftware,Kicad,Pcbnew,(5.1.2)-1
; #@! TF.FileFunction,Plated,1,2,PTH
FMAT,2
INCH
T1C0.0157
T2C0.0295
T3C0.0300
T4C0.0374
T5C0.0433
T6C0.1260
%
G90
G05
T1
X6.048Y-2.3047
T2
X4.95Y-2.2913
X4.95Y-2.37
X4.95Y-2.4487
X6.95Y-2.7
X6.95Y-2.7787
X6.95Y-2.3
X6.95Y-2.3787
X4.95Y-2.6725
X4.95Y-2.7513
X4.95Y-2.83
T3
X5.32Y-2.8
X5.32Y-3.3
X5.42Y-2.8
X5.42Y-3.3
X5.52Y-2.8
X5.52Y-3.3
X5.62Y-2.8
X5.62Y-3.3
X5.72Y-2.8
X5.72Y-3.3
X5.82Y-2.8
X5.82Y-3.3
X5.92Y-2.8
X5.92Y-3.3
X6.02Y-2.8
X6.02Y-3.3
X6.12Y-2.8
X6.12Y-3.3
X6.22Y-2.8
X6.22Y-3.3
X6.32Y-2.8
X6.32Y-3.3
X6.42Y-2.8
X6.42Y-3.3
X6.52Y-2.8
X6.52Y-3.3
X6.62Y-2.8
X6.62Y-3.3
T4
X5.6102Y-2.13
X5.6602Y-1.93
X5.7102Y-2.13
X5.7602Y-1.93
X5.8102Y-2.13
X5.8602Y-1.93
X5.9102Y-2.13
X5.9602Y-1.93
X6.0102Y-2.13
X6.0602Y-1.93
X6.1102Y-2.13
X6.1602Y-1.93
X6.2102Y-2.13
X6.2602Y-1.93
X6.3102Y-2.13
T5
X5.192Y-2.2754
X5.492Y-2.2754
X5.1967Y-2.1376
X5.4967Y-2.1376
X5.192Y-2.5509
X5.492Y-2.5509
X6.4272Y-2.1672
X6.7272Y-2.1672
X5.1967Y-2.4131
X5.4967Y-2.4131
X6.4224Y-2.5609
X6.7224Y-2.5609
X6.4224Y-2.4231
X6.7224Y-2.4231
X6.4272Y-2.2854
X6.7272Y-2.2854
T6
X6.9685Y-3.2874
X6.9685Y-1.8898
X4.9409Y-1.8898
X4.94Y-3.2874
T0
M30
