G04 #@! TF.GenerationSoftware,KiCad,Pcbnew,(5.1.2)-1*
G04 #@! TF.CreationDate,2020-03-16T01:25:21+09:00*
G04 #@! TF.ProjectId,L298N_DRIVER,4c323938-4e5f-4445-9249-5645522e6b69,rev?*
G04 #@! TF.SameCoordinates,Original*
G04 #@! TF.FileFunction,Copper,L1,Top*
G04 #@! TF.FilePolarity,Positive*
%FSLAX46Y46*%
G04 Gerber Fmt 4.6, Leading zero omitted, Abs format (unit mm)*
G04 Created by KiCad (PCBNEW (5.1.2)-1) date 2020-03-16 01:25:21*
%MOMM*%
%LPD*%
G04 APERTURE LIST*
%ADD10C,5.700000*%
%ADD11C,0.100000*%
%ADD12C,2.100000*%
%ADD13C,1.524000*%
%ADD14C,1.950000*%
%ADD15O,1.750000X1.200000*%
%ADD16C,1.200000*%
%ADD17O,2.200000X2.200000*%
%ADD18R,2.200000X2.200000*%
%ADD19C,0.800000*%
%ADD20C,0.250000*%
%ADD21C,3.000000*%
%ADD22C,1.201800*%
%ADD23C,1.949800*%
%ADD24C,0.254000*%
G04 APERTURE END LIST*
D10*
X125476000Y-83500000D03*
X125500000Y-48000000D03*
X177000000Y-48000000D03*
X177000000Y-83500000D03*
D11*
G36*
X150018504Y-60419204D02*
G01*
X150042773Y-60422804D01*
X150066571Y-60428765D01*
X150089671Y-60437030D01*
X150111849Y-60447520D01*
X150132893Y-60460133D01*
X150152598Y-60474747D01*
X150170777Y-60491223D01*
X150187253Y-60509402D01*
X150201867Y-60529107D01*
X150214480Y-60550151D01*
X150224970Y-60572329D01*
X150233235Y-60595429D01*
X150239196Y-60619227D01*
X150242796Y-60643496D01*
X150244000Y-60668000D01*
X150244000Y-62268000D01*
X150242796Y-62292504D01*
X150239196Y-62316773D01*
X150233235Y-62340571D01*
X150224970Y-62363671D01*
X150214480Y-62385849D01*
X150201867Y-62406893D01*
X150187253Y-62426598D01*
X150170777Y-62444777D01*
X150152598Y-62461253D01*
X150132893Y-62475867D01*
X150111849Y-62488480D01*
X150089671Y-62498970D01*
X150066571Y-62507235D01*
X150042773Y-62513196D01*
X150018504Y-62516796D01*
X149994000Y-62518000D01*
X145994000Y-62518000D01*
X145969496Y-62516796D01*
X145945227Y-62513196D01*
X145921429Y-62507235D01*
X145898329Y-62498970D01*
X145876151Y-62488480D01*
X145855107Y-62475867D01*
X145835402Y-62461253D01*
X145817223Y-62444777D01*
X145800747Y-62426598D01*
X145786133Y-62406893D01*
X145773520Y-62385849D01*
X145763030Y-62363671D01*
X145754765Y-62340571D01*
X145748804Y-62316773D01*
X145745204Y-62292504D01*
X145744000Y-62268000D01*
X145744000Y-60668000D01*
X145745204Y-60643496D01*
X145748804Y-60619227D01*
X145754765Y-60595429D01*
X145763030Y-60572329D01*
X145773520Y-60550151D01*
X145786133Y-60529107D01*
X145800747Y-60509402D01*
X145817223Y-60491223D01*
X145835402Y-60474747D01*
X145855107Y-60460133D01*
X145876151Y-60447520D01*
X145898329Y-60437030D01*
X145921429Y-60428765D01*
X145945227Y-60422804D01*
X145969496Y-60419204D01*
X145994000Y-60418000D01*
X149994000Y-60418000D01*
X150018504Y-60419204D01*
X150018504Y-60419204D01*
G37*
D12*
X147994000Y-61468000D03*
D11*
G36*
X157218504Y-60419204D02*
G01*
X157242773Y-60422804D01*
X157266571Y-60428765D01*
X157289671Y-60437030D01*
X157311849Y-60447520D01*
X157332893Y-60460133D01*
X157352598Y-60474747D01*
X157370777Y-60491223D01*
X157387253Y-60509402D01*
X157401867Y-60529107D01*
X157414480Y-60550151D01*
X157424970Y-60572329D01*
X157433235Y-60595429D01*
X157439196Y-60619227D01*
X157442796Y-60643496D01*
X157444000Y-60668000D01*
X157444000Y-62268000D01*
X157442796Y-62292504D01*
X157439196Y-62316773D01*
X157433235Y-62340571D01*
X157424970Y-62363671D01*
X157414480Y-62385849D01*
X157401867Y-62406893D01*
X157387253Y-62426598D01*
X157370777Y-62444777D01*
X157352598Y-62461253D01*
X157332893Y-62475867D01*
X157311849Y-62488480D01*
X157289671Y-62498970D01*
X157266571Y-62507235D01*
X157242773Y-62513196D01*
X157218504Y-62516796D01*
X157194000Y-62518000D01*
X153194000Y-62518000D01*
X153169496Y-62516796D01*
X153145227Y-62513196D01*
X153121429Y-62507235D01*
X153098329Y-62498970D01*
X153076151Y-62488480D01*
X153055107Y-62475867D01*
X153035402Y-62461253D01*
X153017223Y-62444777D01*
X153000747Y-62426598D01*
X152986133Y-62406893D01*
X152973520Y-62385849D01*
X152963030Y-62363671D01*
X152954765Y-62340571D01*
X152948804Y-62316773D01*
X152945204Y-62292504D01*
X152944000Y-62268000D01*
X152944000Y-60668000D01*
X152945204Y-60643496D01*
X152948804Y-60619227D01*
X152954765Y-60595429D01*
X152963030Y-60572329D01*
X152973520Y-60550151D01*
X152986133Y-60529107D01*
X153000747Y-60509402D01*
X153017223Y-60491223D01*
X153035402Y-60474747D01*
X153055107Y-60460133D01*
X153076151Y-60447520D01*
X153098329Y-60437030D01*
X153121429Y-60428765D01*
X153145227Y-60422804D01*
X153169496Y-60419204D01*
X153194000Y-60418000D01*
X157194000Y-60418000D01*
X157218504Y-60419204D01*
X157218504Y-60419204D01*
G37*
D12*
X155194000Y-61468000D03*
D13*
X168148000Y-83820000D03*
X165608000Y-83820000D03*
X163068000Y-83820000D03*
X160528000Y-83820000D03*
X157988000Y-83820000D03*
X155448000Y-83820000D03*
X152908000Y-83820000D03*
X150368000Y-83820000D03*
X147828000Y-83820000D03*
X145288000Y-83820000D03*
X142748000Y-83820000D03*
X140208000Y-83820000D03*
X137668000Y-83820000D03*
X135128000Y-83820000D03*
X135128000Y-71120000D03*
X137668000Y-71120000D03*
X140208000Y-71120000D03*
X142748000Y-71120000D03*
X145288000Y-71120000D03*
X147828000Y-71120000D03*
X150368000Y-71120000D03*
X152908000Y-71120000D03*
X155448000Y-71120000D03*
X157988000Y-71120000D03*
X160528000Y-71120000D03*
X163068000Y-71120000D03*
X165608000Y-71120000D03*
X168148000Y-71120000D03*
D14*
X160280000Y-54102000D03*
X159010000Y-49022000D03*
X157740000Y-54102000D03*
X156470000Y-49022000D03*
X155200000Y-54102000D03*
X153930000Y-49022000D03*
X152660000Y-54102000D03*
X151390000Y-49022000D03*
X150120000Y-54102000D03*
X148850000Y-49022000D03*
X147580000Y-54102000D03*
X146310000Y-49022000D03*
X145040000Y-54102000D03*
X143770000Y-49022000D03*
X142500000Y-54102000D03*
D15*
X176530000Y-70580000D03*
D11*
G36*
X177179505Y-67981204D02*
G01*
X177203773Y-67984804D01*
X177227572Y-67990765D01*
X177250671Y-67999030D01*
X177272850Y-68009520D01*
X177293893Y-68022132D01*
X177313599Y-68036747D01*
X177331777Y-68053223D01*
X177348253Y-68071401D01*
X177362868Y-68091107D01*
X177375480Y-68112150D01*
X177385970Y-68134329D01*
X177394235Y-68157428D01*
X177400196Y-68181227D01*
X177403796Y-68205495D01*
X177405000Y-68229999D01*
X177405000Y-68930001D01*
X177403796Y-68954505D01*
X177400196Y-68978773D01*
X177394235Y-69002572D01*
X177385970Y-69025671D01*
X177375480Y-69047850D01*
X177362868Y-69068893D01*
X177348253Y-69088599D01*
X177331777Y-69106777D01*
X177313599Y-69123253D01*
X177293893Y-69137868D01*
X177272850Y-69150480D01*
X177250671Y-69160970D01*
X177227572Y-69169235D01*
X177203773Y-69175196D01*
X177179505Y-69178796D01*
X177155001Y-69180000D01*
X175904999Y-69180000D01*
X175880495Y-69178796D01*
X175856227Y-69175196D01*
X175832428Y-69169235D01*
X175809329Y-69160970D01*
X175787150Y-69150480D01*
X175766107Y-69137868D01*
X175746401Y-69123253D01*
X175728223Y-69106777D01*
X175711747Y-69088599D01*
X175697132Y-69068893D01*
X175684520Y-69047850D01*
X175674030Y-69025671D01*
X175665765Y-69002572D01*
X175659804Y-68978773D01*
X175656204Y-68954505D01*
X175655000Y-68930001D01*
X175655000Y-68229999D01*
X175656204Y-68205495D01*
X175659804Y-68181227D01*
X175665765Y-68157428D01*
X175674030Y-68134329D01*
X175684520Y-68112150D01*
X175697132Y-68091107D01*
X175711747Y-68071401D01*
X175728223Y-68053223D01*
X175746401Y-68036747D01*
X175766107Y-68022132D01*
X175787150Y-68009520D01*
X175809329Y-67999030D01*
X175832428Y-67990765D01*
X175856227Y-67984804D01*
X175880495Y-67981204D01*
X175904999Y-67980000D01*
X177155001Y-67980000D01*
X177179505Y-67981204D01*
X177179505Y-67981204D01*
G37*
D16*
X176530000Y-68580000D03*
D15*
X176530000Y-60420000D03*
D11*
G36*
X177179505Y-57821204D02*
G01*
X177203773Y-57824804D01*
X177227572Y-57830765D01*
X177250671Y-57839030D01*
X177272850Y-57849520D01*
X177293893Y-57862132D01*
X177313599Y-57876747D01*
X177331777Y-57893223D01*
X177348253Y-57911401D01*
X177362868Y-57931107D01*
X177375480Y-57952150D01*
X177385970Y-57974329D01*
X177394235Y-57997428D01*
X177400196Y-58021227D01*
X177403796Y-58045495D01*
X177405000Y-58069999D01*
X177405000Y-58770001D01*
X177403796Y-58794505D01*
X177400196Y-58818773D01*
X177394235Y-58842572D01*
X177385970Y-58865671D01*
X177375480Y-58887850D01*
X177362868Y-58908893D01*
X177348253Y-58928599D01*
X177331777Y-58946777D01*
X177313599Y-58963253D01*
X177293893Y-58977868D01*
X177272850Y-58990480D01*
X177250671Y-59000970D01*
X177227572Y-59009235D01*
X177203773Y-59015196D01*
X177179505Y-59018796D01*
X177155001Y-59020000D01*
X175904999Y-59020000D01*
X175880495Y-59018796D01*
X175856227Y-59015196D01*
X175832428Y-59009235D01*
X175809329Y-59000970D01*
X175787150Y-58990480D01*
X175766107Y-58977868D01*
X175746401Y-58963253D01*
X175728223Y-58946777D01*
X175711747Y-58928599D01*
X175697132Y-58908893D01*
X175684520Y-58887850D01*
X175674030Y-58865671D01*
X175665765Y-58842572D01*
X175659804Y-58818773D01*
X175656204Y-58794505D01*
X175655000Y-58770001D01*
X175655000Y-58069999D01*
X175656204Y-58045495D01*
X175659804Y-58021227D01*
X175665765Y-57997428D01*
X175674030Y-57974329D01*
X175684520Y-57952150D01*
X175697132Y-57931107D01*
X175711747Y-57911401D01*
X175728223Y-57893223D01*
X175746401Y-57876747D01*
X175766107Y-57862132D01*
X175787150Y-57849520D01*
X175809329Y-57839030D01*
X175832428Y-57830765D01*
X175856227Y-57824804D01*
X175880495Y-57821204D01*
X175904999Y-57820000D01*
X177155001Y-57820000D01*
X177179505Y-57821204D01*
X177179505Y-57821204D01*
G37*
D16*
X176530000Y-58420000D03*
D15*
X125730000Y-67882000D03*
X125730000Y-69882000D03*
D11*
G36*
X126379505Y-71283204D02*
G01*
X126403773Y-71286804D01*
X126427572Y-71292765D01*
X126450671Y-71301030D01*
X126472850Y-71311520D01*
X126493893Y-71324132D01*
X126513599Y-71338747D01*
X126531777Y-71355223D01*
X126548253Y-71373401D01*
X126562868Y-71393107D01*
X126575480Y-71414150D01*
X126585970Y-71436329D01*
X126594235Y-71459428D01*
X126600196Y-71483227D01*
X126603796Y-71507495D01*
X126605000Y-71531999D01*
X126605000Y-72232001D01*
X126603796Y-72256505D01*
X126600196Y-72280773D01*
X126594235Y-72304572D01*
X126585970Y-72327671D01*
X126575480Y-72349850D01*
X126562868Y-72370893D01*
X126548253Y-72390599D01*
X126531777Y-72408777D01*
X126513599Y-72425253D01*
X126493893Y-72439868D01*
X126472850Y-72452480D01*
X126450671Y-72462970D01*
X126427572Y-72471235D01*
X126403773Y-72477196D01*
X126379505Y-72480796D01*
X126355001Y-72482000D01*
X125104999Y-72482000D01*
X125080495Y-72480796D01*
X125056227Y-72477196D01*
X125032428Y-72471235D01*
X125009329Y-72462970D01*
X124987150Y-72452480D01*
X124966107Y-72439868D01*
X124946401Y-72425253D01*
X124928223Y-72408777D01*
X124911747Y-72390599D01*
X124897132Y-72370893D01*
X124884520Y-72349850D01*
X124874030Y-72327671D01*
X124865765Y-72304572D01*
X124859804Y-72280773D01*
X124856204Y-72256505D01*
X124855000Y-72232001D01*
X124855000Y-71531999D01*
X124856204Y-71507495D01*
X124859804Y-71483227D01*
X124865765Y-71459428D01*
X124874030Y-71436329D01*
X124884520Y-71414150D01*
X124897132Y-71393107D01*
X124911747Y-71373401D01*
X124928223Y-71355223D01*
X124946401Y-71338747D01*
X124966107Y-71324132D01*
X124987150Y-71311520D01*
X125009329Y-71301030D01*
X125032428Y-71292765D01*
X125056227Y-71286804D01*
X125080495Y-71283204D01*
X125104999Y-71282000D01*
X126355001Y-71282000D01*
X126379505Y-71283204D01*
X126379505Y-71283204D01*
G37*
D16*
X125730000Y-71882000D03*
D15*
X125730000Y-58198000D03*
X125730000Y-60198000D03*
D11*
G36*
X126379505Y-61599204D02*
G01*
X126403773Y-61602804D01*
X126427572Y-61608765D01*
X126450671Y-61617030D01*
X126472850Y-61627520D01*
X126493893Y-61640132D01*
X126513599Y-61654747D01*
X126531777Y-61671223D01*
X126548253Y-61689401D01*
X126562868Y-61709107D01*
X126575480Y-61730150D01*
X126585970Y-61752329D01*
X126594235Y-61775428D01*
X126600196Y-61799227D01*
X126603796Y-61823495D01*
X126605000Y-61847999D01*
X126605000Y-62548001D01*
X126603796Y-62572505D01*
X126600196Y-62596773D01*
X126594235Y-62620572D01*
X126585970Y-62643671D01*
X126575480Y-62665850D01*
X126562868Y-62686893D01*
X126548253Y-62706599D01*
X126531777Y-62724777D01*
X126513599Y-62741253D01*
X126493893Y-62755868D01*
X126472850Y-62768480D01*
X126450671Y-62778970D01*
X126427572Y-62787235D01*
X126403773Y-62793196D01*
X126379505Y-62796796D01*
X126355001Y-62798000D01*
X125104999Y-62798000D01*
X125080495Y-62796796D01*
X125056227Y-62793196D01*
X125032428Y-62787235D01*
X125009329Y-62778970D01*
X124987150Y-62768480D01*
X124966107Y-62755868D01*
X124946401Y-62741253D01*
X124928223Y-62724777D01*
X124911747Y-62706599D01*
X124897132Y-62686893D01*
X124884520Y-62665850D01*
X124874030Y-62643671D01*
X124865765Y-62620572D01*
X124859804Y-62596773D01*
X124856204Y-62572505D01*
X124855000Y-62548001D01*
X124855000Y-61847999D01*
X124856204Y-61823495D01*
X124859804Y-61799227D01*
X124865765Y-61775428D01*
X124874030Y-61752329D01*
X124884520Y-61730150D01*
X124897132Y-61709107D01*
X124911747Y-61689401D01*
X124928223Y-61671223D01*
X124946401Y-61654747D01*
X124966107Y-61640132D01*
X124987150Y-61627520D01*
X125009329Y-61617030D01*
X125032428Y-61608765D01*
X125056227Y-61602804D01*
X125080495Y-61599204D01*
X125104999Y-61598000D01*
X126355001Y-61598000D01*
X126379505Y-61599204D01*
X126379505Y-61599204D01*
G37*
D16*
X125730000Y-62198000D03*
D17*
X139496000Y-64794000D03*
D18*
X131876000Y-64794000D03*
D17*
X170750000Y-65048000D03*
D18*
X163130000Y-65048000D03*
D17*
X139496000Y-57794000D03*
D18*
X131876000Y-57794000D03*
D17*
X170870000Y-58048000D03*
D18*
X163250000Y-58048000D03*
D17*
X139616000Y-61294000D03*
D18*
X131996000Y-61294000D03*
D17*
X170750000Y-61548000D03*
D18*
X163130000Y-61548000D03*
D17*
X139616000Y-54294000D03*
D18*
X131996000Y-54294000D03*
D17*
X170870000Y-55048000D03*
D18*
X163250000Y-55048000D03*
D19*
X153620000Y-58539500D03*
D20*
X131996000Y-54294000D02*
X133421300Y-54294000D01*
X133421300Y-54294000D02*
X138693300Y-49022000D01*
X138693300Y-49022000D02*
X143770000Y-49022000D01*
D21*
X163130000Y-61548000D02*
X163130000Y-65048000D01*
X163250000Y-60848300D02*
X163130000Y-60968300D01*
X163130000Y-60968300D02*
X163130000Y-61548000D01*
X177155000Y-67955000D02*
X173953600Y-64753600D01*
X173953600Y-64753600D02*
X173953600Y-54151200D01*
X173953600Y-54151200D02*
X172050100Y-52247700D01*
X172050100Y-52247700D02*
X163250000Y-52247700D01*
X163250000Y-52247700D02*
X163250000Y-49472700D01*
X163250000Y-49472700D02*
X160122800Y-46345500D01*
X160122800Y-46345500D02*
X147056100Y-46345500D01*
X147056100Y-46345500D02*
X146618300Y-46783300D01*
D22*
X177155000Y-67955000D02*
X176530000Y-68580000D01*
D21*
X163250000Y-58048000D02*
X163250000Y-60848300D01*
X163130000Y-61548000D02*
X160329700Y-61548000D01*
X155194000Y-61468000D02*
X160249700Y-61468000D01*
X160249700Y-61468000D02*
X160329700Y-61548000D01*
X163250000Y-58048000D02*
X163250000Y-55048000D01*
X163250000Y-55048000D02*
X163250000Y-52247700D01*
D23*
X146310000Y-49022000D02*
X146618300Y-48713700D01*
X146618300Y-48713700D02*
X146618300Y-46783300D01*
D20*
X159589800Y-54107500D02*
X159589800Y-54107600D01*
X159589800Y-54107600D02*
X159662800Y-54107600D01*
X159662800Y-54107600D02*
X159668400Y-54102000D01*
X159668400Y-54102000D02*
X160280000Y-54102000D01*
X151390000Y-49022000D02*
X154244800Y-51876800D01*
X154244800Y-51876800D02*
X157359000Y-51876800D01*
X157359000Y-51876800D02*
X159589800Y-54107500D01*
X149753600Y-63227500D02*
X153716300Y-59264800D01*
X153716300Y-59264800D02*
X153920500Y-59264800D01*
X153920500Y-59264800D02*
X154548200Y-58637100D01*
X154548200Y-58637100D02*
X155060200Y-58637100D01*
X155060200Y-58637100D02*
X159589800Y-54107500D01*
X149753600Y-63227500D02*
X150368000Y-63842000D01*
X150368000Y-63842000D02*
X150368000Y-71120000D01*
X147994000Y-61468000D02*
X149753600Y-63227500D01*
X139616000Y-61294000D02*
X147820000Y-61294000D01*
X147820000Y-61294000D02*
X147994000Y-61468000D01*
X129932800Y-62753900D02*
X126302100Y-59123300D01*
X126302100Y-59123300D02*
X125730000Y-59123300D01*
X138070700Y-64794000D02*
X136645300Y-63368600D01*
X136645300Y-63368600D02*
X130547500Y-63368600D01*
X130547500Y-63368600D02*
X130312700Y-63133800D01*
X130312700Y-63133800D02*
X130312600Y-63133800D01*
X130312600Y-63133800D02*
X129932800Y-62753900D01*
X129932800Y-62753900D02*
X125730000Y-66956700D01*
X125730000Y-67882000D02*
X125730000Y-66956700D01*
X125730000Y-58198000D02*
X125730000Y-59123300D01*
X139496000Y-64794000D02*
X138070700Y-64794000D01*
X139616000Y-54294000D02*
X142308000Y-54294000D01*
X142308000Y-54294000D02*
X142500000Y-54102000D01*
X131996000Y-61294000D02*
X133421300Y-61294000D01*
X145040000Y-54102000D02*
X142773300Y-56368700D01*
X142773300Y-56368700D02*
X138346600Y-56368700D01*
X138346600Y-56368700D02*
X133421300Y-61294000D01*
X131876000Y-57794000D02*
X133301300Y-57794000D01*
X157740000Y-54102000D02*
X156439600Y-52801600D01*
X156439600Y-52801600D02*
X138293700Y-52801600D01*
X138293700Y-52801600D02*
X133301300Y-57794000D01*
X125730000Y-62198000D02*
X124475500Y-63452500D01*
X124475500Y-63452500D02*
X124475500Y-72430500D01*
X124475500Y-72430500D02*
X133736600Y-81691600D01*
X133736600Y-81691600D02*
X153319600Y-81691600D01*
X153319600Y-81691600D02*
X155448000Y-83820000D01*
X157988000Y-83820000D02*
X151297700Y-77129700D01*
X151297700Y-77129700D02*
X130977700Y-77129700D01*
X130977700Y-77129700D02*
X125730000Y-71882000D01*
X153620000Y-58539500D02*
X152660000Y-57579500D01*
X152660000Y-57579500D02*
X152660000Y-54102000D01*
D24*
G36*
X145539123Y-44828523D02*
G01*
X145472259Y-44909996D01*
X145034465Y-45347790D01*
X144834524Y-45591419D01*
X144636275Y-45962318D01*
X144514193Y-46364767D01*
X144472971Y-46783300D01*
X144514193Y-47201833D01*
X144636275Y-47604282D01*
X144686341Y-47697949D01*
X144532621Y-47595237D01*
X144239620Y-47473871D01*
X143928571Y-47412000D01*
X143611429Y-47412000D01*
X143300380Y-47473871D01*
X143007379Y-47595237D01*
X142743685Y-47771431D01*
X142519431Y-47995685D01*
X142343237Y-48259379D01*
X142342151Y-48262000D01*
X138730623Y-48262000D01*
X138693300Y-48258324D01*
X138655977Y-48262000D01*
X138655967Y-48262000D01*
X138544314Y-48272997D01*
X138401053Y-48316454D01*
X138269023Y-48387026D01*
X138185383Y-48455668D01*
X138153299Y-48481999D01*
X138129501Y-48510997D01*
X133686707Y-52953792D01*
X133685502Y-52949820D01*
X133626537Y-52839506D01*
X133547185Y-52742815D01*
X133450494Y-52663463D01*
X133340180Y-52604498D01*
X133220482Y-52568188D01*
X133096000Y-52555928D01*
X130896000Y-52555928D01*
X130771518Y-52568188D01*
X130651820Y-52604498D01*
X130541506Y-52663463D01*
X130444815Y-52742815D01*
X130365463Y-52839506D01*
X130306498Y-52949820D01*
X130270188Y-53069518D01*
X130257928Y-53194000D01*
X130257928Y-55394000D01*
X130270188Y-55518482D01*
X130306498Y-55638180D01*
X130365463Y-55748494D01*
X130444815Y-55845185D01*
X130541506Y-55924537D01*
X130651820Y-55983502D01*
X130771518Y-56019812D01*
X130896000Y-56032072D01*
X133096000Y-56032072D01*
X133220482Y-56019812D01*
X133340180Y-55983502D01*
X133450494Y-55924537D01*
X133547185Y-55845185D01*
X133626537Y-55748494D01*
X133685502Y-55638180D01*
X133721812Y-55518482D01*
X133734072Y-55394000D01*
X133734072Y-54988575D01*
X133845576Y-54928974D01*
X133961301Y-54834001D01*
X133985104Y-54804997D01*
X139008102Y-49782000D01*
X142342151Y-49782000D01*
X142343237Y-49784621D01*
X142519431Y-50048315D01*
X142743685Y-50272569D01*
X143007379Y-50448763D01*
X143300380Y-50570129D01*
X143611429Y-50632000D01*
X143928571Y-50632000D01*
X144239620Y-50570129D01*
X144532621Y-50448763D01*
X144796315Y-50272569D01*
X145020569Y-50048315D01*
X145040000Y-50019234D01*
X145059431Y-50048315D01*
X145116363Y-50105247D01*
X145166122Y-50165878D01*
X145226753Y-50215637D01*
X145283685Y-50272569D01*
X145350624Y-50317296D01*
X145411260Y-50367059D01*
X145480444Y-50404039D01*
X145547379Y-50448763D01*
X145621754Y-50479570D01*
X145690938Y-50516550D01*
X145766001Y-50539320D01*
X145840380Y-50570129D01*
X145919345Y-50585836D01*
X145994405Y-50608605D01*
X146072467Y-50616294D01*
X146151429Y-50632000D01*
X146231934Y-50632000D01*
X146310000Y-50639689D01*
X146388066Y-50632000D01*
X146468571Y-50632000D01*
X146547533Y-50616294D01*
X146625595Y-50608605D01*
X146700655Y-50585836D01*
X146779620Y-50570129D01*
X146853999Y-50539320D01*
X146929062Y-50516550D01*
X146998246Y-50479570D01*
X147072621Y-50448763D01*
X147139556Y-50404039D01*
X147208740Y-50367059D01*
X147269378Y-50317295D01*
X147336315Y-50272569D01*
X147560569Y-50048315D01*
X147560855Y-50047887D01*
X147583808Y-50024934D01*
X147599431Y-50048315D01*
X147823685Y-50272569D01*
X148087379Y-50448763D01*
X148380380Y-50570129D01*
X148691429Y-50632000D01*
X149008571Y-50632000D01*
X149319620Y-50570129D01*
X149612621Y-50448763D01*
X149876315Y-50272569D01*
X150009300Y-50139584D01*
X150452021Y-50139584D01*
X150544766Y-50401429D01*
X150830120Y-50539820D01*
X151136990Y-50619883D01*
X151453584Y-50638540D01*
X151767733Y-50595074D01*
X152067367Y-50491156D01*
X152235234Y-50401429D01*
X152327979Y-50139584D01*
X151390000Y-49201605D01*
X150452021Y-50139584D01*
X150009300Y-50139584D01*
X150100569Y-50048315D01*
X150181184Y-49927665D01*
X150272416Y-49959979D01*
X151210395Y-49022000D01*
X151196253Y-49007858D01*
X151375858Y-48828253D01*
X151390000Y-48842395D01*
X151404143Y-48828253D01*
X151583748Y-49007858D01*
X151569605Y-49022000D01*
X152507584Y-49959979D01*
X152598816Y-49927665D01*
X152679431Y-50048315D01*
X152903685Y-50272569D01*
X153167379Y-50448763D01*
X153460380Y-50570129D01*
X153771429Y-50632000D01*
X154088571Y-50632000D01*
X154399620Y-50570129D01*
X154692621Y-50448763D01*
X154956315Y-50272569D01*
X155180569Y-50048315D01*
X155200000Y-50019234D01*
X155219431Y-50048315D01*
X155443685Y-50272569D01*
X155707379Y-50448763D01*
X156000380Y-50570129D01*
X156311429Y-50632000D01*
X156628571Y-50632000D01*
X156939620Y-50570129D01*
X157232621Y-50448763D01*
X157496315Y-50272569D01*
X157720569Y-50048315D01*
X157740000Y-50019234D01*
X157759431Y-50048315D01*
X157983685Y-50272569D01*
X158247379Y-50448763D01*
X158540380Y-50570129D01*
X158851429Y-50632000D01*
X159168571Y-50632000D01*
X159479620Y-50570129D01*
X159772621Y-50448763D01*
X160036315Y-50272569D01*
X160260569Y-50048315D01*
X160436763Y-49784621D01*
X160467755Y-49709800D01*
X161115000Y-50357045D01*
X161115000Y-52142818D01*
X161104670Y-52247700D01*
X161115000Y-52352581D01*
X161115000Y-52717608D01*
X160839880Y-52584180D01*
X160533010Y-52504117D01*
X160216416Y-52485460D01*
X159902267Y-52528926D01*
X159602633Y-52632844D01*
X159434766Y-52722571D01*
X159342021Y-52984416D01*
X160280000Y-53922395D01*
X160294143Y-53908253D01*
X160473748Y-54087858D01*
X160459605Y-54102000D01*
X160473748Y-54116143D01*
X160294143Y-54295748D01*
X160280000Y-54281605D01*
X159342021Y-55219584D01*
X159434766Y-55481429D01*
X159720120Y-55619820D01*
X160026990Y-55699883D01*
X160343584Y-55718540D01*
X160657733Y-55675074D01*
X160957367Y-55571156D01*
X161115000Y-55486899D01*
X161115000Y-59413000D01*
X160830120Y-59413000D01*
X160668233Y-59363892D01*
X160354582Y-59333000D01*
X160354572Y-59333000D01*
X160249700Y-59322671D01*
X160144828Y-59333000D01*
X155089118Y-59333000D01*
X154775467Y-59363892D01*
X154373018Y-59485974D01*
X154002119Y-59684223D01*
X153885502Y-59779928D01*
X153194000Y-59779928D01*
X153020746Y-59796992D01*
X152854150Y-59847528D01*
X152700614Y-59929595D01*
X152566038Y-60040038D01*
X152455595Y-60174614D01*
X152373528Y-60328150D01*
X152322992Y-60494746D01*
X152305928Y-60668000D01*
X152305928Y-62268000D01*
X152322992Y-62441254D01*
X152373528Y-62607850D01*
X152455595Y-62761386D01*
X152566038Y-62895962D01*
X152700614Y-63006405D01*
X152854150Y-63088472D01*
X153020746Y-63139008D01*
X153194000Y-63156072D01*
X153885502Y-63156072D01*
X154002119Y-63251777D01*
X154373018Y-63450026D01*
X154775467Y-63572108D01*
X155089118Y-63603000D01*
X159749280Y-63603000D01*
X159911167Y-63652108D01*
X160224818Y-63683000D01*
X160224827Y-63683000D01*
X160329699Y-63693329D01*
X160434571Y-63683000D01*
X160995000Y-63683000D01*
X160995000Y-65152882D01*
X161025893Y-65466533D01*
X161147975Y-65868982D01*
X161346224Y-66239881D01*
X161422488Y-66332809D01*
X161440498Y-66392180D01*
X161499463Y-66502494D01*
X161578815Y-66599185D01*
X161675506Y-66678537D01*
X161785820Y-66737502D01*
X161845191Y-66755512D01*
X161938120Y-66831777D01*
X162309019Y-67030026D01*
X162711468Y-67152108D01*
X163130000Y-67193330D01*
X163548533Y-67152108D01*
X163950982Y-67030026D01*
X164321881Y-66831777D01*
X164414811Y-66755512D01*
X164474180Y-66737502D01*
X164584494Y-66678537D01*
X164681185Y-66599185D01*
X164760537Y-66502494D01*
X164819502Y-66392180D01*
X164837512Y-66332811D01*
X164913777Y-66239881D01*
X165112026Y-65868982D01*
X165234108Y-65466533D01*
X165265000Y-65152882D01*
X165265000Y-61652881D01*
X165275330Y-61548000D01*
X165273734Y-61531791D01*
X165354108Y-61266833D01*
X165385000Y-60953182D01*
X165385000Y-60953174D01*
X165395329Y-60848300D01*
X165385000Y-60743426D01*
X165385000Y-54382700D01*
X169258747Y-54382700D01*
X169160105Y-54707881D01*
X169126606Y-55048000D01*
X169160105Y-55388119D01*
X169259314Y-55715168D01*
X169420421Y-56016578D01*
X169637234Y-56280766D01*
X169901422Y-56497579D01*
X169995753Y-56548000D01*
X169901422Y-56598421D01*
X169637234Y-56815234D01*
X169420421Y-57079422D01*
X169259314Y-57380832D01*
X169160105Y-57707881D01*
X169126606Y-58048000D01*
X169160105Y-58388119D01*
X169259314Y-58715168D01*
X169420421Y-59016578D01*
X169637234Y-59280766D01*
X169901422Y-59497579D01*
X170202832Y-59658686D01*
X170529881Y-59757895D01*
X170784775Y-59783000D01*
X170955225Y-59783000D01*
X171210119Y-59757895D01*
X171537168Y-59658686D01*
X171818600Y-59508257D01*
X171818600Y-60180507D01*
X171718578Y-60098421D01*
X171417168Y-59937314D01*
X171090119Y-59838105D01*
X170835225Y-59813000D01*
X170664775Y-59813000D01*
X170409881Y-59838105D01*
X170082832Y-59937314D01*
X169781422Y-60098421D01*
X169517234Y-60315234D01*
X169300421Y-60579422D01*
X169139314Y-60880832D01*
X169040105Y-61207881D01*
X169006606Y-61548000D01*
X169040105Y-61888119D01*
X169139314Y-62215168D01*
X169300421Y-62516578D01*
X169517234Y-62780766D01*
X169781422Y-62997579D01*
X170082832Y-63158686D01*
X170409881Y-63257895D01*
X170664775Y-63283000D01*
X170835225Y-63283000D01*
X171090119Y-63257895D01*
X171417168Y-63158686D01*
X171718578Y-62997579D01*
X171818600Y-62915493D01*
X171818600Y-63680507D01*
X171718578Y-63598421D01*
X171417168Y-63437314D01*
X171090119Y-63338105D01*
X170835225Y-63313000D01*
X170664775Y-63313000D01*
X170409881Y-63338105D01*
X170082832Y-63437314D01*
X169781422Y-63598421D01*
X169517234Y-63815234D01*
X169300421Y-64079422D01*
X169139314Y-64380832D01*
X169040105Y-64707881D01*
X169006606Y-65048000D01*
X169040105Y-65388119D01*
X169139314Y-65715168D01*
X169300421Y-66016578D01*
X169517234Y-66280766D01*
X169781422Y-66497579D01*
X170082832Y-66658686D01*
X170409881Y-66757895D01*
X170664775Y-66783000D01*
X170835225Y-66783000D01*
X171090119Y-66757895D01*
X171417168Y-66658686D01*
X171718578Y-66497579D01*
X171982766Y-66280766D01*
X172199579Y-66016578D01*
X172210856Y-65995480D01*
X172436623Y-66270577D01*
X172518092Y-66337437D01*
X175016928Y-68836274D01*
X175016928Y-68930001D01*
X175033992Y-69103255D01*
X175084528Y-69269851D01*
X175166595Y-69423387D01*
X175277038Y-69557962D01*
X175411613Y-69668405D01*
X175416406Y-69670967D01*
X175291922Y-69796526D01*
X175157579Y-69999467D01*
X175065409Y-70224718D01*
X175061538Y-70262391D01*
X175186269Y-70453000D01*
X176403000Y-70453000D01*
X176403000Y-70433000D01*
X176657000Y-70433000D01*
X176657000Y-70453000D01*
X177873731Y-70453000D01*
X177998462Y-70262391D01*
X177994591Y-70224718D01*
X177902421Y-69999467D01*
X177880299Y-69966050D01*
X177975981Y-69937025D01*
X178346881Y-69738776D01*
X178671977Y-69471977D01*
X178938776Y-69146881D01*
X179137025Y-68775981D01*
X179259107Y-68373533D01*
X179300329Y-67954999D01*
X179259107Y-67536466D01*
X179137025Y-67134017D01*
X178938776Y-66763118D01*
X178738835Y-66519489D01*
X176088600Y-63869255D01*
X176088600Y-61646987D01*
X176128000Y-61655000D01*
X176403000Y-61655000D01*
X176403000Y-60547000D01*
X176657000Y-60547000D01*
X176657000Y-61655000D01*
X176932000Y-61655000D01*
X177170496Y-61606493D01*
X177394946Y-61512390D01*
X177596725Y-61376307D01*
X177768078Y-61203474D01*
X177902421Y-61000533D01*
X177994591Y-60775282D01*
X177998462Y-60737609D01*
X177873731Y-60547000D01*
X176657000Y-60547000D01*
X176403000Y-60547000D01*
X176383000Y-60547000D01*
X176383000Y-60293000D01*
X176403000Y-60293000D01*
X176403000Y-60273000D01*
X176657000Y-60273000D01*
X176657000Y-60293000D01*
X177873731Y-60293000D01*
X177998462Y-60102391D01*
X177994591Y-60064718D01*
X177902421Y-59839467D01*
X177768078Y-59636526D01*
X177643594Y-59510967D01*
X177648387Y-59508405D01*
X177782962Y-59397962D01*
X177893405Y-59263387D01*
X177975472Y-59109851D01*
X178026008Y-58943255D01*
X178043072Y-58770001D01*
X178043072Y-58069999D01*
X178026008Y-57896745D01*
X177975472Y-57730149D01*
X177893405Y-57576613D01*
X177782962Y-57442038D01*
X177648387Y-57331595D01*
X177494851Y-57249528D01*
X177328255Y-57198992D01*
X177155001Y-57181928D01*
X176088600Y-57181928D01*
X176088600Y-54256075D01*
X176098929Y-54151200D01*
X176088600Y-54046325D01*
X176088600Y-54046318D01*
X176057708Y-53732667D01*
X176048958Y-53703820D01*
X175935626Y-53330218D01*
X175809283Y-53093846D01*
X175737377Y-52959319D01*
X175676378Y-52884992D01*
X175537436Y-52715690D01*
X175537433Y-52715687D01*
X175470577Y-52634223D01*
X175389113Y-52567367D01*
X173633937Y-50812192D01*
X173567077Y-50730723D01*
X173241981Y-50463923D01*
X172871082Y-50265674D01*
X172468633Y-50143592D01*
X172154982Y-50112700D01*
X172154972Y-50112700D01*
X172050100Y-50102371D01*
X171945228Y-50112700D01*
X165385000Y-50112700D01*
X165385000Y-49577574D01*
X165395329Y-49472700D01*
X165385000Y-49367825D01*
X165385000Y-49367818D01*
X165354108Y-49054167D01*
X165316027Y-48928629D01*
X165232026Y-48651718D01*
X165178929Y-48552380D01*
X165033777Y-48280819D01*
X164766977Y-47955723D01*
X164685508Y-47888863D01*
X161706637Y-44909992D01*
X161639777Y-44828523D01*
X161434432Y-44660000D01*
X175956730Y-44660000D01*
X175349234Y-44911633D01*
X174778442Y-45293024D01*
X174293024Y-45778442D01*
X173911633Y-46349234D01*
X173648927Y-46983463D01*
X173515000Y-47656758D01*
X173515000Y-48343242D01*
X173648927Y-49016537D01*
X173911633Y-49650766D01*
X174293024Y-50221558D01*
X174778442Y-50706976D01*
X175349234Y-51088367D01*
X175983463Y-51351073D01*
X176656758Y-51485000D01*
X177343242Y-51485000D01*
X178016537Y-51351073D01*
X178650766Y-51088367D01*
X179221558Y-50706976D01*
X179706976Y-50221558D01*
X180088367Y-49650766D01*
X180340000Y-49043270D01*
X180340001Y-82456733D01*
X180088367Y-81849234D01*
X179706976Y-81278442D01*
X179221558Y-80793024D01*
X178650766Y-80411633D01*
X178016537Y-80148927D01*
X177343242Y-80015000D01*
X176656758Y-80015000D01*
X175983463Y-80148927D01*
X175349234Y-80411633D01*
X174778442Y-80793024D01*
X174293024Y-81278442D01*
X173911633Y-81849234D01*
X173648927Y-82483463D01*
X173515000Y-83156758D01*
X173515000Y-83843242D01*
X173648927Y-84516537D01*
X173911633Y-85150766D01*
X174293024Y-85721558D01*
X174778442Y-86206976D01*
X175349234Y-86588367D01*
X175956730Y-86840000D01*
X126519270Y-86840000D01*
X127126766Y-86588367D01*
X127697558Y-86206976D01*
X128182976Y-85721558D01*
X128564367Y-85150766D01*
X128827073Y-84516537D01*
X128961000Y-83843242D01*
X128961000Y-83156758D01*
X128827073Y-82483463D01*
X128564367Y-81849234D01*
X128182976Y-81278442D01*
X127697558Y-80793024D01*
X127126766Y-80411633D01*
X126492537Y-80148927D01*
X125819242Y-80015000D01*
X125132758Y-80015000D01*
X124459463Y-80148927D01*
X123825234Y-80411633D01*
X123254442Y-80793024D01*
X122769024Y-81278442D01*
X122387633Y-81849234D01*
X122160000Y-82398789D01*
X122160000Y-63452500D01*
X123711824Y-63452500D01*
X123715500Y-63489822D01*
X123715501Y-72393168D01*
X123711824Y-72430500D01*
X123726498Y-72579485D01*
X123769954Y-72722746D01*
X123840526Y-72854776D01*
X123911701Y-72941502D01*
X123935500Y-72970501D01*
X123964498Y-72994299D01*
X133172800Y-82202602D01*
X133196599Y-82231601D01*
X133312324Y-82326574D01*
X133444353Y-82397146D01*
X133587614Y-82440603D01*
X133699267Y-82451600D01*
X133699276Y-82451600D01*
X133736599Y-82455276D01*
X133773922Y-82451600D01*
X134846626Y-82451600D01*
X134720510Y-82476686D01*
X134466273Y-82581995D01*
X134237465Y-82734880D01*
X134042880Y-82929465D01*
X133889995Y-83158273D01*
X133784686Y-83412510D01*
X133731000Y-83682408D01*
X133731000Y-83957592D01*
X133784686Y-84227490D01*
X133889995Y-84481727D01*
X134042880Y-84710535D01*
X134237465Y-84905120D01*
X134466273Y-85058005D01*
X134720510Y-85163314D01*
X134990408Y-85217000D01*
X135265592Y-85217000D01*
X135535490Y-85163314D01*
X135789727Y-85058005D01*
X136018535Y-84905120D01*
X136213120Y-84710535D01*
X136366005Y-84481727D01*
X136398000Y-84404485D01*
X136429995Y-84481727D01*
X136582880Y-84710535D01*
X136777465Y-84905120D01*
X137006273Y-85058005D01*
X137260510Y-85163314D01*
X137530408Y-85217000D01*
X137805592Y-85217000D01*
X138075490Y-85163314D01*
X138329727Y-85058005D01*
X138558535Y-84905120D01*
X138753120Y-84710535D01*
X138906005Y-84481727D01*
X138938000Y-84404485D01*
X138969995Y-84481727D01*
X139122880Y-84710535D01*
X139317465Y-84905120D01*
X139546273Y-85058005D01*
X139800510Y-85163314D01*
X140070408Y-85217000D01*
X140345592Y-85217000D01*
X140615490Y-85163314D01*
X140869727Y-85058005D01*
X141098535Y-84905120D01*
X141293120Y-84710535D01*
X141446005Y-84481727D01*
X141478000Y-84404485D01*
X141509995Y-84481727D01*
X141662880Y-84710535D01*
X141857465Y-84905120D01*
X142086273Y-85058005D01*
X142340510Y-85163314D01*
X142610408Y-85217000D01*
X142885592Y-85217000D01*
X143155490Y-85163314D01*
X143409727Y-85058005D01*
X143638535Y-84905120D01*
X143833120Y-84710535D01*
X143986005Y-84481727D01*
X144018000Y-84404485D01*
X144049995Y-84481727D01*
X144202880Y-84710535D01*
X144397465Y-84905120D01*
X144626273Y-85058005D01*
X144880510Y-85163314D01*
X145150408Y-85217000D01*
X145425592Y-85217000D01*
X145695490Y-85163314D01*
X145949727Y-85058005D01*
X146178535Y-84905120D01*
X146373120Y-84710535D01*
X146526005Y-84481727D01*
X146558000Y-84404485D01*
X146589995Y-84481727D01*
X146742880Y-84710535D01*
X146937465Y-84905120D01*
X147166273Y-85058005D01*
X147420510Y-85163314D01*
X147690408Y-85217000D01*
X147965592Y-85217000D01*
X148235490Y-85163314D01*
X148489727Y-85058005D01*
X148718535Y-84905120D01*
X148913120Y-84710535D01*
X149066005Y-84481727D01*
X149098000Y-84404485D01*
X149129995Y-84481727D01*
X149282880Y-84710535D01*
X149477465Y-84905120D01*
X149706273Y-85058005D01*
X149960510Y-85163314D01*
X150230408Y-85217000D01*
X150505592Y-85217000D01*
X150775490Y-85163314D01*
X151029727Y-85058005D01*
X151258535Y-84905120D01*
X151378090Y-84785565D01*
X152122040Y-84785565D01*
X152189020Y-85025656D01*
X152438048Y-85142756D01*
X152705135Y-85209023D01*
X152980017Y-85221910D01*
X153252133Y-85180922D01*
X153511023Y-85087636D01*
X153626980Y-85025656D01*
X153693960Y-84785565D01*
X152908000Y-83999605D01*
X152122040Y-84785565D01*
X151378090Y-84785565D01*
X151453120Y-84710535D01*
X151606005Y-84481727D01*
X151635692Y-84410057D01*
X151640364Y-84423023D01*
X151702344Y-84538980D01*
X151942435Y-84605960D01*
X152728395Y-83820000D01*
X151942435Y-83034040D01*
X151702344Y-83101020D01*
X151638515Y-83236760D01*
X151606005Y-83158273D01*
X151453120Y-82929465D01*
X151258535Y-82734880D01*
X151029727Y-82581995D01*
X150775490Y-82476686D01*
X150649374Y-82451600D01*
X152613513Y-82451600D01*
X152563867Y-82459078D01*
X152304977Y-82552364D01*
X152189020Y-82614344D01*
X152122040Y-82854435D01*
X152908000Y-83640395D01*
X152922143Y-83626253D01*
X153101748Y-83805858D01*
X153087605Y-83820000D01*
X153873565Y-84605960D01*
X154113656Y-84538980D01*
X154177485Y-84403240D01*
X154209995Y-84481727D01*
X154362880Y-84710535D01*
X154557465Y-84905120D01*
X154786273Y-85058005D01*
X155040510Y-85163314D01*
X155310408Y-85217000D01*
X155585592Y-85217000D01*
X155855490Y-85163314D01*
X156109727Y-85058005D01*
X156338535Y-84905120D01*
X156533120Y-84710535D01*
X156686005Y-84481727D01*
X156718000Y-84404485D01*
X156749995Y-84481727D01*
X156902880Y-84710535D01*
X157097465Y-84905120D01*
X157326273Y-85058005D01*
X157580510Y-85163314D01*
X157850408Y-85217000D01*
X158125592Y-85217000D01*
X158395490Y-85163314D01*
X158649727Y-85058005D01*
X158878535Y-84905120D01*
X159073120Y-84710535D01*
X159226005Y-84481727D01*
X159258000Y-84404485D01*
X159289995Y-84481727D01*
X159442880Y-84710535D01*
X159637465Y-84905120D01*
X159866273Y-85058005D01*
X160120510Y-85163314D01*
X160390408Y-85217000D01*
X160665592Y-85217000D01*
X160935490Y-85163314D01*
X161189727Y-85058005D01*
X161418535Y-84905120D01*
X161613120Y-84710535D01*
X161766005Y-84481727D01*
X161798000Y-84404485D01*
X161829995Y-84481727D01*
X161982880Y-84710535D01*
X162177465Y-84905120D01*
X162406273Y-85058005D01*
X162660510Y-85163314D01*
X162930408Y-85217000D01*
X163205592Y-85217000D01*
X163475490Y-85163314D01*
X163729727Y-85058005D01*
X163958535Y-84905120D01*
X164153120Y-84710535D01*
X164306005Y-84481727D01*
X164338000Y-84404485D01*
X164369995Y-84481727D01*
X164522880Y-84710535D01*
X164717465Y-84905120D01*
X164946273Y-85058005D01*
X165200510Y-85163314D01*
X165470408Y-85217000D01*
X165745592Y-85217000D01*
X166015490Y-85163314D01*
X166269727Y-85058005D01*
X166498535Y-84905120D01*
X166693120Y-84710535D01*
X166846005Y-84481727D01*
X166878000Y-84404485D01*
X166909995Y-84481727D01*
X167062880Y-84710535D01*
X167257465Y-84905120D01*
X167486273Y-85058005D01*
X167740510Y-85163314D01*
X168010408Y-85217000D01*
X168285592Y-85217000D01*
X168555490Y-85163314D01*
X168809727Y-85058005D01*
X169038535Y-84905120D01*
X169233120Y-84710535D01*
X169386005Y-84481727D01*
X169491314Y-84227490D01*
X169545000Y-83957592D01*
X169545000Y-83682408D01*
X169491314Y-83412510D01*
X169386005Y-83158273D01*
X169233120Y-82929465D01*
X169038535Y-82734880D01*
X168809727Y-82581995D01*
X168555490Y-82476686D01*
X168285592Y-82423000D01*
X168010408Y-82423000D01*
X167740510Y-82476686D01*
X167486273Y-82581995D01*
X167257465Y-82734880D01*
X167062880Y-82929465D01*
X166909995Y-83158273D01*
X166878000Y-83235515D01*
X166846005Y-83158273D01*
X166693120Y-82929465D01*
X166498535Y-82734880D01*
X166269727Y-82581995D01*
X166015490Y-82476686D01*
X165745592Y-82423000D01*
X165470408Y-82423000D01*
X165200510Y-82476686D01*
X164946273Y-82581995D01*
X164717465Y-82734880D01*
X164522880Y-82929465D01*
X164369995Y-83158273D01*
X164338000Y-83235515D01*
X164306005Y-83158273D01*
X164153120Y-82929465D01*
X163958535Y-82734880D01*
X163729727Y-82581995D01*
X163475490Y-82476686D01*
X163205592Y-82423000D01*
X162930408Y-82423000D01*
X162660510Y-82476686D01*
X162406273Y-82581995D01*
X162177465Y-82734880D01*
X161982880Y-82929465D01*
X161829995Y-83158273D01*
X161798000Y-83235515D01*
X161766005Y-83158273D01*
X161613120Y-82929465D01*
X161418535Y-82734880D01*
X161189727Y-82581995D01*
X160935490Y-82476686D01*
X160665592Y-82423000D01*
X160390408Y-82423000D01*
X160120510Y-82476686D01*
X159866273Y-82581995D01*
X159637465Y-82734880D01*
X159442880Y-82929465D01*
X159289995Y-83158273D01*
X159258000Y-83235515D01*
X159226005Y-83158273D01*
X159073120Y-82929465D01*
X158878535Y-82734880D01*
X158649727Y-82581995D01*
X158395490Y-82476686D01*
X158125592Y-82423000D01*
X157850408Y-82423000D01*
X157696430Y-82453628D01*
X151861504Y-76618703D01*
X151837701Y-76589699D01*
X151721976Y-76494726D01*
X151589947Y-76424154D01*
X151446686Y-76380697D01*
X151335033Y-76369700D01*
X151335022Y-76369700D01*
X151297700Y-76366024D01*
X151260378Y-76369700D01*
X131292502Y-76369700D01*
X127235158Y-72312357D01*
X127243072Y-72232001D01*
X127243072Y-71531999D01*
X127226008Y-71358745D01*
X127175472Y-71192149D01*
X127093405Y-71038613D01*
X127047279Y-70982408D01*
X133731000Y-70982408D01*
X133731000Y-71257592D01*
X133784686Y-71527490D01*
X133889995Y-71781727D01*
X134042880Y-72010535D01*
X134237465Y-72205120D01*
X134466273Y-72358005D01*
X134720510Y-72463314D01*
X134990408Y-72517000D01*
X135265592Y-72517000D01*
X135535490Y-72463314D01*
X135789727Y-72358005D01*
X136018535Y-72205120D01*
X136213120Y-72010535D01*
X136366005Y-71781727D01*
X136398000Y-71704485D01*
X136429995Y-71781727D01*
X136582880Y-72010535D01*
X136777465Y-72205120D01*
X137006273Y-72358005D01*
X137260510Y-72463314D01*
X137530408Y-72517000D01*
X137805592Y-72517000D01*
X138075490Y-72463314D01*
X138329727Y-72358005D01*
X138558535Y-72205120D01*
X138753120Y-72010535D01*
X138906005Y-71781727D01*
X138938000Y-71704485D01*
X138969995Y-71781727D01*
X139122880Y-72010535D01*
X139317465Y-72205120D01*
X139546273Y-72358005D01*
X139800510Y-72463314D01*
X140070408Y-72517000D01*
X140345592Y-72517000D01*
X140615490Y-72463314D01*
X140869727Y-72358005D01*
X141098535Y-72205120D01*
X141293120Y-72010535D01*
X141446005Y-71781727D01*
X141478000Y-71704485D01*
X141509995Y-71781727D01*
X141662880Y-72010535D01*
X141857465Y-72205120D01*
X142086273Y-72358005D01*
X142340510Y-72463314D01*
X142610408Y-72517000D01*
X142885592Y-72517000D01*
X143155490Y-72463314D01*
X143409727Y-72358005D01*
X143638535Y-72205120D01*
X143833120Y-72010535D01*
X143986005Y-71781727D01*
X144018000Y-71704485D01*
X144049995Y-71781727D01*
X144202880Y-72010535D01*
X144397465Y-72205120D01*
X144626273Y-72358005D01*
X144880510Y-72463314D01*
X145150408Y-72517000D01*
X145425592Y-72517000D01*
X145695490Y-72463314D01*
X145949727Y-72358005D01*
X146178535Y-72205120D01*
X146373120Y-72010535D01*
X146526005Y-71781727D01*
X146558000Y-71704485D01*
X146589995Y-71781727D01*
X146742880Y-72010535D01*
X146937465Y-72205120D01*
X147166273Y-72358005D01*
X147420510Y-72463314D01*
X147690408Y-72517000D01*
X147965592Y-72517000D01*
X148235490Y-72463314D01*
X148489727Y-72358005D01*
X148718535Y-72205120D01*
X148838090Y-72085565D01*
X149582040Y-72085565D01*
X149649020Y-72325656D01*
X149898048Y-72442756D01*
X150165135Y-72509023D01*
X150440017Y-72521910D01*
X150712133Y-72480922D01*
X150971023Y-72387636D01*
X151086980Y-72325656D01*
X151153960Y-72085565D01*
X150368000Y-71299605D01*
X149582040Y-72085565D01*
X148838090Y-72085565D01*
X148913120Y-72010535D01*
X149066005Y-71781727D01*
X149095692Y-71710057D01*
X149100364Y-71723023D01*
X149162344Y-71838980D01*
X149402435Y-71905960D01*
X150188395Y-71120000D01*
X150547605Y-71120000D01*
X151333565Y-71905960D01*
X151573656Y-71838980D01*
X151637485Y-71703240D01*
X151669995Y-71781727D01*
X151822880Y-72010535D01*
X152017465Y-72205120D01*
X152246273Y-72358005D01*
X152500510Y-72463314D01*
X152770408Y-72517000D01*
X153045592Y-72517000D01*
X153315490Y-72463314D01*
X153569727Y-72358005D01*
X153798535Y-72205120D01*
X153993120Y-72010535D01*
X154146005Y-71781727D01*
X154178000Y-71704485D01*
X154209995Y-71781727D01*
X154362880Y-72010535D01*
X154557465Y-72205120D01*
X154786273Y-72358005D01*
X155040510Y-72463314D01*
X155310408Y-72517000D01*
X155585592Y-72517000D01*
X155855490Y-72463314D01*
X156109727Y-72358005D01*
X156338535Y-72205120D01*
X156533120Y-72010535D01*
X156686005Y-71781727D01*
X156718000Y-71704485D01*
X156749995Y-71781727D01*
X156902880Y-72010535D01*
X157097465Y-72205120D01*
X157326273Y-72358005D01*
X157580510Y-72463314D01*
X157850408Y-72517000D01*
X158125592Y-72517000D01*
X158395490Y-72463314D01*
X158649727Y-72358005D01*
X158878535Y-72205120D01*
X159073120Y-72010535D01*
X159226005Y-71781727D01*
X159258000Y-71704485D01*
X159289995Y-71781727D01*
X159442880Y-72010535D01*
X159637465Y-72205120D01*
X159866273Y-72358005D01*
X160120510Y-72463314D01*
X160390408Y-72517000D01*
X160665592Y-72517000D01*
X160935490Y-72463314D01*
X161189727Y-72358005D01*
X161418535Y-72205120D01*
X161613120Y-72010535D01*
X161766005Y-71781727D01*
X161798000Y-71704485D01*
X161829995Y-71781727D01*
X161982880Y-72010535D01*
X162177465Y-72205120D01*
X162406273Y-72358005D01*
X162660510Y-72463314D01*
X162930408Y-72517000D01*
X163205592Y-72517000D01*
X163475490Y-72463314D01*
X163729727Y-72358005D01*
X163958535Y-72205120D01*
X164153120Y-72010535D01*
X164306005Y-71781727D01*
X164338000Y-71704485D01*
X164369995Y-71781727D01*
X164522880Y-72010535D01*
X164717465Y-72205120D01*
X164946273Y-72358005D01*
X165200510Y-72463314D01*
X165470408Y-72517000D01*
X165745592Y-72517000D01*
X166015490Y-72463314D01*
X166269727Y-72358005D01*
X166498535Y-72205120D01*
X166693120Y-72010535D01*
X166846005Y-71781727D01*
X166878000Y-71704485D01*
X166909995Y-71781727D01*
X167062880Y-72010535D01*
X167257465Y-72205120D01*
X167486273Y-72358005D01*
X167740510Y-72463314D01*
X168010408Y-72517000D01*
X168285592Y-72517000D01*
X168555490Y-72463314D01*
X168809727Y-72358005D01*
X169038535Y-72205120D01*
X169233120Y-72010535D01*
X169386005Y-71781727D01*
X169491314Y-71527490D01*
X169545000Y-71257592D01*
X169545000Y-70982408D01*
X169528133Y-70897609D01*
X175061538Y-70897609D01*
X175065409Y-70935282D01*
X175157579Y-71160533D01*
X175291922Y-71363474D01*
X175463275Y-71536307D01*
X175665054Y-71672390D01*
X175889504Y-71766493D01*
X176128000Y-71815000D01*
X176403000Y-71815000D01*
X176403000Y-70707000D01*
X176657000Y-70707000D01*
X176657000Y-71815000D01*
X176932000Y-71815000D01*
X177170496Y-71766493D01*
X177394946Y-71672390D01*
X177596725Y-71536307D01*
X177768078Y-71363474D01*
X177902421Y-71160533D01*
X177994591Y-70935282D01*
X177998462Y-70897609D01*
X177873731Y-70707000D01*
X176657000Y-70707000D01*
X176403000Y-70707000D01*
X175186269Y-70707000D01*
X175061538Y-70897609D01*
X169528133Y-70897609D01*
X169491314Y-70712510D01*
X169386005Y-70458273D01*
X169233120Y-70229465D01*
X169038535Y-70034880D01*
X168809727Y-69881995D01*
X168555490Y-69776686D01*
X168285592Y-69723000D01*
X168010408Y-69723000D01*
X167740510Y-69776686D01*
X167486273Y-69881995D01*
X167257465Y-70034880D01*
X167062880Y-70229465D01*
X166909995Y-70458273D01*
X166878000Y-70535515D01*
X166846005Y-70458273D01*
X166693120Y-70229465D01*
X166498535Y-70034880D01*
X166269727Y-69881995D01*
X166015490Y-69776686D01*
X165745592Y-69723000D01*
X165470408Y-69723000D01*
X165200510Y-69776686D01*
X164946273Y-69881995D01*
X164717465Y-70034880D01*
X164522880Y-70229465D01*
X164369995Y-70458273D01*
X164338000Y-70535515D01*
X164306005Y-70458273D01*
X164153120Y-70229465D01*
X163958535Y-70034880D01*
X163729727Y-69881995D01*
X163475490Y-69776686D01*
X163205592Y-69723000D01*
X162930408Y-69723000D01*
X162660510Y-69776686D01*
X162406273Y-69881995D01*
X162177465Y-70034880D01*
X161982880Y-70229465D01*
X161829995Y-70458273D01*
X161798000Y-70535515D01*
X161766005Y-70458273D01*
X161613120Y-70229465D01*
X161418535Y-70034880D01*
X161189727Y-69881995D01*
X160935490Y-69776686D01*
X160665592Y-69723000D01*
X160390408Y-69723000D01*
X160120510Y-69776686D01*
X159866273Y-69881995D01*
X159637465Y-70034880D01*
X159442880Y-70229465D01*
X159289995Y-70458273D01*
X159258000Y-70535515D01*
X159226005Y-70458273D01*
X159073120Y-70229465D01*
X158878535Y-70034880D01*
X158649727Y-69881995D01*
X158395490Y-69776686D01*
X158125592Y-69723000D01*
X157850408Y-69723000D01*
X157580510Y-69776686D01*
X157326273Y-69881995D01*
X157097465Y-70034880D01*
X156902880Y-70229465D01*
X156749995Y-70458273D01*
X156718000Y-70535515D01*
X156686005Y-70458273D01*
X156533120Y-70229465D01*
X156338535Y-70034880D01*
X156109727Y-69881995D01*
X155855490Y-69776686D01*
X155585592Y-69723000D01*
X155310408Y-69723000D01*
X155040510Y-69776686D01*
X154786273Y-69881995D01*
X154557465Y-70034880D01*
X154362880Y-70229465D01*
X154209995Y-70458273D01*
X154178000Y-70535515D01*
X154146005Y-70458273D01*
X153993120Y-70229465D01*
X153798535Y-70034880D01*
X153569727Y-69881995D01*
X153315490Y-69776686D01*
X153045592Y-69723000D01*
X152770408Y-69723000D01*
X152500510Y-69776686D01*
X152246273Y-69881995D01*
X152017465Y-70034880D01*
X151822880Y-70229465D01*
X151669995Y-70458273D01*
X151640308Y-70529943D01*
X151635636Y-70516977D01*
X151573656Y-70401020D01*
X151333565Y-70334040D01*
X150547605Y-71120000D01*
X150188395Y-71120000D01*
X149402435Y-70334040D01*
X149162344Y-70401020D01*
X149098515Y-70536760D01*
X149066005Y-70458273D01*
X148913120Y-70229465D01*
X148838090Y-70154435D01*
X149582040Y-70154435D01*
X150368000Y-70940395D01*
X151153960Y-70154435D01*
X151086980Y-69914344D01*
X150837952Y-69797244D01*
X150570865Y-69730977D01*
X150295983Y-69718090D01*
X150023867Y-69759078D01*
X149764977Y-69852364D01*
X149649020Y-69914344D01*
X149582040Y-70154435D01*
X148838090Y-70154435D01*
X148718535Y-70034880D01*
X148489727Y-69881995D01*
X148235490Y-69776686D01*
X147965592Y-69723000D01*
X147690408Y-69723000D01*
X147420510Y-69776686D01*
X147166273Y-69881995D01*
X146937465Y-70034880D01*
X146742880Y-70229465D01*
X146589995Y-70458273D01*
X146558000Y-70535515D01*
X146526005Y-70458273D01*
X146373120Y-70229465D01*
X146178535Y-70034880D01*
X145949727Y-69881995D01*
X145695490Y-69776686D01*
X145425592Y-69723000D01*
X145150408Y-69723000D01*
X144880510Y-69776686D01*
X144626273Y-69881995D01*
X144397465Y-70034880D01*
X144202880Y-70229465D01*
X144049995Y-70458273D01*
X144018000Y-70535515D01*
X143986005Y-70458273D01*
X143833120Y-70229465D01*
X143638535Y-70034880D01*
X143409727Y-69881995D01*
X143155490Y-69776686D01*
X142885592Y-69723000D01*
X142610408Y-69723000D01*
X142340510Y-69776686D01*
X142086273Y-69881995D01*
X141857465Y-70034880D01*
X141662880Y-70229465D01*
X141509995Y-70458273D01*
X141478000Y-70535515D01*
X141446005Y-70458273D01*
X141293120Y-70229465D01*
X141098535Y-70034880D01*
X140869727Y-69881995D01*
X140615490Y-69776686D01*
X140345592Y-69723000D01*
X140070408Y-69723000D01*
X139800510Y-69776686D01*
X139546273Y-69881995D01*
X139317465Y-70034880D01*
X139122880Y-70229465D01*
X138969995Y-70458273D01*
X138938000Y-70535515D01*
X138906005Y-70458273D01*
X138753120Y-70229465D01*
X138558535Y-70034880D01*
X138329727Y-69881995D01*
X138075490Y-69776686D01*
X137805592Y-69723000D01*
X137530408Y-69723000D01*
X137260510Y-69776686D01*
X137006273Y-69881995D01*
X136777465Y-70034880D01*
X136582880Y-70229465D01*
X136429995Y-70458273D01*
X136398000Y-70535515D01*
X136366005Y-70458273D01*
X136213120Y-70229465D01*
X136018535Y-70034880D01*
X135789727Y-69881995D01*
X135535490Y-69776686D01*
X135265592Y-69723000D01*
X134990408Y-69723000D01*
X134720510Y-69776686D01*
X134466273Y-69881995D01*
X134237465Y-70034880D01*
X134042880Y-70229465D01*
X133889995Y-70458273D01*
X133784686Y-70712510D01*
X133731000Y-70982408D01*
X127047279Y-70982408D01*
X126982962Y-70904038D01*
X126848387Y-70793595D01*
X126843889Y-70791191D01*
X126882502Y-70759502D01*
X127036833Y-70571449D01*
X127151511Y-70356901D01*
X127222130Y-70124102D01*
X127245975Y-69882000D01*
X127222130Y-69639898D01*
X127151511Y-69407099D01*
X127036833Y-69192551D01*
X126882502Y-69004498D01*
X126732652Y-68881519D01*
X126796725Y-68838307D01*
X126968078Y-68665474D01*
X127102421Y-68462533D01*
X127194591Y-68237282D01*
X127198462Y-68199609D01*
X127073731Y-68009000D01*
X125857000Y-68009000D01*
X125857000Y-68029000D01*
X125603000Y-68029000D01*
X125603000Y-68009000D01*
X125583000Y-68009000D01*
X125583000Y-67755000D01*
X125603000Y-67755000D01*
X125603000Y-66647000D01*
X125857000Y-66647000D01*
X125857000Y-67755000D01*
X127073731Y-67755000D01*
X127198462Y-67564391D01*
X127194591Y-67526718D01*
X127102421Y-67301467D01*
X126968078Y-67098526D01*
X126796725Y-66925693D01*
X126594946Y-66789610D01*
X126370496Y-66695507D01*
X126132000Y-66647000D01*
X125857000Y-66647000D01*
X125603000Y-66647000D01*
X125328000Y-66647000D01*
X125235500Y-66665813D01*
X125235500Y-63767301D01*
X125308801Y-63694000D01*
X130137928Y-63694000D01*
X130137928Y-65894000D01*
X130150188Y-66018482D01*
X130186498Y-66138180D01*
X130245463Y-66248494D01*
X130324815Y-66345185D01*
X130421506Y-66424537D01*
X130531820Y-66483502D01*
X130651518Y-66519812D01*
X130776000Y-66532072D01*
X132976000Y-66532072D01*
X133100482Y-66519812D01*
X133220180Y-66483502D01*
X133330494Y-66424537D01*
X133427185Y-66345185D01*
X133506537Y-66248494D01*
X133565502Y-66138180D01*
X133601812Y-66018482D01*
X133614072Y-65894000D01*
X133614072Y-65190122D01*
X137806825Y-65190122D01*
X137871425Y-65403094D01*
X138021469Y-65708329D01*
X138228178Y-65978427D01*
X138483609Y-66203008D01*
X138777946Y-66373442D01*
X139099877Y-66483179D01*
X139369000Y-66365600D01*
X139369000Y-64921000D01*
X139623000Y-64921000D01*
X139623000Y-66365600D01*
X139892123Y-66483179D01*
X140214054Y-66373442D01*
X140508391Y-66203008D01*
X140763822Y-65978427D01*
X140970531Y-65708329D01*
X141120575Y-65403094D01*
X141185175Y-65190122D01*
X141067125Y-64921000D01*
X139623000Y-64921000D01*
X139369000Y-64921000D01*
X137924875Y-64921000D01*
X137806825Y-65190122D01*
X133614072Y-65190122D01*
X133614072Y-64397878D01*
X137806825Y-64397878D01*
X137924875Y-64667000D01*
X139369000Y-64667000D01*
X139369000Y-63222400D01*
X139623000Y-63222400D01*
X139623000Y-64667000D01*
X141067125Y-64667000D01*
X141185175Y-64397878D01*
X141120575Y-64184906D01*
X140970531Y-63879671D01*
X140763822Y-63609573D01*
X140508391Y-63384992D01*
X140214054Y-63214558D01*
X139892123Y-63104821D01*
X139623000Y-63222400D01*
X139369000Y-63222400D01*
X139099877Y-63104821D01*
X138777946Y-63214558D01*
X138483609Y-63384992D01*
X138228178Y-63609573D01*
X138021469Y-63879671D01*
X137871425Y-64184906D01*
X137806825Y-64397878D01*
X133614072Y-64397878D01*
X133614072Y-63694000D01*
X133601812Y-63569518D01*
X133565502Y-63449820D01*
X133506537Y-63339506D01*
X133427185Y-63242815D01*
X133330494Y-63163463D01*
X133220180Y-63104498D01*
X133100482Y-63068188D01*
X132976000Y-63055928D01*
X130776000Y-63055928D01*
X130651518Y-63068188D01*
X130531820Y-63104498D01*
X130421506Y-63163463D01*
X130324815Y-63242815D01*
X130245463Y-63339506D01*
X130186498Y-63449820D01*
X130150188Y-63569518D01*
X130137928Y-63694000D01*
X125308801Y-63694000D01*
X125566729Y-63436072D01*
X126355001Y-63436072D01*
X126528255Y-63419008D01*
X126694851Y-63368472D01*
X126848387Y-63286405D01*
X126982962Y-63175962D01*
X127093405Y-63041387D01*
X127175472Y-62887851D01*
X127226008Y-62721255D01*
X127243072Y-62548001D01*
X127243072Y-61847999D01*
X127226008Y-61674745D01*
X127175472Y-61508149D01*
X127093405Y-61354613D01*
X126982962Y-61220038D01*
X126848387Y-61109595D01*
X126843889Y-61107191D01*
X126882502Y-61075502D01*
X127036833Y-60887449D01*
X127151511Y-60672901D01*
X127222130Y-60440102D01*
X127245975Y-60198000D01*
X127222130Y-59955898D01*
X127151511Y-59723099D01*
X127036833Y-59508551D01*
X126882502Y-59320498D01*
X126732652Y-59197519D01*
X126796725Y-59154307D01*
X126968078Y-58981474D01*
X127102421Y-58778533D01*
X127194591Y-58553282D01*
X127198462Y-58515609D01*
X127073731Y-58325000D01*
X125857000Y-58325000D01*
X125857000Y-58345000D01*
X125603000Y-58345000D01*
X125603000Y-58325000D01*
X124386269Y-58325000D01*
X124261538Y-58515609D01*
X124265409Y-58553282D01*
X124357579Y-58778533D01*
X124491922Y-58981474D01*
X124663275Y-59154307D01*
X124727348Y-59197519D01*
X124577498Y-59320498D01*
X124423167Y-59508551D01*
X124308489Y-59723099D01*
X124237870Y-59955898D01*
X124214025Y-60198000D01*
X124237870Y-60440102D01*
X124308489Y-60672901D01*
X124423167Y-60887449D01*
X124577498Y-61075502D01*
X124616111Y-61107191D01*
X124611613Y-61109595D01*
X124477038Y-61220038D01*
X124366595Y-61354613D01*
X124284528Y-61508149D01*
X124233992Y-61674745D01*
X124216928Y-61847999D01*
X124216928Y-62548001D01*
X124224842Y-62628356D01*
X123964503Y-62888696D01*
X123935499Y-62912499D01*
X123888454Y-62969824D01*
X123840526Y-63028224D01*
X123773831Y-63153000D01*
X123769954Y-63160254D01*
X123726497Y-63303515D01*
X123715500Y-63415168D01*
X123715500Y-63415178D01*
X123711824Y-63452500D01*
X122160000Y-63452500D01*
X122160000Y-57880391D01*
X124261538Y-57880391D01*
X124386269Y-58071000D01*
X125603000Y-58071000D01*
X125603000Y-56963000D01*
X125857000Y-56963000D01*
X125857000Y-58071000D01*
X127073731Y-58071000D01*
X127198462Y-57880391D01*
X127194591Y-57842718D01*
X127102421Y-57617467D01*
X126968078Y-57414526D01*
X126796725Y-57241693D01*
X126594946Y-57105610D01*
X126370496Y-57011507D01*
X126132000Y-56963000D01*
X125857000Y-56963000D01*
X125603000Y-56963000D01*
X125328000Y-56963000D01*
X125089504Y-57011507D01*
X124865054Y-57105610D01*
X124663275Y-57241693D01*
X124491922Y-57414526D01*
X124357579Y-57617467D01*
X124265409Y-57842718D01*
X124261538Y-57880391D01*
X122160000Y-57880391D01*
X122160000Y-56694000D01*
X130137928Y-56694000D01*
X130137928Y-58894000D01*
X130150188Y-59018482D01*
X130186498Y-59138180D01*
X130245463Y-59248494D01*
X130324815Y-59345185D01*
X130421506Y-59424537D01*
X130531820Y-59483502D01*
X130651518Y-59519812D01*
X130776000Y-59532072D01*
X132976000Y-59532072D01*
X133100482Y-59519812D01*
X133220180Y-59483502D01*
X133330494Y-59424537D01*
X133427185Y-59345185D01*
X133506537Y-59248494D01*
X133565502Y-59138180D01*
X133601812Y-59018482D01*
X133614072Y-58894000D01*
X133614072Y-58488575D01*
X133725576Y-58428974D01*
X133841301Y-58334001D01*
X133865104Y-58304997D01*
X138032138Y-54137964D01*
X138044875Y-54167000D01*
X139489000Y-54167000D01*
X139489000Y-54147000D01*
X139743000Y-54147000D01*
X139743000Y-54167000D01*
X139763000Y-54167000D01*
X139763000Y-54421000D01*
X139743000Y-54421000D01*
X139743000Y-54441000D01*
X139489000Y-54441000D01*
X139489000Y-54421000D01*
X138044875Y-54421000D01*
X137926825Y-54690122D01*
X137991425Y-54903094D01*
X138141469Y-55208329D01*
X138348178Y-55478427D01*
X138496346Y-55608700D01*
X138383922Y-55608700D01*
X138346599Y-55605024D01*
X138309276Y-55608700D01*
X138309267Y-55608700D01*
X138197614Y-55619697D01*
X138054353Y-55663154D01*
X137922323Y-55733726D01*
X137838683Y-55802368D01*
X137806599Y-55828699D01*
X137782801Y-55857697D01*
X133686707Y-59953792D01*
X133685502Y-59949820D01*
X133626537Y-59839506D01*
X133547185Y-59742815D01*
X133450494Y-59663463D01*
X133340180Y-59604498D01*
X133220482Y-59568188D01*
X133096000Y-59555928D01*
X130896000Y-59555928D01*
X130771518Y-59568188D01*
X130651820Y-59604498D01*
X130541506Y-59663463D01*
X130444815Y-59742815D01*
X130365463Y-59839506D01*
X130306498Y-59949820D01*
X130270188Y-60069518D01*
X130257928Y-60194000D01*
X130257928Y-62394000D01*
X130270188Y-62518482D01*
X130306498Y-62638180D01*
X130365463Y-62748494D01*
X130444815Y-62845185D01*
X130541506Y-62924537D01*
X130651820Y-62983502D01*
X130771518Y-63019812D01*
X130896000Y-63032072D01*
X133096000Y-63032072D01*
X133220482Y-63019812D01*
X133340180Y-62983502D01*
X133450494Y-62924537D01*
X133547185Y-62845185D01*
X133626537Y-62748494D01*
X133685502Y-62638180D01*
X133721812Y-62518482D01*
X133734072Y-62394000D01*
X133734072Y-61988575D01*
X133845576Y-61928974D01*
X133961301Y-61834001D01*
X133985104Y-61804997D01*
X134099979Y-61690122D01*
X137926825Y-61690122D01*
X137991425Y-61903094D01*
X138141469Y-62208329D01*
X138348178Y-62478427D01*
X138603609Y-62703008D01*
X138897946Y-62873442D01*
X139219877Y-62983179D01*
X139489000Y-62865600D01*
X139489000Y-61421000D01*
X139743000Y-61421000D01*
X139743000Y-62865600D01*
X140012123Y-62983179D01*
X140334054Y-62873442D01*
X140628391Y-62703008D01*
X140838812Y-62518000D01*
X145105928Y-62518000D01*
X145118188Y-62642482D01*
X145154498Y-62762180D01*
X145213463Y-62872494D01*
X145292815Y-62969185D01*
X145389506Y-63048537D01*
X145499820Y-63107502D01*
X145619518Y-63143812D01*
X145744000Y-63156072D01*
X147708250Y-63153000D01*
X147867000Y-62994250D01*
X147867000Y-61595000D01*
X148121000Y-61595000D01*
X148121000Y-62994250D01*
X148279750Y-63153000D01*
X150244000Y-63156072D01*
X150368482Y-63143812D01*
X150488180Y-63107502D01*
X150598494Y-63048537D01*
X150695185Y-62969185D01*
X150774537Y-62872494D01*
X150833502Y-62762180D01*
X150869812Y-62642482D01*
X150882072Y-62518000D01*
X150879000Y-61753750D01*
X150720250Y-61595000D01*
X148121000Y-61595000D01*
X147867000Y-61595000D01*
X145267750Y-61595000D01*
X145109000Y-61753750D01*
X145105928Y-62518000D01*
X140838812Y-62518000D01*
X140883822Y-62478427D01*
X141090531Y-62208329D01*
X141240575Y-61903094D01*
X141305175Y-61690122D01*
X141187125Y-61421000D01*
X139743000Y-61421000D01*
X139489000Y-61421000D01*
X138044875Y-61421000D01*
X137926825Y-61690122D01*
X134099979Y-61690122D01*
X134892223Y-60897878D01*
X137926825Y-60897878D01*
X138044875Y-61167000D01*
X139489000Y-61167000D01*
X139489000Y-59722400D01*
X139743000Y-59722400D01*
X139743000Y-61167000D01*
X141187125Y-61167000D01*
X141305175Y-60897878D01*
X141240575Y-60684906D01*
X141109373Y-60418000D01*
X145105928Y-60418000D01*
X145109000Y-61182250D01*
X145267750Y-61341000D01*
X147867000Y-61341000D01*
X147867000Y-59941750D01*
X148121000Y-59941750D01*
X148121000Y-61341000D01*
X150720250Y-61341000D01*
X150879000Y-61182250D01*
X150882072Y-60418000D01*
X150869812Y-60293518D01*
X150833502Y-60173820D01*
X150774537Y-60063506D01*
X150695185Y-59966815D01*
X150598494Y-59887463D01*
X150488180Y-59828498D01*
X150368482Y-59792188D01*
X150244000Y-59779928D01*
X148279750Y-59783000D01*
X148121000Y-59941750D01*
X147867000Y-59941750D01*
X147708250Y-59783000D01*
X145744000Y-59779928D01*
X145619518Y-59792188D01*
X145499820Y-59828498D01*
X145389506Y-59887463D01*
X145292815Y-59966815D01*
X145213463Y-60063506D01*
X145154498Y-60173820D01*
X145118188Y-60293518D01*
X145105928Y-60418000D01*
X141109373Y-60418000D01*
X141090531Y-60379671D01*
X140883822Y-60109573D01*
X140628391Y-59884992D01*
X140334054Y-59714558D01*
X140012123Y-59604821D01*
X139743000Y-59722400D01*
X139489000Y-59722400D01*
X139219877Y-59604821D01*
X138897946Y-59714558D01*
X138603609Y-59884992D01*
X138348178Y-60109573D01*
X138141469Y-60379671D01*
X137991425Y-60684906D01*
X137926825Y-60897878D01*
X134892223Y-60897878D01*
X137869100Y-57921002D01*
X137924874Y-57921002D01*
X137806825Y-58190122D01*
X137871425Y-58403094D01*
X138021469Y-58708329D01*
X138228178Y-58978427D01*
X138483609Y-59203008D01*
X138777946Y-59373442D01*
X139099877Y-59483179D01*
X139369000Y-59365600D01*
X139369000Y-57921000D01*
X139623000Y-57921000D01*
X139623000Y-59365600D01*
X139892123Y-59483179D01*
X140214054Y-59373442D01*
X140508391Y-59203008D01*
X140763822Y-58978427D01*
X140970531Y-58708329D01*
X141120575Y-58403094D01*
X141185175Y-58190122D01*
X141067125Y-57921000D01*
X139623000Y-57921000D01*
X139369000Y-57921000D01*
X139349000Y-57921000D01*
X139349000Y-57667000D01*
X139369000Y-57667000D01*
X139369000Y-57647000D01*
X139623000Y-57647000D01*
X139623000Y-57667000D01*
X141067125Y-57667000D01*
X141185175Y-57397878D01*
X141120575Y-57184906D01*
X141092946Y-57128700D01*
X142735978Y-57128700D01*
X142773300Y-57132376D01*
X142810622Y-57128700D01*
X142810633Y-57128700D01*
X142922286Y-57117703D01*
X143065547Y-57074246D01*
X143197576Y-57003674D01*
X143313301Y-56908701D01*
X143337104Y-56879697D01*
X144567758Y-55649043D01*
X144570380Y-55650129D01*
X144881429Y-55712000D01*
X145198571Y-55712000D01*
X145509620Y-55650129D01*
X145802621Y-55528763D01*
X146066315Y-55352569D01*
X146290569Y-55128315D01*
X146310000Y-55099234D01*
X146329431Y-55128315D01*
X146553685Y-55352569D01*
X146817379Y-55528763D01*
X147110380Y-55650129D01*
X147421429Y-55712000D01*
X147738571Y-55712000D01*
X148049620Y-55650129D01*
X148342621Y-55528763D01*
X148606315Y-55352569D01*
X148830569Y-55128315D01*
X148850000Y-55099234D01*
X148869431Y-55128315D01*
X149093685Y-55352569D01*
X149357379Y-55528763D01*
X149650380Y-55650129D01*
X149961429Y-55712000D01*
X150278571Y-55712000D01*
X150589620Y-55650129D01*
X150882621Y-55528763D01*
X151146315Y-55352569D01*
X151370569Y-55128315D01*
X151390000Y-55099234D01*
X151409431Y-55128315D01*
X151633685Y-55352569D01*
X151897379Y-55528763D01*
X151900001Y-55529849D01*
X151900000Y-57542177D01*
X151896324Y-57579500D01*
X151900000Y-57616822D01*
X151900000Y-57616832D01*
X151910997Y-57728485D01*
X151945649Y-57842718D01*
X151954454Y-57871746D01*
X152025026Y-58003776D01*
X152061320Y-58048000D01*
X152119999Y-58119501D01*
X152149002Y-58143304D01*
X152585000Y-58579301D01*
X152585000Y-58641439D01*
X152624774Y-58841398D01*
X152702795Y-59029756D01*
X152816063Y-59199274D01*
X152960226Y-59343437D01*
X153129744Y-59456705D01*
X153318102Y-59534726D01*
X153518061Y-59574500D01*
X153721939Y-59574500D01*
X153921898Y-59534726D01*
X154110256Y-59456705D01*
X154279774Y-59343437D01*
X154423937Y-59199274D01*
X154537205Y-59029756D01*
X154615226Y-58841398D01*
X154655000Y-58641439D01*
X154655000Y-58437561D01*
X154615226Y-58237602D01*
X154537205Y-58049244D01*
X154423937Y-57879726D01*
X154279774Y-57735563D01*
X154110256Y-57622295D01*
X153921898Y-57544274D01*
X153721939Y-57504500D01*
X153659801Y-57504500D01*
X153420000Y-57264699D01*
X153420000Y-55529849D01*
X153422621Y-55528763D01*
X153686315Y-55352569D01*
X153910569Y-55128315D01*
X153930000Y-55099234D01*
X153949431Y-55128315D01*
X154173685Y-55352569D01*
X154437379Y-55528763D01*
X154730380Y-55650129D01*
X155041429Y-55712000D01*
X155358571Y-55712000D01*
X155669620Y-55650129D01*
X155962621Y-55528763D01*
X156226315Y-55352569D01*
X156450569Y-55128315D01*
X156470000Y-55099234D01*
X156489431Y-55128315D01*
X156713685Y-55352569D01*
X156977379Y-55528763D01*
X157270380Y-55650129D01*
X157581429Y-55712000D01*
X157898571Y-55712000D01*
X158209620Y-55650129D01*
X158502621Y-55528763D01*
X158766315Y-55352569D01*
X158990569Y-55128315D01*
X159071184Y-55007665D01*
X159162416Y-55039979D01*
X160100395Y-54102000D01*
X159162416Y-53164021D01*
X159071184Y-53196335D01*
X158990569Y-53075685D01*
X158766315Y-52851431D01*
X158502621Y-52675237D01*
X158209620Y-52553871D01*
X157898571Y-52492000D01*
X157581429Y-52492000D01*
X157270380Y-52553871D01*
X157267758Y-52554957D01*
X157003404Y-52290603D01*
X156979601Y-52261599D01*
X156863876Y-52166626D01*
X156731847Y-52096054D01*
X156588586Y-52052597D01*
X156476933Y-52041600D01*
X156476922Y-52041600D01*
X156439600Y-52037924D01*
X156402278Y-52041600D01*
X138331025Y-52041600D01*
X138293700Y-52037924D01*
X138256375Y-52041600D01*
X138256367Y-52041600D01*
X138144714Y-52052597D01*
X138001453Y-52096054D01*
X137869424Y-52166626D01*
X137753699Y-52261599D01*
X137729901Y-52290597D01*
X133566707Y-56453792D01*
X133565502Y-56449820D01*
X133506537Y-56339506D01*
X133427185Y-56242815D01*
X133330494Y-56163463D01*
X133220180Y-56104498D01*
X133100482Y-56068188D01*
X132976000Y-56055928D01*
X130776000Y-56055928D01*
X130651518Y-56068188D01*
X130531820Y-56104498D01*
X130421506Y-56163463D01*
X130324815Y-56242815D01*
X130245463Y-56339506D01*
X130186498Y-56449820D01*
X130150188Y-56569518D01*
X130137928Y-56694000D01*
X122160000Y-56694000D01*
X122160000Y-49043270D01*
X122411633Y-49650766D01*
X122793024Y-50221558D01*
X123278442Y-50706976D01*
X123849234Y-51088367D01*
X124483463Y-51351073D01*
X125156758Y-51485000D01*
X125843242Y-51485000D01*
X126516537Y-51351073D01*
X127150766Y-51088367D01*
X127721558Y-50706976D01*
X128206976Y-50221558D01*
X128588367Y-49650766D01*
X128851073Y-49016537D01*
X128985000Y-48343242D01*
X128985000Y-47656758D01*
X128851073Y-46983463D01*
X128588367Y-46349234D01*
X128206976Y-45778442D01*
X127721558Y-45293024D01*
X127150766Y-44911633D01*
X126543270Y-44660000D01*
X145744468Y-44660000D01*
X145539123Y-44828523D01*
X145539123Y-44828523D01*
G37*
X145539123Y-44828523D02*
X145472259Y-44909996D01*
X145034465Y-45347790D01*
X144834524Y-45591419D01*
X144636275Y-45962318D01*
X144514193Y-46364767D01*
X144472971Y-46783300D01*
X144514193Y-47201833D01*
X144636275Y-47604282D01*
X144686341Y-47697949D01*
X144532621Y-47595237D01*
X144239620Y-47473871D01*
X143928571Y-47412000D01*
X143611429Y-47412000D01*
X143300380Y-47473871D01*
X143007379Y-47595237D01*
X142743685Y-47771431D01*
X142519431Y-47995685D01*
X142343237Y-48259379D01*
X142342151Y-48262000D01*
X138730623Y-48262000D01*
X138693300Y-48258324D01*
X138655977Y-48262000D01*
X138655967Y-48262000D01*
X138544314Y-48272997D01*
X138401053Y-48316454D01*
X138269023Y-48387026D01*
X138185383Y-48455668D01*
X138153299Y-48481999D01*
X138129501Y-48510997D01*
X133686707Y-52953792D01*
X133685502Y-52949820D01*
X133626537Y-52839506D01*
X133547185Y-52742815D01*
X133450494Y-52663463D01*
X133340180Y-52604498D01*
X133220482Y-52568188D01*
X133096000Y-52555928D01*
X130896000Y-52555928D01*
X130771518Y-52568188D01*
X130651820Y-52604498D01*
X130541506Y-52663463D01*
X130444815Y-52742815D01*
X130365463Y-52839506D01*
X130306498Y-52949820D01*
X130270188Y-53069518D01*
X130257928Y-53194000D01*
X130257928Y-55394000D01*
X130270188Y-55518482D01*
X130306498Y-55638180D01*
X130365463Y-55748494D01*
X130444815Y-55845185D01*
X130541506Y-55924537D01*
X130651820Y-55983502D01*
X130771518Y-56019812D01*
X130896000Y-56032072D01*
X133096000Y-56032072D01*
X133220482Y-56019812D01*
X133340180Y-55983502D01*
X133450494Y-55924537D01*
X133547185Y-55845185D01*
X133626537Y-55748494D01*
X133685502Y-55638180D01*
X133721812Y-55518482D01*
X133734072Y-55394000D01*
X133734072Y-54988575D01*
X133845576Y-54928974D01*
X133961301Y-54834001D01*
X133985104Y-54804997D01*
X139008102Y-49782000D01*
X142342151Y-49782000D01*
X142343237Y-49784621D01*
X142519431Y-50048315D01*
X142743685Y-50272569D01*
X143007379Y-50448763D01*
X143300380Y-50570129D01*
X143611429Y-50632000D01*
X143928571Y-50632000D01*
X144239620Y-50570129D01*
X144532621Y-50448763D01*
X144796315Y-50272569D01*
X145020569Y-50048315D01*
X145040000Y-50019234D01*
X145059431Y-50048315D01*
X145116363Y-50105247D01*
X145166122Y-50165878D01*
X145226753Y-50215637D01*
X145283685Y-50272569D01*
X145350624Y-50317296D01*
X145411260Y-50367059D01*
X145480444Y-50404039D01*
X145547379Y-50448763D01*
X145621754Y-50479570D01*
X145690938Y-50516550D01*
X145766001Y-50539320D01*
X145840380Y-50570129D01*
X145919345Y-50585836D01*
X145994405Y-50608605D01*
X146072467Y-50616294D01*
X146151429Y-50632000D01*
X146231934Y-50632000D01*
X146310000Y-50639689D01*
X146388066Y-50632000D01*
X146468571Y-50632000D01*
X146547533Y-50616294D01*
X146625595Y-50608605D01*
X146700655Y-50585836D01*
X146779620Y-50570129D01*
X146853999Y-50539320D01*
X146929062Y-50516550D01*
X146998246Y-50479570D01*
X147072621Y-50448763D01*
X147139556Y-50404039D01*
X147208740Y-50367059D01*
X147269378Y-50317295D01*
X147336315Y-50272569D01*
X147560569Y-50048315D01*
X147560855Y-50047887D01*
X147583808Y-50024934D01*
X147599431Y-50048315D01*
X147823685Y-50272569D01*
X148087379Y-50448763D01*
X148380380Y-50570129D01*
X148691429Y-50632000D01*
X149008571Y-50632000D01*
X149319620Y-50570129D01*
X149612621Y-50448763D01*
X149876315Y-50272569D01*
X150009300Y-50139584D01*
X150452021Y-50139584D01*
X150544766Y-50401429D01*
X150830120Y-50539820D01*
X151136990Y-50619883D01*
X151453584Y-50638540D01*
X151767733Y-50595074D01*
X152067367Y-50491156D01*
X152235234Y-50401429D01*
X152327979Y-50139584D01*
X151390000Y-49201605D01*
X150452021Y-50139584D01*
X150009300Y-50139584D01*
X150100569Y-50048315D01*
X150181184Y-49927665D01*
X150272416Y-49959979D01*
X151210395Y-49022000D01*
X151196253Y-49007858D01*
X151375858Y-48828253D01*
X151390000Y-48842395D01*
X151404143Y-48828253D01*
X151583748Y-49007858D01*
X151569605Y-49022000D01*
X152507584Y-49959979D01*
X152598816Y-49927665D01*
X152679431Y-50048315D01*
X152903685Y-50272569D01*
X153167379Y-50448763D01*
X153460380Y-50570129D01*
X153771429Y-50632000D01*
X154088571Y-50632000D01*
X154399620Y-50570129D01*
X154692621Y-50448763D01*
X154956315Y-50272569D01*
X155180569Y-50048315D01*
X155200000Y-50019234D01*
X155219431Y-50048315D01*
X155443685Y-50272569D01*
X155707379Y-50448763D01*
X156000380Y-50570129D01*
X156311429Y-50632000D01*
X156628571Y-50632000D01*
X156939620Y-50570129D01*
X157232621Y-50448763D01*
X157496315Y-50272569D01*
X157720569Y-50048315D01*
X157740000Y-50019234D01*
X157759431Y-50048315D01*
X157983685Y-50272569D01*
X158247379Y-50448763D01*
X158540380Y-50570129D01*
X158851429Y-50632000D01*
X159168571Y-50632000D01*
X159479620Y-50570129D01*
X159772621Y-50448763D01*
X160036315Y-50272569D01*
X160260569Y-50048315D01*
X160436763Y-49784621D01*
X160467755Y-49709800D01*
X161115000Y-50357045D01*
X161115000Y-52142818D01*
X161104670Y-52247700D01*
X161115000Y-52352581D01*
X161115000Y-52717608D01*
X160839880Y-52584180D01*
X160533010Y-52504117D01*
X160216416Y-52485460D01*
X159902267Y-52528926D01*
X159602633Y-52632844D01*
X159434766Y-52722571D01*
X159342021Y-52984416D01*
X160280000Y-53922395D01*
X160294143Y-53908253D01*
X160473748Y-54087858D01*
X160459605Y-54102000D01*
X160473748Y-54116143D01*
X160294143Y-54295748D01*
X160280000Y-54281605D01*
X159342021Y-55219584D01*
X159434766Y-55481429D01*
X159720120Y-55619820D01*
X160026990Y-55699883D01*
X160343584Y-55718540D01*
X160657733Y-55675074D01*
X160957367Y-55571156D01*
X161115000Y-55486899D01*
X161115000Y-59413000D01*
X160830120Y-59413000D01*
X160668233Y-59363892D01*
X160354582Y-59333000D01*
X160354572Y-59333000D01*
X160249700Y-59322671D01*
X160144828Y-59333000D01*
X155089118Y-59333000D01*
X154775467Y-59363892D01*
X154373018Y-59485974D01*
X154002119Y-59684223D01*
X153885502Y-59779928D01*
X153194000Y-59779928D01*
X153020746Y-59796992D01*
X152854150Y-59847528D01*
X152700614Y-59929595D01*
X152566038Y-60040038D01*
X152455595Y-60174614D01*
X152373528Y-60328150D01*
X152322992Y-60494746D01*
X152305928Y-60668000D01*
X152305928Y-62268000D01*
X152322992Y-62441254D01*
X152373528Y-62607850D01*
X152455595Y-62761386D01*
X152566038Y-62895962D01*
X152700614Y-63006405D01*
X152854150Y-63088472D01*
X153020746Y-63139008D01*
X153194000Y-63156072D01*
X153885502Y-63156072D01*
X154002119Y-63251777D01*
X154373018Y-63450026D01*
X154775467Y-63572108D01*
X155089118Y-63603000D01*
X159749280Y-63603000D01*
X159911167Y-63652108D01*
X160224818Y-63683000D01*
X160224827Y-63683000D01*
X160329699Y-63693329D01*
X160434571Y-63683000D01*
X160995000Y-63683000D01*
X160995000Y-65152882D01*
X161025893Y-65466533D01*
X161147975Y-65868982D01*
X161346224Y-66239881D01*
X161422488Y-66332809D01*
X161440498Y-66392180D01*
X161499463Y-66502494D01*
X161578815Y-66599185D01*
X161675506Y-66678537D01*
X161785820Y-66737502D01*
X161845191Y-66755512D01*
X161938120Y-66831777D01*
X162309019Y-67030026D01*
X162711468Y-67152108D01*
X163130000Y-67193330D01*
X163548533Y-67152108D01*
X163950982Y-67030026D01*
X164321881Y-66831777D01*
X164414811Y-66755512D01*
X164474180Y-66737502D01*
X164584494Y-66678537D01*
X164681185Y-66599185D01*
X164760537Y-66502494D01*
X164819502Y-66392180D01*
X164837512Y-66332811D01*
X164913777Y-66239881D01*
X165112026Y-65868982D01*
X165234108Y-65466533D01*
X165265000Y-65152882D01*
X165265000Y-61652881D01*
X165275330Y-61548000D01*
X165273734Y-61531791D01*
X165354108Y-61266833D01*
X165385000Y-60953182D01*
X165385000Y-60953174D01*
X165395329Y-60848300D01*
X165385000Y-60743426D01*
X165385000Y-54382700D01*
X169258747Y-54382700D01*
X169160105Y-54707881D01*
X169126606Y-55048000D01*
X169160105Y-55388119D01*
X169259314Y-55715168D01*
X169420421Y-56016578D01*
X169637234Y-56280766D01*
X169901422Y-56497579D01*
X169995753Y-56548000D01*
X169901422Y-56598421D01*
X169637234Y-56815234D01*
X169420421Y-57079422D01*
X169259314Y-57380832D01*
X169160105Y-57707881D01*
X169126606Y-58048000D01*
X169160105Y-58388119D01*
X169259314Y-58715168D01*
X169420421Y-59016578D01*
X169637234Y-59280766D01*
X169901422Y-59497579D01*
X170202832Y-59658686D01*
X170529881Y-59757895D01*
X170784775Y-59783000D01*
X170955225Y-59783000D01*
X171210119Y-59757895D01*
X171537168Y-59658686D01*
X171818600Y-59508257D01*
X171818600Y-60180507D01*
X171718578Y-60098421D01*
X171417168Y-59937314D01*
X171090119Y-59838105D01*
X170835225Y-59813000D01*
X170664775Y-59813000D01*
X170409881Y-59838105D01*
X170082832Y-59937314D01*
X169781422Y-60098421D01*
X169517234Y-60315234D01*
X169300421Y-60579422D01*
X169139314Y-60880832D01*
X169040105Y-61207881D01*
X169006606Y-61548000D01*
X169040105Y-61888119D01*
X169139314Y-62215168D01*
X169300421Y-62516578D01*
X169517234Y-62780766D01*
X169781422Y-62997579D01*
X170082832Y-63158686D01*
X170409881Y-63257895D01*
X170664775Y-63283000D01*
X170835225Y-63283000D01*
X171090119Y-63257895D01*
X171417168Y-63158686D01*
X171718578Y-62997579D01*
X171818600Y-62915493D01*
X171818600Y-63680507D01*
X171718578Y-63598421D01*
X171417168Y-63437314D01*
X171090119Y-63338105D01*
X170835225Y-63313000D01*
X170664775Y-63313000D01*
X170409881Y-63338105D01*
X170082832Y-63437314D01*
X169781422Y-63598421D01*
X169517234Y-63815234D01*
X169300421Y-64079422D01*
X169139314Y-64380832D01*
X169040105Y-64707881D01*
X169006606Y-65048000D01*
X169040105Y-65388119D01*
X169139314Y-65715168D01*
X169300421Y-66016578D01*
X169517234Y-66280766D01*
X169781422Y-66497579D01*
X170082832Y-66658686D01*
X170409881Y-66757895D01*
X170664775Y-66783000D01*
X170835225Y-66783000D01*
X171090119Y-66757895D01*
X171417168Y-66658686D01*
X171718578Y-66497579D01*
X171982766Y-66280766D01*
X172199579Y-66016578D01*
X172210856Y-65995480D01*
X172436623Y-66270577D01*
X172518092Y-66337437D01*
X175016928Y-68836274D01*
X175016928Y-68930001D01*
X175033992Y-69103255D01*
X175084528Y-69269851D01*
X175166595Y-69423387D01*
X175277038Y-69557962D01*
X175411613Y-69668405D01*
X175416406Y-69670967D01*
X175291922Y-69796526D01*
X175157579Y-69999467D01*
X175065409Y-70224718D01*
X175061538Y-70262391D01*
X175186269Y-70453000D01*
X176403000Y-70453000D01*
X176403000Y-70433000D01*
X176657000Y-70433000D01*
X176657000Y-70453000D01*
X177873731Y-70453000D01*
X177998462Y-70262391D01*
X177994591Y-70224718D01*
X177902421Y-69999467D01*
X177880299Y-69966050D01*
X177975981Y-69937025D01*
X178346881Y-69738776D01*
X178671977Y-69471977D01*
X178938776Y-69146881D01*
X179137025Y-68775981D01*
X179259107Y-68373533D01*
X179300329Y-67954999D01*
X179259107Y-67536466D01*
X179137025Y-67134017D01*
X178938776Y-66763118D01*
X178738835Y-66519489D01*
X176088600Y-63869255D01*
X176088600Y-61646987D01*
X176128000Y-61655000D01*
X176403000Y-61655000D01*
X176403000Y-60547000D01*
X176657000Y-60547000D01*
X176657000Y-61655000D01*
X176932000Y-61655000D01*
X177170496Y-61606493D01*
X177394946Y-61512390D01*
X177596725Y-61376307D01*
X177768078Y-61203474D01*
X177902421Y-61000533D01*
X177994591Y-60775282D01*
X177998462Y-60737609D01*
X177873731Y-60547000D01*
X176657000Y-60547000D01*
X176403000Y-60547000D01*
X176383000Y-60547000D01*
X176383000Y-60293000D01*
X176403000Y-60293000D01*
X176403000Y-60273000D01*
X176657000Y-60273000D01*
X176657000Y-60293000D01*
X177873731Y-60293000D01*
X177998462Y-60102391D01*
X177994591Y-60064718D01*
X177902421Y-59839467D01*
X177768078Y-59636526D01*
X177643594Y-59510967D01*
X177648387Y-59508405D01*
X177782962Y-59397962D01*
X177893405Y-59263387D01*
X177975472Y-59109851D01*
X178026008Y-58943255D01*
X178043072Y-58770001D01*
X178043072Y-58069999D01*
X178026008Y-57896745D01*
X177975472Y-57730149D01*
X177893405Y-57576613D01*
X177782962Y-57442038D01*
X177648387Y-57331595D01*
X177494851Y-57249528D01*
X177328255Y-57198992D01*
X177155001Y-57181928D01*
X176088600Y-57181928D01*
X176088600Y-54256075D01*
X176098929Y-54151200D01*
X176088600Y-54046325D01*
X176088600Y-54046318D01*
X176057708Y-53732667D01*
X176048958Y-53703820D01*
X175935626Y-53330218D01*
X175809283Y-53093846D01*
X175737377Y-52959319D01*
X175676378Y-52884992D01*
X175537436Y-52715690D01*
X175537433Y-52715687D01*
X175470577Y-52634223D01*
X175389113Y-52567367D01*
X173633937Y-50812192D01*
X173567077Y-50730723D01*
X173241981Y-50463923D01*
X172871082Y-50265674D01*
X172468633Y-50143592D01*
X172154982Y-50112700D01*
X172154972Y-50112700D01*
X172050100Y-50102371D01*
X171945228Y-50112700D01*
X165385000Y-50112700D01*
X165385000Y-49577574D01*
X165395329Y-49472700D01*
X165385000Y-49367825D01*
X165385000Y-49367818D01*
X165354108Y-49054167D01*
X165316027Y-48928629D01*
X165232026Y-48651718D01*
X165178929Y-48552380D01*
X165033777Y-48280819D01*
X164766977Y-47955723D01*
X164685508Y-47888863D01*
X161706637Y-44909992D01*
X161639777Y-44828523D01*
X161434432Y-44660000D01*
X175956730Y-44660000D01*
X175349234Y-44911633D01*
X174778442Y-45293024D01*
X174293024Y-45778442D01*
X173911633Y-46349234D01*
X173648927Y-46983463D01*
X173515000Y-47656758D01*
X173515000Y-48343242D01*
X173648927Y-49016537D01*
X173911633Y-49650766D01*
X174293024Y-50221558D01*
X174778442Y-50706976D01*
X175349234Y-51088367D01*
X175983463Y-51351073D01*
X176656758Y-51485000D01*
X177343242Y-51485000D01*
X178016537Y-51351073D01*
X178650766Y-51088367D01*
X179221558Y-50706976D01*
X179706976Y-50221558D01*
X180088367Y-49650766D01*
X180340000Y-49043270D01*
X180340001Y-82456733D01*
X180088367Y-81849234D01*
X179706976Y-81278442D01*
X179221558Y-80793024D01*
X178650766Y-80411633D01*
X178016537Y-80148927D01*
X177343242Y-80015000D01*
X176656758Y-80015000D01*
X175983463Y-80148927D01*
X175349234Y-80411633D01*
X174778442Y-80793024D01*
X174293024Y-81278442D01*
X173911633Y-81849234D01*
X173648927Y-82483463D01*
X173515000Y-83156758D01*
X173515000Y-83843242D01*
X173648927Y-84516537D01*
X173911633Y-85150766D01*
X174293024Y-85721558D01*
X174778442Y-86206976D01*
X175349234Y-86588367D01*
X175956730Y-86840000D01*
X126519270Y-86840000D01*
X127126766Y-86588367D01*
X127697558Y-86206976D01*
X128182976Y-85721558D01*
X128564367Y-85150766D01*
X128827073Y-84516537D01*
X128961000Y-83843242D01*
X128961000Y-83156758D01*
X128827073Y-82483463D01*
X128564367Y-81849234D01*
X128182976Y-81278442D01*
X127697558Y-80793024D01*
X127126766Y-80411633D01*
X126492537Y-80148927D01*
X125819242Y-80015000D01*
X125132758Y-80015000D01*
X124459463Y-80148927D01*
X123825234Y-80411633D01*
X123254442Y-80793024D01*
X122769024Y-81278442D01*
X122387633Y-81849234D01*
X122160000Y-82398789D01*
X122160000Y-63452500D01*
X123711824Y-63452500D01*
X123715500Y-63489822D01*
X123715501Y-72393168D01*
X123711824Y-72430500D01*
X123726498Y-72579485D01*
X123769954Y-72722746D01*
X123840526Y-72854776D01*
X123911701Y-72941502D01*
X123935500Y-72970501D01*
X123964498Y-72994299D01*
X133172800Y-82202602D01*
X133196599Y-82231601D01*
X133312324Y-82326574D01*
X133444353Y-82397146D01*
X133587614Y-82440603D01*
X133699267Y-82451600D01*
X133699276Y-82451600D01*
X133736599Y-82455276D01*
X133773922Y-82451600D01*
X134846626Y-82451600D01*
X134720510Y-82476686D01*
X134466273Y-82581995D01*
X134237465Y-82734880D01*
X134042880Y-82929465D01*
X133889995Y-83158273D01*
X133784686Y-83412510D01*
X133731000Y-83682408D01*
X133731000Y-83957592D01*
X133784686Y-84227490D01*
X133889995Y-84481727D01*
X134042880Y-84710535D01*
X134237465Y-84905120D01*
X134466273Y-85058005D01*
X134720510Y-85163314D01*
X134990408Y-85217000D01*
X135265592Y-85217000D01*
X135535490Y-85163314D01*
X135789727Y-85058005D01*
X136018535Y-84905120D01*
X136213120Y-84710535D01*
X136366005Y-84481727D01*
X136398000Y-84404485D01*
X136429995Y-84481727D01*
X136582880Y-84710535D01*
X136777465Y-84905120D01*
X137006273Y-85058005D01*
X137260510Y-85163314D01*
X137530408Y-85217000D01*
X137805592Y-85217000D01*
X138075490Y-85163314D01*
X138329727Y-85058005D01*
X138558535Y-84905120D01*
X138753120Y-84710535D01*
X138906005Y-84481727D01*
X138938000Y-84404485D01*
X138969995Y-84481727D01*
X139122880Y-84710535D01*
X139317465Y-84905120D01*
X139546273Y-85058005D01*
X139800510Y-85163314D01*
X140070408Y-85217000D01*
X140345592Y-85217000D01*
X140615490Y-85163314D01*
X140869727Y-85058005D01*
X141098535Y-84905120D01*
X141293120Y-84710535D01*
X141446005Y-84481727D01*
X141478000Y-84404485D01*
X141509995Y-84481727D01*
X141662880Y-84710535D01*
X141857465Y-84905120D01*
X142086273Y-85058005D01*
X142340510Y-85163314D01*
X142610408Y-85217000D01*
X142885592Y-85217000D01*
X143155490Y-85163314D01*
X143409727Y-85058005D01*
X143638535Y-84905120D01*
X143833120Y-84710535D01*
X143986005Y-84481727D01*
X144018000Y-84404485D01*
X144049995Y-84481727D01*
X144202880Y-84710535D01*
X144397465Y-84905120D01*
X144626273Y-85058005D01*
X144880510Y-85163314D01*
X145150408Y-85217000D01*
X145425592Y-85217000D01*
X145695490Y-85163314D01*
X145949727Y-85058005D01*
X146178535Y-84905120D01*
X146373120Y-84710535D01*
X146526005Y-84481727D01*
X146558000Y-84404485D01*
X146589995Y-84481727D01*
X146742880Y-84710535D01*
X146937465Y-84905120D01*
X147166273Y-85058005D01*
X147420510Y-85163314D01*
X147690408Y-85217000D01*
X147965592Y-85217000D01*
X148235490Y-85163314D01*
X148489727Y-85058005D01*
X148718535Y-84905120D01*
X148913120Y-84710535D01*
X149066005Y-84481727D01*
X149098000Y-84404485D01*
X149129995Y-84481727D01*
X149282880Y-84710535D01*
X149477465Y-84905120D01*
X149706273Y-85058005D01*
X149960510Y-85163314D01*
X150230408Y-85217000D01*
X150505592Y-85217000D01*
X150775490Y-85163314D01*
X151029727Y-85058005D01*
X151258535Y-84905120D01*
X151378090Y-84785565D01*
X152122040Y-84785565D01*
X152189020Y-85025656D01*
X152438048Y-85142756D01*
X152705135Y-85209023D01*
X152980017Y-85221910D01*
X153252133Y-85180922D01*
X153511023Y-85087636D01*
X153626980Y-85025656D01*
X153693960Y-84785565D01*
X152908000Y-83999605D01*
X152122040Y-84785565D01*
X151378090Y-84785565D01*
X151453120Y-84710535D01*
X151606005Y-84481727D01*
X151635692Y-84410057D01*
X151640364Y-84423023D01*
X151702344Y-84538980D01*
X151942435Y-84605960D01*
X152728395Y-83820000D01*
X151942435Y-83034040D01*
X151702344Y-83101020D01*
X151638515Y-83236760D01*
X151606005Y-83158273D01*
X151453120Y-82929465D01*
X151258535Y-82734880D01*
X151029727Y-82581995D01*
X150775490Y-82476686D01*
X150649374Y-82451600D01*
X152613513Y-82451600D01*
X152563867Y-82459078D01*
X152304977Y-82552364D01*
X152189020Y-82614344D01*
X152122040Y-82854435D01*
X152908000Y-83640395D01*
X152922143Y-83626253D01*
X153101748Y-83805858D01*
X153087605Y-83820000D01*
X153873565Y-84605960D01*
X154113656Y-84538980D01*
X154177485Y-84403240D01*
X154209995Y-84481727D01*
X154362880Y-84710535D01*
X154557465Y-84905120D01*
X154786273Y-85058005D01*
X155040510Y-85163314D01*
X155310408Y-85217000D01*
X155585592Y-85217000D01*
X155855490Y-85163314D01*
X156109727Y-85058005D01*
X156338535Y-84905120D01*
X156533120Y-84710535D01*
X156686005Y-84481727D01*
X156718000Y-84404485D01*
X156749995Y-84481727D01*
X156902880Y-84710535D01*
X157097465Y-84905120D01*
X157326273Y-85058005D01*
X157580510Y-85163314D01*
X157850408Y-85217000D01*
X158125592Y-85217000D01*
X158395490Y-85163314D01*
X158649727Y-85058005D01*
X158878535Y-84905120D01*
X159073120Y-84710535D01*
X159226005Y-84481727D01*
X159258000Y-84404485D01*
X159289995Y-84481727D01*
X159442880Y-84710535D01*
X159637465Y-84905120D01*
X159866273Y-85058005D01*
X160120510Y-85163314D01*
X160390408Y-85217000D01*
X160665592Y-85217000D01*
X160935490Y-85163314D01*
X161189727Y-85058005D01*
X161418535Y-84905120D01*
X161613120Y-84710535D01*
X161766005Y-84481727D01*
X161798000Y-84404485D01*
X161829995Y-84481727D01*
X161982880Y-84710535D01*
X162177465Y-84905120D01*
X162406273Y-85058005D01*
X162660510Y-85163314D01*
X162930408Y-85217000D01*
X163205592Y-85217000D01*
X163475490Y-85163314D01*
X163729727Y-85058005D01*
X163958535Y-84905120D01*
X164153120Y-84710535D01*
X164306005Y-84481727D01*
X164338000Y-84404485D01*
X164369995Y-84481727D01*
X164522880Y-84710535D01*
X164717465Y-84905120D01*
X164946273Y-85058005D01*
X165200510Y-85163314D01*
X165470408Y-85217000D01*
X165745592Y-85217000D01*
X166015490Y-85163314D01*
X166269727Y-85058005D01*
X166498535Y-84905120D01*
X166693120Y-84710535D01*
X166846005Y-84481727D01*
X166878000Y-84404485D01*
X166909995Y-84481727D01*
X167062880Y-84710535D01*
X167257465Y-84905120D01*
X167486273Y-85058005D01*
X167740510Y-85163314D01*
X168010408Y-85217000D01*
X168285592Y-85217000D01*
X168555490Y-85163314D01*
X168809727Y-85058005D01*
X169038535Y-84905120D01*
X169233120Y-84710535D01*
X169386005Y-84481727D01*
X169491314Y-84227490D01*
X169545000Y-83957592D01*
X169545000Y-83682408D01*
X169491314Y-83412510D01*
X169386005Y-83158273D01*
X169233120Y-82929465D01*
X169038535Y-82734880D01*
X168809727Y-82581995D01*
X168555490Y-82476686D01*
X168285592Y-82423000D01*
X168010408Y-82423000D01*
X167740510Y-82476686D01*
X167486273Y-82581995D01*
X167257465Y-82734880D01*
X167062880Y-82929465D01*
X166909995Y-83158273D01*
X166878000Y-83235515D01*
X166846005Y-83158273D01*
X166693120Y-82929465D01*
X166498535Y-82734880D01*
X166269727Y-82581995D01*
X166015490Y-82476686D01*
X165745592Y-82423000D01*
X165470408Y-82423000D01*
X165200510Y-82476686D01*
X164946273Y-82581995D01*
X164717465Y-82734880D01*
X164522880Y-82929465D01*
X164369995Y-83158273D01*
X164338000Y-83235515D01*
X164306005Y-83158273D01*
X164153120Y-82929465D01*
X163958535Y-82734880D01*
X163729727Y-82581995D01*
X163475490Y-82476686D01*
X163205592Y-82423000D01*
X162930408Y-82423000D01*
X162660510Y-82476686D01*
X162406273Y-82581995D01*
X162177465Y-82734880D01*
X161982880Y-82929465D01*
X161829995Y-83158273D01*
X161798000Y-83235515D01*
X161766005Y-83158273D01*
X161613120Y-82929465D01*
X161418535Y-82734880D01*
X161189727Y-82581995D01*
X160935490Y-82476686D01*
X160665592Y-82423000D01*
X160390408Y-82423000D01*
X160120510Y-82476686D01*
X159866273Y-82581995D01*
X159637465Y-82734880D01*
X159442880Y-82929465D01*
X159289995Y-83158273D01*
X159258000Y-83235515D01*
X159226005Y-83158273D01*
X159073120Y-82929465D01*
X158878535Y-82734880D01*
X158649727Y-82581995D01*
X158395490Y-82476686D01*
X158125592Y-82423000D01*
X157850408Y-82423000D01*
X157696430Y-82453628D01*
X151861504Y-76618703D01*
X151837701Y-76589699D01*
X151721976Y-76494726D01*
X151589947Y-76424154D01*
X151446686Y-76380697D01*
X151335033Y-76369700D01*
X151335022Y-76369700D01*
X151297700Y-76366024D01*
X151260378Y-76369700D01*
X131292502Y-76369700D01*
X127235158Y-72312357D01*
X127243072Y-72232001D01*
X127243072Y-71531999D01*
X127226008Y-71358745D01*
X127175472Y-71192149D01*
X127093405Y-71038613D01*
X127047279Y-70982408D01*
X133731000Y-70982408D01*
X133731000Y-71257592D01*
X133784686Y-71527490D01*
X133889995Y-71781727D01*
X134042880Y-72010535D01*
X134237465Y-72205120D01*
X134466273Y-72358005D01*
X134720510Y-72463314D01*
X134990408Y-72517000D01*
X135265592Y-72517000D01*
X135535490Y-72463314D01*
X135789727Y-72358005D01*
X136018535Y-72205120D01*
X136213120Y-72010535D01*
X136366005Y-71781727D01*
X136398000Y-71704485D01*
X136429995Y-71781727D01*
X136582880Y-72010535D01*
X136777465Y-72205120D01*
X137006273Y-72358005D01*
X137260510Y-72463314D01*
X137530408Y-72517000D01*
X137805592Y-72517000D01*
X138075490Y-72463314D01*
X138329727Y-72358005D01*
X138558535Y-72205120D01*
X138753120Y-72010535D01*
X138906005Y-71781727D01*
X138938000Y-71704485D01*
X138969995Y-71781727D01*
X139122880Y-72010535D01*
X139317465Y-72205120D01*
X139546273Y-72358005D01*
X139800510Y-72463314D01*
X140070408Y-72517000D01*
X140345592Y-72517000D01*
X140615490Y-72463314D01*
X140869727Y-72358005D01*
X141098535Y-72205120D01*
X141293120Y-72010535D01*
X141446005Y-71781727D01*
X141478000Y-71704485D01*
X141509995Y-71781727D01*
X141662880Y-72010535D01*
X141857465Y-72205120D01*
X142086273Y-72358005D01*
X142340510Y-72463314D01*
X142610408Y-72517000D01*
X142885592Y-72517000D01*
X143155490Y-72463314D01*
X143409727Y-72358005D01*
X143638535Y-72205120D01*
X143833120Y-72010535D01*
X143986005Y-71781727D01*
X144018000Y-71704485D01*
X144049995Y-71781727D01*
X144202880Y-72010535D01*
X144397465Y-72205120D01*
X144626273Y-72358005D01*
X144880510Y-72463314D01*
X145150408Y-72517000D01*
X145425592Y-72517000D01*
X145695490Y-72463314D01*
X145949727Y-72358005D01*
X146178535Y-72205120D01*
X146373120Y-72010535D01*
X146526005Y-71781727D01*
X146558000Y-71704485D01*
X146589995Y-71781727D01*
X146742880Y-72010535D01*
X146937465Y-72205120D01*
X147166273Y-72358005D01*
X147420510Y-72463314D01*
X147690408Y-72517000D01*
X147965592Y-72517000D01*
X148235490Y-72463314D01*
X148489727Y-72358005D01*
X148718535Y-72205120D01*
X148838090Y-72085565D01*
X149582040Y-72085565D01*
X149649020Y-72325656D01*
X149898048Y-72442756D01*
X150165135Y-72509023D01*
X150440017Y-72521910D01*
X150712133Y-72480922D01*
X150971023Y-72387636D01*
X151086980Y-72325656D01*
X151153960Y-72085565D01*
X150368000Y-71299605D01*
X149582040Y-72085565D01*
X148838090Y-72085565D01*
X148913120Y-72010535D01*
X149066005Y-71781727D01*
X149095692Y-71710057D01*
X149100364Y-71723023D01*
X149162344Y-71838980D01*
X149402435Y-71905960D01*
X150188395Y-71120000D01*
X150547605Y-71120000D01*
X151333565Y-71905960D01*
X151573656Y-71838980D01*
X151637485Y-71703240D01*
X151669995Y-71781727D01*
X151822880Y-72010535D01*
X152017465Y-72205120D01*
X152246273Y-72358005D01*
X152500510Y-72463314D01*
X152770408Y-72517000D01*
X153045592Y-72517000D01*
X153315490Y-72463314D01*
X153569727Y-72358005D01*
X153798535Y-72205120D01*
X153993120Y-72010535D01*
X154146005Y-71781727D01*
X154178000Y-71704485D01*
X154209995Y-71781727D01*
X154362880Y-72010535D01*
X154557465Y-72205120D01*
X154786273Y-72358005D01*
X155040510Y-72463314D01*
X155310408Y-72517000D01*
X155585592Y-72517000D01*
X155855490Y-72463314D01*
X156109727Y-72358005D01*
X156338535Y-72205120D01*
X156533120Y-72010535D01*
X156686005Y-71781727D01*
X156718000Y-71704485D01*
X156749995Y-71781727D01*
X156902880Y-72010535D01*
X157097465Y-72205120D01*
X157326273Y-72358005D01*
X157580510Y-72463314D01*
X157850408Y-72517000D01*
X158125592Y-72517000D01*
X158395490Y-72463314D01*
X158649727Y-72358005D01*
X158878535Y-72205120D01*
X159073120Y-72010535D01*
X159226005Y-71781727D01*
X159258000Y-71704485D01*
X159289995Y-71781727D01*
X159442880Y-72010535D01*
X159637465Y-72205120D01*
X159866273Y-72358005D01*
X160120510Y-72463314D01*
X160390408Y-72517000D01*
X160665592Y-72517000D01*
X160935490Y-72463314D01*
X161189727Y-72358005D01*
X161418535Y-72205120D01*
X161613120Y-72010535D01*
X161766005Y-71781727D01*
X161798000Y-71704485D01*
X161829995Y-71781727D01*
X161982880Y-72010535D01*
X162177465Y-72205120D01*
X162406273Y-72358005D01*
X162660510Y-72463314D01*
X162930408Y-72517000D01*
X163205592Y-72517000D01*
X163475490Y-72463314D01*
X163729727Y-72358005D01*
X163958535Y-72205120D01*
X164153120Y-72010535D01*
X164306005Y-71781727D01*
X164338000Y-71704485D01*
X164369995Y-71781727D01*
X164522880Y-72010535D01*
X164717465Y-72205120D01*
X164946273Y-72358005D01*
X165200510Y-72463314D01*
X165470408Y-72517000D01*
X165745592Y-72517000D01*
X166015490Y-72463314D01*
X166269727Y-72358005D01*
X166498535Y-72205120D01*
X166693120Y-72010535D01*
X166846005Y-71781727D01*
X166878000Y-71704485D01*
X166909995Y-71781727D01*
X167062880Y-72010535D01*
X167257465Y-72205120D01*
X167486273Y-72358005D01*
X167740510Y-72463314D01*
X168010408Y-72517000D01*
X168285592Y-72517000D01*
X168555490Y-72463314D01*
X168809727Y-72358005D01*
X169038535Y-72205120D01*
X169233120Y-72010535D01*
X169386005Y-71781727D01*
X169491314Y-71527490D01*
X169545000Y-71257592D01*
X169545000Y-70982408D01*
X169528133Y-70897609D01*
X175061538Y-70897609D01*
X175065409Y-70935282D01*
X175157579Y-71160533D01*
X175291922Y-71363474D01*
X175463275Y-71536307D01*
X175665054Y-71672390D01*
X175889504Y-71766493D01*
X176128000Y-71815000D01*
X176403000Y-71815000D01*
X176403000Y-70707000D01*
X176657000Y-70707000D01*
X176657000Y-71815000D01*
X176932000Y-71815000D01*
X177170496Y-71766493D01*
X177394946Y-71672390D01*
X177596725Y-71536307D01*
X177768078Y-71363474D01*
X177902421Y-71160533D01*
X177994591Y-70935282D01*
X177998462Y-70897609D01*
X177873731Y-70707000D01*
X176657000Y-70707000D01*
X176403000Y-70707000D01*
X175186269Y-70707000D01*
X175061538Y-70897609D01*
X169528133Y-70897609D01*
X169491314Y-70712510D01*
X169386005Y-70458273D01*
X169233120Y-70229465D01*
X169038535Y-70034880D01*
X168809727Y-69881995D01*
X168555490Y-69776686D01*
X168285592Y-69723000D01*
X168010408Y-69723000D01*
X167740510Y-69776686D01*
X167486273Y-69881995D01*
X167257465Y-70034880D01*
X167062880Y-70229465D01*
X166909995Y-70458273D01*
X166878000Y-70535515D01*
X166846005Y-70458273D01*
X166693120Y-70229465D01*
X166498535Y-70034880D01*
X166269727Y-69881995D01*
X166015490Y-69776686D01*
X165745592Y-69723000D01*
X165470408Y-69723000D01*
X165200510Y-69776686D01*
X164946273Y-69881995D01*
X164717465Y-70034880D01*
X164522880Y-70229465D01*
X164369995Y-70458273D01*
X164338000Y-70535515D01*
X164306005Y-70458273D01*
X164153120Y-70229465D01*
X163958535Y-70034880D01*
X163729727Y-69881995D01*
X163475490Y-69776686D01*
X163205592Y-69723000D01*
X162930408Y-69723000D01*
X162660510Y-69776686D01*
X162406273Y-69881995D01*
X162177465Y-70034880D01*
X161982880Y-70229465D01*
X161829995Y-70458273D01*
X161798000Y-70535515D01*
X161766005Y-70458273D01*
X161613120Y-70229465D01*
X161418535Y-70034880D01*
X161189727Y-69881995D01*
X160935490Y-69776686D01*
X160665592Y-69723000D01*
X160390408Y-69723000D01*
X160120510Y-69776686D01*
X159866273Y-69881995D01*
X159637465Y-70034880D01*
X159442880Y-70229465D01*
X159289995Y-70458273D01*
X159258000Y-70535515D01*
X159226005Y-70458273D01*
X159073120Y-70229465D01*
X158878535Y-70034880D01*
X158649727Y-69881995D01*
X158395490Y-69776686D01*
X158125592Y-69723000D01*
X157850408Y-69723000D01*
X157580510Y-69776686D01*
X157326273Y-69881995D01*
X157097465Y-70034880D01*
X156902880Y-70229465D01*
X156749995Y-70458273D01*
X156718000Y-70535515D01*
X156686005Y-70458273D01*
X156533120Y-70229465D01*
X156338535Y-70034880D01*
X156109727Y-69881995D01*
X155855490Y-69776686D01*
X155585592Y-69723000D01*
X155310408Y-69723000D01*
X155040510Y-69776686D01*
X154786273Y-69881995D01*
X154557465Y-70034880D01*
X154362880Y-70229465D01*
X154209995Y-70458273D01*
X154178000Y-70535515D01*
X154146005Y-70458273D01*
X153993120Y-70229465D01*
X153798535Y-70034880D01*
X153569727Y-69881995D01*
X153315490Y-69776686D01*
X153045592Y-69723000D01*
X152770408Y-69723000D01*
X152500510Y-69776686D01*
X152246273Y-69881995D01*
X152017465Y-70034880D01*
X151822880Y-70229465D01*
X151669995Y-70458273D01*
X151640308Y-70529943D01*
X151635636Y-70516977D01*
X151573656Y-70401020D01*
X151333565Y-70334040D01*
X150547605Y-71120000D01*
X150188395Y-71120000D01*
X149402435Y-70334040D01*
X149162344Y-70401020D01*
X149098515Y-70536760D01*
X149066005Y-70458273D01*
X148913120Y-70229465D01*
X148838090Y-70154435D01*
X149582040Y-70154435D01*
X150368000Y-70940395D01*
X151153960Y-70154435D01*
X151086980Y-69914344D01*
X150837952Y-69797244D01*
X150570865Y-69730977D01*
X150295983Y-69718090D01*
X150023867Y-69759078D01*
X149764977Y-69852364D01*
X149649020Y-69914344D01*
X149582040Y-70154435D01*
X148838090Y-70154435D01*
X148718535Y-70034880D01*
X148489727Y-69881995D01*
X148235490Y-69776686D01*
X147965592Y-69723000D01*
X147690408Y-69723000D01*
X147420510Y-69776686D01*
X147166273Y-69881995D01*
X146937465Y-70034880D01*
X146742880Y-70229465D01*
X146589995Y-70458273D01*
X146558000Y-70535515D01*
X146526005Y-70458273D01*
X146373120Y-70229465D01*
X146178535Y-70034880D01*
X145949727Y-69881995D01*
X145695490Y-69776686D01*
X145425592Y-69723000D01*
X145150408Y-69723000D01*
X144880510Y-69776686D01*
X144626273Y-69881995D01*
X144397465Y-70034880D01*
X144202880Y-70229465D01*
X144049995Y-70458273D01*
X144018000Y-70535515D01*
X143986005Y-70458273D01*
X143833120Y-70229465D01*
X143638535Y-70034880D01*
X143409727Y-69881995D01*
X143155490Y-69776686D01*
X142885592Y-69723000D01*
X142610408Y-69723000D01*
X142340510Y-69776686D01*
X142086273Y-69881995D01*
X141857465Y-70034880D01*
X141662880Y-70229465D01*
X141509995Y-70458273D01*
X141478000Y-70535515D01*
X141446005Y-70458273D01*
X141293120Y-70229465D01*
X141098535Y-70034880D01*
X140869727Y-69881995D01*
X140615490Y-69776686D01*
X140345592Y-69723000D01*
X140070408Y-69723000D01*
X139800510Y-69776686D01*
X139546273Y-69881995D01*
X139317465Y-70034880D01*
X139122880Y-70229465D01*
X138969995Y-70458273D01*
X138938000Y-70535515D01*
X138906005Y-70458273D01*
X138753120Y-70229465D01*
X138558535Y-70034880D01*
X138329727Y-69881995D01*
X138075490Y-69776686D01*
X137805592Y-69723000D01*
X137530408Y-69723000D01*
X137260510Y-69776686D01*
X137006273Y-69881995D01*
X136777465Y-70034880D01*
X136582880Y-70229465D01*
X136429995Y-70458273D01*
X136398000Y-70535515D01*
X136366005Y-70458273D01*
X136213120Y-70229465D01*
X136018535Y-70034880D01*
X135789727Y-69881995D01*
X135535490Y-69776686D01*
X135265592Y-69723000D01*
X134990408Y-69723000D01*
X134720510Y-69776686D01*
X134466273Y-69881995D01*
X134237465Y-70034880D01*
X134042880Y-70229465D01*
X133889995Y-70458273D01*
X133784686Y-70712510D01*
X133731000Y-70982408D01*
X127047279Y-70982408D01*
X126982962Y-70904038D01*
X126848387Y-70793595D01*
X126843889Y-70791191D01*
X126882502Y-70759502D01*
X127036833Y-70571449D01*
X127151511Y-70356901D01*
X127222130Y-70124102D01*
X127245975Y-69882000D01*
X127222130Y-69639898D01*
X127151511Y-69407099D01*
X127036833Y-69192551D01*
X126882502Y-69004498D01*
X126732652Y-68881519D01*
X126796725Y-68838307D01*
X126968078Y-68665474D01*
X127102421Y-68462533D01*
X127194591Y-68237282D01*
X127198462Y-68199609D01*
X127073731Y-68009000D01*
X125857000Y-68009000D01*
X125857000Y-68029000D01*
X125603000Y-68029000D01*
X125603000Y-68009000D01*
X125583000Y-68009000D01*
X125583000Y-67755000D01*
X125603000Y-67755000D01*
X125603000Y-66647000D01*
X125857000Y-66647000D01*
X125857000Y-67755000D01*
X127073731Y-67755000D01*
X127198462Y-67564391D01*
X127194591Y-67526718D01*
X127102421Y-67301467D01*
X126968078Y-67098526D01*
X126796725Y-66925693D01*
X126594946Y-66789610D01*
X126370496Y-66695507D01*
X126132000Y-66647000D01*
X125857000Y-66647000D01*
X125603000Y-66647000D01*
X125328000Y-66647000D01*
X125235500Y-66665813D01*
X125235500Y-63767301D01*
X125308801Y-63694000D01*
X130137928Y-63694000D01*
X130137928Y-65894000D01*
X130150188Y-66018482D01*
X130186498Y-66138180D01*
X130245463Y-66248494D01*
X130324815Y-66345185D01*
X130421506Y-66424537D01*
X130531820Y-66483502D01*
X130651518Y-66519812D01*
X130776000Y-66532072D01*
X132976000Y-66532072D01*
X133100482Y-66519812D01*
X133220180Y-66483502D01*
X133330494Y-66424537D01*
X133427185Y-66345185D01*
X133506537Y-66248494D01*
X133565502Y-66138180D01*
X133601812Y-66018482D01*
X133614072Y-65894000D01*
X133614072Y-65190122D01*
X137806825Y-65190122D01*
X137871425Y-65403094D01*
X138021469Y-65708329D01*
X138228178Y-65978427D01*
X138483609Y-66203008D01*
X138777946Y-66373442D01*
X139099877Y-66483179D01*
X139369000Y-66365600D01*
X139369000Y-64921000D01*
X139623000Y-64921000D01*
X139623000Y-66365600D01*
X139892123Y-66483179D01*
X140214054Y-66373442D01*
X140508391Y-66203008D01*
X140763822Y-65978427D01*
X140970531Y-65708329D01*
X141120575Y-65403094D01*
X141185175Y-65190122D01*
X141067125Y-64921000D01*
X139623000Y-64921000D01*
X139369000Y-64921000D01*
X137924875Y-64921000D01*
X137806825Y-65190122D01*
X133614072Y-65190122D01*
X133614072Y-64397878D01*
X137806825Y-64397878D01*
X137924875Y-64667000D01*
X139369000Y-64667000D01*
X139369000Y-63222400D01*
X139623000Y-63222400D01*
X139623000Y-64667000D01*
X141067125Y-64667000D01*
X141185175Y-64397878D01*
X141120575Y-64184906D01*
X140970531Y-63879671D01*
X140763822Y-63609573D01*
X140508391Y-63384992D01*
X140214054Y-63214558D01*
X139892123Y-63104821D01*
X139623000Y-63222400D01*
X139369000Y-63222400D01*
X139099877Y-63104821D01*
X138777946Y-63214558D01*
X138483609Y-63384992D01*
X138228178Y-63609573D01*
X138021469Y-63879671D01*
X137871425Y-64184906D01*
X137806825Y-64397878D01*
X133614072Y-64397878D01*
X133614072Y-63694000D01*
X133601812Y-63569518D01*
X133565502Y-63449820D01*
X133506537Y-63339506D01*
X133427185Y-63242815D01*
X133330494Y-63163463D01*
X133220180Y-63104498D01*
X133100482Y-63068188D01*
X132976000Y-63055928D01*
X130776000Y-63055928D01*
X130651518Y-63068188D01*
X130531820Y-63104498D01*
X130421506Y-63163463D01*
X130324815Y-63242815D01*
X130245463Y-63339506D01*
X130186498Y-63449820D01*
X130150188Y-63569518D01*
X130137928Y-63694000D01*
X125308801Y-63694000D01*
X125566729Y-63436072D01*
X126355001Y-63436072D01*
X126528255Y-63419008D01*
X126694851Y-63368472D01*
X126848387Y-63286405D01*
X126982962Y-63175962D01*
X127093405Y-63041387D01*
X127175472Y-62887851D01*
X127226008Y-62721255D01*
X127243072Y-62548001D01*
X127243072Y-61847999D01*
X127226008Y-61674745D01*
X127175472Y-61508149D01*
X127093405Y-61354613D01*
X126982962Y-61220038D01*
X126848387Y-61109595D01*
X126843889Y-61107191D01*
X126882502Y-61075502D01*
X127036833Y-60887449D01*
X127151511Y-60672901D01*
X127222130Y-60440102D01*
X127245975Y-60198000D01*
X127222130Y-59955898D01*
X127151511Y-59723099D01*
X127036833Y-59508551D01*
X126882502Y-59320498D01*
X126732652Y-59197519D01*
X126796725Y-59154307D01*
X126968078Y-58981474D01*
X127102421Y-58778533D01*
X127194591Y-58553282D01*
X127198462Y-58515609D01*
X127073731Y-58325000D01*
X125857000Y-58325000D01*
X125857000Y-58345000D01*
X125603000Y-58345000D01*
X125603000Y-58325000D01*
X124386269Y-58325000D01*
X124261538Y-58515609D01*
X124265409Y-58553282D01*
X124357579Y-58778533D01*
X124491922Y-58981474D01*
X124663275Y-59154307D01*
X124727348Y-59197519D01*
X124577498Y-59320498D01*
X124423167Y-59508551D01*
X124308489Y-59723099D01*
X124237870Y-59955898D01*
X124214025Y-60198000D01*
X124237870Y-60440102D01*
X124308489Y-60672901D01*
X124423167Y-60887449D01*
X124577498Y-61075502D01*
X124616111Y-61107191D01*
X124611613Y-61109595D01*
X124477038Y-61220038D01*
X124366595Y-61354613D01*
X124284528Y-61508149D01*
X124233992Y-61674745D01*
X124216928Y-61847999D01*
X124216928Y-62548001D01*
X124224842Y-62628356D01*
X123964503Y-62888696D01*
X123935499Y-62912499D01*
X123888454Y-62969824D01*
X123840526Y-63028224D01*
X123773831Y-63153000D01*
X123769954Y-63160254D01*
X123726497Y-63303515D01*
X123715500Y-63415168D01*
X123715500Y-63415178D01*
X123711824Y-63452500D01*
X122160000Y-63452500D01*
X122160000Y-57880391D01*
X124261538Y-57880391D01*
X124386269Y-58071000D01*
X125603000Y-58071000D01*
X125603000Y-56963000D01*
X125857000Y-56963000D01*
X125857000Y-58071000D01*
X127073731Y-58071000D01*
X127198462Y-57880391D01*
X127194591Y-57842718D01*
X127102421Y-57617467D01*
X126968078Y-57414526D01*
X126796725Y-57241693D01*
X126594946Y-57105610D01*
X126370496Y-57011507D01*
X126132000Y-56963000D01*
X125857000Y-56963000D01*
X125603000Y-56963000D01*
X125328000Y-56963000D01*
X125089504Y-57011507D01*
X124865054Y-57105610D01*
X124663275Y-57241693D01*
X124491922Y-57414526D01*
X124357579Y-57617467D01*
X124265409Y-57842718D01*
X124261538Y-57880391D01*
X122160000Y-57880391D01*
X122160000Y-56694000D01*
X130137928Y-56694000D01*
X130137928Y-58894000D01*
X130150188Y-59018482D01*
X130186498Y-59138180D01*
X130245463Y-59248494D01*
X130324815Y-59345185D01*
X130421506Y-59424537D01*
X130531820Y-59483502D01*
X130651518Y-59519812D01*
X130776000Y-59532072D01*
X132976000Y-59532072D01*
X133100482Y-59519812D01*
X133220180Y-59483502D01*
X133330494Y-59424537D01*
X133427185Y-59345185D01*
X133506537Y-59248494D01*
X133565502Y-59138180D01*
X133601812Y-59018482D01*
X133614072Y-58894000D01*
X133614072Y-58488575D01*
X133725576Y-58428974D01*
X133841301Y-58334001D01*
X133865104Y-58304997D01*
X138032138Y-54137964D01*
X138044875Y-54167000D01*
X139489000Y-54167000D01*
X139489000Y-54147000D01*
X139743000Y-54147000D01*
X139743000Y-54167000D01*
X139763000Y-54167000D01*
X139763000Y-54421000D01*
X139743000Y-54421000D01*
X139743000Y-54441000D01*
X139489000Y-54441000D01*
X139489000Y-54421000D01*
X138044875Y-54421000D01*
X137926825Y-54690122D01*
X137991425Y-54903094D01*
X138141469Y-55208329D01*
X138348178Y-55478427D01*
X138496346Y-55608700D01*
X138383922Y-55608700D01*
X138346599Y-55605024D01*
X138309276Y-55608700D01*
X138309267Y-55608700D01*
X138197614Y-55619697D01*
X138054353Y-55663154D01*
X137922323Y-55733726D01*
X137838683Y-55802368D01*
X137806599Y-55828699D01*
X137782801Y-55857697D01*
X133686707Y-59953792D01*
X133685502Y-59949820D01*
X133626537Y-59839506D01*
X133547185Y-59742815D01*
X133450494Y-59663463D01*
X133340180Y-59604498D01*
X133220482Y-59568188D01*
X133096000Y-59555928D01*
X130896000Y-59555928D01*
X130771518Y-59568188D01*
X130651820Y-59604498D01*
X130541506Y-59663463D01*
X130444815Y-59742815D01*
X130365463Y-59839506D01*
X130306498Y-59949820D01*
X130270188Y-60069518D01*
X130257928Y-60194000D01*
X130257928Y-62394000D01*
X130270188Y-62518482D01*
X130306498Y-62638180D01*
X130365463Y-62748494D01*
X130444815Y-62845185D01*
X130541506Y-62924537D01*
X130651820Y-62983502D01*
X130771518Y-63019812D01*
X130896000Y-63032072D01*
X133096000Y-63032072D01*
X133220482Y-63019812D01*
X133340180Y-62983502D01*
X133450494Y-62924537D01*
X133547185Y-62845185D01*
X133626537Y-62748494D01*
X133685502Y-62638180D01*
X133721812Y-62518482D01*
X133734072Y-62394000D01*
X133734072Y-61988575D01*
X133845576Y-61928974D01*
X133961301Y-61834001D01*
X133985104Y-61804997D01*
X134099979Y-61690122D01*
X137926825Y-61690122D01*
X137991425Y-61903094D01*
X138141469Y-62208329D01*
X138348178Y-62478427D01*
X138603609Y-62703008D01*
X138897946Y-62873442D01*
X139219877Y-62983179D01*
X139489000Y-62865600D01*
X139489000Y-61421000D01*
X139743000Y-61421000D01*
X139743000Y-62865600D01*
X140012123Y-62983179D01*
X140334054Y-62873442D01*
X140628391Y-62703008D01*
X140838812Y-62518000D01*
X145105928Y-62518000D01*
X145118188Y-62642482D01*
X145154498Y-62762180D01*
X145213463Y-62872494D01*
X145292815Y-62969185D01*
X145389506Y-63048537D01*
X145499820Y-63107502D01*
X145619518Y-63143812D01*
X145744000Y-63156072D01*
X147708250Y-63153000D01*
X147867000Y-62994250D01*
X147867000Y-61595000D01*
X148121000Y-61595000D01*
X148121000Y-62994250D01*
X148279750Y-63153000D01*
X150244000Y-63156072D01*
X150368482Y-63143812D01*
X150488180Y-63107502D01*
X150598494Y-63048537D01*
X150695185Y-62969185D01*
X150774537Y-62872494D01*
X150833502Y-62762180D01*
X150869812Y-62642482D01*
X150882072Y-62518000D01*
X150879000Y-61753750D01*
X150720250Y-61595000D01*
X148121000Y-61595000D01*
X147867000Y-61595000D01*
X145267750Y-61595000D01*
X145109000Y-61753750D01*
X145105928Y-62518000D01*
X140838812Y-62518000D01*
X140883822Y-62478427D01*
X141090531Y-62208329D01*
X141240575Y-61903094D01*
X141305175Y-61690122D01*
X141187125Y-61421000D01*
X139743000Y-61421000D01*
X139489000Y-61421000D01*
X138044875Y-61421000D01*
X137926825Y-61690122D01*
X134099979Y-61690122D01*
X134892223Y-60897878D01*
X137926825Y-60897878D01*
X138044875Y-61167000D01*
X139489000Y-61167000D01*
X139489000Y-59722400D01*
X139743000Y-59722400D01*
X139743000Y-61167000D01*
X141187125Y-61167000D01*
X141305175Y-60897878D01*
X141240575Y-60684906D01*
X141109373Y-60418000D01*
X145105928Y-60418000D01*
X145109000Y-61182250D01*
X145267750Y-61341000D01*
X147867000Y-61341000D01*
X147867000Y-59941750D01*
X148121000Y-59941750D01*
X148121000Y-61341000D01*
X150720250Y-61341000D01*
X150879000Y-61182250D01*
X150882072Y-60418000D01*
X150869812Y-60293518D01*
X150833502Y-60173820D01*
X150774537Y-60063506D01*
X150695185Y-59966815D01*
X150598494Y-59887463D01*
X150488180Y-59828498D01*
X150368482Y-59792188D01*
X150244000Y-59779928D01*
X148279750Y-59783000D01*
X148121000Y-59941750D01*
X147867000Y-59941750D01*
X147708250Y-59783000D01*
X145744000Y-59779928D01*
X145619518Y-59792188D01*
X145499820Y-59828498D01*
X145389506Y-59887463D01*
X145292815Y-59966815D01*
X145213463Y-60063506D01*
X145154498Y-60173820D01*
X145118188Y-60293518D01*
X145105928Y-60418000D01*
X141109373Y-60418000D01*
X141090531Y-60379671D01*
X140883822Y-60109573D01*
X140628391Y-59884992D01*
X140334054Y-59714558D01*
X140012123Y-59604821D01*
X139743000Y-59722400D01*
X139489000Y-59722400D01*
X139219877Y-59604821D01*
X138897946Y-59714558D01*
X138603609Y-59884992D01*
X138348178Y-60109573D01*
X138141469Y-60379671D01*
X137991425Y-60684906D01*
X137926825Y-60897878D01*
X134892223Y-60897878D01*
X137869100Y-57921002D01*
X137924874Y-57921002D01*
X137806825Y-58190122D01*
X137871425Y-58403094D01*
X138021469Y-58708329D01*
X138228178Y-58978427D01*
X138483609Y-59203008D01*
X138777946Y-59373442D01*
X139099877Y-59483179D01*
X139369000Y-59365600D01*
X139369000Y-57921000D01*
X139623000Y-57921000D01*
X139623000Y-59365600D01*
X139892123Y-59483179D01*
X140214054Y-59373442D01*
X140508391Y-59203008D01*
X140763822Y-58978427D01*
X140970531Y-58708329D01*
X141120575Y-58403094D01*
X141185175Y-58190122D01*
X141067125Y-57921000D01*
X139623000Y-57921000D01*
X139369000Y-57921000D01*
X139349000Y-57921000D01*
X139349000Y-57667000D01*
X139369000Y-57667000D01*
X139369000Y-57647000D01*
X139623000Y-57647000D01*
X139623000Y-57667000D01*
X141067125Y-57667000D01*
X141185175Y-57397878D01*
X141120575Y-57184906D01*
X141092946Y-57128700D01*
X142735978Y-57128700D01*
X142773300Y-57132376D01*
X142810622Y-57128700D01*
X142810633Y-57128700D01*
X142922286Y-57117703D01*
X143065547Y-57074246D01*
X143197576Y-57003674D01*
X143313301Y-56908701D01*
X143337104Y-56879697D01*
X144567758Y-55649043D01*
X144570380Y-55650129D01*
X144881429Y-55712000D01*
X145198571Y-55712000D01*
X145509620Y-55650129D01*
X145802621Y-55528763D01*
X146066315Y-55352569D01*
X146290569Y-55128315D01*
X146310000Y-55099234D01*
X146329431Y-55128315D01*
X146553685Y-55352569D01*
X146817379Y-55528763D01*
X147110380Y-55650129D01*
X147421429Y-55712000D01*
X147738571Y-55712000D01*
X148049620Y-55650129D01*
X148342621Y-55528763D01*
X148606315Y-55352569D01*
X148830569Y-55128315D01*
X148850000Y-55099234D01*
X148869431Y-55128315D01*
X149093685Y-55352569D01*
X149357379Y-55528763D01*
X149650380Y-55650129D01*
X149961429Y-55712000D01*
X150278571Y-55712000D01*
X150589620Y-55650129D01*
X150882621Y-55528763D01*
X151146315Y-55352569D01*
X151370569Y-55128315D01*
X151390000Y-55099234D01*
X151409431Y-55128315D01*
X151633685Y-55352569D01*
X151897379Y-55528763D01*
X151900001Y-55529849D01*
X151900000Y-57542177D01*
X151896324Y-57579500D01*
X151900000Y-57616822D01*
X151900000Y-57616832D01*
X151910997Y-57728485D01*
X151945649Y-57842718D01*
X151954454Y-57871746D01*
X152025026Y-58003776D01*
X152061320Y-58048000D01*
X152119999Y-58119501D01*
X152149002Y-58143304D01*
X152585000Y-58579301D01*
X152585000Y-58641439D01*
X152624774Y-58841398D01*
X152702795Y-59029756D01*
X152816063Y-59199274D01*
X152960226Y-59343437D01*
X153129744Y-59456705D01*
X153318102Y-59534726D01*
X153518061Y-59574500D01*
X153721939Y-59574500D01*
X153921898Y-59534726D01*
X154110256Y-59456705D01*
X154279774Y-59343437D01*
X154423937Y-59199274D01*
X154537205Y-59029756D01*
X154615226Y-58841398D01*
X154655000Y-58641439D01*
X154655000Y-58437561D01*
X154615226Y-58237602D01*
X154537205Y-58049244D01*
X154423937Y-57879726D01*
X154279774Y-57735563D01*
X154110256Y-57622295D01*
X153921898Y-57544274D01*
X153721939Y-57504500D01*
X153659801Y-57504500D01*
X153420000Y-57264699D01*
X153420000Y-55529849D01*
X153422621Y-55528763D01*
X153686315Y-55352569D01*
X153910569Y-55128315D01*
X153930000Y-55099234D01*
X153949431Y-55128315D01*
X154173685Y-55352569D01*
X154437379Y-55528763D01*
X154730380Y-55650129D01*
X155041429Y-55712000D01*
X155358571Y-55712000D01*
X155669620Y-55650129D01*
X155962621Y-55528763D01*
X156226315Y-55352569D01*
X156450569Y-55128315D01*
X156470000Y-55099234D01*
X156489431Y-55128315D01*
X156713685Y-55352569D01*
X156977379Y-55528763D01*
X157270380Y-55650129D01*
X157581429Y-55712000D01*
X157898571Y-55712000D01*
X158209620Y-55650129D01*
X158502621Y-55528763D01*
X158766315Y-55352569D01*
X158990569Y-55128315D01*
X159071184Y-55007665D01*
X159162416Y-55039979D01*
X160100395Y-54102000D01*
X159162416Y-53164021D01*
X159071184Y-53196335D01*
X158990569Y-53075685D01*
X158766315Y-52851431D01*
X158502621Y-52675237D01*
X158209620Y-52553871D01*
X157898571Y-52492000D01*
X157581429Y-52492000D01*
X157270380Y-52553871D01*
X157267758Y-52554957D01*
X157003404Y-52290603D01*
X156979601Y-52261599D01*
X156863876Y-52166626D01*
X156731847Y-52096054D01*
X156588586Y-52052597D01*
X156476933Y-52041600D01*
X156476922Y-52041600D01*
X156439600Y-52037924D01*
X156402278Y-52041600D01*
X138331025Y-52041600D01*
X138293700Y-52037924D01*
X138256375Y-52041600D01*
X138256367Y-52041600D01*
X138144714Y-52052597D01*
X138001453Y-52096054D01*
X137869424Y-52166626D01*
X137753699Y-52261599D01*
X137729901Y-52290597D01*
X133566707Y-56453792D01*
X133565502Y-56449820D01*
X133506537Y-56339506D01*
X133427185Y-56242815D01*
X133330494Y-56163463D01*
X133220180Y-56104498D01*
X133100482Y-56068188D01*
X132976000Y-56055928D01*
X130776000Y-56055928D01*
X130651518Y-56068188D01*
X130531820Y-56104498D01*
X130421506Y-56163463D01*
X130324815Y-56242815D01*
X130245463Y-56339506D01*
X130186498Y-56449820D01*
X130150188Y-56569518D01*
X130137928Y-56694000D01*
X122160000Y-56694000D01*
X122160000Y-49043270D01*
X122411633Y-49650766D01*
X122793024Y-50221558D01*
X123278442Y-50706976D01*
X123849234Y-51088367D01*
X124483463Y-51351073D01*
X125156758Y-51485000D01*
X125843242Y-51485000D01*
X126516537Y-51351073D01*
X127150766Y-51088367D01*
X127721558Y-50706976D01*
X128206976Y-50221558D01*
X128588367Y-49650766D01*
X128851073Y-49016537D01*
X128985000Y-48343242D01*
X128985000Y-47656758D01*
X128851073Y-46983463D01*
X128588367Y-46349234D01*
X128206976Y-45778442D01*
X127721558Y-45293024D01*
X127150766Y-44911633D01*
X126543270Y-44660000D01*
X145744468Y-44660000D01*
X145539123Y-44828523D01*
G36*
X142693748Y-54087858D02*
G01*
X142679605Y-54102000D01*
X142693748Y-54116143D01*
X142514143Y-54295748D01*
X142500000Y-54281605D01*
X141562021Y-55219584D01*
X141654766Y-55481429D01*
X141917191Y-55608700D01*
X140735654Y-55608700D01*
X140883822Y-55478427D01*
X141090531Y-55208329D01*
X141204299Y-54976890D01*
X141382416Y-55039979D01*
X142320395Y-54102000D01*
X142306253Y-54087858D01*
X142485858Y-53908253D01*
X142500000Y-53922395D01*
X142514143Y-53908253D01*
X142693748Y-54087858D01*
X142693748Y-54087858D01*
G37*
X142693748Y-54087858D02*
X142679605Y-54102000D01*
X142693748Y-54116143D01*
X142514143Y-54295748D01*
X142500000Y-54281605D01*
X141562021Y-55219584D01*
X141654766Y-55481429D01*
X141917191Y-55608700D01*
X140735654Y-55608700D01*
X140883822Y-55478427D01*
X141090531Y-55208329D01*
X141204299Y-54976890D01*
X141382416Y-55039979D01*
X142320395Y-54102000D01*
X142306253Y-54087858D01*
X142485858Y-53908253D01*
X142500000Y-53922395D01*
X142514143Y-53908253D01*
X142693748Y-54087858D01*
M02*
