G04 #@! TF.GenerationSoftware,KiCad,Pcbnew,(5.1.2)-1*
G04 #@! TF.CreationDate,2020-03-16T01:25:21+09:00*
G04 #@! TF.ProjectId,L298N_DRIVER,4c323938-4e5f-4445-9249-5645522e6b69,rev?*
G04 #@! TF.SameCoordinates,Original*
G04 #@! TF.FileFunction,Soldermask,Top*
G04 #@! TF.FilePolarity,Negative*
%FSLAX46Y46*%
G04 Gerber Fmt 4.6, Leading zero omitted, Abs format (unit mm)*
G04 Created by KiCad (PCBNEW (5.1.2)-1) date 2020-03-16 01:25:21*
%MOMM*%
%LPD*%
G04 APERTURE LIST*
%ADD10C,0.100000*%
G04 APERTURE END LIST*
D10*
G36*
X177846189Y-80710483D02*
G01*
X177846192Y-80710484D01*
X177846191Y-80710484D01*
X178374139Y-80929167D01*
X178849280Y-81246646D01*
X179253354Y-81650720D01*
X179570833Y-82125861D01*
X179570834Y-82125863D01*
X179789517Y-82653811D01*
X179901000Y-83214275D01*
X179901000Y-83785725D01*
X179789517Y-84346189D01*
X179789516Y-84346191D01*
X179570833Y-84874139D01*
X179253354Y-85349280D01*
X178849280Y-85753354D01*
X178374139Y-86070833D01*
X178374138Y-86070834D01*
X178374137Y-86070834D01*
X177846189Y-86289517D01*
X177285725Y-86401000D01*
X176714275Y-86401000D01*
X176153811Y-86289517D01*
X175625863Y-86070834D01*
X175625862Y-86070834D01*
X175625861Y-86070833D01*
X175150720Y-85753354D01*
X174746646Y-85349280D01*
X174429167Y-84874139D01*
X174210484Y-84346191D01*
X174210483Y-84346189D01*
X174099000Y-83785725D01*
X174099000Y-83214275D01*
X174210483Y-82653811D01*
X174429166Y-82125863D01*
X174429167Y-82125861D01*
X174746646Y-81650720D01*
X175150720Y-81246646D01*
X175625861Y-80929167D01*
X176153809Y-80710484D01*
X176153808Y-80710484D01*
X176153811Y-80710483D01*
X176714275Y-80599000D01*
X177285725Y-80599000D01*
X177846189Y-80710483D01*
X177846189Y-80710483D01*
G37*
G36*
X126322189Y-80710483D02*
G01*
X126322192Y-80710484D01*
X126322191Y-80710484D01*
X126850139Y-80929167D01*
X127325280Y-81246646D01*
X127729354Y-81650720D01*
X128046833Y-82125861D01*
X128046834Y-82125863D01*
X128265517Y-82653811D01*
X128377000Y-83214275D01*
X128377000Y-83785725D01*
X128265517Y-84346189D01*
X128265516Y-84346191D01*
X128046833Y-84874139D01*
X127729354Y-85349280D01*
X127325280Y-85753354D01*
X126850139Y-86070833D01*
X126850138Y-86070834D01*
X126850137Y-86070834D01*
X126322189Y-86289517D01*
X125761725Y-86401000D01*
X125190275Y-86401000D01*
X124629811Y-86289517D01*
X124101863Y-86070834D01*
X124101862Y-86070834D01*
X124101861Y-86070833D01*
X123626720Y-85753354D01*
X123222646Y-85349280D01*
X122905167Y-84874139D01*
X122686484Y-84346191D01*
X122686483Y-84346189D01*
X122575000Y-83785725D01*
X122575000Y-83214275D01*
X122686483Y-82653811D01*
X122905166Y-82125863D01*
X122905167Y-82125861D01*
X123222646Y-81650720D01*
X123626720Y-81246646D01*
X124101861Y-80929167D01*
X124629809Y-80710484D01*
X124629808Y-80710484D01*
X124629811Y-80710483D01*
X125190275Y-80599000D01*
X125761725Y-80599000D01*
X126322189Y-80710483D01*
X126322189Y-80710483D01*
G37*
G36*
X135365142Y-83038242D02*
G01*
X135513101Y-83099529D01*
X135646255Y-83188499D01*
X135759501Y-83301745D01*
X135848471Y-83434899D01*
X135909758Y-83582858D01*
X135941000Y-83739925D01*
X135941000Y-83900075D01*
X135909758Y-84057142D01*
X135848471Y-84205101D01*
X135759501Y-84338255D01*
X135646255Y-84451501D01*
X135513101Y-84540471D01*
X135365142Y-84601758D01*
X135208075Y-84633000D01*
X135047925Y-84633000D01*
X134890858Y-84601758D01*
X134742899Y-84540471D01*
X134609745Y-84451501D01*
X134496499Y-84338255D01*
X134407529Y-84205101D01*
X134346242Y-84057142D01*
X134315000Y-83900075D01*
X134315000Y-83739925D01*
X134346242Y-83582858D01*
X134407529Y-83434899D01*
X134496499Y-83301745D01*
X134609745Y-83188499D01*
X134742899Y-83099529D01*
X134890858Y-83038242D01*
X135047925Y-83007000D01*
X135208075Y-83007000D01*
X135365142Y-83038242D01*
X135365142Y-83038242D01*
G37*
G36*
X168385142Y-83038242D02*
G01*
X168533101Y-83099529D01*
X168666255Y-83188499D01*
X168779501Y-83301745D01*
X168868471Y-83434899D01*
X168929758Y-83582858D01*
X168961000Y-83739925D01*
X168961000Y-83900075D01*
X168929758Y-84057142D01*
X168868471Y-84205101D01*
X168779501Y-84338255D01*
X168666255Y-84451501D01*
X168533101Y-84540471D01*
X168385142Y-84601758D01*
X168228075Y-84633000D01*
X168067925Y-84633000D01*
X167910858Y-84601758D01*
X167762899Y-84540471D01*
X167629745Y-84451501D01*
X167516499Y-84338255D01*
X167427529Y-84205101D01*
X167366242Y-84057142D01*
X167335000Y-83900075D01*
X167335000Y-83739925D01*
X167366242Y-83582858D01*
X167427529Y-83434899D01*
X167516499Y-83301745D01*
X167629745Y-83188499D01*
X167762899Y-83099529D01*
X167910858Y-83038242D01*
X168067925Y-83007000D01*
X168228075Y-83007000D01*
X168385142Y-83038242D01*
X168385142Y-83038242D01*
G37*
G36*
X163305142Y-83038242D02*
G01*
X163453101Y-83099529D01*
X163586255Y-83188499D01*
X163699501Y-83301745D01*
X163788471Y-83434899D01*
X163849758Y-83582858D01*
X163881000Y-83739925D01*
X163881000Y-83900075D01*
X163849758Y-84057142D01*
X163788471Y-84205101D01*
X163699501Y-84338255D01*
X163586255Y-84451501D01*
X163453101Y-84540471D01*
X163305142Y-84601758D01*
X163148075Y-84633000D01*
X162987925Y-84633000D01*
X162830858Y-84601758D01*
X162682899Y-84540471D01*
X162549745Y-84451501D01*
X162436499Y-84338255D01*
X162347529Y-84205101D01*
X162286242Y-84057142D01*
X162255000Y-83900075D01*
X162255000Y-83739925D01*
X162286242Y-83582858D01*
X162347529Y-83434899D01*
X162436499Y-83301745D01*
X162549745Y-83188499D01*
X162682899Y-83099529D01*
X162830858Y-83038242D01*
X162987925Y-83007000D01*
X163148075Y-83007000D01*
X163305142Y-83038242D01*
X163305142Y-83038242D01*
G37*
G36*
X160765142Y-83038242D02*
G01*
X160913101Y-83099529D01*
X161046255Y-83188499D01*
X161159501Y-83301745D01*
X161248471Y-83434899D01*
X161309758Y-83582858D01*
X161341000Y-83739925D01*
X161341000Y-83900075D01*
X161309758Y-84057142D01*
X161248471Y-84205101D01*
X161159501Y-84338255D01*
X161046255Y-84451501D01*
X160913101Y-84540471D01*
X160765142Y-84601758D01*
X160608075Y-84633000D01*
X160447925Y-84633000D01*
X160290858Y-84601758D01*
X160142899Y-84540471D01*
X160009745Y-84451501D01*
X159896499Y-84338255D01*
X159807529Y-84205101D01*
X159746242Y-84057142D01*
X159715000Y-83900075D01*
X159715000Y-83739925D01*
X159746242Y-83582858D01*
X159807529Y-83434899D01*
X159896499Y-83301745D01*
X160009745Y-83188499D01*
X160142899Y-83099529D01*
X160290858Y-83038242D01*
X160447925Y-83007000D01*
X160608075Y-83007000D01*
X160765142Y-83038242D01*
X160765142Y-83038242D01*
G37*
G36*
X158225142Y-83038242D02*
G01*
X158373101Y-83099529D01*
X158506255Y-83188499D01*
X158619501Y-83301745D01*
X158708471Y-83434899D01*
X158769758Y-83582858D01*
X158801000Y-83739925D01*
X158801000Y-83900075D01*
X158769758Y-84057142D01*
X158708471Y-84205101D01*
X158619501Y-84338255D01*
X158506255Y-84451501D01*
X158373101Y-84540471D01*
X158225142Y-84601758D01*
X158068075Y-84633000D01*
X157907925Y-84633000D01*
X157750858Y-84601758D01*
X157602899Y-84540471D01*
X157469745Y-84451501D01*
X157356499Y-84338255D01*
X157267529Y-84205101D01*
X157206242Y-84057142D01*
X157175000Y-83900075D01*
X157175000Y-83739925D01*
X157206242Y-83582858D01*
X157267529Y-83434899D01*
X157356499Y-83301745D01*
X157469745Y-83188499D01*
X157602899Y-83099529D01*
X157750858Y-83038242D01*
X157907925Y-83007000D01*
X158068075Y-83007000D01*
X158225142Y-83038242D01*
X158225142Y-83038242D01*
G37*
G36*
X165845142Y-83038242D02*
G01*
X165993101Y-83099529D01*
X166126255Y-83188499D01*
X166239501Y-83301745D01*
X166328471Y-83434899D01*
X166389758Y-83582858D01*
X166421000Y-83739925D01*
X166421000Y-83900075D01*
X166389758Y-84057142D01*
X166328471Y-84205101D01*
X166239501Y-84338255D01*
X166126255Y-84451501D01*
X165993101Y-84540471D01*
X165845142Y-84601758D01*
X165688075Y-84633000D01*
X165527925Y-84633000D01*
X165370858Y-84601758D01*
X165222899Y-84540471D01*
X165089745Y-84451501D01*
X164976499Y-84338255D01*
X164887529Y-84205101D01*
X164826242Y-84057142D01*
X164795000Y-83900075D01*
X164795000Y-83739925D01*
X164826242Y-83582858D01*
X164887529Y-83434899D01*
X164976499Y-83301745D01*
X165089745Y-83188499D01*
X165222899Y-83099529D01*
X165370858Y-83038242D01*
X165527925Y-83007000D01*
X165688075Y-83007000D01*
X165845142Y-83038242D01*
X165845142Y-83038242D01*
G37*
G36*
X155685142Y-83038242D02*
G01*
X155833101Y-83099529D01*
X155966255Y-83188499D01*
X156079501Y-83301745D01*
X156168471Y-83434899D01*
X156229758Y-83582858D01*
X156261000Y-83739925D01*
X156261000Y-83900075D01*
X156229758Y-84057142D01*
X156168471Y-84205101D01*
X156079501Y-84338255D01*
X155966255Y-84451501D01*
X155833101Y-84540471D01*
X155685142Y-84601758D01*
X155528075Y-84633000D01*
X155367925Y-84633000D01*
X155210858Y-84601758D01*
X155062899Y-84540471D01*
X154929745Y-84451501D01*
X154816499Y-84338255D01*
X154727529Y-84205101D01*
X154666242Y-84057142D01*
X154635000Y-83900075D01*
X154635000Y-83739925D01*
X154666242Y-83582858D01*
X154727529Y-83434899D01*
X154816499Y-83301745D01*
X154929745Y-83188499D01*
X155062899Y-83099529D01*
X155210858Y-83038242D01*
X155367925Y-83007000D01*
X155528075Y-83007000D01*
X155685142Y-83038242D01*
X155685142Y-83038242D01*
G37*
G36*
X153145142Y-83038242D02*
G01*
X153293101Y-83099529D01*
X153426255Y-83188499D01*
X153539501Y-83301745D01*
X153628471Y-83434899D01*
X153689758Y-83582858D01*
X153721000Y-83739925D01*
X153721000Y-83900075D01*
X153689758Y-84057142D01*
X153628471Y-84205101D01*
X153539501Y-84338255D01*
X153426255Y-84451501D01*
X153293101Y-84540471D01*
X153145142Y-84601758D01*
X152988075Y-84633000D01*
X152827925Y-84633000D01*
X152670858Y-84601758D01*
X152522899Y-84540471D01*
X152389745Y-84451501D01*
X152276499Y-84338255D01*
X152187529Y-84205101D01*
X152126242Y-84057142D01*
X152095000Y-83900075D01*
X152095000Y-83739925D01*
X152126242Y-83582858D01*
X152187529Y-83434899D01*
X152276499Y-83301745D01*
X152389745Y-83188499D01*
X152522899Y-83099529D01*
X152670858Y-83038242D01*
X152827925Y-83007000D01*
X152988075Y-83007000D01*
X153145142Y-83038242D01*
X153145142Y-83038242D01*
G37*
G36*
X150605142Y-83038242D02*
G01*
X150753101Y-83099529D01*
X150886255Y-83188499D01*
X150999501Y-83301745D01*
X151088471Y-83434899D01*
X151149758Y-83582858D01*
X151181000Y-83739925D01*
X151181000Y-83900075D01*
X151149758Y-84057142D01*
X151088471Y-84205101D01*
X150999501Y-84338255D01*
X150886255Y-84451501D01*
X150753101Y-84540471D01*
X150605142Y-84601758D01*
X150448075Y-84633000D01*
X150287925Y-84633000D01*
X150130858Y-84601758D01*
X149982899Y-84540471D01*
X149849745Y-84451501D01*
X149736499Y-84338255D01*
X149647529Y-84205101D01*
X149586242Y-84057142D01*
X149555000Y-83900075D01*
X149555000Y-83739925D01*
X149586242Y-83582858D01*
X149647529Y-83434899D01*
X149736499Y-83301745D01*
X149849745Y-83188499D01*
X149982899Y-83099529D01*
X150130858Y-83038242D01*
X150287925Y-83007000D01*
X150448075Y-83007000D01*
X150605142Y-83038242D01*
X150605142Y-83038242D01*
G37*
G36*
X148065142Y-83038242D02*
G01*
X148213101Y-83099529D01*
X148346255Y-83188499D01*
X148459501Y-83301745D01*
X148548471Y-83434899D01*
X148609758Y-83582858D01*
X148641000Y-83739925D01*
X148641000Y-83900075D01*
X148609758Y-84057142D01*
X148548471Y-84205101D01*
X148459501Y-84338255D01*
X148346255Y-84451501D01*
X148213101Y-84540471D01*
X148065142Y-84601758D01*
X147908075Y-84633000D01*
X147747925Y-84633000D01*
X147590858Y-84601758D01*
X147442899Y-84540471D01*
X147309745Y-84451501D01*
X147196499Y-84338255D01*
X147107529Y-84205101D01*
X147046242Y-84057142D01*
X147015000Y-83900075D01*
X147015000Y-83739925D01*
X147046242Y-83582858D01*
X147107529Y-83434899D01*
X147196499Y-83301745D01*
X147309745Y-83188499D01*
X147442899Y-83099529D01*
X147590858Y-83038242D01*
X147747925Y-83007000D01*
X147908075Y-83007000D01*
X148065142Y-83038242D01*
X148065142Y-83038242D01*
G37*
G36*
X145525142Y-83038242D02*
G01*
X145673101Y-83099529D01*
X145806255Y-83188499D01*
X145919501Y-83301745D01*
X146008471Y-83434899D01*
X146069758Y-83582858D01*
X146101000Y-83739925D01*
X146101000Y-83900075D01*
X146069758Y-84057142D01*
X146008471Y-84205101D01*
X145919501Y-84338255D01*
X145806255Y-84451501D01*
X145673101Y-84540471D01*
X145525142Y-84601758D01*
X145368075Y-84633000D01*
X145207925Y-84633000D01*
X145050858Y-84601758D01*
X144902899Y-84540471D01*
X144769745Y-84451501D01*
X144656499Y-84338255D01*
X144567529Y-84205101D01*
X144506242Y-84057142D01*
X144475000Y-83900075D01*
X144475000Y-83739925D01*
X144506242Y-83582858D01*
X144567529Y-83434899D01*
X144656499Y-83301745D01*
X144769745Y-83188499D01*
X144902899Y-83099529D01*
X145050858Y-83038242D01*
X145207925Y-83007000D01*
X145368075Y-83007000D01*
X145525142Y-83038242D01*
X145525142Y-83038242D01*
G37*
G36*
X142985142Y-83038242D02*
G01*
X143133101Y-83099529D01*
X143266255Y-83188499D01*
X143379501Y-83301745D01*
X143468471Y-83434899D01*
X143529758Y-83582858D01*
X143561000Y-83739925D01*
X143561000Y-83900075D01*
X143529758Y-84057142D01*
X143468471Y-84205101D01*
X143379501Y-84338255D01*
X143266255Y-84451501D01*
X143133101Y-84540471D01*
X142985142Y-84601758D01*
X142828075Y-84633000D01*
X142667925Y-84633000D01*
X142510858Y-84601758D01*
X142362899Y-84540471D01*
X142229745Y-84451501D01*
X142116499Y-84338255D01*
X142027529Y-84205101D01*
X141966242Y-84057142D01*
X141935000Y-83900075D01*
X141935000Y-83739925D01*
X141966242Y-83582858D01*
X142027529Y-83434899D01*
X142116499Y-83301745D01*
X142229745Y-83188499D01*
X142362899Y-83099529D01*
X142510858Y-83038242D01*
X142667925Y-83007000D01*
X142828075Y-83007000D01*
X142985142Y-83038242D01*
X142985142Y-83038242D01*
G37*
G36*
X140445142Y-83038242D02*
G01*
X140593101Y-83099529D01*
X140726255Y-83188499D01*
X140839501Y-83301745D01*
X140928471Y-83434899D01*
X140989758Y-83582858D01*
X141021000Y-83739925D01*
X141021000Y-83900075D01*
X140989758Y-84057142D01*
X140928471Y-84205101D01*
X140839501Y-84338255D01*
X140726255Y-84451501D01*
X140593101Y-84540471D01*
X140445142Y-84601758D01*
X140288075Y-84633000D01*
X140127925Y-84633000D01*
X139970858Y-84601758D01*
X139822899Y-84540471D01*
X139689745Y-84451501D01*
X139576499Y-84338255D01*
X139487529Y-84205101D01*
X139426242Y-84057142D01*
X139395000Y-83900075D01*
X139395000Y-83739925D01*
X139426242Y-83582858D01*
X139487529Y-83434899D01*
X139576499Y-83301745D01*
X139689745Y-83188499D01*
X139822899Y-83099529D01*
X139970858Y-83038242D01*
X140127925Y-83007000D01*
X140288075Y-83007000D01*
X140445142Y-83038242D01*
X140445142Y-83038242D01*
G37*
G36*
X137905142Y-83038242D02*
G01*
X138053101Y-83099529D01*
X138186255Y-83188499D01*
X138299501Y-83301745D01*
X138388471Y-83434899D01*
X138449758Y-83582858D01*
X138481000Y-83739925D01*
X138481000Y-83900075D01*
X138449758Y-84057142D01*
X138388471Y-84205101D01*
X138299501Y-84338255D01*
X138186255Y-84451501D01*
X138053101Y-84540471D01*
X137905142Y-84601758D01*
X137748075Y-84633000D01*
X137587925Y-84633000D01*
X137430858Y-84601758D01*
X137282899Y-84540471D01*
X137149745Y-84451501D01*
X137036499Y-84338255D01*
X136947529Y-84205101D01*
X136886242Y-84057142D01*
X136855000Y-83900075D01*
X136855000Y-83739925D01*
X136886242Y-83582858D01*
X136947529Y-83434899D01*
X137036499Y-83301745D01*
X137149745Y-83188499D01*
X137282899Y-83099529D01*
X137430858Y-83038242D01*
X137587925Y-83007000D01*
X137748075Y-83007000D01*
X137905142Y-83038242D01*
X137905142Y-83038242D01*
G37*
G36*
X126496242Y-71235404D02*
G01*
X126533337Y-71246657D01*
X126567515Y-71264925D01*
X126597481Y-71289519D01*
X126622075Y-71319485D01*
X126640343Y-71353663D01*
X126651596Y-71390758D01*
X126656000Y-71435474D01*
X126656000Y-72328526D01*
X126651596Y-72373242D01*
X126640343Y-72410337D01*
X126622075Y-72444515D01*
X126597481Y-72474481D01*
X126567515Y-72499075D01*
X126533337Y-72517343D01*
X126496242Y-72528596D01*
X126451526Y-72533000D01*
X125008474Y-72533000D01*
X124963758Y-72528596D01*
X124926663Y-72517343D01*
X124892485Y-72499075D01*
X124862519Y-72474481D01*
X124837925Y-72444515D01*
X124819657Y-72410337D01*
X124808404Y-72373242D01*
X124804000Y-72328526D01*
X124804000Y-71435474D01*
X124808404Y-71390758D01*
X124819657Y-71353663D01*
X124837925Y-71319485D01*
X124862519Y-71289519D01*
X124892485Y-71264925D01*
X124926663Y-71246657D01*
X124963758Y-71235404D01*
X125008474Y-71231000D01*
X126451526Y-71231000D01*
X126496242Y-71235404D01*
X126496242Y-71235404D01*
G37*
G36*
X135365142Y-70338242D02*
G01*
X135513101Y-70399529D01*
X135646255Y-70488499D01*
X135759501Y-70601745D01*
X135848471Y-70734899D01*
X135909758Y-70882858D01*
X135941000Y-71039925D01*
X135941000Y-71200075D01*
X135909758Y-71357142D01*
X135848471Y-71505101D01*
X135759501Y-71638255D01*
X135646255Y-71751501D01*
X135513101Y-71840471D01*
X135365142Y-71901758D01*
X135208075Y-71933000D01*
X135047925Y-71933000D01*
X134890858Y-71901758D01*
X134742899Y-71840471D01*
X134609745Y-71751501D01*
X134496499Y-71638255D01*
X134407529Y-71505101D01*
X134346242Y-71357142D01*
X134315000Y-71200075D01*
X134315000Y-71039925D01*
X134346242Y-70882858D01*
X134407529Y-70734899D01*
X134496499Y-70601745D01*
X134609745Y-70488499D01*
X134742899Y-70399529D01*
X134890858Y-70338242D01*
X135047925Y-70307000D01*
X135208075Y-70307000D01*
X135365142Y-70338242D01*
X135365142Y-70338242D01*
G37*
G36*
X137905142Y-70338242D02*
G01*
X138053101Y-70399529D01*
X138186255Y-70488499D01*
X138299501Y-70601745D01*
X138388471Y-70734899D01*
X138449758Y-70882858D01*
X138481000Y-71039925D01*
X138481000Y-71200075D01*
X138449758Y-71357142D01*
X138388471Y-71505101D01*
X138299501Y-71638255D01*
X138186255Y-71751501D01*
X138053101Y-71840471D01*
X137905142Y-71901758D01*
X137748075Y-71933000D01*
X137587925Y-71933000D01*
X137430858Y-71901758D01*
X137282899Y-71840471D01*
X137149745Y-71751501D01*
X137036499Y-71638255D01*
X136947529Y-71505101D01*
X136886242Y-71357142D01*
X136855000Y-71200075D01*
X136855000Y-71039925D01*
X136886242Y-70882858D01*
X136947529Y-70734899D01*
X137036499Y-70601745D01*
X137149745Y-70488499D01*
X137282899Y-70399529D01*
X137430858Y-70338242D01*
X137587925Y-70307000D01*
X137748075Y-70307000D01*
X137905142Y-70338242D01*
X137905142Y-70338242D01*
G37*
G36*
X140445142Y-70338242D02*
G01*
X140593101Y-70399529D01*
X140726255Y-70488499D01*
X140839501Y-70601745D01*
X140928471Y-70734899D01*
X140989758Y-70882858D01*
X141021000Y-71039925D01*
X141021000Y-71200075D01*
X140989758Y-71357142D01*
X140928471Y-71505101D01*
X140839501Y-71638255D01*
X140726255Y-71751501D01*
X140593101Y-71840471D01*
X140445142Y-71901758D01*
X140288075Y-71933000D01*
X140127925Y-71933000D01*
X139970858Y-71901758D01*
X139822899Y-71840471D01*
X139689745Y-71751501D01*
X139576499Y-71638255D01*
X139487529Y-71505101D01*
X139426242Y-71357142D01*
X139395000Y-71200075D01*
X139395000Y-71039925D01*
X139426242Y-70882858D01*
X139487529Y-70734899D01*
X139576499Y-70601745D01*
X139689745Y-70488499D01*
X139822899Y-70399529D01*
X139970858Y-70338242D01*
X140127925Y-70307000D01*
X140288075Y-70307000D01*
X140445142Y-70338242D01*
X140445142Y-70338242D01*
G37*
G36*
X163305142Y-70338242D02*
G01*
X163453101Y-70399529D01*
X163586255Y-70488499D01*
X163699501Y-70601745D01*
X163788471Y-70734899D01*
X163849758Y-70882858D01*
X163881000Y-71039925D01*
X163881000Y-71200075D01*
X163849758Y-71357142D01*
X163788471Y-71505101D01*
X163699501Y-71638255D01*
X163586255Y-71751501D01*
X163453101Y-71840471D01*
X163305142Y-71901758D01*
X163148075Y-71933000D01*
X162987925Y-71933000D01*
X162830858Y-71901758D01*
X162682899Y-71840471D01*
X162549745Y-71751501D01*
X162436499Y-71638255D01*
X162347529Y-71505101D01*
X162286242Y-71357142D01*
X162255000Y-71200075D01*
X162255000Y-71039925D01*
X162286242Y-70882858D01*
X162347529Y-70734899D01*
X162436499Y-70601745D01*
X162549745Y-70488499D01*
X162682899Y-70399529D01*
X162830858Y-70338242D01*
X162987925Y-70307000D01*
X163148075Y-70307000D01*
X163305142Y-70338242D01*
X163305142Y-70338242D01*
G37*
G36*
X142985142Y-70338242D02*
G01*
X143133101Y-70399529D01*
X143266255Y-70488499D01*
X143379501Y-70601745D01*
X143468471Y-70734899D01*
X143529758Y-70882858D01*
X143561000Y-71039925D01*
X143561000Y-71200075D01*
X143529758Y-71357142D01*
X143468471Y-71505101D01*
X143379501Y-71638255D01*
X143266255Y-71751501D01*
X143133101Y-71840471D01*
X142985142Y-71901758D01*
X142828075Y-71933000D01*
X142667925Y-71933000D01*
X142510858Y-71901758D01*
X142362899Y-71840471D01*
X142229745Y-71751501D01*
X142116499Y-71638255D01*
X142027529Y-71505101D01*
X141966242Y-71357142D01*
X141935000Y-71200075D01*
X141935000Y-71039925D01*
X141966242Y-70882858D01*
X142027529Y-70734899D01*
X142116499Y-70601745D01*
X142229745Y-70488499D01*
X142362899Y-70399529D01*
X142510858Y-70338242D01*
X142667925Y-70307000D01*
X142828075Y-70307000D01*
X142985142Y-70338242D01*
X142985142Y-70338242D01*
G37*
G36*
X145525142Y-70338242D02*
G01*
X145673101Y-70399529D01*
X145806255Y-70488499D01*
X145919501Y-70601745D01*
X146008471Y-70734899D01*
X146069758Y-70882858D01*
X146101000Y-71039925D01*
X146101000Y-71200075D01*
X146069758Y-71357142D01*
X146008471Y-71505101D01*
X145919501Y-71638255D01*
X145806255Y-71751501D01*
X145673101Y-71840471D01*
X145525142Y-71901758D01*
X145368075Y-71933000D01*
X145207925Y-71933000D01*
X145050858Y-71901758D01*
X144902899Y-71840471D01*
X144769745Y-71751501D01*
X144656499Y-71638255D01*
X144567529Y-71505101D01*
X144506242Y-71357142D01*
X144475000Y-71200075D01*
X144475000Y-71039925D01*
X144506242Y-70882858D01*
X144567529Y-70734899D01*
X144656499Y-70601745D01*
X144769745Y-70488499D01*
X144902899Y-70399529D01*
X145050858Y-70338242D01*
X145207925Y-70307000D01*
X145368075Y-70307000D01*
X145525142Y-70338242D01*
X145525142Y-70338242D01*
G37*
G36*
X148065142Y-70338242D02*
G01*
X148213101Y-70399529D01*
X148346255Y-70488499D01*
X148459501Y-70601745D01*
X148548471Y-70734899D01*
X148609758Y-70882858D01*
X148641000Y-71039925D01*
X148641000Y-71200075D01*
X148609758Y-71357142D01*
X148548471Y-71505101D01*
X148459501Y-71638255D01*
X148346255Y-71751501D01*
X148213101Y-71840471D01*
X148065142Y-71901758D01*
X147908075Y-71933000D01*
X147747925Y-71933000D01*
X147590858Y-71901758D01*
X147442899Y-71840471D01*
X147309745Y-71751501D01*
X147196499Y-71638255D01*
X147107529Y-71505101D01*
X147046242Y-71357142D01*
X147015000Y-71200075D01*
X147015000Y-71039925D01*
X147046242Y-70882858D01*
X147107529Y-70734899D01*
X147196499Y-70601745D01*
X147309745Y-70488499D01*
X147442899Y-70399529D01*
X147590858Y-70338242D01*
X147747925Y-70307000D01*
X147908075Y-70307000D01*
X148065142Y-70338242D01*
X148065142Y-70338242D01*
G37*
G36*
X150605142Y-70338242D02*
G01*
X150753101Y-70399529D01*
X150886255Y-70488499D01*
X150999501Y-70601745D01*
X151088471Y-70734899D01*
X151149758Y-70882858D01*
X151181000Y-71039925D01*
X151181000Y-71200075D01*
X151149758Y-71357142D01*
X151088471Y-71505101D01*
X150999501Y-71638255D01*
X150886255Y-71751501D01*
X150753101Y-71840471D01*
X150605142Y-71901758D01*
X150448075Y-71933000D01*
X150287925Y-71933000D01*
X150130858Y-71901758D01*
X149982899Y-71840471D01*
X149849745Y-71751501D01*
X149736499Y-71638255D01*
X149647529Y-71505101D01*
X149586242Y-71357142D01*
X149555000Y-71200075D01*
X149555000Y-71039925D01*
X149586242Y-70882858D01*
X149647529Y-70734899D01*
X149736499Y-70601745D01*
X149849745Y-70488499D01*
X149982899Y-70399529D01*
X150130858Y-70338242D01*
X150287925Y-70307000D01*
X150448075Y-70307000D01*
X150605142Y-70338242D01*
X150605142Y-70338242D01*
G37*
G36*
X153145142Y-70338242D02*
G01*
X153293101Y-70399529D01*
X153426255Y-70488499D01*
X153539501Y-70601745D01*
X153628471Y-70734899D01*
X153689758Y-70882858D01*
X153721000Y-71039925D01*
X153721000Y-71200075D01*
X153689758Y-71357142D01*
X153628471Y-71505101D01*
X153539501Y-71638255D01*
X153426255Y-71751501D01*
X153293101Y-71840471D01*
X153145142Y-71901758D01*
X152988075Y-71933000D01*
X152827925Y-71933000D01*
X152670858Y-71901758D01*
X152522899Y-71840471D01*
X152389745Y-71751501D01*
X152276499Y-71638255D01*
X152187529Y-71505101D01*
X152126242Y-71357142D01*
X152095000Y-71200075D01*
X152095000Y-71039925D01*
X152126242Y-70882858D01*
X152187529Y-70734899D01*
X152276499Y-70601745D01*
X152389745Y-70488499D01*
X152522899Y-70399529D01*
X152670858Y-70338242D01*
X152827925Y-70307000D01*
X152988075Y-70307000D01*
X153145142Y-70338242D01*
X153145142Y-70338242D01*
G37*
G36*
X155685142Y-70338242D02*
G01*
X155833101Y-70399529D01*
X155966255Y-70488499D01*
X156079501Y-70601745D01*
X156168471Y-70734899D01*
X156229758Y-70882858D01*
X156261000Y-71039925D01*
X156261000Y-71200075D01*
X156229758Y-71357142D01*
X156168471Y-71505101D01*
X156079501Y-71638255D01*
X155966255Y-71751501D01*
X155833101Y-71840471D01*
X155685142Y-71901758D01*
X155528075Y-71933000D01*
X155367925Y-71933000D01*
X155210858Y-71901758D01*
X155062899Y-71840471D01*
X154929745Y-71751501D01*
X154816499Y-71638255D01*
X154727529Y-71505101D01*
X154666242Y-71357142D01*
X154635000Y-71200075D01*
X154635000Y-71039925D01*
X154666242Y-70882858D01*
X154727529Y-70734899D01*
X154816499Y-70601745D01*
X154929745Y-70488499D01*
X155062899Y-70399529D01*
X155210858Y-70338242D01*
X155367925Y-70307000D01*
X155528075Y-70307000D01*
X155685142Y-70338242D01*
X155685142Y-70338242D01*
G37*
G36*
X158225142Y-70338242D02*
G01*
X158373101Y-70399529D01*
X158506255Y-70488499D01*
X158619501Y-70601745D01*
X158708471Y-70734899D01*
X158769758Y-70882858D01*
X158801000Y-71039925D01*
X158801000Y-71200075D01*
X158769758Y-71357142D01*
X158708471Y-71505101D01*
X158619501Y-71638255D01*
X158506255Y-71751501D01*
X158373101Y-71840471D01*
X158225142Y-71901758D01*
X158068075Y-71933000D01*
X157907925Y-71933000D01*
X157750858Y-71901758D01*
X157602899Y-71840471D01*
X157469745Y-71751501D01*
X157356499Y-71638255D01*
X157267529Y-71505101D01*
X157206242Y-71357142D01*
X157175000Y-71200075D01*
X157175000Y-71039925D01*
X157206242Y-70882858D01*
X157267529Y-70734899D01*
X157356499Y-70601745D01*
X157469745Y-70488499D01*
X157602899Y-70399529D01*
X157750858Y-70338242D01*
X157907925Y-70307000D01*
X158068075Y-70307000D01*
X158225142Y-70338242D01*
X158225142Y-70338242D01*
G37*
G36*
X165845142Y-70338242D02*
G01*
X165993101Y-70399529D01*
X166126255Y-70488499D01*
X166239501Y-70601745D01*
X166328471Y-70734899D01*
X166389758Y-70882858D01*
X166421000Y-71039925D01*
X166421000Y-71200075D01*
X166389758Y-71357142D01*
X166328471Y-71505101D01*
X166239501Y-71638255D01*
X166126255Y-71751501D01*
X165993101Y-71840471D01*
X165845142Y-71901758D01*
X165688075Y-71933000D01*
X165527925Y-71933000D01*
X165370858Y-71901758D01*
X165222899Y-71840471D01*
X165089745Y-71751501D01*
X164976499Y-71638255D01*
X164887529Y-71505101D01*
X164826242Y-71357142D01*
X164795000Y-71200075D01*
X164795000Y-71039925D01*
X164826242Y-70882858D01*
X164887529Y-70734899D01*
X164976499Y-70601745D01*
X165089745Y-70488499D01*
X165222899Y-70399529D01*
X165370858Y-70338242D01*
X165527925Y-70307000D01*
X165688075Y-70307000D01*
X165845142Y-70338242D01*
X165845142Y-70338242D01*
G37*
G36*
X168385142Y-70338242D02*
G01*
X168533101Y-70399529D01*
X168666255Y-70488499D01*
X168779501Y-70601745D01*
X168868471Y-70734899D01*
X168929758Y-70882858D01*
X168961000Y-71039925D01*
X168961000Y-71200075D01*
X168929758Y-71357142D01*
X168868471Y-71505101D01*
X168779501Y-71638255D01*
X168666255Y-71751501D01*
X168533101Y-71840471D01*
X168385142Y-71901758D01*
X168228075Y-71933000D01*
X168067925Y-71933000D01*
X167910858Y-71901758D01*
X167762899Y-71840471D01*
X167629745Y-71751501D01*
X167516499Y-71638255D01*
X167427529Y-71505101D01*
X167366242Y-71357142D01*
X167335000Y-71200075D01*
X167335000Y-71039925D01*
X167366242Y-70882858D01*
X167427529Y-70734899D01*
X167516499Y-70601745D01*
X167629745Y-70488499D01*
X167762899Y-70399529D01*
X167910858Y-70338242D01*
X168067925Y-70307000D01*
X168228075Y-70307000D01*
X168385142Y-70338242D01*
X168385142Y-70338242D01*
G37*
G36*
X160765142Y-70338242D02*
G01*
X160913101Y-70399529D01*
X161046255Y-70488499D01*
X161159501Y-70601745D01*
X161248471Y-70734899D01*
X161309758Y-70882858D01*
X161341000Y-71039925D01*
X161341000Y-71200075D01*
X161309758Y-71357142D01*
X161248471Y-71505101D01*
X161159501Y-71638255D01*
X161046255Y-71751501D01*
X160913101Y-71840471D01*
X160765142Y-71901758D01*
X160608075Y-71933000D01*
X160447925Y-71933000D01*
X160290858Y-71901758D01*
X160142899Y-71840471D01*
X160009745Y-71751501D01*
X159896499Y-71638255D01*
X159807529Y-71505101D01*
X159746242Y-71357142D01*
X159715000Y-71200075D01*
X159715000Y-71039925D01*
X159746242Y-70882858D01*
X159807529Y-70734899D01*
X159896499Y-70601745D01*
X160009745Y-70488499D01*
X160142899Y-70399529D01*
X160290858Y-70338242D01*
X160447925Y-70307000D01*
X160608075Y-70307000D01*
X160765142Y-70338242D01*
X160765142Y-70338242D01*
G37*
G36*
X176868855Y-69932140D02*
G01*
X176932618Y-69938420D01*
X177023404Y-69965960D01*
X177055336Y-69975646D01*
X177168425Y-70036094D01*
X177267554Y-70117446D01*
X177348906Y-70216575D01*
X177409354Y-70329664D01*
X177409355Y-70329668D01*
X177446580Y-70452382D01*
X177459149Y-70580000D01*
X177446580Y-70707618D01*
X177438304Y-70734899D01*
X177409354Y-70830336D01*
X177348906Y-70943425D01*
X177267554Y-71042554D01*
X177168425Y-71123906D01*
X177055336Y-71184354D01*
X177023404Y-71194040D01*
X176932618Y-71221580D01*
X176868855Y-71227860D01*
X176836974Y-71231000D01*
X176223026Y-71231000D01*
X176191145Y-71227860D01*
X176127382Y-71221580D01*
X176036596Y-71194040D01*
X176004664Y-71184354D01*
X175891575Y-71123906D01*
X175792446Y-71042554D01*
X175711094Y-70943425D01*
X175650646Y-70830336D01*
X175621696Y-70734899D01*
X175613420Y-70707618D01*
X175600851Y-70580000D01*
X175613420Y-70452382D01*
X175650645Y-70329668D01*
X175650646Y-70329664D01*
X175711094Y-70216575D01*
X175792446Y-70117446D01*
X175891575Y-70036094D01*
X176004664Y-69975646D01*
X176036596Y-69965960D01*
X176127382Y-69938420D01*
X176191145Y-69932140D01*
X176223026Y-69929000D01*
X176836974Y-69929000D01*
X176868855Y-69932140D01*
X176868855Y-69932140D01*
G37*
G36*
X126068855Y-69234140D02*
G01*
X126132618Y-69240420D01*
X126223404Y-69267960D01*
X126255336Y-69277646D01*
X126368425Y-69338094D01*
X126467554Y-69419446D01*
X126548906Y-69518575D01*
X126609354Y-69631664D01*
X126609355Y-69631668D01*
X126646580Y-69754382D01*
X126659149Y-69882000D01*
X126646580Y-70009618D01*
X126638548Y-70036095D01*
X126609354Y-70132336D01*
X126548906Y-70245425D01*
X126467554Y-70344554D01*
X126368425Y-70425906D01*
X126255336Y-70486354D01*
X126248258Y-70488501D01*
X126132618Y-70523580D01*
X126068855Y-70529860D01*
X126036974Y-70533000D01*
X125423026Y-70533000D01*
X125391145Y-70529860D01*
X125327382Y-70523580D01*
X125211742Y-70488501D01*
X125204664Y-70486354D01*
X125091575Y-70425906D01*
X124992446Y-70344554D01*
X124911094Y-70245425D01*
X124850646Y-70132336D01*
X124821452Y-70036095D01*
X124813420Y-70009618D01*
X124800851Y-69882000D01*
X124813420Y-69754382D01*
X124850645Y-69631668D01*
X124850646Y-69631664D01*
X124911094Y-69518575D01*
X124992446Y-69419446D01*
X125091575Y-69338094D01*
X125204664Y-69277646D01*
X125236596Y-69267960D01*
X125327382Y-69240420D01*
X125391145Y-69234140D01*
X125423026Y-69231000D01*
X126036974Y-69231000D01*
X126068855Y-69234140D01*
X126068855Y-69234140D01*
G37*
G36*
X177296242Y-67933404D02*
G01*
X177333337Y-67944657D01*
X177367515Y-67962925D01*
X177397481Y-67987519D01*
X177422075Y-68017485D01*
X177440343Y-68051663D01*
X177451596Y-68088758D01*
X177456000Y-68133474D01*
X177456000Y-69026526D01*
X177451596Y-69071242D01*
X177440343Y-69108337D01*
X177422075Y-69142515D01*
X177397481Y-69172481D01*
X177367515Y-69197075D01*
X177333337Y-69215343D01*
X177296242Y-69226596D01*
X177251526Y-69231000D01*
X175808474Y-69231000D01*
X175763758Y-69226596D01*
X175726663Y-69215343D01*
X175692485Y-69197075D01*
X175662519Y-69172481D01*
X175637925Y-69142515D01*
X175619657Y-69108337D01*
X175608404Y-69071242D01*
X175604000Y-69026526D01*
X175604000Y-68133474D01*
X175608404Y-68088758D01*
X175619657Y-68051663D01*
X175637925Y-68017485D01*
X175662519Y-67987519D01*
X175692485Y-67962925D01*
X175726663Y-67944657D01*
X175763758Y-67933404D01*
X175808474Y-67929000D01*
X177251526Y-67929000D01*
X177296242Y-67933404D01*
X177296242Y-67933404D01*
G37*
G36*
X126068855Y-67234140D02*
G01*
X126132618Y-67240420D01*
X126223404Y-67267960D01*
X126255336Y-67277646D01*
X126368425Y-67338094D01*
X126467554Y-67419446D01*
X126548906Y-67518575D01*
X126609354Y-67631664D01*
X126609355Y-67631668D01*
X126646580Y-67754382D01*
X126659149Y-67882000D01*
X126646580Y-68009618D01*
X126622573Y-68088758D01*
X126609354Y-68132336D01*
X126548906Y-68245425D01*
X126467554Y-68344554D01*
X126368425Y-68425906D01*
X126255336Y-68486354D01*
X126223404Y-68496040D01*
X126132618Y-68523580D01*
X126068855Y-68529860D01*
X126036974Y-68533000D01*
X125423026Y-68533000D01*
X125391145Y-68529860D01*
X125327382Y-68523580D01*
X125236596Y-68496040D01*
X125204664Y-68486354D01*
X125091575Y-68425906D01*
X124992446Y-68344554D01*
X124911094Y-68245425D01*
X124850646Y-68132336D01*
X124837427Y-68088758D01*
X124813420Y-68009618D01*
X124800851Y-67882000D01*
X124813420Y-67754382D01*
X124850645Y-67631668D01*
X124850646Y-67631664D01*
X124911094Y-67518575D01*
X124992446Y-67419446D01*
X125091575Y-67338094D01*
X125204664Y-67277646D01*
X125236596Y-67267960D01*
X125327382Y-67240420D01*
X125391145Y-67234140D01*
X125423026Y-67231000D01*
X126036974Y-67231000D01*
X126068855Y-67234140D01*
X126068855Y-67234140D01*
G37*
G36*
X164281000Y-66199000D02*
G01*
X161979000Y-66199000D01*
X161979000Y-63897000D01*
X164281000Y-63897000D01*
X164281000Y-66199000D01*
X164281000Y-66199000D01*
G37*
G36*
X170919271Y-63908103D02*
G01*
X170975635Y-63913654D01*
X171192600Y-63979470D01*
X171192602Y-63979471D01*
X171392555Y-64086347D01*
X171567818Y-64230182D01*
X171711653Y-64405445D01*
X171798735Y-64568366D01*
X171818530Y-64605400D01*
X171884346Y-64822365D01*
X171884346Y-64822366D01*
X171906569Y-65048000D01*
X171884346Y-65273634D01*
X171818529Y-65490602D01*
X171711653Y-65690555D01*
X171567818Y-65865818D01*
X171392555Y-66009653D01*
X171192602Y-66116529D01*
X171192600Y-66116530D01*
X170975635Y-66182346D01*
X170919271Y-66187897D01*
X170806545Y-66199000D01*
X170693455Y-66199000D01*
X170580729Y-66187897D01*
X170524365Y-66182346D01*
X170307400Y-66116530D01*
X170307398Y-66116529D01*
X170107445Y-66009653D01*
X169932182Y-65865818D01*
X169788347Y-65690555D01*
X169681471Y-65490602D01*
X169615654Y-65273634D01*
X169593431Y-65048000D01*
X169615654Y-64822366D01*
X169615654Y-64822365D01*
X169681470Y-64605400D01*
X169701265Y-64568366D01*
X169788347Y-64405445D01*
X169932182Y-64230182D01*
X170107445Y-64086347D01*
X170307398Y-63979471D01*
X170307400Y-63979470D01*
X170524365Y-63913654D01*
X170580729Y-63908103D01*
X170693455Y-63897000D01*
X170806545Y-63897000D01*
X170919271Y-63908103D01*
X170919271Y-63908103D01*
G37*
G36*
X139665271Y-63654103D02*
G01*
X139721635Y-63659654D01*
X139938600Y-63725470D01*
X139938602Y-63725471D01*
X140138555Y-63832347D01*
X140313818Y-63976182D01*
X140457653Y-64151445D01*
X140499738Y-64230182D01*
X140564530Y-64351400D01*
X140630346Y-64568365D01*
X140652569Y-64794000D01*
X140630346Y-65019635D01*
X140621742Y-65048000D01*
X140564529Y-65236602D01*
X140457653Y-65436555D01*
X140313818Y-65611818D01*
X140138555Y-65755653D01*
X139938602Y-65862529D01*
X139938600Y-65862530D01*
X139721635Y-65928346D01*
X139665271Y-65933897D01*
X139552545Y-65945000D01*
X139439455Y-65945000D01*
X139326729Y-65933897D01*
X139270365Y-65928346D01*
X139053400Y-65862530D01*
X139053398Y-65862529D01*
X138853445Y-65755653D01*
X138678182Y-65611818D01*
X138534347Y-65436555D01*
X138427471Y-65236602D01*
X138370259Y-65048000D01*
X138361654Y-65019635D01*
X138339431Y-64794000D01*
X138361654Y-64568365D01*
X138427470Y-64351400D01*
X138492262Y-64230182D01*
X138534347Y-64151445D01*
X138678182Y-63976182D01*
X138853445Y-63832347D01*
X139053398Y-63725471D01*
X139053400Y-63725470D01*
X139270365Y-63659654D01*
X139326729Y-63654103D01*
X139439455Y-63643000D01*
X139552545Y-63643000D01*
X139665271Y-63654103D01*
X139665271Y-63654103D01*
G37*
G36*
X133027000Y-65945000D02*
G01*
X130725000Y-65945000D01*
X130725000Y-63643000D01*
X133027000Y-63643000D01*
X133027000Y-65945000D01*
X133027000Y-65945000D01*
G37*
G36*
X126496242Y-61551404D02*
G01*
X126533337Y-61562657D01*
X126567515Y-61580925D01*
X126597481Y-61605519D01*
X126622075Y-61635485D01*
X126640343Y-61669663D01*
X126651596Y-61706758D01*
X126656000Y-61751474D01*
X126656000Y-62644526D01*
X126651596Y-62689242D01*
X126640343Y-62726337D01*
X126622075Y-62760515D01*
X126597481Y-62790481D01*
X126567515Y-62815075D01*
X126533337Y-62833343D01*
X126496242Y-62844596D01*
X126451526Y-62849000D01*
X125008474Y-62849000D01*
X124963758Y-62844596D01*
X124926663Y-62833343D01*
X124892485Y-62815075D01*
X124862519Y-62790481D01*
X124837925Y-62760515D01*
X124819657Y-62726337D01*
X124808404Y-62689242D01*
X124804000Y-62644526D01*
X124804000Y-61751474D01*
X124808404Y-61706758D01*
X124819657Y-61669663D01*
X124837925Y-61635485D01*
X124862519Y-61605519D01*
X124892485Y-61580925D01*
X124926663Y-61562657D01*
X124963758Y-61551404D01*
X125008474Y-61547000D01*
X126451526Y-61547000D01*
X126496242Y-61551404D01*
X126496242Y-61551404D01*
G37*
G36*
X164281000Y-62699000D02*
G01*
X161979000Y-62699000D01*
X161979000Y-60397000D01*
X164281000Y-60397000D01*
X164281000Y-62699000D01*
X164281000Y-62699000D01*
G37*
G36*
X170919271Y-60408103D02*
G01*
X170975635Y-60413654D01*
X171192600Y-60479470D01*
X171192602Y-60479471D01*
X171392555Y-60586347D01*
X171567818Y-60730182D01*
X171711653Y-60905445D01*
X171798735Y-61068366D01*
X171818530Y-61105400D01*
X171884346Y-61322365D01*
X171906569Y-61548000D01*
X171897953Y-61635485D01*
X171884346Y-61773634D01*
X171818529Y-61990602D01*
X171711653Y-62190555D01*
X171567818Y-62365818D01*
X171392555Y-62509653D01*
X171281523Y-62569000D01*
X171192600Y-62616530D01*
X170975635Y-62682346D01*
X170919271Y-62687897D01*
X170806545Y-62699000D01*
X170693455Y-62699000D01*
X170580729Y-62687897D01*
X170524365Y-62682346D01*
X170307400Y-62616530D01*
X170218477Y-62569000D01*
X170107445Y-62509653D01*
X169932182Y-62365818D01*
X169788347Y-62190555D01*
X169681471Y-61990602D01*
X169615654Y-61773634D01*
X169602048Y-61635485D01*
X169593431Y-61548000D01*
X169615654Y-61322365D01*
X169681470Y-61105400D01*
X169701265Y-61068366D01*
X169788347Y-60905445D01*
X169932182Y-60730182D01*
X170107445Y-60586347D01*
X170307398Y-60479471D01*
X170307400Y-60479470D01*
X170524365Y-60413654D01*
X170580729Y-60408103D01*
X170693455Y-60397000D01*
X170806545Y-60397000D01*
X170919271Y-60408103D01*
X170919271Y-60408103D01*
G37*
G36*
X150160536Y-60370800D02*
G01*
X150191738Y-60380265D01*
X150220486Y-60395631D01*
X150245687Y-60416313D01*
X150266369Y-60441514D01*
X150281735Y-60470262D01*
X150291200Y-60501464D01*
X150295000Y-60540046D01*
X150295000Y-62395954D01*
X150291200Y-62434536D01*
X150281735Y-62465738D01*
X150266369Y-62494486D01*
X150245687Y-62519687D01*
X150220486Y-62540369D01*
X150191738Y-62555735D01*
X150160536Y-62565200D01*
X150121954Y-62569000D01*
X145866046Y-62569000D01*
X145827464Y-62565200D01*
X145796262Y-62555735D01*
X145767514Y-62540369D01*
X145742313Y-62519687D01*
X145721631Y-62494486D01*
X145706265Y-62465738D01*
X145696800Y-62434536D01*
X145693000Y-62395954D01*
X145693000Y-60540046D01*
X145696800Y-60501464D01*
X145706265Y-60470262D01*
X145721631Y-60441514D01*
X145742313Y-60416313D01*
X145767514Y-60395631D01*
X145796262Y-60380265D01*
X145827464Y-60370800D01*
X145866046Y-60367000D01*
X150121954Y-60367000D01*
X150160536Y-60370800D01*
X150160536Y-60370800D01*
G37*
G36*
X157360536Y-60370800D02*
G01*
X157391738Y-60380265D01*
X157420486Y-60395631D01*
X157445687Y-60416313D01*
X157466369Y-60441514D01*
X157481735Y-60470262D01*
X157491200Y-60501464D01*
X157495000Y-60540046D01*
X157495000Y-62395954D01*
X157491200Y-62434536D01*
X157481735Y-62465738D01*
X157466369Y-62494486D01*
X157445687Y-62519687D01*
X157420486Y-62540369D01*
X157391738Y-62555735D01*
X157360536Y-62565200D01*
X157321954Y-62569000D01*
X153066046Y-62569000D01*
X153027464Y-62565200D01*
X152996262Y-62555735D01*
X152967514Y-62540369D01*
X152942313Y-62519687D01*
X152921631Y-62494486D01*
X152906265Y-62465738D01*
X152896800Y-62434536D01*
X152893000Y-62395954D01*
X152893000Y-60540046D01*
X152896800Y-60501464D01*
X152906265Y-60470262D01*
X152921631Y-60441514D01*
X152942313Y-60416313D01*
X152967514Y-60395631D01*
X152996262Y-60380265D01*
X153027464Y-60370800D01*
X153066046Y-60367000D01*
X157321954Y-60367000D01*
X157360536Y-60370800D01*
X157360536Y-60370800D01*
G37*
G36*
X133147000Y-62445000D02*
G01*
X130845000Y-62445000D01*
X130845000Y-60143000D01*
X133147000Y-60143000D01*
X133147000Y-62445000D01*
X133147000Y-62445000D01*
G37*
G36*
X139785271Y-60154103D02*
G01*
X139841635Y-60159654D01*
X140058600Y-60225470D01*
X140058602Y-60225471D01*
X140258555Y-60332347D01*
X140433818Y-60476182D01*
X140577653Y-60651445D01*
X140658315Y-60802355D01*
X140684530Y-60851400D01*
X140750346Y-61068365D01*
X140772569Y-61294000D01*
X140750346Y-61519635D01*
X140693583Y-61706758D01*
X140684529Y-61736602D01*
X140577653Y-61936555D01*
X140433818Y-62111818D01*
X140258555Y-62255653D01*
X140067077Y-62357999D01*
X140058600Y-62362530D01*
X139841635Y-62428346D01*
X139785271Y-62433897D01*
X139672545Y-62445000D01*
X139559455Y-62445000D01*
X139446729Y-62433897D01*
X139390365Y-62428346D01*
X139173400Y-62362530D01*
X139164923Y-62357999D01*
X138973445Y-62255653D01*
X138798182Y-62111818D01*
X138654347Y-61936555D01*
X138547471Y-61736602D01*
X138538418Y-61706758D01*
X138481654Y-61519635D01*
X138459431Y-61294000D01*
X138481654Y-61068365D01*
X138547470Y-60851400D01*
X138573685Y-60802355D01*
X138654347Y-60651445D01*
X138798182Y-60476182D01*
X138973445Y-60332347D01*
X139173398Y-60225471D01*
X139173400Y-60225470D01*
X139390365Y-60159654D01*
X139446729Y-60154103D01*
X139559455Y-60143000D01*
X139672545Y-60143000D01*
X139785271Y-60154103D01*
X139785271Y-60154103D01*
G37*
G36*
X176868855Y-59772140D02*
G01*
X176932618Y-59778420D01*
X177023404Y-59805960D01*
X177055336Y-59815646D01*
X177168425Y-59876094D01*
X177267554Y-59957446D01*
X177348906Y-60056575D01*
X177409354Y-60169664D01*
X177409355Y-60169668D01*
X177446580Y-60292382D01*
X177459149Y-60420000D01*
X177446580Y-60547618D01*
X177434831Y-60586348D01*
X177409354Y-60670336D01*
X177348906Y-60783425D01*
X177267554Y-60882554D01*
X177168425Y-60963906D01*
X177055336Y-61024354D01*
X177023404Y-61034040D01*
X176932618Y-61061580D01*
X176868855Y-61067860D01*
X176836974Y-61071000D01*
X176223026Y-61071000D01*
X176191145Y-61067860D01*
X176127382Y-61061580D01*
X176036596Y-61034040D01*
X176004664Y-61024354D01*
X175891575Y-60963906D01*
X175792446Y-60882554D01*
X175711094Y-60783425D01*
X175650646Y-60670336D01*
X175625169Y-60586348D01*
X175613420Y-60547618D01*
X175600851Y-60420000D01*
X175613420Y-60292382D01*
X175650645Y-60169668D01*
X175650646Y-60169664D01*
X175711094Y-60056575D01*
X175792446Y-59957446D01*
X175891575Y-59876094D01*
X176004664Y-59815646D01*
X176036596Y-59805960D01*
X176127382Y-59778420D01*
X176191145Y-59772140D01*
X176223026Y-59769000D01*
X176836974Y-59769000D01*
X176868855Y-59772140D01*
X176868855Y-59772140D01*
G37*
G36*
X126068855Y-59550140D02*
G01*
X126132618Y-59556420D01*
X126223404Y-59583960D01*
X126255336Y-59593646D01*
X126368425Y-59654094D01*
X126467554Y-59735446D01*
X126548906Y-59834575D01*
X126609354Y-59947664D01*
X126619040Y-59979596D01*
X126646580Y-60070382D01*
X126659149Y-60198000D01*
X126646580Y-60325618D01*
X126644538Y-60332348D01*
X126609354Y-60448336D01*
X126548906Y-60561425D01*
X126467554Y-60660554D01*
X126368425Y-60741906D01*
X126255336Y-60802354D01*
X126223404Y-60812040D01*
X126132618Y-60839580D01*
X126068855Y-60845860D01*
X126036974Y-60849000D01*
X125423026Y-60849000D01*
X125391145Y-60845860D01*
X125327382Y-60839580D01*
X125236596Y-60812040D01*
X125204664Y-60802354D01*
X125091575Y-60741906D01*
X124992446Y-60660554D01*
X124911094Y-60561425D01*
X124850646Y-60448336D01*
X124815462Y-60332348D01*
X124813420Y-60325618D01*
X124800851Y-60198000D01*
X124813420Y-60070382D01*
X124840960Y-59979596D01*
X124850646Y-59947664D01*
X124911094Y-59834575D01*
X124992446Y-59735446D01*
X125091575Y-59654094D01*
X125204664Y-59593646D01*
X125236596Y-59583960D01*
X125327382Y-59556420D01*
X125391145Y-59550140D01*
X125423026Y-59547000D01*
X126036974Y-59547000D01*
X126068855Y-59550140D01*
X126068855Y-59550140D01*
G37*
G36*
X164401000Y-59199000D02*
G01*
X162099000Y-59199000D01*
X162099000Y-56897000D01*
X164401000Y-56897000D01*
X164401000Y-59199000D01*
X164401000Y-59199000D01*
G37*
G36*
X171039271Y-56908103D02*
G01*
X171095635Y-56913654D01*
X171312600Y-56979470D01*
X171312602Y-56979471D01*
X171512555Y-57086347D01*
X171687818Y-57230182D01*
X171831653Y-57405445D01*
X171918735Y-57568366D01*
X171938530Y-57605400D01*
X172004346Y-57822365D01*
X172026569Y-58048000D01*
X172004346Y-58273635D01*
X171951351Y-58448336D01*
X171938529Y-58490602D01*
X171831653Y-58690555D01*
X171687818Y-58865818D01*
X171512555Y-59009653D01*
X171312602Y-59116529D01*
X171312600Y-59116530D01*
X171095635Y-59182346D01*
X171039271Y-59187897D01*
X170926545Y-59199000D01*
X170813455Y-59199000D01*
X170700729Y-59187897D01*
X170644365Y-59182346D01*
X170427400Y-59116530D01*
X170427398Y-59116529D01*
X170227445Y-59009653D01*
X170052182Y-58865818D01*
X169908347Y-58690555D01*
X169801471Y-58490602D01*
X169788650Y-58448336D01*
X169735654Y-58273635D01*
X169713431Y-58048000D01*
X169735654Y-57822365D01*
X169801470Y-57605400D01*
X169821265Y-57568366D01*
X169908347Y-57405445D01*
X170052182Y-57230182D01*
X170227445Y-57086347D01*
X170427398Y-56979471D01*
X170427400Y-56979470D01*
X170644365Y-56913654D01*
X170700729Y-56908103D01*
X170813455Y-56897000D01*
X170926545Y-56897000D01*
X171039271Y-56908103D01*
X171039271Y-56908103D01*
G37*
G36*
X177296242Y-57773404D02*
G01*
X177333337Y-57784657D01*
X177367515Y-57802925D01*
X177397481Y-57827519D01*
X177422075Y-57857485D01*
X177440343Y-57891663D01*
X177451596Y-57928758D01*
X177456000Y-57973474D01*
X177456000Y-58866526D01*
X177451596Y-58911242D01*
X177440343Y-58948337D01*
X177422075Y-58982515D01*
X177397481Y-59012481D01*
X177367515Y-59037075D01*
X177333337Y-59055343D01*
X177296242Y-59066596D01*
X177251526Y-59071000D01*
X175808474Y-59071000D01*
X175763758Y-59066596D01*
X175726663Y-59055343D01*
X175692485Y-59037075D01*
X175662519Y-59012481D01*
X175637925Y-58982515D01*
X175619657Y-58948337D01*
X175608404Y-58911242D01*
X175604000Y-58866526D01*
X175604000Y-57973474D01*
X175608404Y-57928758D01*
X175619657Y-57891663D01*
X175637925Y-57857485D01*
X175662519Y-57827519D01*
X175692485Y-57802925D01*
X175726663Y-57784657D01*
X175763758Y-57773404D01*
X175808474Y-57769000D01*
X177251526Y-57769000D01*
X177296242Y-57773404D01*
X177296242Y-57773404D01*
G37*
G36*
X133027000Y-58945000D02*
G01*
X130725000Y-58945000D01*
X130725000Y-56643000D01*
X133027000Y-56643000D01*
X133027000Y-58945000D01*
X133027000Y-58945000D01*
G37*
G36*
X139665271Y-56654103D02*
G01*
X139721635Y-56659654D01*
X139938600Y-56725470D01*
X139938602Y-56725471D01*
X140138555Y-56832347D01*
X140313818Y-56976182D01*
X140457653Y-57151445D01*
X140499738Y-57230182D01*
X140564530Y-57351400D01*
X140630346Y-57568365D01*
X140652569Y-57794000D01*
X140630346Y-58019635D01*
X140621742Y-58048000D01*
X140564529Y-58236602D01*
X140457653Y-58436555D01*
X140313818Y-58611818D01*
X140138555Y-58755653D01*
X139981537Y-58839580D01*
X139938600Y-58862530D01*
X139721635Y-58928346D01*
X139665271Y-58933897D01*
X139552545Y-58945000D01*
X139439455Y-58945000D01*
X139326729Y-58933897D01*
X139270365Y-58928346D01*
X139053400Y-58862530D01*
X139010463Y-58839580D01*
X138853445Y-58755653D01*
X138678182Y-58611818D01*
X138534347Y-58436555D01*
X138427471Y-58236602D01*
X138370259Y-58048000D01*
X138361654Y-58019635D01*
X138339431Y-57794000D01*
X138361654Y-57568365D01*
X138427470Y-57351400D01*
X138492262Y-57230182D01*
X138534347Y-57151445D01*
X138678182Y-56976182D01*
X138853445Y-56832347D01*
X139053398Y-56725471D01*
X139053400Y-56725470D01*
X139270365Y-56659654D01*
X139326729Y-56654103D01*
X139439455Y-56643000D01*
X139552545Y-56643000D01*
X139665271Y-56654103D01*
X139665271Y-56654103D01*
G37*
G36*
X126068855Y-57550140D02*
G01*
X126132618Y-57556420D01*
X126223404Y-57583960D01*
X126255336Y-57593646D01*
X126368425Y-57654094D01*
X126467554Y-57735446D01*
X126548906Y-57834575D01*
X126609354Y-57947664D01*
X126609355Y-57947668D01*
X126646580Y-58070382D01*
X126659149Y-58198000D01*
X126646580Y-58325618D01*
X126619040Y-58416404D01*
X126609354Y-58448336D01*
X126548906Y-58561425D01*
X126467554Y-58660554D01*
X126368425Y-58741906D01*
X126255336Y-58802354D01*
X126223404Y-58812040D01*
X126132618Y-58839580D01*
X126068855Y-58845860D01*
X126036974Y-58849000D01*
X125423026Y-58849000D01*
X125391145Y-58845860D01*
X125327382Y-58839580D01*
X125236596Y-58812040D01*
X125204664Y-58802354D01*
X125091575Y-58741906D01*
X124992446Y-58660554D01*
X124911094Y-58561425D01*
X124850646Y-58448336D01*
X124840960Y-58416404D01*
X124813420Y-58325618D01*
X124800851Y-58198000D01*
X124813420Y-58070382D01*
X124850645Y-57947668D01*
X124850646Y-57947664D01*
X124911094Y-57834575D01*
X124992446Y-57735446D01*
X125091575Y-57654094D01*
X125204664Y-57593646D01*
X125236596Y-57583960D01*
X125327382Y-57556420D01*
X125391145Y-57550140D01*
X125423026Y-57547000D01*
X126036974Y-57547000D01*
X126068855Y-57550140D01*
X126068855Y-57550140D01*
G37*
G36*
X171039271Y-53908103D02*
G01*
X171095635Y-53913654D01*
X171312600Y-53979470D01*
X171312602Y-53979471D01*
X171512555Y-54086347D01*
X171687818Y-54230182D01*
X171831653Y-54405445D01*
X171892688Y-54519635D01*
X171938530Y-54605400D01*
X172004346Y-54822365D01*
X172026569Y-55048000D01*
X172004346Y-55273635D01*
X171952363Y-55445000D01*
X171938529Y-55490602D01*
X171831653Y-55690555D01*
X171687818Y-55865818D01*
X171512555Y-56009653D01*
X171312602Y-56116529D01*
X171312600Y-56116530D01*
X171095635Y-56182346D01*
X171039271Y-56187897D01*
X170926545Y-56199000D01*
X170813455Y-56199000D01*
X170700729Y-56187897D01*
X170644365Y-56182346D01*
X170427400Y-56116530D01*
X170427398Y-56116529D01*
X170227445Y-56009653D01*
X170052182Y-55865818D01*
X169908347Y-55690555D01*
X169801471Y-55490602D01*
X169787638Y-55445000D01*
X169735654Y-55273635D01*
X169713431Y-55048000D01*
X169735654Y-54822365D01*
X169801470Y-54605400D01*
X169847312Y-54519635D01*
X169908347Y-54405445D01*
X170052182Y-54230182D01*
X170227445Y-54086347D01*
X170427398Y-53979471D01*
X170427400Y-53979470D01*
X170644365Y-53913654D01*
X170700729Y-53908103D01*
X170813455Y-53897000D01*
X170926545Y-53897000D01*
X171039271Y-53908103D01*
X171039271Y-53908103D01*
G37*
G36*
X164401000Y-56199000D02*
G01*
X162099000Y-56199000D01*
X162099000Y-53897000D01*
X164401000Y-53897000D01*
X164401000Y-56199000D01*
X164401000Y-56199000D01*
G37*
G36*
X133147000Y-55445000D02*
G01*
X130845000Y-55445000D01*
X130845000Y-53143000D01*
X133147000Y-53143000D01*
X133147000Y-55445000D01*
X133147000Y-55445000D01*
G37*
G36*
X139785271Y-53154103D02*
G01*
X139841635Y-53159654D01*
X140058600Y-53225470D01*
X140058602Y-53225471D01*
X140258555Y-53332347D01*
X140433818Y-53476182D01*
X140577653Y-53651445D01*
X140684529Y-53851398D01*
X140684530Y-53851400D01*
X140750346Y-54068365D01*
X140772569Y-54294000D01*
X140750346Y-54519635D01*
X140729610Y-54587993D01*
X140684529Y-54736602D01*
X140577653Y-54936555D01*
X140433818Y-55111818D01*
X140258555Y-55255653D01*
X140058602Y-55362529D01*
X140058600Y-55362530D01*
X139841635Y-55428346D01*
X139785271Y-55433897D01*
X139672545Y-55445000D01*
X139559455Y-55445000D01*
X139446729Y-55433897D01*
X139390365Y-55428346D01*
X139173400Y-55362530D01*
X139173398Y-55362529D01*
X138973445Y-55255653D01*
X138798182Y-55111818D01*
X138654347Y-54936555D01*
X138547471Y-54736602D01*
X138502391Y-54587993D01*
X138481654Y-54519635D01*
X138459431Y-54294000D01*
X138481654Y-54068365D01*
X138547470Y-53851400D01*
X138547471Y-53851398D01*
X138654347Y-53651445D01*
X138798182Y-53476182D01*
X138973445Y-53332347D01*
X139173398Y-53225471D01*
X139173400Y-53225470D01*
X139390365Y-53159654D01*
X139446729Y-53154103D01*
X139559455Y-53143000D01*
X139672545Y-53143000D01*
X139785271Y-53154103D01*
X139785271Y-53154103D01*
G37*
G36*
X158039272Y-53115428D02*
G01*
X158146042Y-53159654D01*
X158225993Y-53192771D01*
X158394037Y-53305054D01*
X158536946Y-53447963D01*
X158555801Y-53476182D01*
X158649230Y-53616009D01*
X158726572Y-53802728D01*
X158766000Y-54000947D01*
X158766000Y-54203053D01*
X158726572Y-54401272D01*
X158677544Y-54519635D01*
X158649229Y-54587993D01*
X158536946Y-54756037D01*
X158394037Y-54898946D01*
X158225993Y-55011229D01*
X158225992Y-55011230D01*
X158225991Y-55011230D01*
X158039272Y-55088572D01*
X157841053Y-55128000D01*
X157638947Y-55128000D01*
X157440728Y-55088572D01*
X157254009Y-55011230D01*
X157254008Y-55011230D01*
X157254007Y-55011229D01*
X157085963Y-54898946D01*
X156943054Y-54756037D01*
X156830771Y-54587993D01*
X156802456Y-54519635D01*
X156753428Y-54401272D01*
X156714000Y-54203053D01*
X156714000Y-54000947D01*
X156753428Y-53802728D01*
X156830770Y-53616009D01*
X156924199Y-53476182D01*
X156943054Y-53447963D01*
X157085963Y-53305054D01*
X157254007Y-53192771D01*
X157333958Y-53159654D01*
X157440728Y-53115428D01*
X157638947Y-53076000D01*
X157841053Y-53076000D01*
X158039272Y-53115428D01*
X158039272Y-53115428D01*
G37*
G36*
X160579272Y-53115428D02*
G01*
X160686042Y-53159654D01*
X160765993Y-53192771D01*
X160934037Y-53305054D01*
X161076946Y-53447963D01*
X161095801Y-53476182D01*
X161189230Y-53616009D01*
X161266572Y-53802728D01*
X161306000Y-54000947D01*
X161306000Y-54203053D01*
X161266572Y-54401272D01*
X161217544Y-54519635D01*
X161189229Y-54587993D01*
X161076946Y-54756037D01*
X160934037Y-54898946D01*
X160765993Y-55011229D01*
X160765992Y-55011230D01*
X160765991Y-55011230D01*
X160579272Y-55088572D01*
X160381053Y-55128000D01*
X160178947Y-55128000D01*
X159980728Y-55088572D01*
X159794009Y-55011230D01*
X159794008Y-55011230D01*
X159794007Y-55011229D01*
X159625963Y-54898946D01*
X159483054Y-54756037D01*
X159370771Y-54587993D01*
X159342456Y-54519635D01*
X159293428Y-54401272D01*
X159254000Y-54203053D01*
X159254000Y-54000947D01*
X159293428Y-53802728D01*
X159370770Y-53616009D01*
X159464199Y-53476182D01*
X159483054Y-53447963D01*
X159625963Y-53305054D01*
X159794007Y-53192771D01*
X159873958Y-53159654D01*
X159980728Y-53115428D01*
X160178947Y-53076000D01*
X160381053Y-53076000D01*
X160579272Y-53115428D01*
X160579272Y-53115428D01*
G37*
G36*
X155499272Y-53115428D02*
G01*
X155606042Y-53159654D01*
X155685993Y-53192771D01*
X155854037Y-53305054D01*
X155996946Y-53447963D01*
X156015801Y-53476182D01*
X156109230Y-53616009D01*
X156186572Y-53802728D01*
X156226000Y-54000947D01*
X156226000Y-54203053D01*
X156186572Y-54401272D01*
X156137544Y-54519635D01*
X156109229Y-54587993D01*
X155996946Y-54756037D01*
X155854037Y-54898946D01*
X155685993Y-55011229D01*
X155685992Y-55011230D01*
X155685991Y-55011230D01*
X155499272Y-55088572D01*
X155301053Y-55128000D01*
X155098947Y-55128000D01*
X154900728Y-55088572D01*
X154714009Y-55011230D01*
X154714008Y-55011230D01*
X154714007Y-55011229D01*
X154545963Y-54898946D01*
X154403054Y-54756037D01*
X154290771Y-54587993D01*
X154262456Y-54519635D01*
X154213428Y-54401272D01*
X154174000Y-54203053D01*
X154174000Y-54000947D01*
X154213428Y-53802728D01*
X154290770Y-53616009D01*
X154384199Y-53476182D01*
X154403054Y-53447963D01*
X154545963Y-53305054D01*
X154714007Y-53192771D01*
X154793958Y-53159654D01*
X154900728Y-53115428D01*
X155098947Y-53076000D01*
X155301053Y-53076000D01*
X155499272Y-53115428D01*
X155499272Y-53115428D01*
G37*
G36*
X152959272Y-53115428D02*
G01*
X153066042Y-53159654D01*
X153145993Y-53192771D01*
X153314037Y-53305054D01*
X153456946Y-53447963D01*
X153475801Y-53476182D01*
X153569230Y-53616009D01*
X153646572Y-53802728D01*
X153686000Y-54000947D01*
X153686000Y-54203053D01*
X153646572Y-54401272D01*
X153597544Y-54519635D01*
X153569229Y-54587993D01*
X153456946Y-54756037D01*
X153314037Y-54898946D01*
X153145993Y-55011229D01*
X153145992Y-55011230D01*
X153145991Y-55011230D01*
X152959272Y-55088572D01*
X152761053Y-55128000D01*
X152558947Y-55128000D01*
X152360728Y-55088572D01*
X152174009Y-55011230D01*
X152174008Y-55011230D01*
X152174007Y-55011229D01*
X152005963Y-54898946D01*
X151863054Y-54756037D01*
X151750771Y-54587993D01*
X151722456Y-54519635D01*
X151673428Y-54401272D01*
X151634000Y-54203053D01*
X151634000Y-54000947D01*
X151673428Y-53802728D01*
X151750770Y-53616009D01*
X151844199Y-53476182D01*
X151863054Y-53447963D01*
X152005963Y-53305054D01*
X152174007Y-53192771D01*
X152253958Y-53159654D01*
X152360728Y-53115428D01*
X152558947Y-53076000D01*
X152761053Y-53076000D01*
X152959272Y-53115428D01*
X152959272Y-53115428D01*
G37*
G36*
X150419272Y-53115428D02*
G01*
X150526042Y-53159654D01*
X150605993Y-53192771D01*
X150774037Y-53305054D01*
X150916946Y-53447963D01*
X150935801Y-53476182D01*
X151029230Y-53616009D01*
X151106572Y-53802728D01*
X151146000Y-54000947D01*
X151146000Y-54203053D01*
X151106572Y-54401272D01*
X151057544Y-54519635D01*
X151029229Y-54587993D01*
X150916946Y-54756037D01*
X150774037Y-54898946D01*
X150605993Y-55011229D01*
X150605992Y-55011230D01*
X150605991Y-55011230D01*
X150419272Y-55088572D01*
X150221053Y-55128000D01*
X150018947Y-55128000D01*
X149820728Y-55088572D01*
X149634009Y-55011230D01*
X149634008Y-55011230D01*
X149634007Y-55011229D01*
X149465963Y-54898946D01*
X149323054Y-54756037D01*
X149210771Y-54587993D01*
X149182456Y-54519635D01*
X149133428Y-54401272D01*
X149094000Y-54203053D01*
X149094000Y-54000947D01*
X149133428Y-53802728D01*
X149210770Y-53616009D01*
X149304199Y-53476182D01*
X149323054Y-53447963D01*
X149465963Y-53305054D01*
X149634007Y-53192771D01*
X149713958Y-53159654D01*
X149820728Y-53115428D01*
X150018947Y-53076000D01*
X150221053Y-53076000D01*
X150419272Y-53115428D01*
X150419272Y-53115428D01*
G37*
G36*
X147879272Y-53115428D02*
G01*
X147986042Y-53159654D01*
X148065993Y-53192771D01*
X148234037Y-53305054D01*
X148376946Y-53447963D01*
X148395801Y-53476182D01*
X148489230Y-53616009D01*
X148566572Y-53802728D01*
X148606000Y-54000947D01*
X148606000Y-54203053D01*
X148566572Y-54401272D01*
X148517544Y-54519635D01*
X148489229Y-54587993D01*
X148376946Y-54756037D01*
X148234037Y-54898946D01*
X148065993Y-55011229D01*
X148065992Y-55011230D01*
X148065991Y-55011230D01*
X147879272Y-55088572D01*
X147681053Y-55128000D01*
X147478947Y-55128000D01*
X147280728Y-55088572D01*
X147094009Y-55011230D01*
X147094008Y-55011230D01*
X147094007Y-55011229D01*
X146925963Y-54898946D01*
X146783054Y-54756037D01*
X146670771Y-54587993D01*
X146642456Y-54519635D01*
X146593428Y-54401272D01*
X146554000Y-54203053D01*
X146554000Y-54000947D01*
X146593428Y-53802728D01*
X146670770Y-53616009D01*
X146764199Y-53476182D01*
X146783054Y-53447963D01*
X146925963Y-53305054D01*
X147094007Y-53192771D01*
X147173958Y-53159654D01*
X147280728Y-53115428D01*
X147478947Y-53076000D01*
X147681053Y-53076000D01*
X147879272Y-53115428D01*
X147879272Y-53115428D01*
G37*
G36*
X145339272Y-53115428D02*
G01*
X145446042Y-53159654D01*
X145525993Y-53192771D01*
X145694037Y-53305054D01*
X145836946Y-53447963D01*
X145855801Y-53476182D01*
X145949230Y-53616009D01*
X146026572Y-53802728D01*
X146066000Y-54000947D01*
X146066000Y-54203053D01*
X146026572Y-54401272D01*
X145977544Y-54519635D01*
X145949229Y-54587993D01*
X145836946Y-54756037D01*
X145694037Y-54898946D01*
X145525993Y-55011229D01*
X145525992Y-55011230D01*
X145525991Y-55011230D01*
X145339272Y-55088572D01*
X145141053Y-55128000D01*
X144938947Y-55128000D01*
X144740728Y-55088572D01*
X144554009Y-55011230D01*
X144554008Y-55011230D01*
X144554007Y-55011229D01*
X144385963Y-54898946D01*
X144243054Y-54756037D01*
X144130771Y-54587993D01*
X144102456Y-54519635D01*
X144053428Y-54401272D01*
X144014000Y-54203053D01*
X144014000Y-54000947D01*
X144053428Y-53802728D01*
X144130770Y-53616009D01*
X144224199Y-53476182D01*
X144243054Y-53447963D01*
X144385963Y-53305054D01*
X144554007Y-53192771D01*
X144633958Y-53159654D01*
X144740728Y-53115428D01*
X144938947Y-53076000D01*
X145141053Y-53076000D01*
X145339272Y-53115428D01*
X145339272Y-53115428D01*
G37*
G36*
X142799272Y-53115428D02*
G01*
X142906042Y-53159654D01*
X142985993Y-53192771D01*
X143154037Y-53305054D01*
X143296946Y-53447963D01*
X143315801Y-53476182D01*
X143409230Y-53616009D01*
X143486572Y-53802728D01*
X143526000Y-54000947D01*
X143526000Y-54203053D01*
X143486572Y-54401272D01*
X143437544Y-54519635D01*
X143409229Y-54587993D01*
X143296946Y-54756037D01*
X143154037Y-54898946D01*
X142985993Y-55011229D01*
X142985992Y-55011230D01*
X142985991Y-55011230D01*
X142799272Y-55088572D01*
X142601053Y-55128000D01*
X142398947Y-55128000D01*
X142200728Y-55088572D01*
X142014009Y-55011230D01*
X142014008Y-55011230D01*
X142014007Y-55011229D01*
X141845963Y-54898946D01*
X141703054Y-54756037D01*
X141590771Y-54587993D01*
X141562456Y-54519635D01*
X141513428Y-54401272D01*
X141474000Y-54203053D01*
X141474000Y-54000947D01*
X141513428Y-53802728D01*
X141590770Y-53616009D01*
X141684199Y-53476182D01*
X141703054Y-53447963D01*
X141845963Y-53305054D01*
X142014007Y-53192771D01*
X142093958Y-53159654D01*
X142200728Y-53115428D01*
X142398947Y-53076000D01*
X142601053Y-53076000D01*
X142799272Y-53115428D01*
X142799272Y-53115428D01*
G37*
G36*
X126346189Y-45210483D02*
G01*
X126346192Y-45210484D01*
X126346191Y-45210484D01*
X126874139Y-45429167D01*
X127349280Y-45746646D01*
X127753354Y-46150720D01*
X128070833Y-46625861D01*
X128070834Y-46625863D01*
X128289517Y-47153811D01*
X128401000Y-47714275D01*
X128401000Y-48285725D01*
X128289517Y-48846189D01*
X128289516Y-48846191D01*
X128070833Y-49374139D01*
X127753354Y-49849280D01*
X127349280Y-50253354D01*
X126874139Y-50570833D01*
X126874138Y-50570834D01*
X126874137Y-50570834D01*
X126346189Y-50789517D01*
X125785725Y-50901000D01*
X125214275Y-50901000D01*
X124653811Y-50789517D01*
X124125863Y-50570834D01*
X124125862Y-50570834D01*
X124125861Y-50570833D01*
X123650720Y-50253354D01*
X123246646Y-49849280D01*
X122929167Y-49374139D01*
X122710484Y-48846191D01*
X122710483Y-48846189D01*
X122599000Y-48285725D01*
X122599000Y-47714275D01*
X122710483Y-47153811D01*
X122929166Y-46625863D01*
X122929167Y-46625861D01*
X123246646Y-46150720D01*
X123650720Y-45746646D01*
X124125861Y-45429167D01*
X124653809Y-45210484D01*
X124653808Y-45210484D01*
X124653811Y-45210483D01*
X125214275Y-45099000D01*
X125785725Y-45099000D01*
X126346189Y-45210483D01*
X126346189Y-45210483D01*
G37*
G36*
X177846189Y-45210483D02*
G01*
X177846192Y-45210484D01*
X177846191Y-45210484D01*
X178374139Y-45429167D01*
X178849280Y-45746646D01*
X179253354Y-46150720D01*
X179570833Y-46625861D01*
X179570834Y-46625863D01*
X179789517Y-47153811D01*
X179901000Y-47714275D01*
X179901000Y-48285725D01*
X179789517Y-48846189D01*
X179789516Y-48846191D01*
X179570833Y-49374139D01*
X179253354Y-49849280D01*
X178849280Y-50253354D01*
X178374139Y-50570833D01*
X178374138Y-50570834D01*
X178374137Y-50570834D01*
X177846189Y-50789517D01*
X177285725Y-50901000D01*
X176714275Y-50901000D01*
X176153811Y-50789517D01*
X175625863Y-50570834D01*
X175625862Y-50570834D01*
X175625861Y-50570833D01*
X175150720Y-50253354D01*
X174746646Y-49849280D01*
X174429167Y-49374139D01*
X174210484Y-48846191D01*
X174210483Y-48846189D01*
X174099000Y-48285725D01*
X174099000Y-47714275D01*
X174210483Y-47153811D01*
X174429166Y-46625863D01*
X174429167Y-46625861D01*
X174746646Y-46150720D01*
X175150720Y-45746646D01*
X175625861Y-45429167D01*
X176153809Y-45210484D01*
X176153808Y-45210484D01*
X176153811Y-45210483D01*
X176714275Y-45099000D01*
X177285725Y-45099000D01*
X177846189Y-45210483D01*
X177846189Y-45210483D01*
G37*
G36*
X159309272Y-48035428D02*
G01*
X159495991Y-48112770D01*
X159495993Y-48112771D01*
X159664037Y-48225054D01*
X159806946Y-48367963D01*
X159919229Y-48536007D01*
X159919230Y-48536009D01*
X159996572Y-48722728D01*
X160036000Y-48920947D01*
X160036000Y-49123053D01*
X159996572Y-49321272D01*
X159919230Y-49507991D01*
X159919229Y-49507993D01*
X159806946Y-49676037D01*
X159664037Y-49818946D01*
X159495993Y-49931229D01*
X159495992Y-49931230D01*
X159495991Y-49931230D01*
X159309272Y-50008572D01*
X159111053Y-50048000D01*
X158908947Y-50048000D01*
X158710728Y-50008572D01*
X158524009Y-49931230D01*
X158524008Y-49931230D01*
X158524007Y-49931229D01*
X158355963Y-49818946D01*
X158213054Y-49676037D01*
X158100771Y-49507993D01*
X158100770Y-49507991D01*
X158023428Y-49321272D01*
X157984000Y-49123053D01*
X157984000Y-48920947D01*
X158023428Y-48722728D01*
X158100770Y-48536009D01*
X158100771Y-48536007D01*
X158213054Y-48367963D01*
X158355963Y-48225054D01*
X158524007Y-48112771D01*
X158524009Y-48112770D01*
X158710728Y-48035428D01*
X158908947Y-47996000D01*
X159111053Y-47996000D01*
X159309272Y-48035428D01*
X159309272Y-48035428D01*
G37*
G36*
X156769272Y-48035428D02*
G01*
X156955991Y-48112770D01*
X156955993Y-48112771D01*
X157124037Y-48225054D01*
X157266946Y-48367963D01*
X157379229Y-48536007D01*
X157379230Y-48536009D01*
X157456572Y-48722728D01*
X157496000Y-48920947D01*
X157496000Y-49123053D01*
X157456572Y-49321272D01*
X157379230Y-49507991D01*
X157379229Y-49507993D01*
X157266946Y-49676037D01*
X157124037Y-49818946D01*
X156955993Y-49931229D01*
X156955992Y-49931230D01*
X156955991Y-49931230D01*
X156769272Y-50008572D01*
X156571053Y-50048000D01*
X156368947Y-50048000D01*
X156170728Y-50008572D01*
X155984009Y-49931230D01*
X155984008Y-49931230D01*
X155984007Y-49931229D01*
X155815963Y-49818946D01*
X155673054Y-49676037D01*
X155560771Y-49507993D01*
X155560770Y-49507991D01*
X155483428Y-49321272D01*
X155444000Y-49123053D01*
X155444000Y-48920947D01*
X155483428Y-48722728D01*
X155560770Y-48536009D01*
X155560771Y-48536007D01*
X155673054Y-48367963D01*
X155815963Y-48225054D01*
X155984007Y-48112771D01*
X155984009Y-48112770D01*
X156170728Y-48035428D01*
X156368947Y-47996000D01*
X156571053Y-47996000D01*
X156769272Y-48035428D01*
X156769272Y-48035428D01*
G37*
G36*
X154229272Y-48035428D02*
G01*
X154415991Y-48112770D01*
X154415993Y-48112771D01*
X154584037Y-48225054D01*
X154726946Y-48367963D01*
X154839229Y-48536007D01*
X154839230Y-48536009D01*
X154916572Y-48722728D01*
X154956000Y-48920947D01*
X154956000Y-49123053D01*
X154916572Y-49321272D01*
X154839230Y-49507991D01*
X154839229Y-49507993D01*
X154726946Y-49676037D01*
X154584037Y-49818946D01*
X154415993Y-49931229D01*
X154415992Y-49931230D01*
X154415991Y-49931230D01*
X154229272Y-50008572D01*
X154031053Y-50048000D01*
X153828947Y-50048000D01*
X153630728Y-50008572D01*
X153444009Y-49931230D01*
X153444008Y-49931230D01*
X153444007Y-49931229D01*
X153275963Y-49818946D01*
X153133054Y-49676037D01*
X153020771Y-49507993D01*
X153020770Y-49507991D01*
X152943428Y-49321272D01*
X152904000Y-49123053D01*
X152904000Y-48920947D01*
X152943428Y-48722728D01*
X153020770Y-48536009D01*
X153020771Y-48536007D01*
X153133054Y-48367963D01*
X153275963Y-48225054D01*
X153444007Y-48112771D01*
X153444009Y-48112770D01*
X153630728Y-48035428D01*
X153828947Y-47996000D01*
X154031053Y-47996000D01*
X154229272Y-48035428D01*
X154229272Y-48035428D01*
G37*
G36*
X144069272Y-48035428D02*
G01*
X144255991Y-48112770D01*
X144255993Y-48112771D01*
X144424037Y-48225054D01*
X144566946Y-48367963D01*
X144679229Y-48536007D01*
X144679230Y-48536009D01*
X144756572Y-48722728D01*
X144796000Y-48920947D01*
X144796000Y-49123053D01*
X144756572Y-49321272D01*
X144679230Y-49507991D01*
X144679229Y-49507993D01*
X144566946Y-49676037D01*
X144424037Y-49818946D01*
X144255993Y-49931229D01*
X144255992Y-49931230D01*
X144255991Y-49931230D01*
X144069272Y-50008572D01*
X143871053Y-50048000D01*
X143668947Y-50048000D01*
X143470728Y-50008572D01*
X143284009Y-49931230D01*
X143284008Y-49931230D01*
X143284007Y-49931229D01*
X143115963Y-49818946D01*
X142973054Y-49676037D01*
X142860771Y-49507993D01*
X142860770Y-49507991D01*
X142783428Y-49321272D01*
X142744000Y-49123053D01*
X142744000Y-48920947D01*
X142783428Y-48722728D01*
X142860770Y-48536009D01*
X142860771Y-48536007D01*
X142973054Y-48367963D01*
X143115963Y-48225054D01*
X143284007Y-48112771D01*
X143284009Y-48112770D01*
X143470728Y-48035428D01*
X143668947Y-47996000D01*
X143871053Y-47996000D01*
X144069272Y-48035428D01*
X144069272Y-48035428D01*
G37*
G36*
X151689272Y-48035428D02*
G01*
X151875991Y-48112770D01*
X151875993Y-48112771D01*
X152044037Y-48225054D01*
X152186946Y-48367963D01*
X152299229Y-48536007D01*
X152299230Y-48536009D01*
X152376572Y-48722728D01*
X152416000Y-48920947D01*
X152416000Y-49123053D01*
X152376572Y-49321272D01*
X152299230Y-49507991D01*
X152299229Y-49507993D01*
X152186946Y-49676037D01*
X152044037Y-49818946D01*
X151875993Y-49931229D01*
X151875992Y-49931230D01*
X151875991Y-49931230D01*
X151689272Y-50008572D01*
X151491053Y-50048000D01*
X151288947Y-50048000D01*
X151090728Y-50008572D01*
X150904009Y-49931230D01*
X150904008Y-49931230D01*
X150904007Y-49931229D01*
X150735963Y-49818946D01*
X150593054Y-49676037D01*
X150480771Y-49507993D01*
X150480770Y-49507991D01*
X150403428Y-49321272D01*
X150364000Y-49123053D01*
X150364000Y-48920947D01*
X150403428Y-48722728D01*
X150480770Y-48536009D01*
X150480771Y-48536007D01*
X150593054Y-48367963D01*
X150735963Y-48225054D01*
X150904007Y-48112771D01*
X150904009Y-48112770D01*
X151090728Y-48035428D01*
X151288947Y-47996000D01*
X151491053Y-47996000D01*
X151689272Y-48035428D01*
X151689272Y-48035428D01*
G37*
G36*
X146609272Y-48035428D02*
G01*
X146795991Y-48112770D01*
X146795993Y-48112771D01*
X146964037Y-48225054D01*
X147106946Y-48367963D01*
X147219229Y-48536007D01*
X147219230Y-48536009D01*
X147296572Y-48722728D01*
X147336000Y-48920947D01*
X147336000Y-49123053D01*
X147296572Y-49321272D01*
X147219230Y-49507991D01*
X147219229Y-49507993D01*
X147106946Y-49676037D01*
X146964037Y-49818946D01*
X146795993Y-49931229D01*
X146795992Y-49931230D01*
X146795991Y-49931230D01*
X146609272Y-50008572D01*
X146411053Y-50048000D01*
X146208947Y-50048000D01*
X146010728Y-50008572D01*
X145824009Y-49931230D01*
X145824008Y-49931230D01*
X145824007Y-49931229D01*
X145655963Y-49818946D01*
X145513054Y-49676037D01*
X145400771Y-49507993D01*
X145400770Y-49507991D01*
X145323428Y-49321272D01*
X145284000Y-49123053D01*
X145284000Y-48920947D01*
X145323428Y-48722728D01*
X145400770Y-48536009D01*
X145400771Y-48536007D01*
X145513054Y-48367963D01*
X145655963Y-48225054D01*
X145824007Y-48112771D01*
X145824009Y-48112770D01*
X146010728Y-48035428D01*
X146208947Y-47996000D01*
X146411053Y-47996000D01*
X146609272Y-48035428D01*
X146609272Y-48035428D01*
G37*
G36*
X149149272Y-48035428D02*
G01*
X149335991Y-48112770D01*
X149335993Y-48112771D01*
X149504037Y-48225054D01*
X149646946Y-48367963D01*
X149759229Y-48536007D01*
X149759230Y-48536009D01*
X149836572Y-48722728D01*
X149876000Y-48920947D01*
X149876000Y-49123053D01*
X149836572Y-49321272D01*
X149759230Y-49507991D01*
X149759229Y-49507993D01*
X149646946Y-49676037D01*
X149504037Y-49818946D01*
X149335993Y-49931229D01*
X149335992Y-49931230D01*
X149335991Y-49931230D01*
X149149272Y-50008572D01*
X148951053Y-50048000D01*
X148748947Y-50048000D01*
X148550728Y-50008572D01*
X148364009Y-49931230D01*
X148364008Y-49931230D01*
X148364007Y-49931229D01*
X148195963Y-49818946D01*
X148053054Y-49676037D01*
X147940771Y-49507993D01*
X147940770Y-49507991D01*
X147863428Y-49321272D01*
X147824000Y-49123053D01*
X147824000Y-48920947D01*
X147863428Y-48722728D01*
X147940770Y-48536009D01*
X147940771Y-48536007D01*
X148053054Y-48367963D01*
X148195963Y-48225054D01*
X148364007Y-48112771D01*
X148364009Y-48112770D01*
X148550728Y-48035428D01*
X148748947Y-47996000D01*
X148951053Y-47996000D01*
X149149272Y-48035428D01*
X149149272Y-48035428D01*
G37*
M02*
