M48
; DRILL file {KiCad (5.1.2)-1} date 2020/03/30 0:09:01
; FORMAT={-:-/ absolute / inch / decimal}
; #@! TF.CreationDate,2020-03-30T00:09:01+09:00
; #@! TF.GenerationSoftware,Kicad,Pcbnew,(5.1.2)-1
; #@! TF.FileFunction,Plated,1,2,PTH
FMAT,2
INCH
T1C0.0157
T2C0.0295
T3C0.0300
T4C0.0374
T5C0.0394
T6C0.1260
%
G90
G05
T1
X5.4969Y-2.4
X5.7072Y-2.4
X6.0062Y-2.0561
X6.5486Y-2.3059
T2
X4.83Y-2.1088
X4.83Y-2.1875
X4.83Y-2.2663
X4.83Y-2.345
X6.985Y-2.7063
X6.985Y-2.785
X6.985Y-2.4363
X6.985Y-2.515
X4.935Y-2.5375
X4.935Y-2.6163
X4.935Y-2.695
X4.935Y-2.885
X4.935Y-2.9637
X4.935Y-3.0425
X6.985Y-2.9813
X6.985Y-3.06
X5.11Y-2.1075
X5.11Y-2.1863
X5.11Y-2.265
X5.11Y-2.3437
T3
X5.165Y-2.84
X5.165Y-3.34
X5.265Y-2.84
X5.265Y-3.34
X5.365Y-2.84
X5.365Y-3.34
X5.465Y-2.84
X5.465Y-3.34
X5.565Y-2.84
X5.565Y-3.34
X5.665Y-2.84
X5.665Y-3.34
X5.765Y-2.84
X5.765Y-3.34
X5.865Y-2.84
X5.865Y-3.34
X5.965Y-2.84
X5.965Y-3.34
X6.065Y-2.84
X6.065Y-3.34
X6.165Y-2.84
X6.165Y-3.34
X6.265Y-2.84
X6.265Y-3.34
X6.365Y-2.84
X6.365Y-3.34
X6.465Y-2.84
X6.465Y-3.34
T4
X5.55Y-2.13
X5.6Y-1.93
X5.65Y-2.13
X5.7Y-1.93
X5.75Y-2.13
X5.8Y-1.93
X5.85Y-2.13
X5.9Y-1.93
X5.95Y-2.13
X6.0Y-1.93
X6.05Y-2.13
X6.1Y-1.93
X6.15Y-2.13
X6.2Y-1.93
X6.25Y-2.13
T5
X6.87Y-2.1176
X6.87Y-2.216
T6
X7.1063Y-3.3071
X4.8228Y-1.8701
X7.1063Y-1.8701
X4.8228Y-3.3071
T0
M30
