<?xml version="1.0" standalone="no"?>
 <!DOCTYPE svg PUBLIC "-//W3C//DTD SVG 1.1//EN" 
 "http://www.w3.org/Graphics/SVG/1.1/DTD/svg11.dtd"> 
<svg xmlns="http://www.w3.org/2000/svg" version="1.1" 
    width="29.7002cm" height="21.0007cm" viewBox="0 0 116930 82680 ">
<title>SVG Picture created as L298N_DRIVER-F_Paste.svg date 2020/04/11 13:03:32 </title>
  <desc>Picture generated by PCBNEW </desc>
<g style="fill:#000000; fill-opacity:1;stroke:#000000; stroke-opacity:1;
stroke-linecap:round; stroke-linejoin:round; "
 transform="translate(0 0) scale(1 1)">
</g>
<g style="fill:#000000; fill-opacity:0.0; 
stroke:#000000; stroke-width:-0.000393701; stroke-opacity:1; 
stroke-linecap:round; stroke-linejoin:round;">
<g >
</g>
<g >
</g>
<g >
</g>
<g >
</g>
<g >
</g>
<g >
</g>
<g >
</g>
<g style="fill:#000000; fill-opacity:0.0; 
stroke:#000000; stroke-width:0; stroke-opacity:1; 
stroke-linecap:round; stroke-linejoin:round;">
</g>
<g style="fill:#000000; fill-opacity:1.0; 
stroke:#000000; stroke-width:0; stroke-opacity:1; 
stroke-linecap:round; stroke-linejoin:round;">
<path style="fill:#000000; fill-opacity:1.0; 
stroke:#000000; stroke-width:0; stroke-opacity:1; 
stroke-linecap:round; stroke-linejoin:round;fill-rule:evenodd;"
d="M 55614,26376
56520,26376
56520,27223
55614,27223
55614,26376
Z" /> 
<path style="fill:#000000; fill-opacity:1.0; 
stroke:#000000; stroke-width:0; stroke-opacity:1; 
stroke-linecap:round; stroke-linejoin:round;fill-rule:evenodd;"
d="M 57347,26376
58252,26376
58252,27223
57347,27223
57347,26376
Z" /> 
</g>
<g >
<path style="fill:#000000; fill-opacity:1.0; 
stroke:#000000; stroke-width:0; stroke-opacity:1; 
stroke-linecap:round; stroke-linejoin:round;fill-rule:evenodd;"
d="M 59947,26376
60852,26376
60852,27223
59947,27223
59947,26376
Z" /> 
<path style="fill:#000000; fill-opacity:1.0; 
stroke:#000000; stroke-width:0; stroke-opacity:1; 
stroke-linecap:round; stroke-linejoin:round;fill-rule:evenodd;"
d="M 61679,26376
62585,26376
62585,27223
61679,27223
61679,26376
Z" /> 
</g>
<g >
<path style="fill:#000000; fill-opacity:1.0; 
stroke:#000000; stroke-width:0; stroke-opacity:1; 
stroke-linecap:round; stroke-linejoin:round;fill-rule:evenodd;"
d="M 55614,24976
56520,24976
56520,25823
55614,25823
55614,24976
Z" /> 
<path style="fill:#000000; fill-opacity:1.0; 
stroke:#000000; stroke-width:0; stroke-opacity:1; 
stroke-linecap:round; stroke-linejoin:round;fill-rule:evenodd;"
d="M 57347,24976
58252,24976
58252,25823
57347,25823
57347,24976
Z" /> 
</g>
<g >
<path style="fill:#000000; fill-opacity:1.0; 
stroke:#000000; stroke-width:0; stroke-opacity:1; 
stroke-linecap:round; stroke-linejoin:round;fill-rule:evenodd;"
d="M 59914,24976
60820,24976
60820,25823
59914,25823
59914,24976
Z" /> 
<path style="fill:#000000; fill-opacity:1.0; 
stroke:#000000; stroke-width:0; stroke-opacity:1; 
stroke-linecap:round; stroke-linejoin:round;fill-rule:evenodd;"
d="M 61647,24976
62552,24976
62552,25823
61647,25823
61647,24976
Z" /> 
</g>
<g >
<path style="fill:#000000; fill-opacity:1.0; 
stroke:#000000; stroke-width:0; stroke-opacity:1; 
stroke-linecap:round; stroke-linejoin:round;fill-rule:evenodd;"
d="M 55614,23576
56520,23576
56520,24423
55614,24423
55614,23576
Z" /> 
<path style="fill:#000000; fill-opacity:1.0; 
stroke:#000000; stroke-width:0; stroke-opacity:1; 
stroke-linecap:round; stroke-linejoin:round;fill-rule:evenodd;"
d="M 57347,23576
58252,23576
58252,24423
57347,24423
57347,23576
Z" /> 
</g>
<g >
<path style="fill:#000000; fill-opacity:1.0; 
stroke:#000000; stroke-width:0; stroke-opacity:1; 
stroke-linecap:round; stroke-linejoin:round;fill-rule:evenodd;"
d="M 59914,23576
60820,23576
60820,24423
59914,24423
59914,23576
Z" /> 
<path style="fill:#000000; fill-opacity:1.0; 
stroke:#000000; stroke-width:0; stroke-opacity:1; 
stroke-linecap:round; stroke-linejoin:round;fill-rule:evenodd;"
d="M 61647,23576
62552,23576
62552,24423
61647,24423
61647,23576
Z" /> 
</g>
<g >
<path style="fill:#000000; fill-opacity:1.0; 
stroke:#000000; stroke-width:0; stroke-opacity:1; 
stroke-linecap:round; stroke-linejoin:round;fill-rule:evenodd;"
d="M 55614,22176
56520,22176
56520,23023
55614,23023
55614,22176
Z" /> 
<path style="fill:#000000; fill-opacity:1.0; 
stroke:#000000; stroke-width:0; stroke-opacity:1; 
stroke-linecap:round; stroke-linejoin:round;fill-rule:evenodd;"
d="M 57347,22176
58252,22176
58252,23023
57347,23023
57347,22176
Z" /> 
</g>
<g >
<path style="fill:#000000; fill-opacity:1.0; 
stroke:#000000; stroke-width:0; stroke-opacity:1; 
stroke-linecap:round; stroke-linejoin:round;fill-rule:evenodd;"
d="M 59914,22176
60820,22176
60820,23023
59914,23023
59914,22176
Z" /> 
<path style="fill:#000000; fill-opacity:1.0; 
stroke:#000000; stroke-width:0; stroke-opacity:1; 
stroke-linecap:round; stroke-linejoin:round;fill-rule:evenodd;"
d="M 61647,22176
62552,22176
62552,23023
61647,23023
61647,22176
Z" /> 
</g>
<g >
</g>
<g >
</g>
<g >
</g>
<g >
</g>
<g >
</g>
<g >
</g>
<g >
<path style="fill:#000000; fill-opacity:1.0; 
stroke:#000000; stroke-width:0; stroke-opacity:1; 
stroke-linecap:round; stroke-linejoin:round;fill-rule:evenodd;"
d="M 65824,17714
65834,17716
65843,17718
65852,17721
65861,17725
65869,17730
65877,17736
65884,17743
65891,17750
65896,17757
65901,17766
65905,17774
65909,17784
65911,17793
65912,17802
65913,17812
65913,19387
65912,19397
65911,19406
65909,19415
65905,19425
65901,19433
65896,19442
65891,19449
65884,19456
65877,19463
65869,19469
65861,19474
65852,19478
65843,19481
65834,19483
65824,19485
65814,19485
65185,19485
65175,19485
65165,19483
65156,19481
65147,19478
65138,19474
65130,19469
65122,19463
65115,19456
65108,19449
65103,19442
65098,19433
65094,19425
65090,19415
65088,19406
65087,19397
65086,19387
65086,17812
65087,17802
65088,17793
65090,17784
65094,17774
65098,17766
65103,17757
65108,17750
65115,17743
65122,17736
65130,17730
65138,17725
65147,17721
65156,17718
65165,17716
65175,17714
65185,17714
65814,17714
65824,17714
Z" /> 
<path style="fill:#000000; fill-opacity:1.0; 
stroke:#000000; stroke-width:0; stroke-opacity:1; 
stroke-linecap:round; stroke-linejoin:round;fill-rule:evenodd;"
d="M 65824,20549
65834,20550
65843,20553
65852,20556
65861,20560
65869,20565
65877,20571
65884,20577
65891,20584
65896,20592
65901,20600
65905,20609
65909,20618
65911,20628
65912,20637
65913,20647
65913,22222
65912,22231
65911,22241
65909,22250
65905,22259
65901,22268
65896,22276
65891,22284
65884,22291
65877,22298
65869,22303
65861,22308
65852,22312
65843,22316
65834,22318
65824,22319
65814,22320
65185,22320
65175,22319
65165,22318
65156,22316
65147,22312
65138,22308
65130,22303
65122,22298
65115,22291
65108,22284
65103,22276
65098,22268
65094,22259
65090,22250
65088,22241
65087,22231
65086,22222
65086,20647
65087,20637
65088,20628
65090,20618
65094,20609
65098,20600
65103,20592
65108,20584
65115,20577
65122,20571
65130,20565
65138,20560
65147,20556
65156,20553
65165,20550
65175,20549
65185,20548
65814,20548
65824,20549
Z" /> 
</g>
<g >
</g>
<g >
</g>
<g >
</g>
<g >
</g>
<g >
</g>
</g> 
</svg>
