G04 #@! TF.GenerationSoftware,KiCad,Pcbnew,(5.1.2)-1*
G04 #@! TF.CreationDate,2020-03-16T01:25:21+09:00*
G04 #@! TF.ProjectId,L298N_DRIVER,4c323938-4e5f-4445-9249-5645522e6b69,rev?*
G04 #@! TF.SameCoordinates,Original*
G04 #@! TF.FileFunction,Legend,Top*
G04 #@! TF.FilePolarity,Positive*
%FSLAX46Y46*%
G04 Gerber Fmt 4.6, Leading zero omitted, Abs format (unit mm)*
G04 Created by KiCad (PCBNEW (5.1.2)-1) date 2020-03-16 01:25:21*
%MOMM*%
%LPD*%
G04 APERTURE LIST*
%ADD10C,0.300000*%
%ADD11C,0.120000*%
%ADD12C,0.100000*%
%ADD13C,0.150000*%
G04 APERTURE END LIST*
D10*
X129323142Y-45890571D02*
X128608857Y-45890571D01*
X128608857Y-44390571D01*
X129751714Y-44533428D02*
X129823142Y-44462000D01*
X129966000Y-44390571D01*
X130323142Y-44390571D01*
X130466000Y-44462000D01*
X130537428Y-44533428D01*
X130608857Y-44676285D01*
X130608857Y-44819142D01*
X130537428Y-45033428D01*
X129680285Y-45890571D01*
X130608857Y-45890571D01*
X131323142Y-45890571D02*
X131608857Y-45890571D01*
X131751714Y-45819142D01*
X131823142Y-45747714D01*
X131966000Y-45533428D01*
X132037428Y-45247714D01*
X132037428Y-44676285D01*
X131966000Y-44533428D01*
X131894571Y-44462000D01*
X131751714Y-44390571D01*
X131466000Y-44390571D01*
X131323142Y-44462000D01*
X131251714Y-44533428D01*
X131180285Y-44676285D01*
X131180285Y-45033428D01*
X131251714Y-45176285D01*
X131323142Y-45247714D01*
X131466000Y-45319142D01*
X131751714Y-45319142D01*
X131894571Y-45247714D01*
X131966000Y-45176285D01*
X132037428Y-45033428D01*
X132894571Y-45033428D02*
X132751714Y-44962000D01*
X132680285Y-44890571D01*
X132608857Y-44747714D01*
X132608857Y-44676285D01*
X132680285Y-44533428D01*
X132751714Y-44462000D01*
X132894571Y-44390571D01*
X133180285Y-44390571D01*
X133323142Y-44462000D01*
X133394571Y-44533428D01*
X133466000Y-44676285D01*
X133466000Y-44747714D01*
X133394571Y-44890571D01*
X133323142Y-44962000D01*
X133180285Y-45033428D01*
X132894571Y-45033428D01*
X132751714Y-45104857D01*
X132680285Y-45176285D01*
X132608857Y-45319142D01*
X132608857Y-45604857D01*
X132680285Y-45747714D01*
X132751714Y-45819142D01*
X132894571Y-45890571D01*
X133180285Y-45890571D01*
X133323142Y-45819142D01*
X133394571Y-45747714D01*
X133466000Y-45604857D01*
X133466000Y-45319142D01*
X133394571Y-45176285D01*
X133323142Y-45104857D01*
X133180285Y-45033428D01*
X134108857Y-45890571D02*
X134108857Y-44390571D01*
X134966000Y-45890571D01*
X134966000Y-44390571D01*
X136823142Y-45890571D02*
X136823142Y-44390571D01*
X137180285Y-44390571D01*
X137394571Y-44462000D01*
X137537428Y-44604857D01*
X137608857Y-44747714D01*
X137680285Y-45033428D01*
X137680285Y-45247714D01*
X137608857Y-45533428D01*
X137537428Y-45676285D01*
X137394571Y-45819142D01*
X137180285Y-45890571D01*
X136823142Y-45890571D01*
X139180285Y-45890571D02*
X138680285Y-45176285D01*
X138323142Y-45890571D02*
X138323142Y-44390571D01*
X138894571Y-44390571D01*
X139037428Y-44462000D01*
X139108857Y-44533428D01*
X139180285Y-44676285D01*
X139180285Y-44890571D01*
X139108857Y-45033428D01*
X139037428Y-45104857D01*
X138894571Y-45176285D01*
X138323142Y-45176285D01*
X139823142Y-45890571D02*
X139823142Y-44390571D01*
X140323142Y-44390571D02*
X140823142Y-45890571D01*
X141323142Y-44390571D01*
X141823142Y-45104857D02*
X142323142Y-45104857D01*
X142537428Y-45890571D02*
X141823142Y-45890571D01*
X141823142Y-44390571D01*
X142537428Y-44390571D01*
X144037428Y-45890571D02*
X143537428Y-45176285D01*
X143180285Y-45890571D02*
X143180285Y-44390571D01*
X143751714Y-44390571D01*
X143894571Y-44462000D01*
X143966000Y-44533428D01*
X144037428Y-44676285D01*
X144037428Y-44890571D01*
X143966000Y-45033428D01*
X143894571Y-45104857D01*
X143751714Y-45176285D01*
X143180285Y-45176285D01*
X145608857Y-44390571D02*
X146108857Y-45890571D01*
X146608857Y-44390571D01*
X147108857Y-45104857D02*
X147608857Y-45104857D01*
X147823142Y-45890571D02*
X147108857Y-45890571D01*
X147108857Y-44390571D01*
X147823142Y-44390571D01*
X149323142Y-45890571D02*
X148823142Y-45176285D01*
X148466000Y-45890571D02*
X148466000Y-44390571D01*
X149037428Y-44390571D01*
X149180285Y-44462000D01*
X149251714Y-44533428D01*
X149323142Y-44676285D01*
X149323142Y-44890571D01*
X149251714Y-45033428D01*
X149180285Y-45104857D01*
X149037428Y-45176285D01*
X148466000Y-45176285D01*
X150751714Y-45890571D02*
X149894571Y-45890571D01*
X150323142Y-45890571D02*
X150323142Y-44390571D01*
X150180285Y-44604857D01*
X150037428Y-44747714D01*
X149894571Y-44819142D01*
X151394571Y-45747714D02*
X151466000Y-45819142D01*
X151394571Y-45890571D01*
X151323142Y-45819142D01*
X151394571Y-45747714D01*
X151394571Y-45890571D01*
X152394571Y-44390571D02*
X152537428Y-44390571D01*
X152680285Y-44462000D01*
X152751714Y-44533428D01*
X152823142Y-44676285D01*
X152894571Y-44962000D01*
X152894571Y-45319142D01*
X152823142Y-45604857D01*
X152751714Y-45747714D01*
X152680285Y-45819142D01*
X152537428Y-45890571D01*
X152394571Y-45890571D01*
X152251714Y-45819142D01*
X152180285Y-45747714D01*
X152108857Y-45604857D01*
X152037428Y-45319142D01*
X152037428Y-44962000D01*
X152108857Y-44676285D01*
X152180285Y-44533428D01*
X152251714Y-44462000D01*
X152394571Y-44390571D01*
D11*
X155854000Y-58272437D02*
X154789563Y-57208000D01*
X155854000Y-64663563D02*
X154789563Y-65728000D01*
X155854000Y-64663563D02*
X155854000Y-62778000D01*
X155854000Y-58272437D02*
X155854000Y-60158000D01*
X154789563Y-57208000D02*
X147334000Y-57208000D01*
X154789563Y-65728000D02*
X147334000Y-65728000D01*
X147334000Y-65728000D02*
X147334000Y-62778000D01*
X147334000Y-57208000D02*
X147334000Y-60158000D01*
X170688000Y-86360000D02*
X170688000Y-68580000D01*
X132588000Y-86360000D02*
X170688000Y-86360000D01*
X132588000Y-68580000D02*
X132588000Y-86360000D01*
X170688000Y-68580000D02*
X132588000Y-68580000D01*
D12*
X161300000Y-44302000D02*
X160800000Y-44302000D01*
X161300000Y-44302000D02*
X161300000Y-44802000D01*
X161300000Y-49602000D02*
X161300000Y-49102000D01*
X161300000Y-49602000D02*
X160800000Y-49602000D01*
X141400000Y-49602000D02*
X141900000Y-49602000D01*
X141400000Y-49602000D02*
X141400000Y-49102000D01*
X141500000Y-44302000D02*
X141900000Y-44302000D01*
X141400000Y-44302000D02*
X141400000Y-44802000D01*
X141400000Y-44302000D02*
X141500000Y-44302000D01*
D11*
X178640000Y-66220000D02*
X177390000Y-66220000D01*
X178640000Y-67470000D02*
X178640000Y-66220000D01*
X174230000Y-69580000D02*
X174730000Y-69580000D01*
X174730000Y-69680000D02*
X174230000Y-69680000D01*
X174730000Y-69480000D02*
X174730000Y-69680000D01*
X174230000Y-69480000D02*
X174730000Y-69480000D01*
X175730000Y-72640000D02*
X175730000Y-72030000D01*
X177030000Y-72640000D02*
X177030000Y-72030000D01*
X175730000Y-66520000D02*
X175730000Y-67130000D01*
X177030000Y-66520000D02*
X177030000Y-67130000D01*
X177730000Y-70080000D02*
X178340000Y-70080000D01*
X177730000Y-72030000D02*
X177730000Y-70080000D01*
X174230000Y-72030000D02*
X177730000Y-72030000D01*
X174230000Y-67130000D02*
X174230000Y-72030000D01*
X177730000Y-67130000D02*
X174230000Y-67130000D01*
X177730000Y-69080000D02*
X177730000Y-67130000D01*
X178340000Y-69080000D02*
X177730000Y-69080000D01*
X178440000Y-68280000D02*
X178440000Y-67980000D01*
X178540000Y-67980000D02*
X178340000Y-67980000D01*
X178540000Y-68280000D02*
X178540000Y-67980000D01*
X178340000Y-68280000D02*
X178540000Y-68280000D01*
X178340000Y-72640000D02*
X178340000Y-66520000D01*
X173620000Y-72640000D02*
X178340000Y-72640000D01*
X173620000Y-66520000D02*
X173620000Y-72640000D01*
X178340000Y-66520000D02*
X173620000Y-66520000D01*
X178640000Y-56060000D02*
X177390000Y-56060000D01*
X178640000Y-57310000D02*
X178640000Y-56060000D01*
X174230000Y-59420000D02*
X174730000Y-59420000D01*
X174730000Y-59520000D02*
X174230000Y-59520000D01*
X174730000Y-59320000D02*
X174730000Y-59520000D01*
X174230000Y-59320000D02*
X174730000Y-59320000D01*
X175730000Y-62480000D02*
X175730000Y-61870000D01*
X177030000Y-62480000D02*
X177030000Y-61870000D01*
X175730000Y-56360000D02*
X175730000Y-56970000D01*
X177030000Y-56360000D02*
X177030000Y-56970000D01*
X177730000Y-59920000D02*
X178340000Y-59920000D01*
X177730000Y-61870000D02*
X177730000Y-59920000D01*
X174230000Y-61870000D02*
X177730000Y-61870000D01*
X174230000Y-56970000D02*
X174230000Y-61870000D01*
X177730000Y-56970000D02*
X174230000Y-56970000D01*
X177730000Y-58920000D02*
X177730000Y-56970000D01*
X178340000Y-58920000D02*
X177730000Y-58920000D01*
X178440000Y-58120000D02*
X178440000Y-57820000D01*
X178540000Y-57820000D02*
X178340000Y-57820000D01*
X178540000Y-58120000D02*
X178540000Y-57820000D01*
X178340000Y-58120000D02*
X178540000Y-58120000D01*
X178340000Y-62480000D02*
X178340000Y-56360000D01*
X173620000Y-62480000D02*
X178340000Y-62480000D01*
X173620000Y-56360000D02*
X173620000Y-62480000D01*
X178340000Y-56360000D02*
X173620000Y-56360000D01*
X123620000Y-74242000D02*
X124870000Y-74242000D01*
X123620000Y-72992000D02*
X123620000Y-74242000D01*
X128030000Y-68882000D02*
X127530000Y-68882000D01*
X127530000Y-68782000D02*
X128030000Y-68782000D01*
X127530000Y-68982000D02*
X127530000Y-68782000D01*
X128030000Y-68982000D02*
X127530000Y-68982000D01*
X128030000Y-70882000D02*
X127530000Y-70882000D01*
X127530000Y-70782000D02*
X128030000Y-70782000D01*
X127530000Y-70982000D02*
X127530000Y-70782000D01*
X128030000Y-70982000D02*
X127530000Y-70982000D01*
X126530000Y-65822000D02*
X126530000Y-66432000D01*
X125230000Y-65822000D02*
X125230000Y-66432000D01*
X126530000Y-73942000D02*
X126530000Y-73332000D01*
X125230000Y-73942000D02*
X125230000Y-73332000D01*
X124530000Y-68382000D02*
X123920000Y-68382000D01*
X124530000Y-66432000D02*
X124530000Y-68382000D01*
X128030000Y-66432000D02*
X124530000Y-66432000D01*
X128030000Y-73332000D02*
X128030000Y-66432000D01*
X124530000Y-73332000D02*
X128030000Y-73332000D01*
X124530000Y-71382000D02*
X124530000Y-73332000D01*
X123920000Y-71382000D02*
X124530000Y-71382000D01*
X123820000Y-72182000D02*
X123820000Y-72482000D01*
X123720000Y-72482000D02*
X123920000Y-72482000D01*
X123720000Y-72182000D02*
X123720000Y-72482000D01*
X123920000Y-72182000D02*
X123720000Y-72182000D01*
X123920000Y-65822000D02*
X123920000Y-73942000D01*
X128640000Y-65822000D02*
X123920000Y-65822000D01*
X128640000Y-73942000D02*
X128640000Y-65822000D01*
X123920000Y-73942000D02*
X128640000Y-73942000D01*
X123620000Y-64558000D02*
X124870000Y-64558000D01*
X123620000Y-63308000D02*
X123620000Y-64558000D01*
X128030000Y-59198000D02*
X127530000Y-59198000D01*
X127530000Y-59098000D02*
X128030000Y-59098000D01*
X127530000Y-59298000D02*
X127530000Y-59098000D01*
X128030000Y-59298000D02*
X127530000Y-59298000D01*
X128030000Y-61198000D02*
X127530000Y-61198000D01*
X127530000Y-61098000D02*
X128030000Y-61098000D01*
X127530000Y-61298000D02*
X127530000Y-61098000D01*
X128030000Y-61298000D02*
X127530000Y-61298000D01*
X126530000Y-56138000D02*
X126530000Y-56748000D01*
X125230000Y-56138000D02*
X125230000Y-56748000D01*
X126530000Y-64258000D02*
X126530000Y-63648000D01*
X125230000Y-64258000D02*
X125230000Y-63648000D01*
X124530000Y-58698000D02*
X123920000Y-58698000D01*
X124530000Y-56748000D02*
X124530000Y-58698000D01*
X128030000Y-56748000D02*
X124530000Y-56748000D01*
X128030000Y-63648000D02*
X128030000Y-56748000D01*
X124530000Y-63648000D02*
X128030000Y-63648000D01*
X124530000Y-61698000D02*
X124530000Y-63648000D01*
X123920000Y-61698000D02*
X124530000Y-61698000D01*
X123820000Y-62498000D02*
X123820000Y-62798000D01*
X123720000Y-62798000D02*
X123920000Y-62798000D01*
X123720000Y-62498000D02*
X123720000Y-62798000D01*
X123920000Y-62498000D02*
X123720000Y-62498000D01*
X123920000Y-56138000D02*
X123920000Y-64258000D01*
X128640000Y-56138000D02*
X123920000Y-56138000D01*
X128640000Y-64258000D02*
X128640000Y-56138000D01*
X123920000Y-64258000D02*
X128640000Y-64258000D01*
X133746000Y-63324000D02*
X133746000Y-66264000D01*
X133986000Y-63324000D02*
X133986000Y-66264000D01*
X133866000Y-63324000D02*
X133866000Y-66264000D01*
X138406000Y-66264000D02*
X138406000Y-66134000D01*
X132966000Y-66264000D02*
X138406000Y-66264000D01*
X132966000Y-66134000D02*
X132966000Y-66264000D01*
X138406000Y-63324000D02*
X138406000Y-63454000D01*
X132966000Y-63324000D02*
X138406000Y-63324000D01*
X132966000Y-63454000D02*
X132966000Y-63324000D01*
X165000000Y-63578000D02*
X165000000Y-66518000D01*
X165240000Y-63578000D02*
X165240000Y-66518000D01*
X165120000Y-63578000D02*
X165120000Y-66518000D01*
X169660000Y-66518000D02*
X169660000Y-66388000D01*
X164220000Y-66518000D02*
X169660000Y-66518000D01*
X164220000Y-66388000D02*
X164220000Y-66518000D01*
X169660000Y-63578000D02*
X169660000Y-63708000D01*
X164220000Y-63578000D02*
X169660000Y-63578000D01*
X164220000Y-63708000D02*
X164220000Y-63578000D01*
X133746000Y-56324000D02*
X133746000Y-59264000D01*
X133986000Y-56324000D02*
X133986000Y-59264000D01*
X133866000Y-56324000D02*
X133866000Y-59264000D01*
X138406000Y-59264000D02*
X138406000Y-59134000D01*
X132966000Y-59264000D02*
X138406000Y-59264000D01*
X132966000Y-59134000D02*
X132966000Y-59264000D01*
X138406000Y-56324000D02*
X138406000Y-56454000D01*
X132966000Y-56324000D02*
X138406000Y-56324000D01*
X132966000Y-56454000D02*
X132966000Y-56324000D01*
X165120000Y-56578000D02*
X165120000Y-59518000D01*
X165360000Y-56578000D02*
X165360000Y-59518000D01*
X165240000Y-56578000D02*
X165240000Y-59518000D01*
X169780000Y-59518000D02*
X169780000Y-59388000D01*
X164340000Y-59518000D02*
X169780000Y-59518000D01*
X164340000Y-59388000D02*
X164340000Y-59518000D01*
X169780000Y-56578000D02*
X169780000Y-56708000D01*
X164340000Y-56578000D02*
X169780000Y-56578000D01*
X164340000Y-56708000D02*
X164340000Y-56578000D01*
X133866000Y-59824000D02*
X133866000Y-62764000D01*
X134106000Y-59824000D02*
X134106000Y-62764000D01*
X133986000Y-59824000D02*
X133986000Y-62764000D01*
X138526000Y-62764000D02*
X138526000Y-62634000D01*
X133086000Y-62764000D02*
X138526000Y-62764000D01*
X133086000Y-62634000D02*
X133086000Y-62764000D01*
X138526000Y-59824000D02*
X138526000Y-59954000D01*
X133086000Y-59824000D02*
X138526000Y-59824000D01*
X133086000Y-59954000D02*
X133086000Y-59824000D01*
X165000000Y-60078000D02*
X165000000Y-63018000D01*
X165240000Y-60078000D02*
X165240000Y-63018000D01*
X165120000Y-60078000D02*
X165120000Y-63018000D01*
X169660000Y-63018000D02*
X169660000Y-62888000D01*
X164220000Y-63018000D02*
X169660000Y-63018000D01*
X164220000Y-62888000D02*
X164220000Y-63018000D01*
X169660000Y-60078000D02*
X169660000Y-60208000D01*
X164220000Y-60078000D02*
X169660000Y-60078000D01*
X164220000Y-60208000D02*
X164220000Y-60078000D01*
X133866000Y-52824000D02*
X133866000Y-55764000D01*
X134106000Y-52824000D02*
X134106000Y-55764000D01*
X133986000Y-52824000D02*
X133986000Y-55764000D01*
X138526000Y-55764000D02*
X138526000Y-55634000D01*
X133086000Y-55764000D02*
X138526000Y-55764000D01*
X133086000Y-55634000D02*
X133086000Y-55764000D01*
X138526000Y-52824000D02*
X138526000Y-52954000D01*
X133086000Y-52824000D02*
X138526000Y-52824000D01*
X133086000Y-52954000D02*
X133086000Y-52824000D01*
X165120000Y-53578000D02*
X165120000Y-56518000D01*
X165360000Y-53578000D02*
X165360000Y-56518000D01*
X165240000Y-53578000D02*
X165240000Y-56518000D01*
X169780000Y-56518000D02*
X169780000Y-56388000D01*
X164340000Y-56518000D02*
X169780000Y-56518000D01*
X164340000Y-56388000D02*
X164340000Y-56518000D01*
X169780000Y-53578000D02*
X169780000Y-53708000D01*
X164340000Y-53578000D02*
X169780000Y-53578000D01*
X164340000Y-53708000D02*
X164340000Y-53578000D01*
D13*
X151427333Y-67025142D02*
X151379714Y-67072761D01*
X151236857Y-67120380D01*
X151141619Y-67120380D01*
X150998761Y-67072761D01*
X150903523Y-66977523D01*
X150855904Y-66882285D01*
X150808285Y-66691809D01*
X150808285Y-66548952D01*
X150855904Y-66358476D01*
X150903523Y-66263238D01*
X150998761Y-66168000D01*
X151141619Y-66120380D01*
X151236857Y-66120380D01*
X151379714Y-66168000D01*
X151427333Y-66215619D01*
X152379714Y-67120380D02*
X151808285Y-67120380D01*
X152094000Y-67120380D02*
X152094000Y-66120380D01*
X151998761Y-66263238D01*
X151903523Y-66358476D01*
X151808285Y-66406095D01*
X151860380Y-79501904D02*
X152669904Y-79501904D01*
X152765142Y-79454285D01*
X152812761Y-79406666D01*
X152860380Y-79311428D01*
X152860380Y-79120952D01*
X152812761Y-79025714D01*
X152765142Y-78978095D01*
X152669904Y-78930476D01*
X151860380Y-78930476D01*
X151955619Y-78501904D02*
X151908000Y-78454285D01*
X151860380Y-78359047D01*
X151860380Y-78120952D01*
X151908000Y-78025714D01*
X151955619Y-77978095D01*
X152050857Y-77930476D01*
X152146095Y-77930476D01*
X152288952Y-77978095D01*
X152860380Y-78549523D01*
X152860380Y-77930476D01*
X179649428Y-72073828D02*
X179649428Y-71311923D01*
X180030380Y-71692876D02*
X179268476Y-71692876D01*
X179506571Y-70502400D02*
X179554190Y-70359542D01*
X179601809Y-70311923D01*
X179697047Y-70264304D01*
X179839904Y-70264304D01*
X179935142Y-70311923D01*
X179982761Y-70359542D01*
X180030380Y-70454780D01*
X180030380Y-70835733D01*
X179030380Y-70835733D01*
X179030380Y-70502400D01*
X179078000Y-70407161D01*
X179125619Y-70359542D01*
X179220857Y-70311923D01*
X179316095Y-70311923D01*
X179411333Y-70359542D01*
X179458952Y-70407161D01*
X179506571Y-70502400D01*
X179506571Y-70835733D01*
X179744666Y-69883352D02*
X179744666Y-69407161D01*
X180030380Y-69978590D02*
X179030380Y-69645257D01*
X180030380Y-69311923D01*
X179030380Y-69121447D02*
X179030380Y-68550019D01*
X180030380Y-68835733D02*
X179030380Y-68835733D01*
X179030380Y-68359542D02*
X179030380Y-67788114D01*
X180030380Y-68073828D02*
X179030380Y-68073828D01*
X179649428Y-61229714D02*
X179649428Y-60467809D01*
X180030380Y-60848761D02*
X179268476Y-60848761D01*
X179030380Y-59515428D02*
X179030380Y-59991619D01*
X179506571Y-60039238D01*
X179458952Y-59991619D01*
X179411333Y-59896380D01*
X179411333Y-59658285D01*
X179458952Y-59563047D01*
X179506571Y-59515428D01*
X179601809Y-59467809D01*
X179839904Y-59467809D01*
X179935142Y-59515428D01*
X179982761Y-59563047D01*
X180030380Y-59658285D01*
X180030380Y-59896380D01*
X179982761Y-59991619D01*
X179935142Y-60039238D01*
X179030380Y-59182095D02*
X180030380Y-58848761D01*
X179030380Y-58515428D01*
X123134380Y-72627809D02*
X122134380Y-72627809D01*
X122134380Y-72246857D01*
X122182000Y-72151619D01*
X122229619Y-72104000D01*
X122324857Y-72056380D01*
X122467714Y-72056380D01*
X122562952Y-72104000D01*
X122610571Y-72151619D01*
X122658190Y-72246857D01*
X122658190Y-72627809D01*
X122134380Y-71723047D02*
X123134380Y-71484952D01*
X122420095Y-71294476D01*
X123134380Y-71104000D01*
X122134380Y-70865904D01*
X123134380Y-70484952D02*
X122134380Y-70484952D01*
X122848666Y-70151619D01*
X122134380Y-69818285D01*
X123134380Y-69818285D01*
X122753428Y-69342095D02*
X122753428Y-68580190D01*
X122610571Y-67770666D02*
X122658190Y-67627809D01*
X122705809Y-67580190D01*
X122801047Y-67532571D01*
X122943904Y-67532571D01*
X123039142Y-67580190D01*
X123086761Y-67627809D01*
X123134380Y-67723047D01*
X123134380Y-68104000D01*
X122134380Y-68104000D01*
X122134380Y-67770666D01*
X122182000Y-67675428D01*
X122229619Y-67627809D01*
X122324857Y-67580190D01*
X122420095Y-67580190D01*
X122515333Y-67627809D01*
X122562952Y-67675428D01*
X122610571Y-67770666D01*
X122610571Y-68104000D01*
X123134380Y-62650380D02*
X122134380Y-62650380D01*
X122134380Y-62269428D01*
X122182000Y-62174190D01*
X122229619Y-62126571D01*
X122324857Y-62078952D01*
X122467714Y-62078952D01*
X122562952Y-62126571D01*
X122610571Y-62174190D01*
X122658190Y-62269428D01*
X122658190Y-62650380D01*
X122134380Y-61745619D02*
X123134380Y-61507523D01*
X122420095Y-61317047D01*
X123134380Y-61126571D01*
X122134380Y-60888476D01*
X123134380Y-60507523D02*
X122134380Y-60507523D01*
X122848666Y-60174190D01*
X122134380Y-59840857D01*
X123134380Y-59840857D01*
X122753428Y-59364666D02*
X122753428Y-58602761D01*
X122848666Y-58174190D02*
X122848666Y-57698000D01*
X123134380Y-58269428D02*
X122134380Y-57936095D01*
X123134380Y-57602761D01*
X134947904Y-65222380D02*
X134947904Y-64222380D01*
X135186000Y-64222380D01*
X135328857Y-64270000D01*
X135424095Y-64365238D01*
X135471714Y-64460476D01*
X135519333Y-64650952D01*
X135519333Y-64793809D01*
X135471714Y-64984285D01*
X135424095Y-65079523D01*
X135328857Y-65174761D01*
X135186000Y-65222380D01*
X134947904Y-65222380D01*
X136090761Y-64650952D02*
X135995523Y-64603333D01*
X135947904Y-64555714D01*
X135900285Y-64460476D01*
X135900285Y-64412857D01*
X135947904Y-64317619D01*
X135995523Y-64270000D01*
X136090761Y-64222380D01*
X136281238Y-64222380D01*
X136376476Y-64270000D01*
X136424095Y-64317619D01*
X136471714Y-64412857D01*
X136471714Y-64460476D01*
X136424095Y-64555714D01*
X136376476Y-64603333D01*
X136281238Y-64650952D01*
X136090761Y-64650952D01*
X135995523Y-64698571D01*
X135947904Y-64746190D01*
X135900285Y-64841428D01*
X135900285Y-65031904D01*
X135947904Y-65127142D01*
X135995523Y-65174761D01*
X136090761Y-65222380D01*
X136281238Y-65222380D01*
X136376476Y-65174761D01*
X136424095Y-65127142D01*
X136471714Y-65031904D01*
X136471714Y-64841428D01*
X136424095Y-64746190D01*
X136376476Y-64698571D01*
X136281238Y-64650952D01*
X166393904Y-65476380D02*
X166393904Y-64476380D01*
X166632000Y-64476380D01*
X166774857Y-64524000D01*
X166870095Y-64619238D01*
X166917714Y-64714476D01*
X166965333Y-64904952D01*
X166965333Y-65047809D01*
X166917714Y-65238285D01*
X166870095Y-65333523D01*
X166774857Y-65428761D01*
X166632000Y-65476380D01*
X166393904Y-65476380D01*
X167298666Y-64476380D02*
X167965333Y-64476380D01*
X167536761Y-65476380D01*
X135151904Y-58110380D02*
X135151904Y-57110380D01*
X135390000Y-57110380D01*
X135532857Y-57158000D01*
X135628095Y-57253238D01*
X135675714Y-57348476D01*
X135723333Y-57538952D01*
X135723333Y-57681809D01*
X135675714Y-57872285D01*
X135628095Y-57967523D01*
X135532857Y-58062761D01*
X135390000Y-58110380D01*
X135151904Y-58110380D01*
X136580476Y-57110380D02*
X136390000Y-57110380D01*
X136294761Y-57158000D01*
X136247142Y-57205619D01*
X136151904Y-57348476D01*
X136104285Y-57538952D01*
X136104285Y-57919904D01*
X136151904Y-58015142D01*
X136199523Y-58062761D01*
X136294761Y-58110380D01*
X136485238Y-58110380D01*
X136580476Y-58062761D01*
X136628095Y-58015142D01*
X136675714Y-57919904D01*
X136675714Y-57681809D01*
X136628095Y-57586571D01*
X136580476Y-57538952D01*
X136485238Y-57491333D01*
X136294761Y-57491333D01*
X136199523Y-57538952D01*
X136151904Y-57586571D01*
X136104285Y-57681809D01*
X166393904Y-58364380D02*
X166393904Y-57364380D01*
X166632000Y-57364380D01*
X166774857Y-57412000D01*
X166870095Y-57507238D01*
X166917714Y-57602476D01*
X166965333Y-57792952D01*
X166965333Y-57935809D01*
X166917714Y-58126285D01*
X166870095Y-58221523D01*
X166774857Y-58316761D01*
X166632000Y-58364380D01*
X166393904Y-58364380D01*
X167870095Y-57364380D02*
X167393904Y-57364380D01*
X167346285Y-57840571D01*
X167393904Y-57792952D01*
X167489142Y-57745333D01*
X167727238Y-57745333D01*
X167822476Y-57792952D01*
X167870095Y-57840571D01*
X167917714Y-57935809D01*
X167917714Y-58173904D01*
X167870095Y-58269142D01*
X167822476Y-58316761D01*
X167727238Y-58364380D01*
X167489142Y-58364380D01*
X167393904Y-58316761D01*
X167346285Y-58269142D01*
X135067904Y-61666380D02*
X135067904Y-60666380D01*
X135306000Y-60666380D01*
X135448857Y-60714000D01*
X135544095Y-60809238D01*
X135591714Y-60904476D01*
X135639333Y-61094952D01*
X135639333Y-61237809D01*
X135591714Y-61428285D01*
X135544095Y-61523523D01*
X135448857Y-61618761D01*
X135306000Y-61666380D01*
X135067904Y-61666380D01*
X136496476Y-60999714D02*
X136496476Y-61666380D01*
X136258380Y-60618761D02*
X136020285Y-61333047D01*
X136639333Y-61333047D01*
X166393904Y-61920380D02*
X166393904Y-60920380D01*
X166632000Y-60920380D01*
X166774857Y-60968000D01*
X166870095Y-61063238D01*
X166917714Y-61158476D01*
X166965333Y-61348952D01*
X166965333Y-61491809D01*
X166917714Y-61682285D01*
X166870095Y-61777523D01*
X166774857Y-61872761D01*
X166632000Y-61920380D01*
X166393904Y-61920380D01*
X167298666Y-60920380D02*
X167917714Y-60920380D01*
X167584380Y-61301333D01*
X167727238Y-61301333D01*
X167822476Y-61348952D01*
X167870095Y-61396571D01*
X167917714Y-61491809D01*
X167917714Y-61729904D01*
X167870095Y-61825142D01*
X167822476Y-61872761D01*
X167727238Y-61920380D01*
X167441523Y-61920380D01*
X167346285Y-61872761D01*
X167298666Y-61825142D01*
X135067904Y-54808380D02*
X135067904Y-53808380D01*
X135306000Y-53808380D01*
X135448857Y-53856000D01*
X135544095Y-53951238D01*
X135591714Y-54046476D01*
X135639333Y-54236952D01*
X135639333Y-54379809D01*
X135591714Y-54570285D01*
X135544095Y-54665523D01*
X135448857Y-54760761D01*
X135306000Y-54808380D01*
X135067904Y-54808380D01*
X136020285Y-53903619D02*
X136067904Y-53856000D01*
X136163142Y-53808380D01*
X136401238Y-53808380D01*
X136496476Y-53856000D01*
X136544095Y-53903619D01*
X136591714Y-53998857D01*
X136591714Y-54094095D01*
X136544095Y-54236952D01*
X135972666Y-54808380D01*
X136591714Y-54808380D01*
X166321904Y-55062380D02*
X166321904Y-54062380D01*
X166560000Y-54062380D01*
X166702857Y-54110000D01*
X166798095Y-54205238D01*
X166845714Y-54300476D01*
X166893333Y-54490952D01*
X166893333Y-54633809D01*
X166845714Y-54824285D01*
X166798095Y-54919523D01*
X166702857Y-55014761D01*
X166560000Y-55062380D01*
X166321904Y-55062380D01*
X167845714Y-55062380D02*
X167274285Y-55062380D01*
X167560000Y-55062380D02*
X167560000Y-54062380D01*
X167464761Y-54205238D01*
X167369523Y-54300476D01*
X167274285Y-54348095D01*
M02*
