G04 #@! TF.GenerationSoftware,KiCad,Pcbnew,(5.1.2)-1*
G04 #@! TF.CreationDate,2020-03-16T01:25:21+09:00*
G04 #@! TF.ProjectId,L298N_DRIVER,4c323938-4e5f-4445-9249-5645522e6b69,rev?*
G04 #@! TF.SameCoordinates,Original*
G04 #@! TF.FileFunction,Copper,L2,Bot*
G04 #@! TF.FilePolarity,Positive*
%FSLAX46Y46*%
G04 Gerber Fmt 4.6, Leading zero omitted, Abs format (unit mm)*
G04 Created by KiCad (PCBNEW (5.1.2)-1) date 2020-03-16 01:25:21*
%MOMM*%
%LPD*%
G04 APERTURE LIST*
%ADD10C,5.700000*%
%ADD11C,1.524000*%
%ADD12C,1.950000*%
%ADD13O,1.750000X1.200000*%
%ADD14C,0.100000*%
%ADD15C,1.200000*%
%ADD16O,2.200000X2.200000*%
%ADD17R,2.200000X2.200000*%
%ADD18C,0.800000*%
%ADD19C,0.250000*%
%ADD20C,0.254000*%
G04 APERTURE END LIST*
D10*
X125476000Y-83500000D03*
X125500000Y-48000000D03*
X177000000Y-48000000D03*
X177000000Y-83500000D03*
D11*
X168148000Y-83820000D03*
X165608000Y-83820000D03*
X163068000Y-83820000D03*
X160528000Y-83820000D03*
X157988000Y-83820000D03*
X155448000Y-83820000D03*
X152908000Y-83820000D03*
X150368000Y-83820000D03*
X147828000Y-83820000D03*
X145288000Y-83820000D03*
X142748000Y-83820000D03*
X140208000Y-83820000D03*
X137668000Y-83820000D03*
X135128000Y-83820000D03*
X135128000Y-71120000D03*
X137668000Y-71120000D03*
X140208000Y-71120000D03*
X142748000Y-71120000D03*
X145288000Y-71120000D03*
X147828000Y-71120000D03*
X150368000Y-71120000D03*
X152908000Y-71120000D03*
X155448000Y-71120000D03*
X157988000Y-71120000D03*
X160528000Y-71120000D03*
X163068000Y-71120000D03*
X165608000Y-71120000D03*
X168148000Y-71120000D03*
D12*
X160280000Y-54102000D03*
X159010000Y-49022000D03*
X157740000Y-54102000D03*
X156470000Y-49022000D03*
X155200000Y-54102000D03*
X153930000Y-49022000D03*
X152660000Y-54102000D03*
X151390000Y-49022000D03*
X150120000Y-54102000D03*
X148850000Y-49022000D03*
X147580000Y-54102000D03*
X146310000Y-49022000D03*
X145040000Y-54102000D03*
X143770000Y-49022000D03*
X142500000Y-54102000D03*
D13*
X176530000Y-70580000D03*
D14*
G36*
X177179505Y-67981204D02*
G01*
X177203773Y-67984804D01*
X177227572Y-67990765D01*
X177250671Y-67999030D01*
X177272850Y-68009520D01*
X177293893Y-68022132D01*
X177313599Y-68036747D01*
X177331777Y-68053223D01*
X177348253Y-68071401D01*
X177362868Y-68091107D01*
X177375480Y-68112150D01*
X177385970Y-68134329D01*
X177394235Y-68157428D01*
X177400196Y-68181227D01*
X177403796Y-68205495D01*
X177405000Y-68229999D01*
X177405000Y-68930001D01*
X177403796Y-68954505D01*
X177400196Y-68978773D01*
X177394235Y-69002572D01*
X177385970Y-69025671D01*
X177375480Y-69047850D01*
X177362868Y-69068893D01*
X177348253Y-69088599D01*
X177331777Y-69106777D01*
X177313599Y-69123253D01*
X177293893Y-69137868D01*
X177272850Y-69150480D01*
X177250671Y-69160970D01*
X177227572Y-69169235D01*
X177203773Y-69175196D01*
X177179505Y-69178796D01*
X177155001Y-69180000D01*
X175904999Y-69180000D01*
X175880495Y-69178796D01*
X175856227Y-69175196D01*
X175832428Y-69169235D01*
X175809329Y-69160970D01*
X175787150Y-69150480D01*
X175766107Y-69137868D01*
X175746401Y-69123253D01*
X175728223Y-69106777D01*
X175711747Y-69088599D01*
X175697132Y-69068893D01*
X175684520Y-69047850D01*
X175674030Y-69025671D01*
X175665765Y-69002572D01*
X175659804Y-68978773D01*
X175656204Y-68954505D01*
X175655000Y-68930001D01*
X175655000Y-68229999D01*
X175656204Y-68205495D01*
X175659804Y-68181227D01*
X175665765Y-68157428D01*
X175674030Y-68134329D01*
X175684520Y-68112150D01*
X175697132Y-68091107D01*
X175711747Y-68071401D01*
X175728223Y-68053223D01*
X175746401Y-68036747D01*
X175766107Y-68022132D01*
X175787150Y-68009520D01*
X175809329Y-67999030D01*
X175832428Y-67990765D01*
X175856227Y-67984804D01*
X175880495Y-67981204D01*
X175904999Y-67980000D01*
X177155001Y-67980000D01*
X177179505Y-67981204D01*
X177179505Y-67981204D01*
G37*
D15*
X176530000Y-68580000D03*
D13*
X176530000Y-60420000D03*
D14*
G36*
X177179505Y-57821204D02*
G01*
X177203773Y-57824804D01*
X177227572Y-57830765D01*
X177250671Y-57839030D01*
X177272850Y-57849520D01*
X177293893Y-57862132D01*
X177313599Y-57876747D01*
X177331777Y-57893223D01*
X177348253Y-57911401D01*
X177362868Y-57931107D01*
X177375480Y-57952150D01*
X177385970Y-57974329D01*
X177394235Y-57997428D01*
X177400196Y-58021227D01*
X177403796Y-58045495D01*
X177405000Y-58069999D01*
X177405000Y-58770001D01*
X177403796Y-58794505D01*
X177400196Y-58818773D01*
X177394235Y-58842572D01*
X177385970Y-58865671D01*
X177375480Y-58887850D01*
X177362868Y-58908893D01*
X177348253Y-58928599D01*
X177331777Y-58946777D01*
X177313599Y-58963253D01*
X177293893Y-58977868D01*
X177272850Y-58990480D01*
X177250671Y-59000970D01*
X177227572Y-59009235D01*
X177203773Y-59015196D01*
X177179505Y-59018796D01*
X177155001Y-59020000D01*
X175904999Y-59020000D01*
X175880495Y-59018796D01*
X175856227Y-59015196D01*
X175832428Y-59009235D01*
X175809329Y-59000970D01*
X175787150Y-58990480D01*
X175766107Y-58977868D01*
X175746401Y-58963253D01*
X175728223Y-58946777D01*
X175711747Y-58928599D01*
X175697132Y-58908893D01*
X175684520Y-58887850D01*
X175674030Y-58865671D01*
X175665765Y-58842572D01*
X175659804Y-58818773D01*
X175656204Y-58794505D01*
X175655000Y-58770001D01*
X175655000Y-58069999D01*
X175656204Y-58045495D01*
X175659804Y-58021227D01*
X175665765Y-57997428D01*
X175674030Y-57974329D01*
X175684520Y-57952150D01*
X175697132Y-57931107D01*
X175711747Y-57911401D01*
X175728223Y-57893223D01*
X175746401Y-57876747D01*
X175766107Y-57862132D01*
X175787150Y-57849520D01*
X175809329Y-57839030D01*
X175832428Y-57830765D01*
X175856227Y-57824804D01*
X175880495Y-57821204D01*
X175904999Y-57820000D01*
X177155001Y-57820000D01*
X177179505Y-57821204D01*
X177179505Y-57821204D01*
G37*
D15*
X176530000Y-58420000D03*
D13*
X125730000Y-67882000D03*
X125730000Y-69882000D03*
D14*
G36*
X126379505Y-71283204D02*
G01*
X126403773Y-71286804D01*
X126427572Y-71292765D01*
X126450671Y-71301030D01*
X126472850Y-71311520D01*
X126493893Y-71324132D01*
X126513599Y-71338747D01*
X126531777Y-71355223D01*
X126548253Y-71373401D01*
X126562868Y-71393107D01*
X126575480Y-71414150D01*
X126585970Y-71436329D01*
X126594235Y-71459428D01*
X126600196Y-71483227D01*
X126603796Y-71507495D01*
X126605000Y-71531999D01*
X126605000Y-72232001D01*
X126603796Y-72256505D01*
X126600196Y-72280773D01*
X126594235Y-72304572D01*
X126585970Y-72327671D01*
X126575480Y-72349850D01*
X126562868Y-72370893D01*
X126548253Y-72390599D01*
X126531777Y-72408777D01*
X126513599Y-72425253D01*
X126493893Y-72439868D01*
X126472850Y-72452480D01*
X126450671Y-72462970D01*
X126427572Y-72471235D01*
X126403773Y-72477196D01*
X126379505Y-72480796D01*
X126355001Y-72482000D01*
X125104999Y-72482000D01*
X125080495Y-72480796D01*
X125056227Y-72477196D01*
X125032428Y-72471235D01*
X125009329Y-72462970D01*
X124987150Y-72452480D01*
X124966107Y-72439868D01*
X124946401Y-72425253D01*
X124928223Y-72408777D01*
X124911747Y-72390599D01*
X124897132Y-72370893D01*
X124884520Y-72349850D01*
X124874030Y-72327671D01*
X124865765Y-72304572D01*
X124859804Y-72280773D01*
X124856204Y-72256505D01*
X124855000Y-72232001D01*
X124855000Y-71531999D01*
X124856204Y-71507495D01*
X124859804Y-71483227D01*
X124865765Y-71459428D01*
X124874030Y-71436329D01*
X124884520Y-71414150D01*
X124897132Y-71393107D01*
X124911747Y-71373401D01*
X124928223Y-71355223D01*
X124946401Y-71338747D01*
X124966107Y-71324132D01*
X124987150Y-71311520D01*
X125009329Y-71301030D01*
X125032428Y-71292765D01*
X125056227Y-71286804D01*
X125080495Y-71283204D01*
X125104999Y-71282000D01*
X126355001Y-71282000D01*
X126379505Y-71283204D01*
X126379505Y-71283204D01*
G37*
D15*
X125730000Y-71882000D03*
D13*
X125730000Y-58198000D03*
X125730000Y-60198000D03*
D14*
G36*
X126379505Y-61599204D02*
G01*
X126403773Y-61602804D01*
X126427572Y-61608765D01*
X126450671Y-61617030D01*
X126472850Y-61627520D01*
X126493893Y-61640132D01*
X126513599Y-61654747D01*
X126531777Y-61671223D01*
X126548253Y-61689401D01*
X126562868Y-61709107D01*
X126575480Y-61730150D01*
X126585970Y-61752329D01*
X126594235Y-61775428D01*
X126600196Y-61799227D01*
X126603796Y-61823495D01*
X126605000Y-61847999D01*
X126605000Y-62548001D01*
X126603796Y-62572505D01*
X126600196Y-62596773D01*
X126594235Y-62620572D01*
X126585970Y-62643671D01*
X126575480Y-62665850D01*
X126562868Y-62686893D01*
X126548253Y-62706599D01*
X126531777Y-62724777D01*
X126513599Y-62741253D01*
X126493893Y-62755868D01*
X126472850Y-62768480D01*
X126450671Y-62778970D01*
X126427572Y-62787235D01*
X126403773Y-62793196D01*
X126379505Y-62796796D01*
X126355001Y-62798000D01*
X125104999Y-62798000D01*
X125080495Y-62796796D01*
X125056227Y-62793196D01*
X125032428Y-62787235D01*
X125009329Y-62778970D01*
X124987150Y-62768480D01*
X124966107Y-62755868D01*
X124946401Y-62741253D01*
X124928223Y-62724777D01*
X124911747Y-62706599D01*
X124897132Y-62686893D01*
X124884520Y-62665850D01*
X124874030Y-62643671D01*
X124865765Y-62620572D01*
X124859804Y-62596773D01*
X124856204Y-62572505D01*
X124855000Y-62548001D01*
X124855000Y-61847999D01*
X124856204Y-61823495D01*
X124859804Y-61799227D01*
X124865765Y-61775428D01*
X124874030Y-61752329D01*
X124884520Y-61730150D01*
X124897132Y-61709107D01*
X124911747Y-61689401D01*
X124928223Y-61671223D01*
X124946401Y-61654747D01*
X124966107Y-61640132D01*
X124987150Y-61627520D01*
X125009329Y-61617030D01*
X125032428Y-61608765D01*
X125056227Y-61602804D01*
X125080495Y-61599204D01*
X125104999Y-61598000D01*
X126355001Y-61598000D01*
X126379505Y-61599204D01*
X126379505Y-61599204D01*
G37*
D15*
X125730000Y-62198000D03*
D16*
X139496000Y-64794000D03*
D17*
X131876000Y-64794000D03*
D16*
X170750000Y-65048000D03*
D17*
X163130000Y-65048000D03*
D16*
X139496000Y-57794000D03*
D17*
X131876000Y-57794000D03*
D16*
X170870000Y-58048000D03*
D17*
X163250000Y-58048000D03*
D16*
X139616000Y-61294000D03*
D17*
X131996000Y-61294000D03*
D16*
X170750000Y-61548000D03*
D17*
X163130000Y-61548000D03*
D16*
X139616000Y-54294000D03*
D17*
X131996000Y-54294000D03*
D16*
X170870000Y-55048000D03*
D17*
X163250000Y-55048000D03*
D18*
X153620000Y-58539500D03*
D19*
X170870000Y-55048000D02*
X169444700Y-55048000D01*
X169444700Y-55048000D02*
X165643800Y-51247100D01*
X165643800Y-51247100D02*
X145995100Y-51247100D01*
X145995100Y-51247100D02*
X143770000Y-49022000D01*
X139496000Y-57794000D02*
X139496000Y-59219300D01*
X139496000Y-59219300D02*
X139616000Y-59339300D01*
X139616000Y-59339300D02*
X139616000Y-61294000D01*
X139616000Y-55719300D02*
X139496000Y-55839300D01*
X139496000Y-55839300D02*
X139496000Y-57794000D01*
X152908000Y-73660000D02*
X152908000Y-83820000D01*
X150368000Y-71120000D02*
X152908000Y-73660000D01*
X152908000Y-73660000D02*
X174375300Y-73660000D01*
X174375300Y-73660000D02*
X176530000Y-71505300D01*
X176530000Y-70580000D02*
X176530000Y-71505300D01*
X139616000Y-54294000D02*
X139616000Y-55719300D01*
X176530000Y-70580000D02*
X176530000Y-69654700D01*
X176530000Y-60420000D02*
X176530000Y-61345300D01*
X176530000Y-61345300D02*
X177748800Y-62564100D01*
X177748800Y-62564100D02*
X177748800Y-69245500D01*
X177748800Y-69245500D02*
X177339600Y-69654700D01*
X177339600Y-69654700D02*
X176530000Y-69654700D01*
X139496000Y-64794000D02*
X139496000Y-63368700D01*
X139496000Y-63368700D02*
X139616000Y-63248700D01*
X139616000Y-63248700D02*
X139616000Y-61294000D01*
X170750000Y-60122700D02*
X170839100Y-60122700D01*
X170839100Y-60122700D02*
X172295400Y-58666400D01*
X172295400Y-58666400D02*
X172295400Y-57424600D01*
X172295400Y-57424600D02*
X171493400Y-56622600D01*
X171493400Y-56622600D02*
X169825100Y-56622600D01*
X169825100Y-56622600D02*
X165990000Y-52787500D01*
X165990000Y-52787500D02*
X146354500Y-52787500D01*
X146354500Y-52787500D02*
X145040000Y-54102000D01*
X170750000Y-61548000D02*
X170750000Y-60122700D01*
X170870000Y-58048000D02*
X168047400Y-58048000D01*
X168047400Y-58048000D02*
X166599400Y-56600000D01*
X166599400Y-56600000D02*
X160238000Y-56600000D01*
X160238000Y-56600000D02*
X157740000Y-54102000D01*
X159010000Y-49022000D02*
X156295100Y-46307100D01*
X156295100Y-46307100D02*
X142674400Y-46307100D01*
X142674400Y-46307100D02*
X133950600Y-55030900D01*
X133950600Y-55030900D02*
X133950600Y-62006700D01*
X133950600Y-62006700D02*
X132588600Y-63368700D01*
X132588600Y-63368700D02*
X131876000Y-63368700D01*
X170750000Y-63622700D02*
X172295400Y-62077300D01*
X172295400Y-62077300D02*
X172295400Y-61478200D01*
X172295400Y-61478200D02*
X172745700Y-61027900D01*
X172745700Y-61027900D02*
X172745700Y-54867000D01*
X172745700Y-54867000D02*
X166900700Y-49022000D01*
X166900700Y-49022000D02*
X159010000Y-49022000D01*
X131876000Y-64794000D02*
X131876000Y-63368700D01*
X170750000Y-65048000D02*
X170750000Y-63622700D01*
X155952400Y-66491500D02*
X153620000Y-64159100D01*
X153620000Y-64159100D02*
X153620000Y-58539500D01*
X176530000Y-58420000D02*
X172958000Y-61992000D01*
X172958000Y-61992000D02*
X172958000Y-64870900D01*
X172958000Y-64870900D02*
X171337400Y-66491500D01*
X171337400Y-66491500D02*
X155952400Y-66491500D01*
X155952400Y-66491500D02*
X155952400Y-68075600D01*
X155952400Y-68075600D02*
X152908000Y-71120000D01*
X147828000Y-83820000D02*
X149098000Y-82550000D01*
X149098000Y-82550000D02*
X149098000Y-70832100D01*
X149098000Y-70832100D02*
X149897500Y-70032600D01*
X149897500Y-70032600D02*
X151820600Y-70032600D01*
X151820600Y-70032600D02*
X152908000Y-71120000D01*
X135128000Y-71120000D02*
X135128000Y-54517200D01*
X135128000Y-54517200D02*
X142832300Y-46812900D01*
X142832300Y-46812900D02*
X154260900Y-46812900D01*
X154260900Y-46812900D02*
X156470000Y-49022000D01*
X155200000Y-54102000D02*
X146558000Y-62744000D01*
X146558000Y-62744000D02*
X146558000Y-78285800D01*
X146558000Y-78285800D02*
X141478000Y-83365800D01*
X141478000Y-83365800D02*
X141478000Y-84109400D01*
X141478000Y-84109400D02*
X140674400Y-84913000D01*
X140674400Y-84913000D02*
X138761000Y-84913000D01*
X138761000Y-84913000D02*
X137668000Y-83820000D01*
X153930000Y-49022000D02*
X152171200Y-47263200D01*
X152171200Y-47263200D02*
X143018900Y-47263200D01*
X143018900Y-47263200D02*
X137668000Y-52614100D01*
X137668000Y-52614100D02*
X137668000Y-71120000D01*
X150120000Y-54102000D02*
X144196600Y-60025400D01*
X144196600Y-60025400D02*
X144196600Y-71271600D01*
X144196600Y-71271600D02*
X143247700Y-72220500D01*
X143247700Y-72220500D02*
X141308500Y-72220500D01*
X141308500Y-72220500D02*
X140208000Y-71120000D01*
X148850000Y-49022000D02*
X147541600Y-47713600D01*
X147541600Y-47713600D02*
X143205400Y-47713600D01*
X143205400Y-47713600D02*
X141189200Y-49729800D01*
X141189200Y-49729800D02*
X141189200Y-67029600D01*
X141189200Y-67029600D02*
X139096700Y-69122100D01*
X139096700Y-69122100D02*
X139096700Y-82708700D01*
X139096700Y-82708700D02*
X140208000Y-83820000D01*
X147580000Y-54102000D02*
X142748000Y-58934000D01*
X142748000Y-58934000D02*
X142748000Y-71120000D01*
D20*
G36*
X175349234Y-44911633D02*
G01*
X174778442Y-45293024D01*
X174293024Y-45778442D01*
X173911633Y-46349234D01*
X173648927Y-46983463D01*
X173515000Y-47656758D01*
X173515000Y-48343242D01*
X173648927Y-49016537D01*
X173911633Y-49650766D01*
X174293024Y-50221558D01*
X174778442Y-50706976D01*
X175349234Y-51088367D01*
X175983463Y-51351073D01*
X176656758Y-51485000D01*
X177343242Y-51485000D01*
X178016537Y-51351073D01*
X178650766Y-51088367D01*
X179221558Y-50706976D01*
X179706976Y-50221558D01*
X180088367Y-49650766D01*
X180340000Y-49043270D01*
X180340001Y-82456733D01*
X180088367Y-81849234D01*
X179706976Y-81278442D01*
X179221558Y-80793024D01*
X178650766Y-80411633D01*
X178016537Y-80148927D01*
X177343242Y-80015000D01*
X176656758Y-80015000D01*
X175983463Y-80148927D01*
X175349234Y-80411633D01*
X174778442Y-80793024D01*
X174293024Y-81278442D01*
X173911633Y-81849234D01*
X173648927Y-82483463D01*
X173515000Y-83156758D01*
X173515000Y-83843242D01*
X173648927Y-84516537D01*
X173911633Y-85150766D01*
X174293024Y-85721558D01*
X174778442Y-86206976D01*
X175349234Y-86588367D01*
X175956730Y-86840000D01*
X126519270Y-86840000D01*
X127126766Y-86588367D01*
X127697558Y-86206976D01*
X128182976Y-85721558D01*
X128564367Y-85150766D01*
X128827073Y-84516537D01*
X128961000Y-83843242D01*
X128961000Y-83156758D01*
X128827073Y-82483463D01*
X128564367Y-81849234D01*
X128182976Y-81278442D01*
X127697558Y-80793024D01*
X127126766Y-80411633D01*
X126492537Y-80148927D01*
X125819242Y-80015000D01*
X125132758Y-80015000D01*
X124459463Y-80148927D01*
X123825234Y-80411633D01*
X123254442Y-80793024D01*
X122769024Y-81278442D01*
X122387633Y-81849234D01*
X122160000Y-82398789D01*
X122160000Y-69882000D01*
X124214025Y-69882000D01*
X124237870Y-70124102D01*
X124308489Y-70356901D01*
X124423167Y-70571449D01*
X124577498Y-70759502D01*
X124616111Y-70791191D01*
X124611613Y-70793595D01*
X124477038Y-70904038D01*
X124366595Y-71038613D01*
X124284528Y-71192149D01*
X124233992Y-71358745D01*
X124216928Y-71531999D01*
X124216928Y-72232001D01*
X124233992Y-72405255D01*
X124284528Y-72571851D01*
X124366595Y-72725387D01*
X124477038Y-72859962D01*
X124611613Y-72970405D01*
X124765149Y-73052472D01*
X124931745Y-73103008D01*
X125104999Y-73120072D01*
X126355001Y-73120072D01*
X126528255Y-73103008D01*
X126694851Y-73052472D01*
X126848387Y-72970405D01*
X126982962Y-72859962D01*
X127093405Y-72725387D01*
X127175472Y-72571851D01*
X127226008Y-72405255D01*
X127243072Y-72232001D01*
X127243072Y-71531999D01*
X127226008Y-71358745D01*
X127175472Y-71192149D01*
X127093405Y-71038613D01*
X126982962Y-70904038D01*
X126848387Y-70793595D01*
X126843889Y-70791191D01*
X126882502Y-70759502D01*
X127036833Y-70571449D01*
X127151511Y-70356901D01*
X127222130Y-70124102D01*
X127245975Y-69882000D01*
X127222130Y-69639898D01*
X127151511Y-69407099D01*
X127036833Y-69192551D01*
X126882502Y-69004498D01*
X126732652Y-68881519D01*
X126796725Y-68838307D01*
X126968078Y-68665474D01*
X127102421Y-68462533D01*
X127194591Y-68237282D01*
X127198462Y-68199609D01*
X127073731Y-68009000D01*
X125857000Y-68009000D01*
X125857000Y-68029000D01*
X125603000Y-68029000D01*
X125603000Y-68009000D01*
X124386269Y-68009000D01*
X124261538Y-68199609D01*
X124265409Y-68237282D01*
X124357579Y-68462533D01*
X124491922Y-68665474D01*
X124663275Y-68838307D01*
X124727348Y-68881519D01*
X124577498Y-69004498D01*
X124423167Y-69192551D01*
X124308489Y-69407099D01*
X124237870Y-69639898D01*
X124214025Y-69882000D01*
X122160000Y-69882000D01*
X122160000Y-67564391D01*
X124261538Y-67564391D01*
X124386269Y-67755000D01*
X125603000Y-67755000D01*
X125603000Y-66647000D01*
X125857000Y-66647000D01*
X125857000Y-67755000D01*
X127073731Y-67755000D01*
X127198462Y-67564391D01*
X127194591Y-67526718D01*
X127102421Y-67301467D01*
X126968078Y-67098526D01*
X126796725Y-66925693D01*
X126594946Y-66789610D01*
X126370496Y-66695507D01*
X126132000Y-66647000D01*
X125857000Y-66647000D01*
X125603000Y-66647000D01*
X125328000Y-66647000D01*
X125089504Y-66695507D01*
X124865054Y-66789610D01*
X124663275Y-66925693D01*
X124491922Y-67098526D01*
X124357579Y-67301467D01*
X124265409Y-67526718D01*
X124261538Y-67564391D01*
X122160000Y-67564391D01*
X122160000Y-60198000D01*
X124214025Y-60198000D01*
X124237870Y-60440102D01*
X124308489Y-60672901D01*
X124423167Y-60887449D01*
X124577498Y-61075502D01*
X124616111Y-61107191D01*
X124611613Y-61109595D01*
X124477038Y-61220038D01*
X124366595Y-61354613D01*
X124284528Y-61508149D01*
X124233992Y-61674745D01*
X124216928Y-61847999D01*
X124216928Y-62548001D01*
X124233992Y-62721255D01*
X124284528Y-62887851D01*
X124366595Y-63041387D01*
X124477038Y-63175962D01*
X124611613Y-63286405D01*
X124765149Y-63368472D01*
X124931745Y-63419008D01*
X125104999Y-63436072D01*
X126355001Y-63436072D01*
X126528255Y-63419008D01*
X126694851Y-63368472D01*
X126848387Y-63286405D01*
X126982962Y-63175962D01*
X127093405Y-63041387D01*
X127175472Y-62887851D01*
X127226008Y-62721255D01*
X127243072Y-62548001D01*
X127243072Y-61847999D01*
X127226008Y-61674745D01*
X127175472Y-61508149D01*
X127093405Y-61354613D01*
X126982962Y-61220038D01*
X126848387Y-61109595D01*
X126843889Y-61107191D01*
X126882502Y-61075502D01*
X127036833Y-60887449D01*
X127151511Y-60672901D01*
X127222130Y-60440102D01*
X127245975Y-60198000D01*
X127222130Y-59955898D01*
X127151511Y-59723099D01*
X127036833Y-59508551D01*
X126882502Y-59320498D01*
X126732652Y-59197519D01*
X126796725Y-59154307D01*
X126968078Y-58981474D01*
X127102421Y-58778533D01*
X127194591Y-58553282D01*
X127198462Y-58515609D01*
X127073731Y-58325000D01*
X125857000Y-58325000D01*
X125857000Y-58345000D01*
X125603000Y-58345000D01*
X125603000Y-58325000D01*
X124386269Y-58325000D01*
X124261538Y-58515609D01*
X124265409Y-58553282D01*
X124357579Y-58778533D01*
X124491922Y-58981474D01*
X124663275Y-59154307D01*
X124727348Y-59197519D01*
X124577498Y-59320498D01*
X124423167Y-59508551D01*
X124308489Y-59723099D01*
X124237870Y-59955898D01*
X124214025Y-60198000D01*
X122160000Y-60198000D01*
X122160000Y-57880391D01*
X124261538Y-57880391D01*
X124386269Y-58071000D01*
X125603000Y-58071000D01*
X125603000Y-56963000D01*
X125857000Y-56963000D01*
X125857000Y-58071000D01*
X127073731Y-58071000D01*
X127198462Y-57880391D01*
X127194591Y-57842718D01*
X127102421Y-57617467D01*
X126968078Y-57414526D01*
X126796725Y-57241693D01*
X126594946Y-57105610D01*
X126370496Y-57011507D01*
X126132000Y-56963000D01*
X125857000Y-56963000D01*
X125603000Y-56963000D01*
X125328000Y-56963000D01*
X125089504Y-57011507D01*
X124865054Y-57105610D01*
X124663275Y-57241693D01*
X124491922Y-57414526D01*
X124357579Y-57617467D01*
X124265409Y-57842718D01*
X124261538Y-57880391D01*
X122160000Y-57880391D01*
X122160000Y-56694000D01*
X130137928Y-56694000D01*
X130137928Y-58894000D01*
X130150188Y-59018482D01*
X130186498Y-59138180D01*
X130245463Y-59248494D01*
X130324815Y-59345185D01*
X130421506Y-59424537D01*
X130531820Y-59483502D01*
X130651518Y-59519812D01*
X130776000Y-59532072D01*
X132976000Y-59532072D01*
X133100482Y-59519812D01*
X133190601Y-59492475D01*
X133190601Y-59565245D01*
X133096000Y-59555928D01*
X130896000Y-59555928D01*
X130771518Y-59568188D01*
X130651820Y-59604498D01*
X130541506Y-59663463D01*
X130444815Y-59742815D01*
X130365463Y-59839506D01*
X130306498Y-59949820D01*
X130270188Y-60069518D01*
X130257928Y-60194000D01*
X130257928Y-62394000D01*
X130270188Y-62518482D01*
X130306498Y-62638180D01*
X130365463Y-62748494D01*
X130444815Y-62845185D01*
X130541506Y-62924537D01*
X130651820Y-62983502D01*
X130771518Y-63019812D01*
X130896000Y-63032072D01*
X131194176Y-63032072D01*
X131181425Y-63055928D01*
X130776000Y-63055928D01*
X130651518Y-63068188D01*
X130531820Y-63104498D01*
X130421506Y-63163463D01*
X130324815Y-63242815D01*
X130245463Y-63339506D01*
X130186498Y-63449820D01*
X130150188Y-63569518D01*
X130137928Y-63694000D01*
X130137928Y-65894000D01*
X130150188Y-66018482D01*
X130186498Y-66138180D01*
X130245463Y-66248494D01*
X130324815Y-66345185D01*
X130421506Y-66424537D01*
X130531820Y-66483502D01*
X130651518Y-66519812D01*
X130776000Y-66532072D01*
X132976000Y-66532072D01*
X133100482Y-66519812D01*
X133220180Y-66483502D01*
X133330494Y-66424537D01*
X133427185Y-66345185D01*
X133506537Y-66248494D01*
X133565502Y-66138180D01*
X133601812Y-66018482D01*
X133614072Y-65894000D01*
X133614072Y-63694000D01*
X133601812Y-63569518D01*
X133569407Y-63462694D01*
X134368001Y-62664101D01*
X134368000Y-69947659D01*
X134237465Y-70034880D01*
X134042880Y-70229465D01*
X133889995Y-70458273D01*
X133784686Y-70712510D01*
X133731000Y-70982408D01*
X133731000Y-71257592D01*
X133784686Y-71527490D01*
X133889995Y-71781727D01*
X134042880Y-72010535D01*
X134237465Y-72205120D01*
X134466273Y-72358005D01*
X134720510Y-72463314D01*
X134990408Y-72517000D01*
X135265592Y-72517000D01*
X135535490Y-72463314D01*
X135789727Y-72358005D01*
X136018535Y-72205120D01*
X136213120Y-72010535D01*
X136366005Y-71781727D01*
X136398000Y-71704485D01*
X136429995Y-71781727D01*
X136582880Y-72010535D01*
X136777465Y-72205120D01*
X137006273Y-72358005D01*
X137260510Y-72463314D01*
X137530408Y-72517000D01*
X137805592Y-72517000D01*
X138075490Y-72463314D01*
X138329727Y-72358005D01*
X138336700Y-72353346D01*
X138336701Y-82586655D01*
X138329727Y-82581995D01*
X138075490Y-82476686D01*
X137805592Y-82423000D01*
X137530408Y-82423000D01*
X137260510Y-82476686D01*
X137006273Y-82581995D01*
X136777465Y-82734880D01*
X136582880Y-82929465D01*
X136429995Y-83158273D01*
X136398000Y-83235515D01*
X136366005Y-83158273D01*
X136213120Y-82929465D01*
X136018535Y-82734880D01*
X135789727Y-82581995D01*
X135535490Y-82476686D01*
X135265592Y-82423000D01*
X134990408Y-82423000D01*
X134720510Y-82476686D01*
X134466273Y-82581995D01*
X134237465Y-82734880D01*
X134042880Y-82929465D01*
X133889995Y-83158273D01*
X133784686Y-83412510D01*
X133731000Y-83682408D01*
X133731000Y-83957592D01*
X133784686Y-84227490D01*
X133889995Y-84481727D01*
X134042880Y-84710535D01*
X134237465Y-84905120D01*
X134466273Y-85058005D01*
X134720510Y-85163314D01*
X134990408Y-85217000D01*
X135265592Y-85217000D01*
X135535490Y-85163314D01*
X135789727Y-85058005D01*
X136018535Y-84905120D01*
X136213120Y-84710535D01*
X136366005Y-84481727D01*
X136398000Y-84404485D01*
X136429995Y-84481727D01*
X136582880Y-84710535D01*
X136777465Y-84905120D01*
X137006273Y-85058005D01*
X137260510Y-85163314D01*
X137530408Y-85217000D01*
X137805592Y-85217000D01*
X137959570Y-85186372D01*
X138197205Y-85424008D01*
X138220999Y-85453001D01*
X138249992Y-85476795D01*
X138249996Y-85476799D01*
X138320685Y-85534811D01*
X138336724Y-85547974D01*
X138468753Y-85618546D01*
X138612014Y-85662003D01*
X138723667Y-85673000D01*
X138723676Y-85673000D01*
X138760999Y-85676676D01*
X138798322Y-85673000D01*
X140637078Y-85673000D01*
X140674400Y-85676676D01*
X140711722Y-85673000D01*
X140711733Y-85673000D01*
X140823386Y-85662003D01*
X140966647Y-85618546D01*
X141098676Y-85547974D01*
X141214401Y-85453001D01*
X141238203Y-85423998D01*
X141807273Y-84854928D01*
X141857465Y-84905120D01*
X142086273Y-85058005D01*
X142340510Y-85163314D01*
X142610408Y-85217000D01*
X142885592Y-85217000D01*
X143155490Y-85163314D01*
X143409727Y-85058005D01*
X143638535Y-84905120D01*
X143833120Y-84710535D01*
X143986005Y-84481727D01*
X144018000Y-84404485D01*
X144049995Y-84481727D01*
X144202880Y-84710535D01*
X144397465Y-84905120D01*
X144626273Y-85058005D01*
X144880510Y-85163314D01*
X145150408Y-85217000D01*
X145425592Y-85217000D01*
X145695490Y-85163314D01*
X145949727Y-85058005D01*
X146178535Y-84905120D01*
X146373120Y-84710535D01*
X146526005Y-84481727D01*
X146558000Y-84404485D01*
X146589995Y-84481727D01*
X146742880Y-84710535D01*
X146937465Y-84905120D01*
X147166273Y-85058005D01*
X147420510Y-85163314D01*
X147690408Y-85217000D01*
X147965592Y-85217000D01*
X148235490Y-85163314D01*
X148489727Y-85058005D01*
X148718535Y-84905120D01*
X148913120Y-84710535D01*
X149066005Y-84481727D01*
X149098000Y-84404485D01*
X149129995Y-84481727D01*
X149282880Y-84710535D01*
X149477465Y-84905120D01*
X149706273Y-85058005D01*
X149960510Y-85163314D01*
X150230408Y-85217000D01*
X150505592Y-85217000D01*
X150775490Y-85163314D01*
X151029727Y-85058005D01*
X151258535Y-84905120D01*
X151378090Y-84785565D01*
X152122040Y-84785565D01*
X152189020Y-85025656D01*
X152438048Y-85142756D01*
X152705135Y-85209023D01*
X152980017Y-85221910D01*
X153252133Y-85180922D01*
X153511023Y-85087636D01*
X153626980Y-85025656D01*
X153693960Y-84785565D01*
X152908000Y-83999605D01*
X152122040Y-84785565D01*
X151378090Y-84785565D01*
X151453120Y-84710535D01*
X151606005Y-84481727D01*
X151635692Y-84410057D01*
X151640364Y-84423023D01*
X151702344Y-84538980D01*
X151942435Y-84605960D01*
X152728395Y-83820000D01*
X153087605Y-83820000D01*
X153873565Y-84605960D01*
X154113656Y-84538980D01*
X154177485Y-84403240D01*
X154209995Y-84481727D01*
X154362880Y-84710535D01*
X154557465Y-84905120D01*
X154786273Y-85058005D01*
X155040510Y-85163314D01*
X155310408Y-85217000D01*
X155585592Y-85217000D01*
X155855490Y-85163314D01*
X156109727Y-85058005D01*
X156338535Y-84905120D01*
X156533120Y-84710535D01*
X156686005Y-84481727D01*
X156718000Y-84404485D01*
X156749995Y-84481727D01*
X156902880Y-84710535D01*
X157097465Y-84905120D01*
X157326273Y-85058005D01*
X157580510Y-85163314D01*
X157850408Y-85217000D01*
X158125592Y-85217000D01*
X158395490Y-85163314D01*
X158649727Y-85058005D01*
X158878535Y-84905120D01*
X159073120Y-84710535D01*
X159226005Y-84481727D01*
X159258000Y-84404485D01*
X159289995Y-84481727D01*
X159442880Y-84710535D01*
X159637465Y-84905120D01*
X159866273Y-85058005D01*
X160120510Y-85163314D01*
X160390408Y-85217000D01*
X160665592Y-85217000D01*
X160935490Y-85163314D01*
X161189727Y-85058005D01*
X161418535Y-84905120D01*
X161613120Y-84710535D01*
X161766005Y-84481727D01*
X161798000Y-84404485D01*
X161829995Y-84481727D01*
X161982880Y-84710535D01*
X162177465Y-84905120D01*
X162406273Y-85058005D01*
X162660510Y-85163314D01*
X162930408Y-85217000D01*
X163205592Y-85217000D01*
X163475490Y-85163314D01*
X163729727Y-85058005D01*
X163958535Y-84905120D01*
X164153120Y-84710535D01*
X164306005Y-84481727D01*
X164338000Y-84404485D01*
X164369995Y-84481727D01*
X164522880Y-84710535D01*
X164717465Y-84905120D01*
X164946273Y-85058005D01*
X165200510Y-85163314D01*
X165470408Y-85217000D01*
X165745592Y-85217000D01*
X166015490Y-85163314D01*
X166269727Y-85058005D01*
X166498535Y-84905120D01*
X166693120Y-84710535D01*
X166846005Y-84481727D01*
X166878000Y-84404485D01*
X166909995Y-84481727D01*
X167062880Y-84710535D01*
X167257465Y-84905120D01*
X167486273Y-85058005D01*
X167740510Y-85163314D01*
X168010408Y-85217000D01*
X168285592Y-85217000D01*
X168555490Y-85163314D01*
X168809727Y-85058005D01*
X169038535Y-84905120D01*
X169233120Y-84710535D01*
X169386005Y-84481727D01*
X169491314Y-84227490D01*
X169545000Y-83957592D01*
X169545000Y-83682408D01*
X169491314Y-83412510D01*
X169386005Y-83158273D01*
X169233120Y-82929465D01*
X169038535Y-82734880D01*
X168809727Y-82581995D01*
X168555490Y-82476686D01*
X168285592Y-82423000D01*
X168010408Y-82423000D01*
X167740510Y-82476686D01*
X167486273Y-82581995D01*
X167257465Y-82734880D01*
X167062880Y-82929465D01*
X166909995Y-83158273D01*
X166878000Y-83235515D01*
X166846005Y-83158273D01*
X166693120Y-82929465D01*
X166498535Y-82734880D01*
X166269727Y-82581995D01*
X166015490Y-82476686D01*
X165745592Y-82423000D01*
X165470408Y-82423000D01*
X165200510Y-82476686D01*
X164946273Y-82581995D01*
X164717465Y-82734880D01*
X164522880Y-82929465D01*
X164369995Y-83158273D01*
X164338000Y-83235515D01*
X164306005Y-83158273D01*
X164153120Y-82929465D01*
X163958535Y-82734880D01*
X163729727Y-82581995D01*
X163475490Y-82476686D01*
X163205592Y-82423000D01*
X162930408Y-82423000D01*
X162660510Y-82476686D01*
X162406273Y-82581995D01*
X162177465Y-82734880D01*
X161982880Y-82929465D01*
X161829995Y-83158273D01*
X161798000Y-83235515D01*
X161766005Y-83158273D01*
X161613120Y-82929465D01*
X161418535Y-82734880D01*
X161189727Y-82581995D01*
X160935490Y-82476686D01*
X160665592Y-82423000D01*
X160390408Y-82423000D01*
X160120510Y-82476686D01*
X159866273Y-82581995D01*
X159637465Y-82734880D01*
X159442880Y-82929465D01*
X159289995Y-83158273D01*
X159258000Y-83235515D01*
X159226005Y-83158273D01*
X159073120Y-82929465D01*
X158878535Y-82734880D01*
X158649727Y-82581995D01*
X158395490Y-82476686D01*
X158125592Y-82423000D01*
X157850408Y-82423000D01*
X157580510Y-82476686D01*
X157326273Y-82581995D01*
X157097465Y-82734880D01*
X156902880Y-82929465D01*
X156749995Y-83158273D01*
X156718000Y-83235515D01*
X156686005Y-83158273D01*
X156533120Y-82929465D01*
X156338535Y-82734880D01*
X156109727Y-82581995D01*
X155855490Y-82476686D01*
X155585592Y-82423000D01*
X155310408Y-82423000D01*
X155040510Y-82476686D01*
X154786273Y-82581995D01*
X154557465Y-82734880D01*
X154362880Y-82929465D01*
X154209995Y-83158273D01*
X154180308Y-83229943D01*
X154175636Y-83216977D01*
X154113656Y-83101020D01*
X153873565Y-83034040D01*
X153087605Y-83820000D01*
X152728395Y-83820000D01*
X151942435Y-83034040D01*
X151702344Y-83101020D01*
X151638515Y-83236760D01*
X151606005Y-83158273D01*
X151453120Y-82929465D01*
X151378090Y-82854435D01*
X152122040Y-82854435D01*
X152908000Y-83640395D01*
X153693960Y-82854435D01*
X153626980Y-82614344D01*
X153377952Y-82497244D01*
X153110865Y-82430977D01*
X152835983Y-82418090D01*
X152563867Y-82459078D01*
X152304977Y-82552364D01*
X152189020Y-82614344D01*
X152122040Y-82854435D01*
X151378090Y-82854435D01*
X151258535Y-82734880D01*
X151029727Y-82581995D01*
X150775490Y-82476686D01*
X150505592Y-82423000D01*
X150230408Y-82423000D01*
X149960510Y-82476686D01*
X149858612Y-82518894D01*
X149858000Y-82512678D01*
X149858000Y-72423924D01*
X149898048Y-72442756D01*
X150165135Y-72509023D01*
X150440017Y-72521910D01*
X150712133Y-72480922D01*
X150971023Y-72387636D01*
X151086980Y-72325656D01*
X151153960Y-72085565D01*
X150368000Y-71299605D01*
X150353858Y-71313748D01*
X150174253Y-71134143D01*
X150188395Y-71120000D01*
X150174253Y-71105858D01*
X150353858Y-70926253D01*
X150368000Y-70940395D01*
X150382143Y-70926253D01*
X150561748Y-71105858D01*
X150547605Y-71120000D01*
X151333565Y-71905960D01*
X151573656Y-71838980D01*
X151637485Y-71703240D01*
X151669995Y-71781727D01*
X151822880Y-72010535D01*
X152017465Y-72205120D01*
X152246273Y-72358005D01*
X152500510Y-72463314D01*
X152770408Y-72517000D01*
X153045592Y-72517000D01*
X153315490Y-72463314D01*
X153569727Y-72358005D01*
X153798535Y-72205120D01*
X153993120Y-72010535D01*
X154146005Y-71781727D01*
X154178000Y-71704485D01*
X154209995Y-71781727D01*
X154362880Y-72010535D01*
X154557465Y-72205120D01*
X154786273Y-72358005D01*
X155040510Y-72463314D01*
X155310408Y-72517000D01*
X155585592Y-72517000D01*
X155855490Y-72463314D01*
X156109727Y-72358005D01*
X156338535Y-72205120D01*
X156533120Y-72010535D01*
X156686005Y-71781727D01*
X156718000Y-71704485D01*
X156749995Y-71781727D01*
X156902880Y-72010535D01*
X157097465Y-72205120D01*
X157326273Y-72358005D01*
X157580510Y-72463314D01*
X157850408Y-72517000D01*
X158125592Y-72517000D01*
X158395490Y-72463314D01*
X158649727Y-72358005D01*
X158878535Y-72205120D01*
X159073120Y-72010535D01*
X159226005Y-71781727D01*
X159258000Y-71704485D01*
X159289995Y-71781727D01*
X159442880Y-72010535D01*
X159637465Y-72205120D01*
X159866273Y-72358005D01*
X160120510Y-72463314D01*
X160390408Y-72517000D01*
X160665592Y-72517000D01*
X160935490Y-72463314D01*
X161189727Y-72358005D01*
X161418535Y-72205120D01*
X161613120Y-72010535D01*
X161766005Y-71781727D01*
X161798000Y-71704485D01*
X161829995Y-71781727D01*
X161982880Y-72010535D01*
X162177465Y-72205120D01*
X162406273Y-72358005D01*
X162660510Y-72463314D01*
X162930408Y-72517000D01*
X163205592Y-72517000D01*
X163475490Y-72463314D01*
X163729727Y-72358005D01*
X163958535Y-72205120D01*
X164153120Y-72010535D01*
X164306005Y-71781727D01*
X164338000Y-71704485D01*
X164369995Y-71781727D01*
X164522880Y-72010535D01*
X164717465Y-72205120D01*
X164946273Y-72358005D01*
X165200510Y-72463314D01*
X165470408Y-72517000D01*
X165745592Y-72517000D01*
X166015490Y-72463314D01*
X166269727Y-72358005D01*
X166498535Y-72205120D01*
X166693120Y-72010535D01*
X166846005Y-71781727D01*
X166878000Y-71704485D01*
X166909995Y-71781727D01*
X167062880Y-72010535D01*
X167257465Y-72205120D01*
X167486273Y-72358005D01*
X167740510Y-72463314D01*
X168010408Y-72517000D01*
X168285592Y-72517000D01*
X168555490Y-72463314D01*
X168809727Y-72358005D01*
X169038535Y-72205120D01*
X169233120Y-72010535D01*
X169386005Y-71781727D01*
X169491314Y-71527490D01*
X169545000Y-71257592D01*
X169545000Y-70982408D01*
X169528133Y-70897609D01*
X175061538Y-70897609D01*
X175065409Y-70935282D01*
X175157579Y-71160533D01*
X175291922Y-71363474D01*
X175463275Y-71536307D01*
X175665054Y-71672390D01*
X175889504Y-71766493D01*
X176128000Y-71815000D01*
X176403000Y-71815000D01*
X176403000Y-70707000D01*
X176657000Y-70707000D01*
X176657000Y-71815000D01*
X176932000Y-71815000D01*
X177170496Y-71766493D01*
X177394946Y-71672390D01*
X177596725Y-71536307D01*
X177768078Y-71363474D01*
X177902421Y-71160533D01*
X177994591Y-70935282D01*
X177998462Y-70897609D01*
X177873731Y-70707000D01*
X176657000Y-70707000D01*
X176403000Y-70707000D01*
X175186269Y-70707000D01*
X175061538Y-70897609D01*
X169528133Y-70897609D01*
X169491314Y-70712510D01*
X169386005Y-70458273D01*
X169233120Y-70229465D01*
X169038535Y-70034880D01*
X168809727Y-69881995D01*
X168555490Y-69776686D01*
X168285592Y-69723000D01*
X168010408Y-69723000D01*
X167740510Y-69776686D01*
X167486273Y-69881995D01*
X167257465Y-70034880D01*
X167062880Y-70229465D01*
X166909995Y-70458273D01*
X166878000Y-70535515D01*
X166846005Y-70458273D01*
X166693120Y-70229465D01*
X166498535Y-70034880D01*
X166269727Y-69881995D01*
X166015490Y-69776686D01*
X165745592Y-69723000D01*
X165470408Y-69723000D01*
X165200510Y-69776686D01*
X164946273Y-69881995D01*
X164717465Y-70034880D01*
X164522880Y-70229465D01*
X164369995Y-70458273D01*
X164338000Y-70535515D01*
X164306005Y-70458273D01*
X164153120Y-70229465D01*
X163958535Y-70034880D01*
X163729727Y-69881995D01*
X163475490Y-69776686D01*
X163205592Y-69723000D01*
X162930408Y-69723000D01*
X162660510Y-69776686D01*
X162406273Y-69881995D01*
X162177465Y-70034880D01*
X161982880Y-70229465D01*
X161829995Y-70458273D01*
X161798000Y-70535515D01*
X161766005Y-70458273D01*
X161613120Y-70229465D01*
X161418535Y-70034880D01*
X161189727Y-69881995D01*
X160935490Y-69776686D01*
X160665592Y-69723000D01*
X160390408Y-69723000D01*
X160120510Y-69776686D01*
X159866273Y-69881995D01*
X159637465Y-70034880D01*
X159442880Y-70229465D01*
X159289995Y-70458273D01*
X159258000Y-70535515D01*
X159226005Y-70458273D01*
X159073120Y-70229465D01*
X158878535Y-70034880D01*
X158649727Y-69881995D01*
X158395490Y-69776686D01*
X158125592Y-69723000D01*
X157850408Y-69723000D01*
X157580510Y-69776686D01*
X157326273Y-69881995D01*
X157097465Y-70034880D01*
X156902880Y-70229465D01*
X156749995Y-70458273D01*
X156718000Y-70535515D01*
X156686005Y-70458273D01*
X156533120Y-70229465D01*
X156338535Y-70034880D01*
X156109727Y-69881995D01*
X155855490Y-69776686D01*
X155585592Y-69723000D01*
X155379802Y-69723000D01*
X156463403Y-68639399D01*
X156492401Y-68615601D01*
X156587374Y-68499876D01*
X156657946Y-68367847D01*
X156699761Y-68229999D01*
X175016928Y-68229999D01*
X175016928Y-68930001D01*
X175033992Y-69103255D01*
X175084528Y-69269851D01*
X175166595Y-69423387D01*
X175277038Y-69557962D01*
X175411613Y-69668405D01*
X175416406Y-69670967D01*
X175291922Y-69796526D01*
X175157579Y-69999467D01*
X175065409Y-70224718D01*
X175061538Y-70262391D01*
X175186269Y-70453000D01*
X176403000Y-70453000D01*
X176403000Y-70433000D01*
X176657000Y-70433000D01*
X176657000Y-70453000D01*
X177873731Y-70453000D01*
X177998462Y-70262391D01*
X177994591Y-70224718D01*
X177902421Y-69999467D01*
X177768078Y-69796526D01*
X177643594Y-69670967D01*
X177648387Y-69668405D01*
X177782962Y-69557962D01*
X177893405Y-69423387D01*
X177975472Y-69269851D01*
X178026008Y-69103255D01*
X178043072Y-68930001D01*
X178043072Y-68229999D01*
X178026008Y-68056745D01*
X177975472Y-67890149D01*
X177893405Y-67736613D01*
X177782962Y-67602038D01*
X177648387Y-67491595D01*
X177494851Y-67409528D01*
X177328255Y-67358992D01*
X177155001Y-67341928D01*
X175904999Y-67341928D01*
X175731745Y-67358992D01*
X175565149Y-67409528D01*
X175411613Y-67491595D01*
X175277038Y-67602038D01*
X175166595Y-67736613D01*
X175084528Y-67890149D01*
X175033992Y-68056745D01*
X175016928Y-68229999D01*
X156699761Y-68229999D01*
X156701403Y-68224586D01*
X156712400Y-68112933D01*
X156712400Y-68112925D01*
X156716076Y-68075600D01*
X156712400Y-68038275D01*
X156712400Y-67251500D01*
X171300078Y-67251500D01*
X171337400Y-67255176D01*
X171374722Y-67251500D01*
X171374733Y-67251500D01*
X171486386Y-67240503D01*
X171629647Y-67197046D01*
X171761676Y-67126474D01*
X171877401Y-67031501D01*
X171901203Y-67002498D01*
X173469008Y-65434695D01*
X173498001Y-65410901D01*
X173521795Y-65381908D01*
X173521799Y-65381904D01*
X173592973Y-65295177D01*
X173592974Y-65295176D01*
X173663546Y-65163147D01*
X173707003Y-65019886D01*
X173718000Y-64908233D01*
X173718000Y-64908224D01*
X173721676Y-64870901D01*
X173718000Y-64833578D01*
X173718000Y-62306801D01*
X175118869Y-60905932D01*
X175157579Y-61000533D01*
X175291922Y-61203474D01*
X175463275Y-61376307D01*
X175665054Y-61512390D01*
X175889504Y-61606493D01*
X176128000Y-61655000D01*
X176403000Y-61655000D01*
X176403000Y-60547000D01*
X176657000Y-60547000D01*
X176657000Y-61655000D01*
X176932000Y-61655000D01*
X177170496Y-61606493D01*
X177394946Y-61512390D01*
X177596725Y-61376307D01*
X177768078Y-61203474D01*
X177902421Y-61000533D01*
X177994591Y-60775282D01*
X177998462Y-60737609D01*
X177873731Y-60547000D01*
X176657000Y-60547000D01*
X176403000Y-60547000D01*
X176383000Y-60547000D01*
X176383000Y-60293000D01*
X176403000Y-60293000D01*
X176403000Y-60273000D01*
X176657000Y-60273000D01*
X176657000Y-60293000D01*
X177873731Y-60293000D01*
X177998462Y-60102391D01*
X177994591Y-60064718D01*
X177902421Y-59839467D01*
X177768078Y-59636526D01*
X177643594Y-59510967D01*
X177648387Y-59508405D01*
X177782962Y-59397962D01*
X177893405Y-59263387D01*
X177975472Y-59109851D01*
X178026008Y-58943255D01*
X178043072Y-58770001D01*
X178043072Y-58069999D01*
X178026008Y-57896745D01*
X177975472Y-57730149D01*
X177893405Y-57576613D01*
X177782962Y-57442038D01*
X177648387Y-57331595D01*
X177494851Y-57249528D01*
X177328255Y-57198992D01*
X177155001Y-57181928D01*
X175904999Y-57181928D01*
X175731745Y-57198992D01*
X175565149Y-57249528D01*
X175411613Y-57331595D01*
X175277038Y-57442038D01*
X175166595Y-57576613D01*
X175084528Y-57730149D01*
X175033992Y-57896745D01*
X175016928Y-58069999D01*
X175016928Y-58770001D01*
X175024842Y-58850356D01*
X173505700Y-60369499D01*
X173505700Y-54904322D01*
X173509376Y-54866999D01*
X173505700Y-54829676D01*
X173505700Y-54829667D01*
X173494703Y-54718014D01*
X173451246Y-54574753D01*
X173380674Y-54442724D01*
X173285701Y-54326999D01*
X173256703Y-54303201D01*
X167464504Y-48511003D01*
X167440701Y-48481999D01*
X167324976Y-48387026D01*
X167192947Y-48316454D01*
X167049686Y-48272997D01*
X166938033Y-48262000D01*
X166938022Y-48262000D01*
X166900700Y-48258324D01*
X166863378Y-48262000D01*
X160437849Y-48262000D01*
X160436763Y-48259379D01*
X160260569Y-47995685D01*
X160036315Y-47771431D01*
X159772621Y-47595237D01*
X159479620Y-47473871D01*
X159168571Y-47412000D01*
X158851429Y-47412000D01*
X158540380Y-47473871D01*
X158537759Y-47474957D01*
X156858904Y-45796103D01*
X156835101Y-45767099D01*
X156719376Y-45672126D01*
X156587347Y-45601554D01*
X156444086Y-45558097D01*
X156332433Y-45547100D01*
X156332422Y-45547100D01*
X156295100Y-45543424D01*
X156257778Y-45547100D01*
X142711722Y-45547100D01*
X142674399Y-45543424D01*
X142637076Y-45547100D01*
X142637067Y-45547100D01*
X142525414Y-45558097D01*
X142382153Y-45601554D01*
X142250124Y-45672126D01*
X142134399Y-45767099D01*
X142110601Y-45796097D01*
X133734072Y-54172627D01*
X133734072Y-53194000D01*
X133721812Y-53069518D01*
X133685502Y-52949820D01*
X133626537Y-52839506D01*
X133547185Y-52742815D01*
X133450494Y-52663463D01*
X133340180Y-52604498D01*
X133220482Y-52568188D01*
X133096000Y-52555928D01*
X130896000Y-52555928D01*
X130771518Y-52568188D01*
X130651820Y-52604498D01*
X130541506Y-52663463D01*
X130444815Y-52742815D01*
X130365463Y-52839506D01*
X130306498Y-52949820D01*
X130270188Y-53069518D01*
X130257928Y-53194000D01*
X130257928Y-55394000D01*
X130270188Y-55518482D01*
X130306498Y-55638180D01*
X130365463Y-55748494D01*
X130444815Y-55845185D01*
X130541506Y-55924537D01*
X130651820Y-55983502D01*
X130771518Y-56019812D01*
X130896000Y-56032072D01*
X133096000Y-56032072D01*
X133190600Y-56022755D01*
X133190600Y-56095525D01*
X133100482Y-56068188D01*
X132976000Y-56055928D01*
X130776000Y-56055928D01*
X130651518Y-56068188D01*
X130531820Y-56104498D01*
X130421506Y-56163463D01*
X130324815Y-56242815D01*
X130245463Y-56339506D01*
X130186498Y-56449820D01*
X130150188Y-56569518D01*
X130137928Y-56694000D01*
X122160000Y-56694000D01*
X122160000Y-49043270D01*
X122411633Y-49650766D01*
X122793024Y-50221558D01*
X123278442Y-50706976D01*
X123849234Y-51088367D01*
X124483463Y-51351073D01*
X125156758Y-51485000D01*
X125843242Y-51485000D01*
X126516537Y-51351073D01*
X127150766Y-51088367D01*
X127721558Y-50706976D01*
X128206976Y-50221558D01*
X128588367Y-49650766D01*
X128851073Y-49016537D01*
X128985000Y-48343242D01*
X128985000Y-47656758D01*
X128851073Y-46983463D01*
X128588367Y-46349234D01*
X128206976Y-45778442D01*
X127721558Y-45293024D01*
X127150766Y-44911633D01*
X126543270Y-44660000D01*
X175956730Y-44660000D01*
X175349234Y-44911633D01*
X175349234Y-44911633D01*
G37*
X175349234Y-44911633D02*
X174778442Y-45293024D01*
X174293024Y-45778442D01*
X173911633Y-46349234D01*
X173648927Y-46983463D01*
X173515000Y-47656758D01*
X173515000Y-48343242D01*
X173648927Y-49016537D01*
X173911633Y-49650766D01*
X174293024Y-50221558D01*
X174778442Y-50706976D01*
X175349234Y-51088367D01*
X175983463Y-51351073D01*
X176656758Y-51485000D01*
X177343242Y-51485000D01*
X178016537Y-51351073D01*
X178650766Y-51088367D01*
X179221558Y-50706976D01*
X179706976Y-50221558D01*
X180088367Y-49650766D01*
X180340000Y-49043270D01*
X180340001Y-82456733D01*
X180088367Y-81849234D01*
X179706976Y-81278442D01*
X179221558Y-80793024D01*
X178650766Y-80411633D01*
X178016537Y-80148927D01*
X177343242Y-80015000D01*
X176656758Y-80015000D01*
X175983463Y-80148927D01*
X175349234Y-80411633D01*
X174778442Y-80793024D01*
X174293024Y-81278442D01*
X173911633Y-81849234D01*
X173648927Y-82483463D01*
X173515000Y-83156758D01*
X173515000Y-83843242D01*
X173648927Y-84516537D01*
X173911633Y-85150766D01*
X174293024Y-85721558D01*
X174778442Y-86206976D01*
X175349234Y-86588367D01*
X175956730Y-86840000D01*
X126519270Y-86840000D01*
X127126766Y-86588367D01*
X127697558Y-86206976D01*
X128182976Y-85721558D01*
X128564367Y-85150766D01*
X128827073Y-84516537D01*
X128961000Y-83843242D01*
X128961000Y-83156758D01*
X128827073Y-82483463D01*
X128564367Y-81849234D01*
X128182976Y-81278442D01*
X127697558Y-80793024D01*
X127126766Y-80411633D01*
X126492537Y-80148927D01*
X125819242Y-80015000D01*
X125132758Y-80015000D01*
X124459463Y-80148927D01*
X123825234Y-80411633D01*
X123254442Y-80793024D01*
X122769024Y-81278442D01*
X122387633Y-81849234D01*
X122160000Y-82398789D01*
X122160000Y-69882000D01*
X124214025Y-69882000D01*
X124237870Y-70124102D01*
X124308489Y-70356901D01*
X124423167Y-70571449D01*
X124577498Y-70759502D01*
X124616111Y-70791191D01*
X124611613Y-70793595D01*
X124477038Y-70904038D01*
X124366595Y-71038613D01*
X124284528Y-71192149D01*
X124233992Y-71358745D01*
X124216928Y-71531999D01*
X124216928Y-72232001D01*
X124233992Y-72405255D01*
X124284528Y-72571851D01*
X124366595Y-72725387D01*
X124477038Y-72859962D01*
X124611613Y-72970405D01*
X124765149Y-73052472D01*
X124931745Y-73103008D01*
X125104999Y-73120072D01*
X126355001Y-73120072D01*
X126528255Y-73103008D01*
X126694851Y-73052472D01*
X126848387Y-72970405D01*
X126982962Y-72859962D01*
X127093405Y-72725387D01*
X127175472Y-72571851D01*
X127226008Y-72405255D01*
X127243072Y-72232001D01*
X127243072Y-71531999D01*
X127226008Y-71358745D01*
X127175472Y-71192149D01*
X127093405Y-71038613D01*
X126982962Y-70904038D01*
X126848387Y-70793595D01*
X126843889Y-70791191D01*
X126882502Y-70759502D01*
X127036833Y-70571449D01*
X127151511Y-70356901D01*
X127222130Y-70124102D01*
X127245975Y-69882000D01*
X127222130Y-69639898D01*
X127151511Y-69407099D01*
X127036833Y-69192551D01*
X126882502Y-69004498D01*
X126732652Y-68881519D01*
X126796725Y-68838307D01*
X126968078Y-68665474D01*
X127102421Y-68462533D01*
X127194591Y-68237282D01*
X127198462Y-68199609D01*
X127073731Y-68009000D01*
X125857000Y-68009000D01*
X125857000Y-68029000D01*
X125603000Y-68029000D01*
X125603000Y-68009000D01*
X124386269Y-68009000D01*
X124261538Y-68199609D01*
X124265409Y-68237282D01*
X124357579Y-68462533D01*
X124491922Y-68665474D01*
X124663275Y-68838307D01*
X124727348Y-68881519D01*
X124577498Y-69004498D01*
X124423167Y-69192551D01*
X124308489Y-69407099D01*
X124237870Y-69639898D01*
X124214025Y-69882000D01*
X122160000Y-69882000D01*
X122160000Y-67564391D01*
X124261538Y-67564391D01*
X124386269Y-67755000D01*
X125603000Y-67755000D01*
X125603000Y-66647000D01*
X125857000Y-66647000D01*
X125857000Y-67755000D01*
X127073731Y-67755000D01*
X127198462Y-67564391D01*
X127194591Y-67526718D01*
X127102421Y-67301467D01*
X126968078Y-67098526D01*
X126796725Y-66925693D01*
X126594946Y-66789610D01*
X126370496Y-66695507D01*
X126132000Y-66647000D01*
X125857000Y-66647000D01*
X125603000Y-66647000D01*
X125328000Y-66647000D01*
X125089504Y-66695507D01*
X124865054Y-66789610D01*
X124663275Y-66925693D01*
X124491922Y-67098526D01*
X124357579Y-67301467D01*
X124265409Y-67526718D01*
X124261538Y-67564391D01*
X122160000Y-67564391D01*
X122160000Y-60198000D01*
X124214025Y-60198000D01*
X124237870Y-60440102D01*
X124308489Y-60672901D01*
X124423167Y-60887449D01*
X124577498Y-61075502D01*
X124616111Y-61107191D01*
X124611613Y-61109595D01*
X124477038Y-61220038D01*
X124366595Y-61354613D01*
X124284528Y-61508149D01*
X124233992Y-61674745D01*
X124216928Y-61847999D01*
X124216928Y-62548001D01*
X124233992Y-62721255D01*
X124284528Y-62887851D01*
X124366595Y-63041387D01*
X124477038Y-63175962D01*
X124611613Y-63286405D01*
X124765149Y-63368472D01*
X124931745Y-63419008D01*
X125104999Y-63436072D01*
X126355001Y-63436072D01*
X126528255Y-63419008D01*
X126694851Y-63368472D01*
X126848387Y-63286405D01*
X126982962Y-63175962D01*
X127093405Y-63041387D01*
X127175472Y-62887851D01*
X127226008Y-62721255D01*
X127243072Y-62548001D01*
X127243072Y-61847999D01*
X127226008Y-61674745D01*
X127175472Y-61508149D01*
X127093405Y-61354613D01*
X126982962Y-61220038D01*
X126848387Y-61109595D01*
X126843889Y-61107191D01*
X126882502Y-61075502D01*
X127036833Y-60887449D01*
X127151511Y-60672901D01*
X127222130Y-60440102D01*
X127245975Y-60198000D01*
X127222130Y-59955898D01*
X127151511Y-59723099D01*
X127036833Y-59508551D01*
X126882502Y-59320498D01*
X126732652Y-59197519D01*
X126796725Y-59154307D01*
X126968078Y-58981474D01*
X127102421Y-58778533D01*
X127194591Y-58553282D01*
X127198462Y-58515609D01*
X127073731Y-58325000D01*
X125857000Y-58325000D01*
X125857000Y-58345000D01*
X125603000Y-58345000D01*
X125603000Y-58325000D01*
X124386269Y-58325000D01*
X124261538Y-58515609D01*
X124265409Y-58553282D01*
X124357579Y-58778533D01*
X124491922Y-58981474D01*
X124663275Y-59154307D01*
X124727348Y-59197519D01*
X124577498Y-59320498D01*
X124423167Y-59508551D01*
X124308489Y-59723099D01*
X124237870Y-59955898D01*
X124214025Y-60198000D01*
X122160000Y-60198000D01*
X122160000Y-57880391D01*
X124261538Y-57880391D01*
X124386269Y-58071000D01*
X125603000Y-58071000D01*
X125603000Y-56963000D01*
X125857000Y-56963000D01*
X125857000Y-58071000D01*
X127073731Y-58071000D01*
X127198462Y-57880391D01*
X127194591Y-57842718D01*
X127102421Y-57617467D01*
X126968078Y-57414526D01*
X126796725Y-57241693D01*
X126594946Y-57105610D01*
X126370496Y-57011507D01*
X126132000Y-56963000D01*
X125857000Y-56963000D01*
X125603000Y-56963000D01*
X125328000Y-56963000D01*
X125089504Y-57011507D01*
X124865054Y-57105610D01*
X124663275Y-57241693D01*
X124491922Y-57414526D01*
X124357579Y-57617467D01*
X124265409Y-57842718D01*
X124261538Y-57880391D01*
X122160000Y-57880391D01*
X122160000Y-56694000D01*
X130137928Y-56694000D01*
X130137928Y-58894000D01*
X130150188Y-59018482D01*
X130186498Y-59138180D01*
X130245463Y-59248494D01*
X130324815Y-59345185D01*
X130421506Y-59424537D01*
X130531820Y-59483502D01*
X130651518Y-59519812D01*
X130776000Y-59532072D01*
X132976000Y-59532072D01*
X133100482Y-59519812D01*
X133190601Y-59492475D01*
X133190601Y-59565245D01*
X133096000Y-59555928D01*
X130896000Y-59555928D01*
X130771518Y-59568188D01*
X130651820Y-59604498D01*
X130541506Y-59663463D01*
X130444815Y-59742815D01*
X130365463Y-59839506D01*
X130306498Y-59949820D01*
X130270188Y-60069518D01*
X130257928Y-60194000D01*
X130257928Y-62394000D01*
X130270188Y-62518482D01*
X130306498Y-62638180D01*
X130365463Y-62748494D01*
X130444815Y-62845185D01*
X130541506Y-62924537D01*
X130651820Y-62983502D01*
X130771518Y-63019812D01*
X130896000Y-63032072D01*
X131194176Y-63032072D01*
X131181425Y-63055928D01*
X130776000Y-63055928D01*
X130651518Y-63068188D01*
X130531820Y-63104498D01*
X130421506Y-63163463D01*
X130324815Y-63242815D01*
X130245463Y-63339506D01*
X130186498Y-63449820D01*
X130150188Y-63569518D01*
X130137928Y-63694000D01*
X130137928Y-65894000D01*
X130150188Y-66018482D01*
X130186498Y-66138180D01*
X130245463Y-66248494D01*
X130324815Y-66345185D01*
X130421506Y-66424537D01*
X130531820Y-66483502D01*
X130651518Y-66519812D01*
X130776000Y-66532072D01*
X132976000Y-66532072D01*
X133100482Y-66519812D01*
X133220180Y-66483502D01*
X133330494Y-66424537D01*
X133427185Y-66345185D01*
X133506537Y-66248494D01*
X133565502Y-66138180D01*
X133601812Y-66018482D01*
X133614072Y-65894000D01*
X133614072Y-63694000D01*
X133601812Y-63569518D01*
X133569407Y-63462694D01*
X134368001Y-62664101D01*
X134368000Y-69947659D01*
X134237465Y-70034880D01*
X134042880Y-70229465D01*
X133889995Y-70458273D01*
X133784686Y-70712510D01*
X133731000Y-70982408D01*
X133731000Y-71257592D01*
X133784686Y-71527490D01*
X133889995Y-71781727D01*
X134042880Y-72010535D01*
X134237465Y-72205120D01*
X134466273Y-72358005D01*
X134720510Y-72463314D01*
X134990408Y-72517000D01*
X135265592Y-72517000D01*
X135535490Y-72463314D01*
X135789727Y-72358005D01*
X136018535Y-72205120D01*
X136213120Y-72010535D01*
X136366005Y-71781727D01*
X136398000Y-71704485D01*
X136429995Y-71781727D01*
X136582880Y-72010535D01*
X136777465Y-72205120D01*
X137006273Y-72358005D01*
X137260510Y-72463314D01*
X137530408Y-72517000D01*
X137805592Y-72517000D01*
X138075490Y-72463314D01*
X138329727Y-72358005D01*
X138336700Y-72353346D01*
X138336701Y-82586655D01*
X138329727Y-82581995D01*
X138075490Y-82476686D01*
X137805592Y-82423000D01*
X137530408Y-82423000D01*
X137260510Y-82476686D01*
X137006273Y-82581995D01*
X136777465Y-82734880D01*
X136582880Y-82929465D01*
X136429995Y-83158273D01*
X136398000Y-83235515D01*
X136366005Y-83158273D01*
X136213120Y-82929465D01*
X136018535Y-82734880D01*
X135789727Y-82581995D01*
X135535490Y-82476686D01*
X135265592Y-82423000D01*
X134990408Y-82423000D01*
X134720510Y-82476686D01*
X134466273Y-82581995D01*
X134237465Y-82734880D01*
X134042880Y-82929465D01*
X133889995Y-83158273D01*
X133784686Y-83412510D01*
X133731000Y-83682408D01*
X133731000Y-83957592D01*
X133784686Y-84227490D01*
X133889995Y-84481727D01*
X134042880Y-84710535D01*
X134237465Y-84905120D01*
X134466273Y-85058005D01*
X134720510Y-85163314D01*
X134990408Y-85217000D01*
X135265592Y-85217000D01*
X135535490Y-85163314D01*
X135789727Y-85058005D01*
X136018535Y-84905120D01*
X136213120Y-84710535D01*
X136366005Y-84481727D01*
X136398000Y-84404485D01*
X136429995Y-84481727D01*
X136582880Y-84710535D01*
X136777465Y-84905120D01*
X137006273Y-85058005D01*
X137260510Y-85163314D01*
X137530408Y-85217000D01*
X137805592Y-85217000D01*
X137959570Y-85186372D01*
X138197205Y-85424008D01*
X138220999Y-85453001D01*
X138249992Y-85476795D01*
X138249996Y-85476799D01*
X138320685Y-85534811D01*
X138336724Y-85547974D01*
X138468753Y-85618546D01*
X138612014Y-85662003D01*
X138723667Y-85673000D01*
X138723676Y-85673000D01*
X138760999Y-85676676D01*
X138798322Y-85673000D01*
X140637078Y-85673000D01*
X140674400Y-85676676D01*
X140711722Y-85673000D01*
X140711733Y-85673000D01*
X140823386Y-85662003D01*
X140966647Y-85618546D01*
X141098676Y-85547974D01*
X141214401Y-85453001D01*
X141238203Y-85423998D01*
X141807273Y-84854928D01*
X141857465Y-84905120D01*
X142086273Y-85058005D01*
X142340510Y-85163314D01*
X142610408Y-85217000D01*
X142885592Y-85217000D01*
X143155490Y-85163314D01*
X143409727Y-85058005D01*
X143638535Y-84905120D01*
X143833120Y-84710535D01*
X143986005Y-84481727D01*
X144018000Y-84404485D01*
X144049995Y-84481727D01*
X144202880Y-84710535D01*
X144397465Y-84905120D01*
X144626273Y-85058005D01*
X144880510Y-85163314D01*
X145150408Y-85217000D01*
X145425592Y-85217000D01*
X145695490Y-85163314D01*
X145949727Y-85058005D01*
X146178535Y-84905120D01*
X146373120Y-84710535D01*
X146526005Y-84481727D01*
X146558000Y-84404485D01*
X146589995Y-84481727D01*
X146742880Y-84710535D01*
X146937465Y-84905120D01*
X147166273Y-85058005D01*
X147420510Y-85163314D01*
X147690408Y-85217000D01*
X147965592Y-85217000D01*
X148235490Y-85163314D01*
X148489727Y-85058005D01*
X148718535Y-84905120D01*
X148913120Y-84710535D01*
X149066005Y-84481727D01*
X149098000Y-84404485D01*
X149129995Y-84481727D01*
X149282880Y-84710535D01*
X149477465Y-84905120D01*
X149706273Y-85058005D01*
X149960510Y-85163314D01*
X150230408Y-85217000D01*
X150505592Y-85217000D01*
X150775490Y-85163314D01*
X151029727Y-85058005D01*
X151258535Y-84905120D01*
X151378090Y-84785565D01*
X152122040Y-84785565D01*
X152189020Y-85025656D01*
X152438048Y-85142756D01*
X152705135Y-85209023D01*
X152980017Y-85221910D01*
X153252133Y-85180922D01*
X153511023Y-85087636D01*
X153626980Y-85025656D01*
X153693960Y-84785565D01*
X152908000Y-83999605D01*
X152122040Y-84785565D01*
X151378090Y-84785565D01*
X151453120Y-84710535D01*
X151606005Y-84481727D01*
X151635692Y-84410057D01*
X151640364Y-84423023D01*
X151702344Y-84538980D01*
X151942435Y-84605960D01*
X152728395Y-83820000D01*
X153087605Y-83820000D01*
X153873565Y-84605960D01*
X154113656Y-84538980D01*
X154177485Y-84403240D01*
X154209995Y-84481727D01*
X154362880Y-84710535D01*
X154557465Y-84905120D01*
X154786273Y-85058005D01*
X155040510Y-85163314D01*
X155310408Y-85217000D01*
X155585592Y-85217000D01*
X155855490Y-85163314D01*
X156109727Y-85058005D01*
X156338535Y-84905120D01*
X156533120Y-84710535D01*
X156686005Y-84481727D01*
X156718000Y-84404485D01*
X156749995Y-84481727D01*
X156902880Y-84710535D01*
X157097465Y-84905120D01*
X157326273Y-85058005D01*
X157580510Y-85163314D01*
X157850408Y-85217000D01*
X158125592Y-85217000D01*
X158395490Y-85163314D01*
X158649727Y-85058005D01*
X158878535Y-84905120D01*
X159073120Y-84710535D01*
X159226005Y-84481727D01*
X159258000Y-84404485D01*
X159289995Y-84481727D01*
X159442880Y-84710535D01*
X159637465Y-84905120D01*
X159866273Y-85058005D01*
X160120510Y-85163314D01*
X160390408Y-85217000D01*
X160665592Y-85217000D01*
X160935490Y-85163314D01*
X161189727Y-85058005D01*
X161418535Y-84905120D01*
X161613120Y-84710535D01*
X161766005Y-84481727D01*
X161798000Y-84404485D01*
X161829995Y-84481727D01*
X161982880Y-84710535D01*
X162177465Y-84905120D01*
X162406273Y-85058005D01*
X162660510Y-85163314D01*
X162930408Y-85217000D01*
X163205592Y-85217000D01*
X163475490Y-85163314D01*
X163729727Y-85058005D01*
X163958535Y-84905120D01*
X164153120Y-84710535D01*
X164306005Y-84481727D01*
X164338000Y-84404485D01*
X164369995Y-84481727D01*
X164522880Y-84710535D01*
X164717465Y-84905120D01*
X164946273Y-85058005D01*
X165200510Y-85163314D01*
X165470408Y-85217000D01*
X165745592Y-85217000D01*
X166015490Y-85163314D01*
X166269727Y-85058005D01*
X166498535Y-84905120D01*
X166693120Y-84710535D01*
X166846005Y-84481727D01*
X166878000Y-84404485D01*
X166909995Y-84481727D01*
X167062880Y-84710535D01*
X167257465Y-84905120D01*
X167486273Y-85058005D01*
X167740510Y-85163314D01*
X168010408Y-85217000D01*
X168285592Y-85217000D01*
X168555490Y-85163314D01*
X168809727Y-85058005D01*
X169038535Y-84905120D01*
X169233120Y-84710535D01*
X169386005Y-84481727D01*
X169491314Y-84227490D01*
X169545000Y-83957592D01*
X169545000Y-83682408D01*
X169491314Y-83412510D01*
X169386005Y-83158273D01*
X169233120Y-82929465D01*
X169038535Y-82734880D01*
X168809727Y-82581995D01*
X168555490Y-82476686D01*
X168285592Y-82423000D01*
X168010408Y-82423000D01*
X167740510Y-82476686D01*
X167486273Y-82581995D01*
X167257465Y-82734880D01*
X167062880Y-82929465D01*
X166909995Y-83158273D01*
X166878000Y-83235515D01*
X166846005Y-83158273D01*
X166693120Y-82929465D01*
X166498535Y-82734880D01*
X166269727Y-82581995D01*
X166015490Y-82476686D01*
X165745592Y-82423000D01*
X165470408Y-82423000D01*
X165200510Y-82476686D01*
X164946273Y-82581995D01*
X164717465Y-82734880D01*
X164522880Y-82929465D01*
X164369995Y-83158273D01*
X164338000Y-83235515D01*
X164306005Y-83158273D01*
X164153120Y-82929465D01*
X163958535Y-82734880D01*
X163729727Y-82581995D01*
X163475490Y-82476686D01*
X163205592Y-82423000D01*
X162930408Y-82423000D01*
X162660510Y-82476686D01*
X162406273Y-82581995D01*
X162177465Y-82734880D01*
X161982880Y-82929465D01*
X161829995Y-83158273D01*
X161798000Y-83235515D01*
X161766005Y-83158273D01*
X161613120Y-82929465D01*
X161418535Y-82734880D01*
X161189727Y-82581995D01*
X160935490Y-82476686D01*
X160665592Y-82423000D01*
X160390408Y-82423000D01*
X160120510Y-82476686D01*
X159866273Y-82581995D01*
X159637465Y-82734880D01*
X159442880Y-82929465D01*
X159289995Y-83158273D01*
X159258000Y-83235515D01*
X159226005Y-83158273D01*
X159073120Y-82929465D01*
X158878535Y-82734880D01*
X158649727Y-82581995D01*
X158395490Y-82476686D01*
X158125592Y-82423000D01*
X157850408Y-82423000D01*
X157580510Y-82476686D01*
X157326273Y-82581995D01*
X157097465Y-82734880D01*
X156902880Y-82929465D01*
X156749995Y-83158273D01*
X156718000Y-83235515D01*
X156686005Y-83158273D01*
X156533120Y-82929465D01*
X156338535Y-82734880D01*
X156109727Y-82581995D01*
X155855490Y-82476686D01*
X155585592Y-82423000D01*
X155310408Y-82423000D01*
X155040510Y-82476686D01*
X154786273Y-82581995D01*
X154557465Y-82734880D01*
X154362880Y-82929465D01*
X154209995Y-83158273D01*
X154180308Y-83229943D01*
X154175636Y-83216977D01*
X154113656Y-83101020D01*
X153873565Y-83034040D01*
X153087605Y-83820000D01*
X152728395Y-83820000D01*
X151942435Y-83034040D01*
X151702344Y-83101020D01*
X151638515Y-83236760D01*
X151606005Y-83158273D01*
X151453120Y-82929465D01*
X151378090Y-82854435D01*
X152122040Y-82854435D01*
X152908000Y-83640395D01*
X153693960Y-82854435D01*
X153626980Y-82614344D01*
X153377952Y-82497244D01*
X153110865Y-82430977D01*
X152835983Y-82418090D01*
X152563867Y-82459078D01*
X152304977Y-82552364D01*
X152189020Y-82614344D01*
X152122040Y-82854435D01*
X151378090Y-82854435D01*
X151258535Y-82734880D01*
X151029727Y-82581995D01*
X150775490Y-82476686D01*
X150505592Y-82423000D01*
X150230408Y-82423000D01*
X149960510Y-82476686D01*
X149858612Y-82518894D01*
X149858000Y-82512678D01*
X149858000Y-72423924D01*
X149898048Y-72442756D01*
X150165135Y-72509023D01*
X150440017Y-72521910D01*
X150712133Y-72480922D01*
X150971023Y-72387636D01*
X151086980Y-72325656D01*
X151153960Y-72085565D01*
X150368000Y-71299605D01*
X150353858Y-71313748D01*
X150174253Y-71134143D01*
X150188395Y-71120000D01*
X150174253Y-71105858D01*
X150353858Y-70926253D01*
X150368000Y-70940395D01*
X150382143Y-70926253D01*
X150561748Y-71105858D01*
X150547605Y-71120000D01*
X151333565Y-71905960D01*
X151573656Y-71838980D01*
X151637485Y-71703240D01*
X151669995Y-71781727D01*
X151822880Y-72010535D01*
X152017465Y-72205120D01*
X152246273Y-72358005D01*
X152500510Y-72463314D01*
X152770408Y-72517000D01*
X153045592Y-72517000D01*
X153315490Y-72463314D01*
X153569727Y-72358005D01*
X153798535Y-72205120D01*
X153993120Y-72010535D01*
X154146005Y-71781727D01*
X154178000Y-71704485D01*
X154209995Y-71781727D01*
X154362880Y-72010535D01*
X154557465Y-72205120D01*
X154786273Y-72358005D01*
X155040510Y-72463314D01*
X155310408Y-72517000D01*
X155585592Y-72517000D01*
X155855490Y-72463314D01*
X156109727Y-72358005D01*
X156338535Y-72205120D01*
X156533120Y-72010535D01*
X156686005Y-71781727D01*
X156718000Y-71704485D01*
X156749995Y-71781727D01*
X156902880Y-72010535D01*
X157097465Y-72205120D01*
X157326273Y-72358005D01*
X157580510Y-72463314D01*
X157850408Y-72517000D01*
X158125592Y-72517000D01*
X158395490Y-72463314D01*
X158649727Y-72358005D01*
X158878535Y-72205120D01*
X159073120Y-72010535D01*
X159226005Y-71781727D01*
X159258000Y-71704485D01*
X159289995Y-71781727D01*
X159442880Y-72010535D01*
X159637465Y-72205120D01*
X159866273Y-72358005D01*
X160120510Y-72463314D01*
X160390408Y-72517000D01*
X160665592Y-72517000D01*
X160935490Y-72463314D01*
X161189727Y-72358005D01*
X161418535Y-72205120D01*
X161613120Y-72010535D01*
X161766005Y-71781727D01*
X161798000Y-71704485D01*
X161829995Y-71781727D01*
X161982880Y-72010535D01*
X162177465Y-72205120D01*
X162406273Y-72358005D01*
X162660510Y-72463314D01*
X162930408Y-72517000D01*
X163205592Y-72517000D01*
X163475490Y-72463314D01*
X163729727Y-72358005D01*
X163958535Y-72205120D01*
X164153120Y-72010535D01*
X164306005Y-71781727D01*
X164338000Y-71704485D01*
X164369995Y-71781727D01*
X164522880Y-72010535D01*
X164717465Y-72205120D01*
X164946273Y-72358005D01*
X165200510Y-72463314D01*
X165470408Y-72517000D01*
X165745592Y-72517000D01*
X166015490Y-72463314D01*
X166269727Y-72358005D01*
X166498535Y-72205120D01*
X166693120Y-72010535D01*
X166846005Y-71781727D01*
X166878000Y-71704485D01*
X166909995Y-71781727D01*
X167062880Y-72010535D01*
X167257465Y-72205120D01*
X167486273Y-72358005D01*
X167740510Y-72463314D01*
X168010408Y-72517000D01*
X168285592Y-72517000D01*
X168555490Y-72463314D01*
X168809727Y-72358005D01*
X169038535Y-72205120D01*
X169233120Y-72010535D01*
X169386005Y-71781727D01*
X169491314Y-71527490D01*
X169545000Y-71257592D01*
X169545000Y-70982408D01*
X169528133Y-70897609D01*
X175061538Y-70897609D01*
X175065409Y-70935282D01*
X175157579Y-71160533D01*
X175291922Y-71363474D01*
X175463275Y-71536307D01*
X175665054Y-71672390D01*
X175889504Y-71766493D01*
X176128000Y-71815000D01*
X176403000Y-71815000D01*
X176403000Y-70707000D01*
X176657000Y-70707000D01*
X176657000Y-71815000D01*
X176932000Y-71815000D01*
X177170496Y-71766493D01*
X177394946Y-71672390D01*
X177596725Y-71536307D01*
X177768078Y-71363474D01*
X177902421Y-71160533D01*
X177994591Y-70935282D01*
X177998462Y-70897609D01*
X177873731Y-70707000D01*
X176657000Y-70707000D01*
X176403000Y-70707000D01*
X175186269Y-70707000D01*
X175061538Y-70897609D01*
X169528133Y-70897609D01*
X169491314Y-70712510D01*
X169386005Y-70458273D01*
X169233120Y-70229465D01*
X169038535Y-70034880D01*
X168809727Y-69881995D01*
X168555490Y-69776686D01*
X168285592Y-69723000D01*
X168010408Y-69723000D01*
X167740510Y-69776686D01*
X167486273Y-69881995D01*
X167257465Y-70034880D01*
X167062880Y-70229465D01*
X166909995Y-70458273D01*
X166878000Y-70535515D01*
X166846005Y-70458273D01*
X166693120Y-70229465D01*
X166498535Y-70034880D01*
X166269727Y-69881995D01*
X166015490Y-69776686D01*
X165745592Y-69723000D01*
X165470408Y-69723000D01*
X165200510Y-69776686D01*
X164946273Y-69881995D01*
X164717465Y-70034880D01*
X164522880Y-70229465D01*
X164369995Y-70458273D01*
X164338000Y-70535515D01*
X164306005Y-70458273D01*
X164153120Y-70229465D01*
X163958535Y-70034880D01*
X163729727Y-69881995D01*
X163475490Y-69776686D01*
X163205592Y-69723000D01*
X162930408Y-69723000D01*
X162660510Y-69776686D01*
X162406273Y-69881995D01*
X162177465Y-70034880D01*
X161982880Y-70229465D01*
X161829995Y-70458273D01*
X161798000Y-70535515D01*
X161766005Y-70458273D01*
X161613120Y-70229465D01*
X161418535Y-70034880D01*
X161189727Y-69881995D01*
X160935490Y-69776686D01*
X160665592Y-69723000D01*
X160390408Y-69723000D01*
X160120510Y-69776686D01*
X159866273Y-69881995D01*
X159637465Y-70034880D01*
X159442880Y-70229465D01*
X159289995Y-70458273D01*
X159258000Y-70535515D01*
X159226005Y-70458273D01*
X159073120Y-70229465D01*
X158878535Y-70034880D01*
X158649727Y-69881995D01*
X158395490Y-69776686D01*
X158125592Y-69723000D01*
X157850408Y-69723000D01*
X157580510Y-69776686D01*
X157326273Y-69881995D01*
X157097465Y-70034880D01*
X156902880Y-70229465D01*
X156749995Y-70458273D01*
X156718000Y-70535515D01*
X156686005Y-70458273D01*
X156533120Y-70229465D01*
X156338535Y-70034880D01*
X156109727Y-69881995D01*
X155855490Y-69776686D01*
X155585592Y-69723000D01*
X155379802Y-69723000D01*
X156463403Y-68639399D01*
X156492401Y-68615601D01*
X156587374Y-68499876D01*
X156657946Y-68367847D01*
X156699761Y-68229999D01*
X175016928Y-68229999D01*
X175016928Y-68930001D01*
X175033992Y-69103255D01*
X175084528Y-69269851D01*
X175166595Y-69423387D01*
X175277038Y-69557962D01*
X175411613Y-69668405D01*
X175416406Y-69670967D01*
X175291922Y-69796526D01*
X175157579Y-69999467D01*
X175065409Y-70224718D01*
X175061538Y-70262391D01*
X175186269Y-70453000D01*
X176403000Y-70453000D01*
X176403000Y-70433000D01*
X176657000Y-70433000D01*
X176657000Y-70453000D01*
X177873731Y-70453000D01*
X177998462Y-70262391D01*
X177994591Y-70224718D01*
X177902421Y-69999467D01*
X177768078Y-69796526D01*
X177643594Y-69670967D01*
X177648387Y-69668405D01*
X177782962Y-69557962D01*
X177893405Y-69423387D01*
X177975472Y-69269851D01*
X178026008Y-69103255D01*
X178043072Y-68930001D01*
X178043072Y-68229999D01*
X178026008Y-68056745D01*
X177975472Y-67890149D01*
X177893405Y-67736613D01*
X177782962Y-67602038D01*
X177648387Y-67491595D01*
X177494851Y-67409528D01*
X177328255Y-67358992D01*
X177155001Y-67341928D01*
X175904999Y-67341928D01*
X175731745Y-67358992D01*
X175565149Y-67409528D01*
X175411613Y-67491595D01*
X175277038Y-67602038D01*
X175166595Y-67736613D01*
X175084528Y-67890149D01*
X175033992Y-68056745D01*
X175016928Y-68229999D01*
X156699761Y-68229999D01*
X156701403Y-68224586D01*
X156712400Y-68112933D01*
X156712400Y-68112925D01*
X156716076Y-68075600D01*
X156712400Y-68038275D01*
X156712400Y-67251500D01*
X171300078Y-67251500D01*
X171337400Y-67255176D01*
X171374722Y-67251500D01*
X171374733Y-67251500D01*
X171486386Y-67240503D01*
X171629647Y-67197046D01*
X171761676Y-67126474D01*
X171877401Y-67031501D01*
X171901203Y-67002498D01*
X173469008Y-65434695D01*
X173498001Y-65410901D01*
X173521795Y-65381908D01*
X173521799Y-65381904D01*
X173592973Y-65295177D01*
X173592974Y-65295176D01*
X173663546Y-65163147D01*
X173707003Y-65019886D01*
X173718000Y-64908233D01*
X173718000Y-64908224D01*
X173721676Y-64870901D01*
X173718000Y-64833578D01*
X173718000Y-62306801D01*
X175118869Y-60905932D01*
X175157579Y-61000533D01*
X175291922Y-61203474D01*
X175463275Y-61376307D01*
X175665054Y-61512390D01*
X175889504Y-61606493D01*
X176128000Y-61655000D01*
X176403000Y-61655000D01*
X176403000Y-60547000D01*
X176657000Y-60547000D01*
X176657000Y-61655000D01*
X176932000Y-61655000D01*
X177170496Y-61606493D01*
X177394946Y-61512390D01*
X177596725Y-61376307D01*
X177768078Y-61203474D01*
X177902421Y-61000533D01*
X177994591Y-60775282D01*
X177998462Y-60737609D01*
X177873731Y-60547000D01*
X176657000Y-60547000D01*
X176403000Y-60547000D01*
X176383000Y-60547000D01*
X176383000Y-60293000D01*
X176403000Y-60293000D01*
X176403000Y-60273000D01*
X176657000Y-60273000D01*
X176657000Y-60293000D01*
X177873731Y-60293000D01*
X177998462Y-60102391D01*
X177994591Y-60064718D01*
X177902421Y-59839467D01*
X177768078Y-59636526D01*
X177643594Y-59510967D01*
X177648387Y-59508405D01*
X177782962Y-59397962D01*
X177893405Y-59263387D01*
X177975472Y-59109851D01*
X178026008Y-58943255D01*
X178043072Y-58770001D01*
X178043072Y-58069999D01*
X178026008Y-57896745D01*
X177975472Y-57730149D01*
X177893405Y-57576613D01*
X177782962Y-57442038D01*
X177648387Y-57331595D01*
X177494851Y-57249528D01*
X177328255Y-57198992D01*
X177155001Y-57181928D01*
X175904999Y-57181928D01*
X175731745Y-57198992D01*
X175565149Y-57249528D01*
X175411613Y-57331595D01*
X175277038Y-57442038D01*
X175166595Y-57576613D01*
X175084528Y-57730149D01*
X175033992Y-57896745D01*
X175016928Y-58069999D01*
X175016928Y-58770001D01*
X175024842Y-58850356D01*
X173505700Y-60369499D01*
X173505700Y-54904322D01*
X173509376Y-54866999D01*
X173505700Y-54829676D01*
X173505700Y-54829667D01*
X173494703Y-54718014D01*
X173451246Y-54574753D01*
X173380674Y-54442724D01*
X173285701Y-54326999D01*
X173256703Y-54303201D01*
X167464504Y-48511003D01*
X167440701Y-48481999D01*
X167324976Y-48387026D01*
X167192947Y-48316454D01*
X167049686Y-48272997D01*
X166938033Y-48262000D01*
X166938022Y-48262000D01*
X166900700Y-48258324D01*
X166863378Y-48262000D01*
X160437849Y-48262000D01*
X160436763Y-48259379D01*
X160260569Y-47995685D01*
X160036315Y-47771431D01*
X159772621Y-47595237D01*
X159479620Y-47473871D01*
X159168571Y-47412000D01*
X158851429Y-47412000D01*
X158540380Y-47473871D01*
X158537759Y-47474957D01*
X156858904Y-45796103D01*
X156835101Y-45767099D01*
X156719376Y-45672126D01*
X156587347Y-45601554D01*
X156444086Y-45558097D01*
X156332433Y-45547100D01*
X156332422Y-45547100D01*
X156295100Y-45543424D01*
X156257778Y-45547100D01*
X142711722Y-45547100D01*
X142674399Y-45543424D01*
X142637076Y-45547100D01*
X142637067Y-45547100D01*
X142525414Y-45558097D01*
X142382153Y-45601554D01*
X142250124Y-45672126D01*
X142134399Y-45767099D01*
X142110601Y-45796097D01*
X133734072Y-54172627D01*
X133734072Y-53194000D01*
X133721812Y-53069518D01*
X133685502Y-52949820D01*
X133626537Y-52839506D01*
X133547185Y-52742815D01*
X133450494Y-52663463D01*
X133340180Y-52604498D01*
X133220482Y-52568188D01*
X133096000Y-52555928D01*
X130896000Y-52555928D01*
X130771518Y-52568188D01*
X130651820Y-52604498D01*
X130541506Y-52663463D01*
X130444815Y-52742815D01*
X130365463Y-52839506D01*
X130306498Y-52949820D01*
X130270188Y-53069518D01*
X130257928Y-53194000D01*
X130257928Y-55394000D01*
X130270188Y-55518482D01*
X130306498Y-55638180D01*
X130365463Y-55748494D01*
X130444815Y-55845185D01*
X130541506Y-55924537D01*
X130651820Y-55983502D01*
X130771518Y-56019812D01*
X130896000Y-56032072D01*
X133096000Y-56032072D01*
X133190600Y-56022755D01*
X133190600Y-56095525D01*
X133100482Y-56068188D01*
X132976000Y-56055928D01*
X130776000Y-56055928D01*
X130651518Y-56068188D01*
X130531820Y-56104498D01*
X130421506Y-56163463D01*
X130324815Y-56242815D01*
X130245463Y-56339506D01*
X130186498Y-56449820D01*
X130150188Y-56569518D01*
X130137928Y-56694000D01*
X122160000Y-56694000D01*
X122160000Y-49043270D01*
X122411633Y-49650766D01*
X122793024Y-50221558D01*
X123278442Y-50706976D01*
X123849234Y-51088367D01*
X124483463Y-51351073D01*
X125156758Y-51485000D01*
X125843242Y-51485000D01*
X126516537Y-51351073D01*
X127150766Y-51088367D01*
X127721558Y-50706976D01*
X128206976Y-50221558D01*
X128588367Y-49650766D01*
X128851073Y-49016537D01*
X128985000Y-48343242D01*
X128985000Y-47656758D01*
X128851073Y-46983463D01*
X128588367Y-46349234D01*
X128206976Y-45778442D01*
X127721558Y-45293024D01*
X127150766Y-44911633D01*
X126543270Y-44660000D01*
X175956730Y-44660000D01*
X175349234Y-44911633D01*
G36*
X142343237Y-49784621D02*
G01*
X142519431Y-50048315D01*
X142743685Y-50272569D01*
X143007379Y-50448763D01*
X143300380Y-50570129D01*
X143611429Y-50632000D01*
X143928571Y-50632000D01*
X144239620Y-50570129D01*
X144242242Y-50569043D01*
X145431300Y-51758102D01*
X145455099Y-51787101D01*
X145484097Y-51810899D01*
X145570824Y-51882074D01*
X145702853Y-51952646D01*
X145846114Y-51996103D01*
X145995100Y-52010777D01*
X146032433Y-52007100D01*
X165328999Y-52007100D01*
X165349399Y-52027500D01*
X146391825Y-52027500D01*
X146354500Y-52023824D01*
X146317175Y-52027500D01*
X146317167Y-52027500D01*
X146205514Y-52038497D01*
X146062253Y-52081954D01*
X145930224Y-52152526D01*
X145814499Y-52247499D01*
X145790701Y-52276497D01*
X145512241Y-52554957D01*
X145509620Y-52553871D01*
X145198571Y-52492000D01*
X144881429Y-52492000D01*
X144570380Y-52553871D01*
X144277379Y-52675237D01*
X144013685Y-52851431D01*
X143789431Y-53075685D01*
X143708816Y-53196335D01*
X143617584Y-53164021D01*
X142679605Y-54102000D01*
X143617584Y-55039979D01*
X143708816Y-55007665D01*
X143789431Y-55128315D01*
X144013685Y-55352569D01*
X144277379Y-55528763D01*
X144570380Y-55650129D01*
X144881429Y-55712000D01*
X144895198Y-55712000D01*
X142237003Y-58370196D01*
X142207999Y-58393999D01*
X142172249Y-58437561D01*
X142113026Y-58509724D01*
X142042622Y-58641439D01*
X142042454Y-58641754D01*
X141998997Y-58785015D01*
X141988000Y-58896668D01*
X141988000Y-58896678D01*
X141984324Y-58934000D01*
X141988000Y-58971322D01*
X141988001Y-69947658D01*
X141857465Y-70034880D01*
X141662880Y-70229465D01*
X141509995Y-70458273D01*
X141478000Y-70535515D01*
X141446005Y-70458273D01*
X141293120Y-70229465D01*
X141098535Y-70034880D01*
X140869727Y-69881995D01*
X140615490Y-69776686D01*
X140345592Y-69723000D01*
X140070408Y-69723000D01*
X139856700Y-69765509D01*
X139856700Y-69436901D01*
X141700203Y-67593399D01*
X141729201Y-67569601D01*
X141793219Y-67491595D01*
X141824174Y-67453877D01*
X141894746Y-67321847D01*
X141916085Y-67251500D01*
X141938203Y-67178586D01*
X141949200Y-67066933D01*
X141949200Y-67066923D01*
X141952876Y-67029600D01*
X141949200Y-66992277D01*
X141949200Y-55622189D01*
X142246990Y-55699883D01*
X142563584Y-55718540D01*
X142877733Y-55675074D01*
X143177367Y-55571156D01*
X143345234Y-55481429D01*
X143437979Y-55219584D01*
X142500000Y-54281605D01*
X142485858Y-54295748D01*
X142306253Y-54116143D01*
X142320395Y-54102000D01*
X142306253Y-54087858D01*
X142485858Y-53908253D01*
X142500000Y-53922395D01*
X143437979Y-52984416D01*
X143345234Y-52722571D01*
X143059880Y-52584180D01*
X142753010Y-52504117D01*
X142436416Y-52485460D01*
X142122267Y-52528926D01*
X141949200Y-52588948D01*
X141949200Y-50044601D01*
X142303973Y-49689829D01*
X142343237Y-49784621D01*
X142343237Y-49784621D01*
G37*
X142343237Y-49784621D02*
X142519431Y-50048315D01*
X142743685Y-50272569D01*
X143007379Y-50448763D01*
X143300380Y-50570129D01*
X143611429Y-50632000D01*
X143928571Y-50632000D01*
X144239620Y-50570129D01*
X144242242Y-50569043D01*
X145431300Y-51758102D01*
X145455099Y-51787101D01*
X145484097Y-51810899D01*
X145570824Y-51882074D01*
X145702853Y-51952646D01*
X145846114Y-51996103D01*
X145995100Y-52010777D01*
X146032433Y-52007100D01*
X165328999Y-52007100D01*
X165349399Y-52027500D01*
X146391825Y-52027500D01*
X146354500Y-52023824D01*
X146317175Y-52027500D01*
X146317167Y-52027500D01*
X146205514Y-52038497D01*
X146062253Y-52081954D01*
X145930224Y-52152526D01*
X145814499Y-52247499D01*
X145790701Y-52276497D01*
X145512241Y-52554957D01*
X145509620Y-52553871D01*
X145198571Y-52492000D01*
X144881429Y-52492000D01*
X144570380Y-52553871D01*
X144277379Y-52675237D01*
X144013685Y-52851431D01*
X143789431Y-53075685D01*
X143708816Y-53196335D01*
X143617584Y-53164021D01*
X142679605Y-54102000D01*
X143617584Y-55039979D01*
X143708816Y-55007665D01*
X143789431Y-55128315D01*
X144013685Y-55352569D01*
X144277379Y-55528763D01*
X144570380Y-55650129D01*
X144881429Y-55712000D01*
X144895198Y-55712000D01*
X142237003Y-58370196D01*
X142207999Y-58393999D01*
X142172249Y-58437561D01*
X142113026Y-58509724D01*
X142042622Y-58641439D01*
X142042454Y-58641754D01*
X141998997Y-58785015D01*
X141988000Y-58896668D01*
X141988000Y-58896678D01*
X141984324Y-58934000D01*
X141988000Y-58971322D01*
X141988001Y-69947658D01*
X141857465Y-70034880D01*
X141662880Y-70229465D01*
X141509995Y-70458273D01*
X141478000Y-70535515D01*
X141446005Y-70458273D01*
X141293120Y-70229465D01*
X141098535Y-70034880D01*
X140869727Y-69881995D01*
X140615490Y-69776686D01*
X140345592Y-69723000D01*
X140070408Y-69723000D01*
X139856700Y-69765509D01*
X139856700Y-69436901D01*
X141700203Y-67593399D01*
X141729201Y-67569601D01*
X141793219Y-67491595D01*
X141824174Y-67453877D01*
X141894746Y-67321847D01*
X141916085Y-67251500D01*
X141938203Y-67178586D01*
X141949200Y-67066933D01*
X141949200Y-67066923D01*
X141952876Y-67029600D01*
X141949200Y-66992277D01*
X141949200Y-55622189D01*
X142246990Y-55699883D01*
X142563584Y-55718540D01*
X142877733Y-55675074D01*
X143177367Y-55571156D01*
X143345234Y-55481429D01*
X143437979Y-55219584D01*
X142500000Y-54281605D01*
X142485858Y-54295748D01*
X142306253Y-54116143D01*
X142320395Y-54102000D01*
X142306253Y-54087858D01*
X142485858Y-53908253D01*
X142500000Y-53922395D01*
X143437979Y-52984416D01*
X143345234Y-52722571D01*
X143059880Y-52584180D01*
X142753010Y-52504117D01*
X142436416Y-52485460D01*
X142122267Y-52528926D01*
X141949200Y-52588948D01*
X141949200Y-50044601D01*
X142303973Y-49689829D01*
X142343237Y-49784621D01*
G36*
X140429200Y-52769652D02*
G01*
X140334054Y-52714558D01*
X140012123Y-52604821D01*
X139743000Y-52722400D01*
X139743000Y-54167000D01*
X139763000Y-54167000D01*
X139763000Y-54421000D01*
X139743000Y-54421000D01*
X139743000Y-55865600D01*
X140012123Y-55983179D01*
X140334054Y-55873442D01*
X140429200Y-55818348D01*
X140429200Y-56339137D01*
X140214054Y-56214558D01*
X139892123Y-56104821D01*
X139623000Y-56222400D01*
X139623000Y-57667000D01*
X139643000Y-57667000D01*
X139643000Y-57921000D01*
X139623000Y-57921000D01*
X139623000Y-59365600D01*
X139892123Y-59483179D01*
X140214054Y-59373442D01*
X140429201Y-59248863D01*
X140429201Y-59769652D01*
X140334054Y-59714558D01*
X140012123Y-59604821D01*
X139743000Y-59722400D01*
X139743000Y-61167000D01*
X139763000Y-61167000D01*
X139763000Y-61421000D01*
X139743000Y-61421000D01*
X139743000Y-62865600D01*
X140012123Y-62983179D01*
X140334054Y-62873442D01*
X140429201Y-62818348D01*
X140429201Y-63339137D01*
X140214054Y-63214558D01*
X139892123Y-63104821D01*
X139623000Y-63222400D01*
X139623000Y-64667000D01*
X139643000Y-64667000D01*
X139643000Y-64921000D01*
X139623000Y-64921000D01*
X139623000Y-66365600D01*
X139892123Y-66483179D01*
X140214054Y-66373442D01*
X140429201Y-66248863D01*
X140429201Y-66714797D01*
X138585703Y-68558296D01*
X138556699Y-68582099D01*
X138529205Y-68615601D01*
X138461726Y-68697824D01*
X138428000Y-68760920D01*
X138428000Y-66154115D01*
X138483609Y-66203008D01*
X138777946Y-66373442D01*
X139099877Y-66483179D01*
X139369000Y-66365600D01*
X139369000Y-64921000D01*
X139349000Y-64921000D01*
X139349000Y-64667000D01*
X139369000Y-64667000D01*
X139369000Y-63222400D01*
X139099877Y-63104821D01*
X138777946Y-63214558D01*
X138483609Y-63384992D01*
X138428000Y-63433885D01*
X138428000Y-62548608D01*
X138603609Y-62703008D01*
X138897946Y-62873442D01*
X139219877Y-62983179D01*
X139489000Y-62865600D01*
X139489000Y-61421000D01*
X139469000Y-61421000D01*
X139469000Y-61167000D01*
X139489000Y-61167000D01*
X139489000Y-59722400D01*
X139219877Y-59604821D01*
X138897946Y-59714558D01*
X138603609Y-59884992D01*
X138428000Y-60039392D01*
X138428000Y-59154115D01*
X138483609Y-59203008D01*
X138777946Y-59373442D01*
X139099877Y-59483179D01*
X139369000Y-59365600D01*
X139369000Y-57921000D01*
X139349000Y-57921000D01*
X139349000Y-57667000D01*
X139369000Y-57667000D01*
X139369000Y-56222400D01*
X139099877Y-56104821D01*
X138777946Y-56214558D01*
X138483609Y-56384992D01*
X138428000Y-56433885D01*
X138428000Y-55548608D01*
X138603609Y-55703008D01*
X138897946Y-55873442D01*
X139219877Y-55983179D01*
X139489000Y-55865600D01*
X139489000Y-54421000D01*
X139469000Y-54421000D01*
X139469000Y-54167000D01*
X139489000Y-54167000D01*
X139489000Y-52722400D01*
X139219877Y-52604821D01*
X138897946Y-52714558D01*
X138603609Y-52884992D01*
X138428000Y-53039392D01*
X138428000Y-52928901D01*
X140429200Y-50927701D01*
X140429200Y-52769652D01*
X140429200Y-52769652D01*
G37*
X140429200Y-52769652D02*
X140334054Y-52714558D01*
X140012123Y-52604821D01*
X139743000Y-52722400D01*
X139743000Y-54167000D01*
X139763000Y-54167000D01*
X139763000Y-54421000D01*
X139743000Y-54421000D01*
X139743000Y-55865600D01*
X140012123Y-55983179D01*
X140334054Y-55873442D01*
X140429200Y-55818348D01*
X140429200Y-56339137D01*
X140214054Y-56214558D01*
X139892123Y-56104821D01*
X139623000Y-56222400D01*
X139623000Y-57667000D01*
X139643000Y-57667000D01*
X139643000Y-57921000D01*
X139623000Y-57921000D01*
X139623000Y-59365600D01*
X139892123Y-59483179D01*
X140214054Y-59373442D01*
X140429201Y-59248863D01*
X140429201Y-59769652D01*
X140334054Y-59714558D01*
X140012123Y-59604821D01*
X139743000Y-59722400D01*
X139743000Y-61167000D01*
X139763000Y-61167000D01*
X139763000Y-61421000D01*
X139743000Y-61421000D01*
X139743000Y-62865600D01*
X140012123Y-62983179D01*
X140334054Y-62873442D01*
X140429201Y-62818348D01*
X140429201Y-63339137D01*
X140214054Y-63214558D01*
X139892123Y-63104821D01*
X139623000Y-63222400D01*
X139623000Y-64667000D01*
X139643000Y-64667000D01*
X139643000Y-64921000D01*
X139623000Y-64921000D01*
X139623000Y-66365600D01*
X139892123Y-66483179D01*
X140214054Y-66373442D01*
X140429201Y-66248863D01*
X140429201Y-66714797D01*
X138585703Y-68558296D01*
X138556699Y-68582099D01*
X138529205Y-68615601D01*
X138461726Y-68697824D01*
X138428000Y-68760920D01*
X138428000Y-66154115D01*
X138483609Y-66203008D01*
X138777946Y-66373442D01*
X139099877Y-66483179D01*
X139369000Y-66365600D01*
X139369000Y-64921000D01*
X139349000Y-64921000D01*
X139349000Y-64667000D01*
X139369000Y-64667000D01*
X139369000Y-63222400D01*
X139099877Y-63104821D01*
X138777946Y-63214558D01*
X138483609Y-63384992D01*
X138428000Y-63433885D01*
X138428000Y-62548608D01*
X138603609Y-62703008D01*
X138897946Y-62873442D01*
X139219877Y-62983179D01*
X139489000Y-62865600D01*
X139489000Y-61421000D01*
X139469000Y-61421000D01*
X139469000Y-61167000D01*
X139489000Y-61167000D01*
X139489000Y-59722400D01*
X139219877Y-59604821D01*
X138897946Y-59714558D01*
X138603609Y-59884992D01*
X138428000Y-60039392D01*
X138428000Y-59154115D01*
X138483609Y-59203008D01*
X138777946Y-59373442D01*
X139099877Y-59483179D01*
X139369000Y-59365600D01*
X139369000Y-57921000D01*
X139349000Y-57921000D01*
X139349000Y-57667000D01*
X139369000Y-57667000D01*
X139369000Y-56222400D01*
X139099877Y-56104821D01*
X138777946Y-56214558D01*
X138483609Y-56384992D01*
X138428000Y-56433885D01*
X138428000Y-55548608D01*
X138603609Y-55703008D01*
X138897946Y-55873442D01*
X139219877Y-55983179D01*
X139489000Y-55865600D01*
X139489000Y-54421000D01*
X139469000Y-54421000D01*
X139469000Y-54167000D01*
X139489000Y-54167000D01*
X139489000Y-52722400D01*
X139219877Y-52604821D01*
X138897946Y-52714558D01*
X138603609Y-52884992D01*
X138428000Y-53039392D01*
X138428000Y-52928901D01*
X140429200Y-50927701D01*
X140429200Y-52769652D01*
G36*
X160473748Y-54087858D02*
G01*
X160459605Y-54102000D01*
X161397584Y-55039979D01*
X161511928Y-54999479D01*
X161511928Y-55840000D01*
X160552803Y-55840000D01*
X160420676Y-55707873D01*
X160657733Y-55675074D01*
X160957367Y-55571156D01*
X161125234Y-55481429D01*
X161217979Y-55219584D01*
X160280000Y-54281605D01*
X160265858Y-54295748D01*
X160086253Y-54116143D01*
X160100395Y-54102000D01*
X160086253Y-54087858D01*
X160265858Y-53908253D01*
X160280000Y-53922395D01*
X160294143Y-53908253D01*
X160473748Y-54087858D01*
X160473748Y-54087858D01*
G37*
X160473748Y-54087858D02*
X160459605Y-54102000D01*
X161397584Y-55039979D01*
X161511928Y-54999479D01*
X161511928Y-55840000D01*
X160552803Y-55840000D01*
X160420676Y-55707873D01*
X160657733Y-55675074D01*
X160957367Y-55571156D01*
X161125234Y-55481429D01*
X161217979Y-55219584D01*
X160280000Y-54281605D01*
X160265858Y-54295748D01*
X160086253Y-54116143D01*
X160100395Y-54102000D01*
X160086253Y-54087858D01*
X160265858Y-53908253D01*
X160280000Y-53922395D01*
X160294143Y-53908253D01*
X160473748Y-54087858D01*
G36*
X151583748Y-49007858D02*
G01*
X151569605Y-49022000D01*
X152507584Y-49959979D01*
X152598816Y-49927665D01*
X152679431Y-50048315D01*
X152903685Y-50272569D01*
X153167379Y-50448763D01*
X153259932Y-50487100D01*
X152074955Y-50487100D01*
X152235234Y-50401429D01*
X152327979Y-50139584D01*
X151390000Y-49201605D01*
X150452021Y-50139584D01*
X150544766Y-50401429D01*
X150721414Y-50487100D01*
X149520068Y-50487100D01*
X149612621Y-50448763D01*
X149876315Y-50272569D01*
X150100569Y-50048315D01*
X150181184Y-49927665D01*
X150272416Y-49959979D01*
X151210395Y-49022000D01*
X151196253Y-49007858D01*
X151375858Y-48828253D01*
X151390000Y-48842395D01*
X151404143Y-48828253D01*
X151583748Y-49007858D01*
X151583748Y-49007858D01*
G37*
X151583748Y-49007858D02*
X151569605Y-49022000D01*
X152507584Y-49959979D01*
X152598816Y-49927665D01*
X152679431Y-50048315D01*
X152903685Y-50272569D01*
X153167379Y-50448763D01*
X153259932Y-50487100D01*
X152074955Y-50487100D01*
X152235234Y-50401429D01*
X152327979Y-50139584D01*
X151390000Y-49201605D01*
X150452021Y-50139584D01*
X150544766Y-50401429D01*
X150721414Y-50487100D01*
X149520068Y-50487100D01*
X149612621Y-50448763D01*
X149876315Y-50272569D01*
X150100569Y-50048315D01*
X150181184Y-49927665D01*
X150272416Y-49959979D01*
X151210395Y-49022000D01*
X151196253Y-49007858D01*
X151375858Y-48828253D01*
X151390000Y-48842395D01*
X151404143Y-48828253D01*
X151583748Y-49007858D01*
M02*
